<svg height="200px" width="200px" version="1.1" id="Layer_1" xmlns="http://www.w3.org/2000/svg" xmlns:xlink="http://www.w3.org/1999/xlink" viewBox="0 0 512 512" xml:space="preserve" fill="#000000"><g id="SVGRepo_bgCarrier" stroke-width="0"></g><g id="SVGRepo_tracerCarrier" stroke-linecap="round" stroke-linejoin="round"></g><g id="SVGRepo_iconCarrier"> <g> <path style="fill:#E6EEF4;" d="M423.724,0H88.276c-9.754,0-17.655,7.901-17.655,17.655v476.69c0,9.754,7.901,17.655,17.655,17.655 h335.448c9.754,0,17.655-7.901,17.655-17.655V17.655C441.379,7.901,433.479,0,423.724,0"></path> <g> <polygon style="fill:#D71E00;" points="256,176.552 150.069,308.966 256,441.379 361.931,308.966 "></polygon> <path style="fill:#D71E00;" d="M132.414,141.241c19.441,0,35.31-15.869,35.31-35.31V35.31c0-4.875-3.952-8.828-8.828-8.828 s-8.828,3.952-8.828,8.828v70.621c0,9.69-7.965,17.655-17.655,17.655c-9.69,0-17.655-7.965-17.655-17.655 c0-4.875-3.952-8.828-8.828-8.828c-4.875,0-8.828,3.952-8.828,8.828C97.103,125.372,112.973,141.241,132.414,141.241z"></path> <path style="fill:#D71E00;" d="M176.552,44.138c4.875,0,8.828-3.952,8.828-8.828s-3.952-8.828-8.828-8.828h-35.31 c-4.875,0-8.828,3.952-8.828,8.828s3.952,8.828,8.828,8.828H176.552z"></path> </g> </g> </g></svg>