<svg version="1.1" id="Uploaded to svgrepo.com" xmlns="http://www.w3.org/2000/svg" xmlns:xlink="http://www.w3.org/1999/xlink" viewBox="0 0 32 32" xml:space="preserve" fill="#000000"><g id="SVGRepo_bgCarrier" stroke-width="0"></g><g id="SVGRepo_tracerCarrier" stroke-linecap="round" stroke-linejoin="round"></g><g id="SVGRepo_iconCarrier"> <style type="text/css"> .puchipuchi_een{fill:#111918;} </style> <path class="puchipuchi_een" d="M31,5v2c0,0.552-0.448,1-1,1H2C1.448,8,1,7.552,1,7V5c0-1.105,0.895-2,2-2h26 C30.105,3,31,3.895,31,5z M10.646,20.353c0.195,0.195,0.512,0.195,0.707,0L12,19.707l0.646,0.646c0.195,0.195,0.512,0.195,0.707,0 c0.195-0.195,0.195-0.512,0-0.707L12.707,19l0.647-0.647c0.195-0.195,0.195-0.512,0-0.707s-0.512-0.195-0.707,0L12,18.293 l-0.646-0.646c-0.195-0.195-0.512-0.195-0.707,0c-0.195,0.195-0.195,0.512,0,0.707L11.293,19l-0.646,0.646 C10.451,19.842,10.451,20.158,10.646,20.353z M20,20c0.552,0,1-0.448,1-1c0-0.552-0.448-1-1-1s-1,0.448-1,1 C19,19.552,19.448,20,20,20z M6.646,20.354c0.195,0.195,0.512,0.195,0.707,0L8,19.707l0.646,0.646c0.195,0.195,0.512,0.195,0.707,0 c0.195-0.195,0.195-0.512,0-0.707L8.707,19l0.646-0.646c0.195-0.195,0.195-0.512,0-0.707c-0.195-0.195-0.512-0.195-0.707,0L8,18.293 l-0.646-0.646c-0.195-0.195-0.512-0.195-0.707,0c-0.195,0.195-0.195,0.512,0,0.707L7.293,19l-0.647,0.647 C6.451,19.842,6.451,20.158,6.646,20.354z M2,9h28v18c0,1.105-0.895,2-2,2H4c-1.105,0-2-0.895-2-2V9z M17,20c0,2.209,1.791,4,4,4h2 c2.209,0,4-1.791,4-4v-1.584c0-0.931-0.217-1.85-0.633-2.683l-0.981-1.962c-0.172-0.343-0.65-0.373-0.863-0.054L23,16h-2 l-1.522-2.283c-0.213-0.319-0.692-0.29-0.863,0.054l-0.981,1.962C17.217,16.566,17,17.485,17,18.416V20z M5,20c0,2.209,1.791,4,4,4 h2c2.209,0,4-1.791,4-4v-1.584c0-0.931-0.217-1.85-0.633-2.683l-0.981-1.962c-0.172-0.343-0.65-0.373-0.863-0.054L11,16H9 l-1.522-2.283c-0.213-0.319-0.692-0.29-0.863,0.054l-0.981,1.962C5.217,16.566,5,17.485,5,18.416V20z M24,20c0.552,0,1-0.448,1-1 c0-0.552-0.448-1-1-1s-1,0.448-1,1C23,19.552,23.448,20,24,20z"></path> </g></svg>