<svg version="1.1" id="Uploaded to svgrepo.com" xmlns="http://www.w3.org/2000/svg" xmlns:xlink="http://www.w3.org/1999/xlink" viewBox="0 0 32 32" xml:space="preserve" fill="#000000" transform="rotate(0)"><g id="SVGRepo_bgCarrier" stroke-width="0"></g><g id="SVGRepo_tracerCarrier" stroke-linecap="round" stroke-linejoin="round"></g><g id="SVGRepo_iconCarrier"> <style type="text/css"> .puchipuchi_een{fill:#111918;} </style> <path class="puchipuchi_een" d="M16,6v20c0,1.1-0.772,1.537-1.715,0.971l-6.57-3.942C6.772,22.463,5.1,22,4,22H3c-1.1,0-2-0.9-2-2 v-8c0-1.1,0.9-2,2-2h1c1.1,0,2.772-0.463,3.715-1.029l6.57-3.942C15.228,4.463,16,4.9,16,6z M26.828,16l2.586-2.586 c0.781-0.781,0.781-2.047,0-2.828s-2.047-0.781-2.828,0L24,13.172l-2.586-2.586c-0.781-0.781-2.047-0.781-2.828,0 s-0.781,2.047,0,2.828L21.172,16l-2.586,2.586c-0.781,0.781-0.781,2.047,0,2.828C18.977,21.805,19.488,22,20,22 s1.023-0.195,1.414-0.586L24,18.828l2.586,2.586C26.977,21.805,27.488,22,28,22s1.023-0.195,1.414-0.586 c0.781-0.781,0.781-2.047,0-2.828L26.828,16z"></path> </g></svg>