<svg version="1.1" viewBox="0 0 32 32" xmlns="http://www.w3.org/2000/svg">
 <g transform="rotate(-41.495 9.4018 18.102)">
  <path d="m23 14c-1.3 0-2.5 0.3-3.6 1h-6.8c-1.1-0.7-2.3-1-3.6-1-3.9 0-7 3.1-7 7s3.1 7 7 7c1.3 0 2.5-0.3 3.6-1h6.8c1.1 0.7 2.3 1 3.6 1 3.9 0 7-3.1 7-7s-3.1-7-7-7zm-12 8h-1v1c0 0.6-0.4 1-1 1s-1-0.4-1-1v-1h-1c-0.6 0-1-0.4-1-1s0.4-1 1-1h1v-1c0-0.6 0.4-1 1-1s1 0.4 1 1v1h1c0.6 0 1 0.4 1 1s-0.4 1-1 1zm11.1-3.4c0-0.1 0.1-0.2 0.2-0.3 0.2-0.2 0.6-0.3 0.9-0.3h0.2c0.1 0 0.1 0.1 0.2 0.1s0.1 0.1 0.2 0.1l0.2 0.1c0.2 0.2 0.3 0.4 0.3 0.7v0.2s0 0.1-0.1 0.2c0 0.1 0 0.1-0.1 0.2l-0.1 0.1s-0.1 0.1-0.2 0.1-0.1 0.1-0.2 0.1-0.1 0-0.2 0.1h-0.2c-0.3 0-0.5-0.1-0.7-0.3l-0.1-0.1s-0.1-0.1-0.1-0.2 0-0.1-0.1-0.2v-0.2c0-0.1 0-0.3 0.1-0.4zm-0.4 3.1c-0.2 0.2-0.4 0.3-0.7 0.3h-0.4c-0.1-0.1-0.2-0.1-0.3-0.2s-0.2-0.2-0.2-0.3-0.1-0.3-0.1-0.4c0-0.3 0.1-0.5 0.3-0.7 0.1-0.1 0.2-0.2 0.3-0.2 0.4-0.2 0.8-0.1 1.1 0.2 0.2 0.2 0.3 0.4 0.3 0.7 0 0.1 0 0.3-0.1 0.4s-0.1 0.2-0.2 0.3zm2.2 1.7c0 0.1-0.1 0.2-0.2 0.3l-0.2 0.1s-0.1 0.1-0.2 0.1-0.1 0-0.2 0.1h-0.2c-0.3 0-0.5-0.1-0.7-0.3-0.1-0.1-0.2-0.2-0.2-0.3v-0.6s0-0.1 0.1-0.2c0-0.1 0-0.1 0.1-0.2l0.1-0.1c0.4-0.4 1-0.4 1.4 0l0.1 0.1s0.1 0.1 0.1 0.2 0 0.1 0.1 0.2v0.2c0 0.1 0 0.3-0.1 0.4zm2.1-2.2c0 0.1 0 0.1-0.1 0.2s0 0.1-0.1 0.2l-0.1 0.1c-0.1 0.1-0.2 0.2-0.3 0.2-0.1 0.1-0.3 0.1-0.4 0.1h-0.2c-0.1 0-0.1 0-0.2-0.1s-0.1-0.1-0.2-0.1l-0.1-0.1c-0.2-0.2-0.3-0.4-0.3-0.7s0.1-0.5 0.3-0.7c0.3-0.3 0.7-0.4 1.1-0.2 0.1 0.1 0.2 0.1 0.3 0.2l0.1 0.1s0.1 0.1 0.1 0.2 0 0.1 0.1 0.2v0.2z"/>
 </g>
</svg>
