<svg version="1.1" viewBox="0 0 32 32" xmlns="http://www.w3.org/2000/svg">
 <path d="m15.982 1.2482c-1.0453 0.58931-1.8562 1.3908-2.3836 2.4917l-3.8329 2.1608c-1.2149-0.11868-2.3204 0.16019-3.3657 0.7495-2.8747 1.6206-3.9007 5.2985-2.2801 8.1732 1.6206 2.8747 5.2985 3.9007 8.1732 2.2801 1.0453-0.58931 1.8562-1.3908 2.3836-2.4917l3.8329-2.1608c1.2149 0.11868 2.3204-0.16019 3.3657-0.7495 2.8747-1.6206 3.9007-5.2985 2.2801-8.1732-1.6206-2.8747-5.2985-3.9007-8.1732-2.2801zm-4.4023 10.518-0.87111 0.49109 0.49109 0.87111c0.29466 0.52266 0.14265 1.0675-0.38001 1.3622s-1.0675 0.14265-1.3622-0.38001l-0.49109-0.87111-0.87111 0.49109c-0.52266 0.29466-1.0675 0.14265-1.3622-0.38001s-0.14265-1.0675 0.38001-1.3622l0.87111-0.49109-0.49109-0.87111c-0.29466-0.52266-0.14265-1.0675 0.38001-1.3622s1.0675-0.14265 1.3622 0.38001l0.49109 0.87111 0.87111-0.49109c0.52266-0.29466 1.0675-0.14265 1.3622 0.38001 0.29466 0.52266 0.14265 1.0675-0.38001 1.3622zm7.9224-3.6627c-0.038 0.13622-0.076 0.27244-0.16311 0.32155-0.08711 0.04911-0.21222 0.23444-0.29933 0.28355-0.26133 0.14733-0.48466 0.15844-0.7571 0.08243-0.27244-0.076-0.45777-0.20112-0.6051-0.46245-0.04911-0.087111-0.14733-0.26133-0.10933-0.39755 0.038-0.13622-0.01111-0.22333 0.02689-0.35955s0.076-0.27244 0.16311-0.32155c0.12511-0.18533 0.29933-0.28355 0.47356-0.38177 0.08711-0.049109 0.08711-0.049109 0.22333-0.011108 0.08711-0.049109 0.08711-0.049109 0.22333-0.011108 0.08711-0.049109 0.13622 0.038001 0.22333-0.011108 0.13622 0.038001 0.27244 0.076003 0.32155 0.16311 0.04911 0.087111 0.14733 0.26133 0.19644 0.34844 0.14733 0.26133 0.15844 0.48466 0.08243 0.7571zm0.78692-3.084c-0.038 0.13622 0.01111 0.22333-0.02689 0.35955-0.076 0.27244-0.20111 0.45777-0.46245 0.6051-0.26133 0.14733-0.48466 0.15844-0.7571 0.082433-0.27244-0.076003-0.45777-0.20111-0.6051-0.46245s-0.15844-0.48466-0.08243-0.7571c0 0 0.038-0.13622 0.12511-0.18533 0.08711-0.049109 0.038-0.13622 0.12511-0.18533 0.08711-0.049109 0.08711-0.049109 0.12511-0.18533 0.17422-0.098219 0.34844-0.19644 0.57177-0.20755 0.08711-0.049109 0.22333-0.011108 0.35955 0.026893l0.13622 0.038001c0.04911 0.087111 0.13622 0.038001 0.18533 0.12511 0.04911 0.087111 0.04911 0.087111 0.18533 0.12511 0.04911 0.087111 0.04911 0.087111 0.09822 0.17422-0.038 0.13622 0.06022 0.31044 0.02222 0.44666z"/>
 <path d="m18.416 14.836c-1.0239 0.62578-1.8061 1.4554-2.2943 2.5742l-3.7543 2.2945c-1.2183-0.0758-2.3133 0.24186-3.3372 0.86764-2.8158 1.7209-3.7116 5.4327-1.9907 8.2485 1.7209 2.8158 5.4327 3.7116 8.2485 1.9907 1.0239-0.62578 1.8061-1.4554 2.2943-2.5742l3.7543-2.2945c1.2183 0.0758 2.3133-0.24186 3.3372-0.86764 2.8158-1.7209 3.7116-5.4327 1.9907-8.2485s-5.4327-3.7116-8.2485-1.9907zm-4.029 10.666-0.85326 0.52148 0.52148 0.85326c0.31289 0.51196 0.18018 1.0619-0.33178 1.3747-0.51196 0.31289-1.0619 0.18018-1.3747-0.33178l-0.52148-0.85326-0.85326 0.52148c-0.51196 0.31289-1.0619 0.18018-1.3747-0.33178-0.31289-0.51196-0.18018-1.0619 0.33178-1.3747l0.85326-0.52148-0.52148-0.85326c-0.31289-0.51196-0.18018-1.0619 0.33178-1.3747 0.51196-0.31289 1.0619-0.18018 1.3747 0.33178l0.52148 0.85326 0.85326-0.52148c0.51196-0.31289 1.0619-0.18018 1.3747 0.33178 0.31289 0.51196 0.18018 1.0619-0.33178 1.3747zm7.8026-4.2999c-0.03318 0.13748 0.01897 0.2228-0.01421 0.36028-0.03318 0.13748-0.06636 0.27495-0.15168 0.3271-0.08533 0.05215-0.20383 0.24177-0.28916 0.29392-0.25598 0.15644-0.47878 0.17542-0.75373 0.10906-0.13747-0.03318-0.27495-0.06636-0.3271-0.15168-0.13748-0.03318-0.24177-0.20383-0.29392-0.28916-0.05215-0.08533-0.15644-0.25598-0.12327-0.39345 0.03318-0.13748-0.01897-0.2228 0.01421-0.36028 0.03318-0.13748 0.06635-0.27495 0.15168-0.3271 0.1185-0.18962 0.37448-0.34607 0.68261-0.41719 0.08533-0.05215 0.2228-0.01897 0.36028 0.01421 0.13747 0.03318 0.27495 0.06635 0.3271 0.15168 0.05215 0.08533 0.24177 0.20383 0.29392 0.28916 0.05215 0.08533 0.15645 0.25598 0.12327 0.39345zm0.66355-2.7495c-0.03318 0.13748 0.01897 0.2228-0.01421 0.36028-0.03318 0.13747-0.06636 0.27495-0.15168 0.3271-0.08533 0.05215-0.20383 0.24177-0.28916 0.29392-0.08533 0.05215-0.25598 0.15644-0.39345 0.12327-0.08533 0.05215-0.2228 0.01897-0.36028-0.01421-0.13748-0.03318-0.27495-0.06635-0.3271-0.15168-0.05215-0.08533-0.24177-0.20383-0.29392-0.28916-0.05215-0.08533-0.15644-0.25598-0.12327-0.39345 0.03318-0.13747-0.01897-0.2228 0.01421-0.36028 0.03318-0.13747 0.06636-0.27495 0.15168-0.3271 0.23701-0.37925 0.63046-0.50251 1.0429-0.40298 0.13748 0.03318 0.27495 0.06636 0.3271 0.15168 0.05215 0.08533 0.24177 0.20383 0.29392 0.28916 0.05215 0.08533 0.15644 0.25598 0.12327 0.39345z"/>
</svg>
