<svg version="1.1" id="Uploaded to svgrepo.com" xmlns="http://www.w3.org/2000/svg" xmlns:xlink="http://www.w3.org/1999/xlink" viewBox="0 0 32 32" xml:space="preserve" fill="#000000"><g id="SVGRepo_bgCarrier" stroke-width="0"></g><g id="SVGRepo_tracerCarrier" stroke-linecap="round" stroke-linejoin="round"></g><g id="SVGRepo_iconCarrier"> <style type="text/css"> .puchipuchi_een{fill:#111918;} </style> <path class="puchipuchi_een" d="M5,17H2c-0.552,0-1-0.448-1-1s0.448-1,1-1h3c0.552,0,1,0.448,1,1S5.552,17,5,17z M7.515,8.929 c0.391,0.391,1.024,0.391,1.414,0c0.391-0.391,0.391-1.024,0-1.414L6.808,5.393c-0.391-0.391-1.024-0.391-1.414,0 c-0.391,0.391-0.391,1.024,0,1.414L7.515,8.929z M24.485,8.929l2.121-2.121c0.391-0.391,0.391-1.024,0-1.414 c-0.391-0.391-1.024-0.391-1.414,0l-2.121,2.121c-0.391,0.391-0.391,1.024,0,1.414C23.462,9.319,24.095,9.319,24.485,8.929z M16,6 c0.552,0,1-0.448,1-1V2c0-0.552-0.448-1-1-1s-1,0.448-1,1v3C15,5.552,15.448,6,16,6z M16,8c-4.418,0-8,3.582-8,8s3.582,8,8,8 s8-3.582,8-8S20.418,8,16,8z M24.485,23.071c-0.391-0.391-1.024-0.391-1.414,0c-0.391,0.391-0.391,1.024,0,1.414l2.121,2.121 c0.391,0.391,1.024,0.391,1.414,0c0.391-0.391,0.39-1.024,0-1.414L24.485,23.071z M30,15h-3c-0.552,0-1,0.448-1,1s0.448,1,1,1h3 c0.552,0,1-0.448,1-1S30.552,15,30,15z M16,26c-0.552,0-1,0.448-1,1v3c0,0.552,0.448,1,1,1s1-0.448,1-1v-3 C17,26.448,16.552,26,16,26z M7.515,23.071l-2.121,2.121c-0.391,0.391-0.391,1.024,0,1.414c0.391,0.391,1.024,0.391,1.414,0 l2.121-2.121c0.391-0.39,0.391-1.024,0-1.414C8.538,22.68,7.905,22.681,7.515,23.071z"></path> </g></svg>