<svg height="200px" width="200px" version="1.1" id="Layer_1" xmlns="http://www.w3.org/2000/svg" xmlns:xlink="http://www.w3.org/1999/xlink" viewBox="0 0 512 512" xml:space="preserve" fill="#000000"><g id="SVGRepo_bgCarrier" stroke-width="0"></g><g id="SVGRepo_tracerCarrier" stroke-linecap="round" stroke-linejoin="round"></g><g id="SVGRepo_iconCarrier"> <circle style="fill:#FDDF6D;" cx="225.798" cy="255.997" r="216.971"></circle> <g> <path style="fill:#F9A880;" d="M162.759,228.578c-16.113,0-29.175,13.062-29.175,29.175h58.351 C191.935,241.64,178.873,228.578,162.759,228.578z"></path> <path style="fill:#F9A880;" d="M370.17,228.578c-16.113,0-29.175,13.062-29.175,29.175h58.351 C399.345,241.64,386.283,228.578,370.17,228.578z"></path> </g> <path style="fill:#FCC56B;" d="M272.293,440.939c-119.829,0-216.97-97.14-216.97-216.97c0-64.02,27.733-121.556,71.835-161.27 C56.914,98.615,8.827,171.692,8.827,256c0,119.829,97.14,216.97,216.97,216.97c55.809,0,106.691-21.078,145.135-55.699 C341.338,432.403,307.812,440.939,272.293,440.939z"></path> <g> <path style="fill:#7F184C;" d="M367.325,203.365c-3.099,0-6.105-1.635-7.719-4.533c-5.664-10.167-16.402-16.482-28.024-16.482 c-11.335,0-22.218,6.408-28.403,16.725c-2.508,4.18-7.928,5.537-12.109,3.032c-4.181-2.507-5.538-7.928-3.032-12.109 c9.356-15.607,26.041-25.302,43.544-25.302c18.022,0,34.669,9.788,43.445,25.544c2.373,4.259,0.844,9.635-3.415,12.007 C370.253,203.005,368.779,203.365,367.325,203.365z"></path> <path style="fill:#7F184C;" d="M212.009,203.365c-3.099,0-6.105-1.635-7.719-4.533c-5.664-10.167-16.402-16.482-28.024-16.482 c-11.335,0-22.218,6.408-28.403,16.725c-2.508,4.18-7.929,5.537-12.109,3.032c-4.181-2.507-5.538-7.928-3.032-12.109 c9.356-15.607,26.041-25.302,43.544-25.302c18.022,0,34.669,9.788,43.445,25.544c2.373,4.259,0.844,9.635-3.415,12.007 C214.936,203.005,213.461,203.365,212.009,203.365z"></path> </g> <path style="fill:#FD4DD7;" d="M488.792,300.645c-12.26-8.429-27.776-7.55-38.823,0.568c-0.979,0.719-2.288,0.798-3.339,0.189l0,0 c-1.052-0.608-1.637-1.781-1.502-2.988c1.522-13.613-5.447-27.487-18.847-33.912c-14.814-7.103-32.9-2.171-42.074,11.457 c-5.617,8.345-6.958,18.158-4.678,27.035l0,0l14.369,64.693c2.151,9.686,12.135,15.453,21.601,12.475l61.994-19.497 c9.413-2.233,17.843-8.51,22.454-18.099C507.018,327.855,502.241,309.893,488.792,300.645z"></path> <path d="M359.607,198.833c1.615,2.899,4.62,4.533,7.719,4.533c1.452,0,2.927-0.36,4.287-1.117c4.259-2.373,5.788-7.747,3.415-12.007 c-8.776-15.756-25.424-25.544-43.445-25.544c-17.503,0-34.187,9.694-43.544,25.301c-2.507,4.18-1.15,9.602,3.032,12.109 c4.181,2.506,9.601,1.15,12.109-3.032c6.185-10.317,17.068-16.725,28.403-16.725C343.206,182.351,353.944,188.666,359.607,198.833z"></path> <path d="M176.266,164.698c-17.503,0-34.187,9.694-43.544,25.301c-2.507,4.18-1.15,9.602,3.032,12.109 c4.18,2.506,9.601,1.15,12.109-3.032c6.185-10.317,17.068-16.725,28.403-16.725c11.623,0,22.361,6.315,28.024,16.481 c1.615,2.899,4.62,4.533,7.719,4.533c1.452,0,2.927-0.36,4.287-1.117c4.259-2.373,5.788-7.747,3.415-12.007 C210.935,174.486,194.288,164.698,176.266,164.698z"></path> <path d="M338.775,328.022c10.181-7.544,13.441-22.31,7.486-33.474c-5.576-10.453-16.942-14.703-28.235-12.9 c-13.558,2.165-27.185,4.819-40.619,7.649c-2.51,0.528-4.835,0.864-6.811,2.816c-4.377,4.325-2.92,11.958,2.713,14.386 c4.586,1.977,11.849-0.699,16.433-1.562c8.251-1.553,16.504-3.108,24.755-4.662c5.602-1.054,13.964-3.77,16.645,3.538 c2.826,7.702-4.915,11.228-10.131,14.412c-5.311,3.244-11.276,6.133-16.226,9.908c-4.976,3.797-5.83,10.946-0.353,14.839 c2.218,1.577,5.217,2.44,7.674,3.512c5.66,2.47,18.536,5.583,19.333,12.672c1.018,9.048-7.265,8.796-13.218,8.381 c-8.33-0.581-16.66-1.163-24.991-1.744c-4.677-0.326-11.518-2.018-16.153-0.427c-5.803,1.991-7.847,9.486-3.8,14.139 c2.073,2.383,4.803,2.849,7.716,3.131c14.263,1.376,29.226,3.138,43.552,3.04c12.267-0.084,22.765-10.12,24.408-22.08 c0.916-6.668-0.857-13.559-4.886-18.95c-4.179-5.591-9.613-7.419-15.606-10.284C331.875,332.277,335.559,330.4,338.775,328.022 C345.299,323.189,338.565,328.178,338.775,328.022z"></path> <path d="M493.792,293.371c-11.943-8.211-27.028-9.629-40.015-4.333c-1.888-13.88-10.628-26.238-23.68-32.495 c-18.73-8.982-41.608-2.754-53.213,14.486c-6.722,9.986-8.885,22.375-5.943,34.011l14.339,64.56 c1.013,4.565,3.262,8.731,6.419,12.081c-39.293,51.784-100.661,82.462-165.902,82.462c-114.77,0-208.143-93.373-208.143-208.143 S111.026,47.857,225.796,47.857c47.783,0,94.455,16.594,131.417,46.725c36.453,29.715,62.007,71.23,71.956,116.898 c1.038,4.762,5.736,7.784,10.504,6.745c4.763-1.038,7.783-5.74,6.745-10.504c-10.796-49.554-38.515-94.595-78.05-126.823 c-40.104-32.692-90.737-50.696-142.572-50.696C101.291,30.204,0,131.495,0,256s101.291,225.796,225.796,225.796 c71.916,0,139.505-34.351,182.021-92.178c0.869,0.088,1.741,0.146,2.616,0.146c2.594,0,5.196-0.391,7.711-1.182l61.71-19.408 c12.318-3.025,22.528-11.312,28.045-22.783C516.824,327.831,510.76,305.038,493.792,293.371z M491.991,338.739 c-3.248,6.753-9.276,11.615-16.538,13.338c-0.206,0.049-0.41,0.105-0.611,0.168l-61.995,19.497c-2.193,0.687-4.492,0.435-6.48-0.712 c-1.988-1.149-3.358-3.016-3.855-5.257l-14.367-64.692c-0.021-0.094-0.042-0.188-0.067-0.281 c-1.772-6.902-0.547-13.973,3.451-19.911c4.668-6.934,12.47-10.805,20.44-10.805c3.553,0,7.139,0.768,10.497,2.378 c9.47,4.54,15.052,14.577,13.89,24.976c-0.521,4.691,1.777,9.247,5.857,11.606c4.079,2.357,9.177,2.078,12.985-0.719 c8.439-6.202,19.931-6.366,28.595-0.407C493.654,314.699,497.178,327.951,491.991,338.739z"></path> <circle cx="441.862" cy="240.038" r="8.827"></circle> </g></svg>