<svg height="200px" width="200px" version="1.1" id="Layer_1" xmlns="http://www.w3.org/2000/svg" xmlns:xlink="http://www.w3.org/1999/xlink" viewBox="0 0 512 512" xml:space="preserve" fill="#000000"><g id="SVGRepo_bgCarrier" stroke-width="0"></g><g id="SVGRepo_tracerCarrier" stroke-linecap="round" stroke-linejoin="round"></g><g id="SVGRepo_iconCarrier"> <circle style="fill:#3FA9F5;" cx="256.001" cy="256.001" r="245.994"></circle> <path style="fill:#1E96EC;" d="M308.716,465.678c-135.858,0-245.993-110.134-245.993-245.993 c0-72.584,31.443-137.816,81.444-182.842C64.527,77.562,10.007,160.414,10.007,256c0,135.858,110.134,245.993,245.993,245.993 c63.274,0,120.962-23.898,164.549-63.149C386.998,455.999,348.987,465.678,308.716,465.678z"></path> <g> <circle style="fill:#FFFFFF;" cx="213.157" cy="179.852" r="71.359"></circle> <circle style="fill:#FFFFFF;" cx="413.277" cy="179.852" r="71.359"></circle> </g> <g> <circle style="fill:#224275;" cx="225.165" cy="179.852" r="20.015"></circle> <circle style="fill:#224275;" cx="428.234" cy="179.852" r="20.015"></circle> <path style="fill:#224275;" d="M380.86,387.243c-3.513,0-6.921-1.852-8.752-5.14c-12.23-21.953-35.421-35.593-60.522-35.593 c-24.451,0-47.881,13.745-61.146,35.869c-2.841,4.74-8.988,6.277-13.729,3.437c-4.741-2.842-6.279-8.988-3.437-13.729 c16.86-28.122,46.868-45.592,78.312-45.592c32.356,0,62.246,17.576,78.007,45.868c2.69,4.828,0.957,10.923-3.872,13.611 C384.178,386.835,382.506,387.243,380.86,387.243z"></path> </g> <path d="M294.53,179.856c0-44.866-36.501-81.366-81.366-81.366s-81.366,36.5-81.366,81.366c0,44.865,36.5,81.365,81.366,81.365 S294.53,224.721,294.53,179.856z M213.163,241.206c-33.83,0-61.352-27.522-61.352-61.35s27.522-61.352,61.352-61.352 s61.352,27.523,61.352,61.352S246.992,241.206,213.163,241.206z"></path> <path d="M236.711,385.817c4.741,2.839,10.888,1.302,13.729-3.437c13.264-22.124,36.694-35.869,61.146-35.869 c25.101,0,48.291,13.639,60.522,35.593c1.831,3.288,5.238,5.14,8.752,5.14c1.648,0,3.318-0.408,4.861-1.266 c4.829-2.69,6.562-8.784,3.872-13.611c-15.761-28.293-45.651-45.868-78.007-45.868c-31.443,0-61.452,17.47-78.312,45.592 C230.432,376.829,231.97,382.976,236.711,385.817z"></path> <path d="M487.659,146.936c-0.781-1.757-1.615-3.484-2.514-5.173c-0.131-0.263-0.252-0.528-0.384-0.79 c-0.205-0.407-0.443-0.786-0.693-1.153c-13.997-24.653-40.475-41.332-70.793-41.332c-44.866,0-81.366,36.5-81.366,81.366 c0,44.865,36.5,81.365,81.366,81.365c33.39,0,62.134-20.223,74.66-49.059c2.678,14.313,4.048,28.943,4.048,43.838 c0,130.124-105.862,235.984-235.985,235.984S20.015,386.124,20.015,256S125.876,20.015,256,20.015 c41.708,0,82.694,11.024,118.528,31.881c4.774,2.778,10.903,1.162,13.682-3.616c2.779-4.777,1.162-10.903-3.615-13.683 C345.709,11.963,301.24,0,256,0C114.84,0,0,114.84,0,256c0,141.158,114.84,256,256,256s256-114.84,256-255.999 C512,217.779,503.807,181.125,487.659,146.936z M474.627,179.856c0,33.83-27.522,61.35-61.352,61.35s-61.352-27.522-61.352-61.35 s27.522-61.352,61.352-61.352c23.234,0,43.493,12.984,53.904,32.077c0.833,1.663,1.643,3.333,2.434,5.008 C472.834,163.037,474.627,171.239,474.627,179.856z"></path> <circle cx="410.542" cy="65.475" r="10.007"></circle> </g></svg>