<svg height="200px" width="200px" version="1.1" id="Layer_1" xmlns="http://www.w3.org/2000/svg" xmlns:xlink="http://www.w3.org/1999/xlink" viewBox="0 0 511.999 511.999" xml:space="preserve" fill="#000000"><g id="SVGRepo_bgCarrier" stroke-width="0"></g><g id="SVGRepo_tracerCarrier" stroke-linecap="round" stroke-linejoin="round"></g><g id="SVGRepo_iconCarrier"> <circle style="fill:#FDDF6D;" cx="255.635" cy="237.195" r="227.555"></circle> <path style="fill:#FCC56B;" d="M304.394,431.155c-125.675,0-227.554-101.879-227.554-227.554 c0-67.143,29.086-127.486,75.339-169.137C78.509,72.132,28.076,148.774,28.076,237.195c0,125.675,101.879,227.554,227.554,227.554 c58.532,0,111.895-22.106,152.215-58.416C376.808,422.202,341.647,431.155,304.394,431.155z"></path> <g> <path style="fill:#F9A880;" d="M157.841,224.737c-16.899,0-30.599,13.699-30.599,30.598h61.198 C188.44,238.437,174.74,224.737,157.841,224.737z"></path> <path style="fill:#F9A880;" d="M424.741,224.737c-16.899,0-30.598,13.699-30.598,30.598h61.198 C455.34,238.437,441.641,224.737,424.741,224.737z"></path> </g> <path style="fill:#7F184C;" d="M299.832,395.461L299.832,395.461c-50.87,0-92.109-41.239-92.109-92.109l0,0h184.219l0,0 C391.943,354.222,350.704,395.461,299.832,395.461z"></path> <path style="fill:#F2F2F2;" d="M230.197,303.352v14.378c0,6.063,4.915,10.977,10.977,10.977H358.49 c6.063,0,10.977-4.915,10.977-10.977v-14.378H230.197z"></path> <path style="fill:#FC4C59;" d="M327.173,349.407h-64.724v0.107c-12.5,0.6-24.681,3.989-35.616,9.845 c6.68,8.707,14.879,16.184,24.202,22.038c7.1,4.46,11.415,12.248,11.415,20.633v49.024c0,28.547,23.142,51.687,51.687,51.687l0,0 c28.547,0,51.687-23.142,51.687-51.687v-62.996C365.825,366.712,348.52,349.407,327.173,349.407z"></path> <path style="fill:#BC3B4A;" d="M313.935,481.977c-5.114,0-9.257-4.144-9.257-9.257v-87.961c0-1.029-2.413-3.551-4.61-4.817 c-4.474-2.476-6.06-8.091-3.584-12.564c2.476-4.474,8.143-6.073,12.616-3.599c1.443,0.799,14.094,8.17,14.094,20.981v87.961 C323.193,477.833,319.049,481.977,313.935,481.977z"></path> <g> <circle style="fill:#FFFFFF;" cx="221.654" cy="166.754" r="27.772"></circle> <circle style="fill:#FFFFFF;" cx="378.003" cy="166.754" r="27.772"></circle> </g> <path d="M255.999,0C125.421,0,19.188,106.232,19.188,236.811c0,130.578,106.232,236.81,236.811,236.81 c0.512,0,1.026-0.01,1.538-0.014c8.986,22.469,30.962,38.392,56.6,38.392c33.606,0,60.946-27.34,60.946-60.945v-62.996 c0-5.025-0.781-9.868-2.223-14.423c18.079-18.807,28.339-44.072,28.339-70.285c0-5.114-4.144-9.257-9.257-9.257H207.723 c-5.112,0-9.257,4.144-9.257,9.257c0,34.181,17.057,65.839,45.628,84.679c0.207,0.137,0.427,0.239,0.641,0.358 c5.306,3.795,8.457,9.958,8.457,16.646v46.021c0,1.352,0.06,2.688,0.147,4.019c-119.147-1.432-215.638-98.782-215.638-218.262 C37.702,116.442,135.63,18.514,255.999,18.514s218.297,97.928,218.297,218.297c0,54.313-20.073,106.366-56.521,146.569 c-3.434,3.787-3.147,9.642,0.642,13.076c3.786,3.434,9.642,3.146,13.076-0.642c39.542-43.616,61.319-100.085,61.319-159.003 C492.81,106.232,386.578,0,255.999,0z M356.569,451.055c0,23.396-19.035,42.43-42.431,42.43c-19.292,0-35.608-12.948-40.742-30.606 c-0.1-0.691-0.281-1.352-0.525-1.982c-0.754-3.161-1.165-6.453-1.165-9.841v-46.021c0-13.175-6.492-25.33-17.367-32.519 c-4.363-2.885-8.424-6.154-12.149-9.777c6.671-2.287,13.675-3.641,20.702-3.979c0.325-0.016,0.643-0.048,0.957-0.096h63.323 c16.209,0,29.395,13.187,29.395,29.395v62.996H356.569z M382.162,312.609c-1.832,16.187-8.43,31.531-18.886,44.008 c-8.789-10.079-21.71-16.468-36.103-16.468h-64.724c-0.65,0-1.285,0.069-1.897,0.199c-10.535,0.674-20.983,3.203-30.704,7.344 c-6.666-10.515-10.947-22.474-12.353-35.084h164.668V312.609z"></path> <path d="M221.656,129.73c-20.418,0-37.029,16.611-37.029,37.029s16.611,37.029,37.029,37.029s37.029-16.611,37.029-37.029 S242.073,129.73,221.656,129.73z M221.656,185.273c-10.209,0-18.514-8.306-18.514-18.514s8.306-18.514,18.514-18.514 s18.514,8.306,18.514,18.514S231.865,185.273,221.656,185.273z"></path> <path d="M378.01,129.73c-20.418,0-37.029,16.611-37.029,37.029s16.611,37.029,37.029,37.029c20.418,0,37.029-16.611,37.029-37.029 S398.428,129.73,378.01,129.73z M378.01,185.273c-10.209,0-18.514-8.306-18.514-18.514s8.306-18.514,18.514-18.514 c10.209,0,18.514,8.306,18.514,18.514S388.219,185.273,378.01,185.273z"></path> <circle cx="402.899" cy="410.219" r="9.257"></circle> </g></svg>