<svg xmlns="http://www.w3.org/2000/svg" version="1.1" xmlns:xlink="http://www.w3.org/1999/xlink" xmlns:svgjs="http://svgjs.dev/svgjs" width="1440" height="560" preserveAspectRatio="none" viewBox="0 0 1440 560">
    <g clip-path="url(&quot;#SvgjsClipPath1000&quot;)" fill="none">
        <rect width="1440" height="560" x="0" y="0" fill="#0e2a47"></rect>
        <path d="M1254.47 109.41C1278.24 112.02 1305.45 110.46 1321.41 92.65 1337 75.25 1329.27 49.07 1329.47 25.71 1329.67 1.99 1338.65-24.95 1322.56-42.38 1306.26-60.04 1278.5-55.94 1254.47-55.54 1231.03-55.15 1205.86-56.02 1188.58-40.18 1170.78-23.86 1163.42 1.68 1165.87 25.71 1168.12 47.79 1184.65 64.16 1200.78 79.4 1216.27 94.03 1233.29 107.08 1254.47 109.41" fill="#ff9500" stroke="none"></path>
        <path d="M1270.47 94.41C1294.24 97.02 1321.45 95.46 1337.41 77.65 1353 60.25 1345.27 34.07 1345.47 10.71 1345.67-13.01 1354.65-39.95 1338.56-57.38 1322.26-75.04 1294.5-70.94 1270.47-70.54 1247.03-70.15 1221.86-71.02 1204.58-55.18 1186.78-38.86 1179.42-13.32 1181.87 10.71 1184.12 32.79 1200.65 49.16 1216.78 64.4 1232.27 79.03 1249.29 92.08 1270.47 94.41" fill="none" stroke-width="2" stroke="#b36800"></path>
        <path d="M641.84 325.93C672.04 326.23 700.3 310.52 720.24 287.84 739 266.5 745.28 237.83 744.25 209.44 743.26 182.21 732.8 156.95 714.73 136.55 695.32 114.64 671.09 92.91 641.84 93.86 613.08 94.8 593.76 120.66 573.54 141.14 553.53 161.42 529.46 181 527.78 209.44 526.04 238.98 544.27 265.17 564.97 286.31 585.94 307.72 611.87 325.63 641.84 325.93" fill="#ff9500" stroke="none"></path>
        <path d="M657.84 331.93C688.04 332.23 716.3 316.52 736.24 293.84 755 272.5 761.28 243.83 760.25 215.44 759.26 188.21 748.8 162.95 730.73 142.55 711.32 120.64 687.09 98.91 657.84 99.86 629.08 100.8 609.76 126.66 589.54 147.14 569.53 167.42 545.46 187 543.78 215.44 542.04 244.98 560.27 271.17 580.97 292.31 601.94 313.72 627.87 331.63 657.84 331.93" fill="none" stroke-width="2" stroke="#b36800"></path>
        <path d="M547.51 609.77C570.49 610.28 593.28 604.31 610.59 589.18 629.12 572.99 642.64 550.7 643.25 526.1 643.87 500.97 631.99 477.16 613.8 459.81 596.03 442.87 572.06 434.7 547.51 434.8 523.07 434.9 498.92 442.95 481.77 460.36 464.74 477.65 456.55 501.85 457.59 526.1 458.59 549.36 470.15 570.56 487.19 586.42 503.6 601.69 525.11 609.27 547.51 609.77" fill="#fd3f3f" stroke="none"></path>
        <path d="M540.51 596.77C563.49 597.28 586.28 591.31 603.59 576.18 622.12 559.99 635.64 537.7 636.25 513.1 636.87 487.97 624.99 464.16 606.8 446.81 589.03 429.87 565.06 421.7 540.51 421.8 516.07 421.9 491.92 429.95 474.77 447.36 457.74 464.65 449.55 488.85 450.59 513.1 451.59 536.36 463.15 557.56 480.19 573.42 496.6 588.69 518.11 596.27 540.51 596.77" fill="none" stroke-width="2" stroke="#db0202"></path>
        <path d="M304.52 385.39C332.48 385.98 357.86 369.79 376.59 349.02 394.34 329.33 402.91 303.45 402.3 276.95 401.7 251.09 391.38 226.67 373.32 208.15 355.02 189.38 330.74 176.56 304.52 176.64 278.37 176.72 254.59 190.04 236.12 208.55 217.66 227.04 204.54 250.82 204.41 276.95 204.28 303.2 217.61 326.76 235.42 346.05 254.11 366.29 276.98 384.81 304.52 385.39" fill="#488fdb" stroke="none"></path>
        <path d="M320.52 400.39C348.48 400.98 373.86 384.79 392.59 364.02 410.34 344.33 418.91 318.45 418.3 291.95 417.7 266.09 407.38 241.67 389.32 223.15 371.02 204.38 346.74 191.56 320.52 191.64 294.37 191.72 270.59 205.04 252.12 223.55 233.66 242.04 220.54 265.82 220.41 291.95 220.28 318.2 233.61 341.76 251.42 361.05 270.11 381.29 292.98 399.81 320.52 400.39" fill="none" stroke-width="2" stroke="#2164aa"></path>
        <path d="M1105.6 501.44C1128.92 502.18 1144.43 479.26 1160.23 462.09 1175.07 445.97 1191.11 429.35 1192.07 407.46 1193.06 384.82 1182.4 362.62 1165.24 347.82 1149.11 333.91 1126.9 333.12 1105.6 332.9 1083.97 332.68 1061.65 333.12 1044.71 346.57 1025.91 361.49 1009.64 383.55 1011.69 407.46 1013.66 430.49 1037.99 442.39 1054.32 458.74 1070.66 475.1 1082.49 500.71 1105.6 501.44" fill="#ff9500" stroke="none"></path>
        <path d="M1117.6 487.44C1140.92 488.18 1156.43 465.26 1172.23 448.09 1187.07 431.97 1203.11 415.35 1204.07 393.46 1205.06 370.82 1194.4 348.62 1177.24 333.82 1161.11 319.91 1138.9 319.12 1117.6 318.9 1095.97 318.68 1073.65 319.12 1056.71 332.57 1037.91 347.49 1021.64 369.55 1023.69 393.46 1025.66 416.49 1049.99 428.39 1066.32 444.74 1082.66 461.1 1094.49 486.71 1117.6 487.44" fill="none" stroke-width="2" stroke="#b36800"></path>
        <path d="M882.23 71.34C892.66 71.6 902.09 65.66 909.24 58.06 916.16 50.71 920.3 41.14 920.14 31.05 919.98 21.11 915.04 12.28 908.4 4.88 901.29-3.04 892.86-10.82 882.23-11.18 871.36-11.54 861.86-4.7 854.24 3.06 846.7 10.74 840.31 20.3 840.77 31.05 841.22 41.49 849.04 49.46 856.54 56.74 863.88 63.88 871.99 71.08 882.23 71.34" fill="#2774c6" stroke="none"></path>
        <path d="M896.23 80.34C906.66 80.6 916.09 74.66 923.24 67.06 930.16 59.71 934.3 50.14 934.14 40.05 933.98 30.11 929.04 21.28 922.4 13.88 915.29 5.96 906.86-1.82 896.23-2.18 885.36-2.54 875.86 4.3 868.24 12.06 860.7 19.74 854.31 29.3 854.77 40.05 855.22 50.49 863.04 58.46 870.54 65.74 877.88 72.88 885.99 80.08 896.23 80.34" fill="none" stroke-width="2" stroke="#1b518b"></path>
        <path d="M357.75 543.75C373.47 544.49 389.48 540.51 400.95 529.74 412.75 518.66 418.76 502.72 418.68 486.54 418.6 470.44 412.42 454.62 400.53 443.76 389.1 433.32 373.23 430.58 357.75 430.88 342.63 431.17 328.35 435.87 316.61 445.4 303.3 456.2 288.78 469.4 289.17 486.54 289.55 503.52 305.38 514.99 318.42 525.87 329.91 535.46 342.8 543.05 357.75 543.75" fill="#488fdb" stroke="none"></path>
        <path d="M338.75 558.75C354.47 559.49 370.48 555.51 381.95 544.74 393.75 533.66 399.76 517.72 399.68 501.54 399.6 485.44 393.42 469.62 381.53 458.76 370.1 448.32 354.23 445.58 338.75 445.88 323.63 446.17 309.35 450.87 297.61 460.4 284.3 471.2 269.78 484.4 270.17 501.54 270.55 518.52 286.38 529.99 299.42 540.87 310.91 550.46 323.8 558.05 338.75 558.75" fill="none" stroke-width="2" stroke="#2164aa"></path>
        <path d="M963.46 353.97C976.02 353.56 986.9 345.87 995.22 336.45 1002.99 327.65 1005.75 316.37 1006.97 304.69 1008.39 291.1 1011.94 275.52 1002.64 265.51 993.23 255.38 977.26 256.88 963.46 257.85 950.89 258.74 938.19 261.61 929.44 270.67 920.82 279.6 918.21 292.28 918.23 304.69 918.25 317.08 921.18 329.46 929.56 338.59 938.28 348.09 950.57 354.39 963.46 353.97" fill="#ff9500" stroke="none"></path>
        <path d="M980.46 338.97C993.02 338.56 1003.9 330.87 1012.22 321.45 1019.99 312.65 1022.75 301.37 1023.97 289.69 1025.39 276.1 1028.94 260.52 1019.64 250.51 1010.23 240.38 994.26 241.88 980.46 242.85 967.89 243.74 955.19 246.61 946.44 255.67 937.82 264.6 935.21 277.28 935.23 289.69 935.25 302.08 938.18 314.46 946.56 323.59 955.28 333.09 967.57 339.39 980.46 338.97" fill="none" stroke-width="2" stroke="#b36800"></path>
    </g>
    <defs>
        <clipPath id="SvgjsClipPath1000">
            <rect width="1440" height="560" x="0" y="0"></rect>
        </clipPath>
    </defs>
</svg>