<svg width="2100" height="2097.6" version="1.1" viewBox="0 0 2100 2097.6" xmlns="http://www.w3.org/2000/svg">
 <path d="m831.62 1872.2c3.1172 14.02 6.0977 24.859 8.2305 32.031h-70.73c-1.8516-5.9414-5.0703-16.98-8.5625-32.242-4.0703-17.789-8.5195-41.309-11.598-69.121-6.4727-58.348-8.0898-147.88 20.309-245.47h70.832c-3.5508 12.531-6.6211 24.922-9.25 37.129-1.5117 6.9609-2.8828 13.863-4.1133 20.691-13.648 75.441-11.477 142.58-6.207 189.8 2.9883 26.777 7.1602 49.508 11.09 67.18" fill="#21223e"/>
 <path d="m849.15 1881.1c-4.582-18.512-10.121-45.359-13.762-78.191-6.125-55.199-7.8828-138.32 15.992-229.76h35.586c-23.477 92.348-21.602 176.06-15.363 231.9 3.5195 31.52 8.6562 57.391 13.137 76.051h-35.59" fill="#e8e8e7"/>
 <path d="m1277.9 1811c-8.5508 9.1523-18.43 18.113-29.598 26.84l-0.042969 0.03125c-16.867 13.191-36.648 25.859-59.188 37.871-34.961 18.66-74.891 28.531-115.45 28.531h-166.96c-1.832-5.8828-5.0117-16.781-8.4609-31.832-4.1016-17.828-8.5898-41.5-11.699-69.531-5.1602-46.508-7.2305-112.84 6.5195-187.26 1.2578-6.7812 2.6406-13.629 4.168-20.531 2.7305-12.391 5.9219-24.969 9.6211-37.68h182.89c36.379 0 72.762 8.1094 105.22 23.449 50.812 23.93 112.94 66.973 120.43 136.04 3.5 32.09-9.0977 63.738-37.449 94.066" fill="#21223e"/>
 <path d="m1224.1 1719.8c-10.609 1.9805-21.32-0.87891-31.852-8.5117-16.309-11.797-24.949-29.137-25.711-51.527-0.32812-9.9492 1.043-18.781 2.2617-24.473l88.5 62.07c-5.2383 6.5703-17.328 19.473-33.199 22.441" fill="#fff"/>
 <path d="m948.71 1763.4c-3.3125-6.8398-5.0781-14.391-5.0781-22.113 0-28.027 22.805-50.828 50.832-50.828 28.031 0 50.832 22.801 50.832 50.828 0 12.781-4.7109 24.852-13.301 34.242-9.2188-0.41016-15.559-2.4805-17.289-5.8516-2.0391-3.9883 1.5703-12.008 9.8984-22.008 0.48047-0.57031 0.83203-1.2617 1.0117-1.9922 0.050781-0.20703 0.089844-0.41797 0.10938-0.62891 0.14844-1.2305 0.21875-2.4883 0.21875-3.7617 0-19.16-15.59-34.738-34.746-34.738-18.727 0-34.039 14.922-34.691 33.5-1.4648 3.0391-5.5195 12.09-7.7969 23.352" fill="#f5f5f5"/>
 <path d="m1159.4 1830.1c-1.6094 0.72266-2.7266 2.2422-2.9297 3.9922-0.19922 1.7578 0.54297 3.4883 1.9531 4.5586 2.5273 1.9219 4.0195 6.5391 3.6289 11.25-0.21094 2.5391-1.3516 8.7695-7.2891 11.891-0.11328 0.058594-0.23047 0.12109-0.33984 0.19141-22.262 14-46.652 13.699-72.473-0.89062-19.848-11.211-33.141-27.039-33.27-27.191-0.89063-1.0781-2.1992-1.7305-3.5898-1.8008-0.25-0.019532-24.691-1.5-66.789-20.207-9.6914-4.3125-15.906-10.672-19-19.461-7.0703-20.07 5.0703-45.801 6.4883-48.691 0.44531-0.73828 0.69922-1.6172 0.69922-2.5508 0-13.637 11.086-24.738 24.715-24.738 13.648 0 24.746 11.102 24.746 24.738 0 0.41016-0.007813 0.8125-0.027344 1.2031-10.863 13.398-14.172 23.789-10.113 31.738 5.582 10.91 23.301 12.059 37.18 11.109 6.1523-0.42969 11.633-3.6094 15.031-8.7188 6.9492-10.441 25.25-34.57 44.742-33.34 8.8086 0.55859 15.109 2.9414 18.727 7.0703 3.582 4.0703 3.3203 8.5781 3.3125 8.7109-0.17188 1.8594 0.69922 3.6602 2.2695 4.668 1.5703 1.0117 3.5703 1.0586 5.1914 0.14062 7.2383-4.1406 15.098-5.1484 22.117-2.8398 6.043 1.9883 10.762 6.25 13.301 12.008 4.8203 10.953-8.3516 19.48-8.8906 19.832-1.7109 1.0703-2.6094 3.0586-2.2773 5.0391 0.31641 1.9922 1.7969 3.5898 3.7578 4.0625 0.070313 0.019531 7.2188 2.0195 9.5195 12.617 2.1328 9.7695-9.8984 15.383-10.391 15.609" fill="#f5f5f5"/>
 <path d="m826.74 1615.2-56.469-0.33984 5.2422-20.82 55.34 0.46875c-1.5117 6.9609-2.8828 13.863-4.1133 20.691" fill="#d5d3db"/>
 <path d="m1125 1617-232.06-1.3906c1.2578-6.7812 2.6406-13.629 4.168-20.531l228.06 1.9219-0.17188 20" fill="#d5d3db"/>
 <path d="m839.85 1904.3h-70.73c-1.8516-5.9414-5.0703-16.98-8.5625-32.242l71.062 0.21094c3.1172 14.02 6.0977 24.859 8.2305 32.031" fill="#1b1d2f"/>
 <path d="m1073.6 1904.3h-166.96c-1.832-5.8828-5.0117-16.781-8.4609-31.832l227.05 0.67187s85.738-11.141 123.01-35.242c-16.867 13.191-36.648 25.859-59.188 37.871-34.961 18.66-74.891 28.531-115.45 28.531" fill="#1b1d2f"/>
 <path d="m850.1 1549.9-7.1797-2.1602c-19.902 66.039-26.527 128.71-26.527 182.93 0.011719 108.43 26.457 183.03 26.641 183.57l7.0664-2.5117v-7.5h-86.43v7.5l7.0703-2.5v-0.011719c-0.22266-0.59766-25.793-73.398-25.777-178.55-0.003906-53 6.4766-114.2 25.891-178.6l-7.1836-2.168v7.5h86.43v-7.5l-7.1797-2.1602 7.1797 2.1602v-7.5h-86.43c-3.3047 0-6.2266 2.168-7.1797 5.3398-19.902 66.039-26.527 128.71-26.527 182.93 0.011718 108.43 26.457 183.03 26.641 183.57 1.0586 2.9883 3.8984 4.9883 7.0664 4.9883h86.43c2.4336 0 4.7227-1.1797 6.1289-3.1719 1.4023-1.9883 1.7539-4.5391 0.94141-6.8281v-0.011719c-0.22266-0.59766-25.789-73.398-25.777-178.55 0-53 6.4766-114.2 25.891-178.6 0.6875-2.2812 0.25781-4.7305-1.1641-6.6406-1.418-1.9102-3.6367-3.0273-6.0195-3.0273v7.5"/>
 <path d="m1089.6 1542.4h-188.47c-3.3086 0-6.2266 2.168-7.1836 5.3398-19.902 66.039-26.527 128.71-26.527 182.93 0.011718 108.43 26.461 183.03 26.641 183.57 1.0586 2.9883 3.8984 4.9883 7.0703 4.9883h172.4c1.9727 0 3.9023-0.80078 5.3008-2.1914 1.4023-1.3984 2.1992-3.3281 2.1992-5.3086 0-1.9688-0.79688-3.8984-2.1992-5.3008-1.3984-1.3984-3.3281-2.1992-5.3008-2.1992h-172.4c-1.9766 0-3.9102 0.80078-5.3047 2.1992-1.3984 1.4023-2.1953 3.332-2.1953 5.3008 0 1.9805 0.79688 3.9102 2.1953 5.3086 1.3945 1.3906 3.3281 2.1914 5.3047 2.1914h172.4c42.652 0 84.812-10.16 122.51-30.289 28.949-15.449 62.219-36.633 88.641-63.461 13.199-13.43 24.691-28.289 32.941-44.648 8.25-16.352 13.219-34.25 13.219-53.391 0-4.0117-0.21875-8.0625-0.66016-12.172-2.0898-19.219-7.9609-36.641-16.391-52.23-12.641-23.387-30.949-42.637-50.961-58.387-20.02-15.75-41.77-28.023-61.598-37.371l0.007812 0.007813c-34.918-16.5-73.078-24.887-111.64-24.887h-188.47v15h188.47c36.383 0 72.363 7.9062 105.23 23.449 25.441 11.969 53.949 28.93 76.77 51.418 11.41 11.25 21.41 23.859 29 37.902 7.5898 14.059 12.793 29.527 14.66 46.719 0.39062 3.5703 0.58203 7.0898 0.58203 10.551-0.011719 16.527-4.25 32.008-11.609 46.641-11.031 21.91-29.203 41.77-50.012 58.879-20.789 17.121-44.141 31.5-65.238 42.75-35.461 18.918-75.18 28.52-115.45 28.52h-172.4c-1.9766 0-3.9102 0.80078-5.3047 2.1992-1.3984 1.4023-2.1953 3.332-2.1953 5.3008 0 1.9805 0.79688 3.9102 2.1953 5.3086 1.3945 1.3906 3.3281 2.1914 5.3047 2.1914h172.4c1.9727 0 3.9023-0.80078 5.3008-2.1914 1.4023-1.3984 2.1992-3.3281 2.1992-5.3086 0-1.9688-0.79688-3.8984-2.1992-5.3008-1.3984-1.3984-3.3281-2.1992-5.3008-2.1992h-172.4v7.5l7.0664-2.5v-0.011719c-0.22266-0.59766-25.789-73.398-25.777-178.55 0-53 6.4766-114.2 25.891-178.6l-7.1797-2.168v7.5h188.47v-15"/>
 <path d="m844.93 1573.1h51.07v-10h-51.07z"/>
 <path d="m843.3 1896.1h51.07v-15h-51.07z"/>
 <path d="m1264.3 1696.2-4.1875-2.7109 0.19922 0.12891-0.19922-0.13672v0.007813l0.19922 0.12891-0.19922-0.13672c-0.13281 0.20703-4.7617 7.1875-12.441 13.91-3.8281 3.3594-8.4102 6.6484-13.508 9.0586-5.1133 2.418-10.703 3.9609-16.711 3.9609-3.7812 0-7.7422-0.60938-11.949-2.043-4.2031-1.4297-8.6406-3.6992-13.312-7.0898-10.461-7.5781-16.801-16.707-20.648-26.238-3.8398-9.5312-5.1094-19.488-5.1094-28.391 0-7.9688 1.0195-15.059 2.0391-20.109 0.50781-2.5312 1.0078-4.5508 1.3906-5.9102 0.17969-0.69141 0.33984-1.2109 0.4375-1.5508 0.050781-0.16797 0.089844-0.28906 0.12109-0.36719l0.019531-0.082031 0.011719-0.011719-1.7422-0.57812 1.7422 0.57812-1.7422-0.57812 1.7422 0.57812-4.75-1.5781-2.8711 4.1016 47.75 33.488 47.891 33.59v-0.007813l2.9609 2.0781 2.8672-4.0898-4.1875-2.7109 4.1875 2.7109 2.8828-4.0898-2.9609-2.082h-0.011719l-47.891-33.59-47.75-33.488c-1.2969-0.91016-2.9297-1.1484-4.4297-0.66016-1.5078 0.5-2.6797 1.6602-3.1797 3.1719-0.097656 0.31641-4.5195 13.559-4.5273 31.188 0 9.832 1.3867 21.062 5.8281 32.121 4.4414 11.051 12.02 21.91 24.059 30.609 5.3906 3.9102 10.73 6.6719 15.953 8.4609 5.2305 1.7773 10.32 2.5703 15.18 2.5703 7.8672 0 15.039-2.0625 21.277-5.0625 9.3633-4.5 16.691-11.07 21.773-16.488 5.0781-5.4414 7.8789-9.7617 8-9.9414 1.457-2.2578 0.87891-5.2578-1.3203-6.8086l-2.8828 4.0898"/>
 <path d="m1037.7 1784c10.891-10.992 17.621-26.121 17.621-42.793 0-16.777-6.8125-32.02-17.812-43.008-11-11-26.238-17.82-43.02-17.82-16.773 0-32.012 6.8203-43.004 17.809-11.004 11-17.828 26.23-17.828 43.02 0 15.113 5.5273 28.98 14.699 39.602l7.5742-6.5312c-7.668-8.8984-12.27-20.41-12.273-33.07 0.003906-14.047 5.6875-26.727 14.895-35.938 9.2188-9.2109 21.895-14.891 35.938-14.891 14.062 0 26.73 5.6797 35.941 14.891 9.2109 9.2109 14.891 21.879 14.891 35.938 0 13.961-5.6016 26.531-14.723 35.75l7.1016 7.043"/>
 <path d="m957.04 1738.9c-0.082031 0.16016-2.5234 4.8984-4.9805 12.148-2.4492 7.2617-4.9375 17.039-4.9492 27.449 0 3.9297 0.36328 7.9492 1.25 11.961 1.3281 5.9883 3.8633 11.949 8.0898 17.262 4.2188 5.3086 10.094 9.9102 17.793 13.316 44.262 19.672 69.773 21.031 70.352 21.051l0.23828-4.9883-3.8477 3.1875c0.17969 0.20312 8.7188 10.5 22.801 20.902 7.0469 5.1992 15.5 10.43 25.027 14.391 9.5312 3.957 20.18 6.6484 31.531 6.6602 12.609 0.007812 26.059-3.3828 39.398-11.781l-2.6602-4.2383 2.3203 4.4297c4.4609-2.3203 7.7227-5.9023 9.75-9.8398 2.0508-3.9531 2.9609-8.25 2.9609-12.422 0-3.4297-0.60938-6.7812-1.8477-9.8281-1.2305-3.0312-3.1133-5.8203-5.8008-7.8711l-3.0195 3.9805 2.0391 4.5703c0.28125-0.14062 4.0508-1.8125 8.0703-5.3203 2-1.7617 4.0781-4 5.7109-6.8398 1.6367-2.8203 2.7969-6.3125 2.7969-10.223 0-1.4492-0.16016-2.957-0.5-4.4766-0.86719-4.0312-2.2969-7.3711-4-10.062-2.5469-4.0508-5.6602-6.5781-8.1602-8.0781-2.5078-1.4922-4.418-1.9922-4.7891-2.082l-1.168 4.8594 2.6484 4.2422c0.23828-0.16016 3.6406-2.2812 7.1992-6.1523 1.7812-1.9375 3.6016-4.3398 5.0312-7.207 1.4297-2.8711 2.4492-6.2812 2.4492-10.043 0-2.8672-0.59766-5.918-1.9414-8.9492-2.6367-5.9805-6.918-10.809-12.168-14.109-5.2383-3.3008-11.441-5.0586-17.922-5.0586-6.4102-0.011719-13.109 1.7305-19.438 5.3477l2.4805 4.3516 4.9805 0.46094c0.007812-0.14062 0.039062-0.54297 0.039062-1.1602 0-1.2109-0.12109-3.2617-0.78906-5.75-0.5-1.8711-1.3203-3.9922-2.6523-6.1523-1.9805-3.2305-5.1406-6.5-9.7305-8.9688-4.5977-2.4805-10.559-4.1719-18.23-4.6602-0.69922-0.050781-1.3867-0.070312-2.0781-0.070312-6.2812 0-12.211 1.7891-17.582 4.5117-8.0781 4.0898-15.059 10.258-20.816 16.449-5.7617 6.2109-10.293 12.48-13.223 16.879-1.668 2.5117-4.3789 4.082-7.3984 4.2891-2.0312 0.14062-4.3594 0.24219-6.7891 0.24219-2.793 0-5.7227-0.12891-8.4609-0.49219-2.0625-0.25781-4.0195-0.64844-5.7227-1.1602-1.2891-0.37891-2.4297-0.83984-3.3672-1.3398-1.4219-0.75-2.3594-1.5703-2.9219-2.3789-0.27734-0.41016-0.48828-0.82813-0.64062-1.3203-0.14844-0.5-0.23828-1.0703-0.23828-1.8008 0-0.80859 0.12109-1.8203 0.46094-3.0391 0.5-1.8281 1.4805-4.1406 3.0977-6.8789 1.6328-2.75 3.8906-5.9219 6.8906-9.5195 0.5-0.60156 0.87109-1.3516 1.0391-2.1211v-0.011719c0.042968-0.19922 0.0625-0.27734 0.082031-0.48828 0.14844-1.2383 0.21875-2.5 0.21875-3.7617 0-9.5664-3.8984-18.289-10.18-24.559-6.2695-6.2812-14.988-10.191-24.566-10.18-9.5742-0.011719-18.285 3.8984-24.551 10.18-6.2695 6.2812-10.164 14.992-10.164 24.559 0 2.7617 2.2383 5 5 5s5-2.2383 5-5c0.003907-6.8398 2.7578-13 7.2422-17.488 4.4883-4.4883 10.633-7.25 17.473-7.25s12.996 2.7617 17.496 7.25c4.4922 4.5 7.25 10.648 7.25 17.488 0 0.88281-0.050781 1.7617-0.14844 2.5898l4.9688 0.59375-4.8906-1.082v0.011718l4.8906 1.0703-3.8477-3.2031c-4.3516 5.2305-7.4727 9.8398-9.5703 14.07-1.0508 2.1094-1.8398 4.1211-2.3828 6.082-0.52734 1.9492-0.80859 3.8477-0.80859 5.6875-0.011718 1.9414 0.32031 3.8203 0.96094 5.543 0.55078 1.5 1.3477 2.8789 2.3008 4.0703 1.668 2.0977 3.7695 3.6367 6.0078 4.8086 3.3711 1.7383 7.1016 2.6992 10.879 3.2891 3.7812 0.58984 7.6211 0.78125 11.203 0.78125 2.707 0 5.2578-0.10938 7.4766-0.26172 6.0898-0.41797 11.652-3.6289 15.031-8.7188 3.6289-5.4609 9.9922-14.082 17.781-21.129 3.8789-3.5195 8.1211-6.6406 12.438-8.8203 4.3398-2.1914 8.7227-3.4414 13.082-3.4414 0.48047 0 0.96094 0.019531 1.4414 0.050781 5.8281 0.37109 10.02 1.5195 13.039 2.9414 2.2695 1.0586 3.8906 2.2695 5.0977 3.4883 1.8125 1.8281 2.7617 3.7383 3.293 5.4297 0.53906 1.6719 0.60938 3.1016 0.60938 3.6914v0.26953l-0.011719 0.019531 2.832 0.19922-2.8203-0.25781-0.011719 0.058593 2.832 0.19922-2.8203-0.25781c-0.17188 1.8594 0.69922 3.6602 2.2695 4.668 1.5703 1.0117 3.5703 1.0586 5.1914 0.14062 4.9102-2.8086 9.8594-4.0391 14.477-4.0391 4.6719 0 8.9922 1.2578 12.602 3.5273 3.6094 2.2695 6.5 5.5312 8.3398 9.6797 0.80078 1.8203 1.0898 3.4102 1.0898 4.9102 0 1.9531-0.51953 3.8008-1.4102 5.6016-1.3086 2.6797-3.5 5.1211-5.3711 6.8008-0.9375 0.84766-1.7773 1.5078-2.3672 1.9375-0.29297 0.22266-0.53125 0.38281-0.67188 0.47266l-0.14844 0.10937-0.03125 0.007813 1.0898 1.7109-1.0703-1.7188-0.019531 0.007813 1.0898 1.7109-1.0703-1.7188c-1.7109 1.0703-2.6094 3.0586-2.2773 5.0391 0.31641 1.9805 1.8086 3.5898 3.7578 4.0625l0.80859-3.3633-0.87891 3.3398 0.070312 0.023437 0.80859-3.3633-0.87891 3.3398 0.17188-0.64844-0.17969 0.64844h0.007813l0.17188-0.64844-0.17969 0.64844c0.058594 0.023437 1.9492 0.58203 4 2.3711 1.0273 0.89062 2.1172 2.0898 3.1094 3.7422 0.98828 1.6484 1.8906 3.7578 2.4883 6.5273 0.19141 0.85156 0.26953 1.6328 0.26953 2.3594-0.007813 1.9531-0.54688 3.6211-1.4688 5.2422-0.69141 1.1992-1.6016 2.3281-2.6094 3.3398-1.5117 1.5078-3.2305 2.7383-4.5391 3.5391-0.65234 0.40234-1.2031 0.69922-1.5703 0.89062-0.17969 0.10156-0.32031 0.16797-0.40234 0.21094l-0.078125 0.027344-0.011719 0.011718 1.1914 2.6016-1.1719-2.6133-0.019532 0.011718 1.1914 2.6016-1.1719-2.6133c-1.6172 0.72266-2.7266 2.2305-2.9297 3.9922-0.19922 1.7578 0.54297 3.4883 1.9531 4.5586 0.91797 0.69141 1.8789 1.9414 2.5781 3.6602s1.1094 3.8594 1.1094 6.0703c0 2.6992-0.60938 5.4805-1.8281 7.8086-1.2305 2.3516-2.9922 4.2617-5.5195 5.6016l-0.33984 0.19141c-11.844 7.4297-23.23 10.23-34.082 10.25-9.75 0-19.102-2.332-27.691-5.8906-12.879-5.3398-23.969-13.5-31.77-20.32-3.8984-3.3984-6.9805-6.4688-9.0703-8.6719-1.0469-1.0977-1.8477-1.9766-2.3672-2.5781-0.26953-0.30078-0.46094-0.53125-0.58984-0.67187l-0.14062-0.16797-0.03125-0.03125-1.6406 1.3594 1.6406-1.3594-1.6406 1.3594 1.6406-1.3594c-0.89844-1.0898-2.1914-1.7383-3.6016-1.8008l-0.078125 1.6523 0.089844-1.6523h-0.011719l-0.078125 1.6523 0.089844-1.6523c-0.19922-0.019532-24.352-1.3477-66.789-20.207-4.2734-1.9023-7.6719-4.1328-10.406-6.5703-4.0898-3.6797-6.7227-7.8398-8.4141-12.391-1.6797-4.5312-2.375-9.4609-2.375-14.441-0.007813-8.7773 2.1836-17.648 4.4219-24.238 1.1172-3.3008 2.2344-6.0312 3.0625-7.9219 0.41406-0.9375 0.75781-1.668 0.99219-2.1602 0.11719-0.23828 0.20312-0.41797 0.26172-0.53906l0.0625-0.12109 0.011719-0.027344h0.003906l-2.5039-1.293 2.5 1.3008 0.003906-0.007812-2.5039-1.293 2.5 1.3008c1.2695-2.4609 0.30859-5.4688-2.1445-6.7383-2.4531-1.2695-5.4688-0.3125-6.7383 2.1406"/>
 <path d="m1261.4 1694.1c-4.6797 10.32-14.41 17.41-25.66 17.41-15.812 0-28.621-14-28.621-31.277 0-7.4727 2.3906-14.332 6.3906-19.723l47.891 33.59"/>
 <g fill="#7bcb34">
  <path d="m548.34 1683.2c-15.75-1.3594-35.629 1.0312-61.98 7.0703-7.7188 1.7695-16 3.8594-24.891 6.25l-25.109-13.559c-14.418-7.7812-25.121-21.32-29.348-37.16l-12.551-46.941c0.33984-0.1406 0.67969-0.2773 1.0195-0.4297 2.7305-1.1211 5.418-2.3477 8.0391-3.7305l48.801-25.391c17.289 11.094 33.969 25.91 49.969 44.48 22.621 26.25 38.133 53.762 46.051 69.41"/>
  <path d="m347.2 1731.6c-21.289 6.9297-39.695 11.43-55.621 14.078-16.254-3.668-33.426-22.84-41.383-33.488 2.3633-4.5117 4.4531-9.1602 6.2422-13.961l32.137-86.078c4.8633 1.1875 9.8789 1.8164 14.973 1.8164 2.9258 0 5.875-0.1992 8.832-0.6094l57.773-8.0078c3.3789-0.4726 6.7148-1.1211 10.008-1.9219l12.359 46.242c2 7.5 5.168 14.578 9.2969 21.008-9.5352 34.43-26.305 49.852-30.078 52.973-7.8867 2.5391-16.051 5.1797-24.539 7.9492"/>
  <path d="m237.52 1731.7c1.5078-1.8906 2.9375-3.832 4.3242-5.8125 5.3008 6.5508 13.371 15.492 23.004 22.762-15.746 0.6875-28.191-0.8203-38.008-3.543l10.68-13.406"/>
  <path d="m413.23 1684.5c4.7656 4.5508 10.129 8.4922 16 11.66l11.453 6.1797c-12.879 3.7305-26.879 8-42.145 12.789 5.043-7.75 10.297-17.828 14.691-30.629"/>
  <path d="m436.84 1560.5-40.238 20.941c-4.4297 2.2969-9.0117 4.207-13.723 5.7188l-0.11719 0.051c-0.33203 0.1094-0.67188 0.207-1 0.3086-4.4531 1.3594-9.0234 2.3711-13.672 3.0117l-57.77 8.0078c-8.0117 1.1211-15.969 0.1992-23.301-2.4805-0.12109-0.051-0.23828-0.1094-0.37109-0.1602-0.21875-0.078-0.4375-0.1484-0.66797-0.207-7.5-2.9414-14.301-7.7617-19.73-14.223 18.602-14.238 39.281-24.418 61.941-30.488 8.0391-2.1719 16.328-3.8008 24.867-4.9219 29.141-3.8203 57.141 1.0391 83.781 14.441"/>
  <path d="m220.21 1631c10.418-15.34 21.934-28.68 34.504-39.988 5.6172 6.6992 12.367 12.039 19.812 15.891l-32.137 86.09c-3.957 10.598-9.543 20.457-16.594 29.316l-13.551 17c-2.1016-1.1289-4-2.3086-5.7188-3.5273-17.289-12.199-19.746-29.332-20.09-33.492 1.6641-6.0586 11.082-37.879 33.773-71.289"/>
 </g>
 <g fill="#c3c2c3">
  <path d="m345.18 1921.1c-0.25781 0-0.51953 0.012-0.78906 0.012-5.0898 0-10.082-0.1601-14.949-0.4922-45.562-3.0195-81.52-20.137-107.03-51-11.711-14.168-18.711-28.477-22.641-38.508 0.87109 0.2578 1.7422 0.5196 2.6211 0.7578l8e-3 0.012c16.812 4.7695 35.203 7.1914 54.93 7.1914 5.3516 0 10.801-0.1797 16.344-0.543 3.6484 9.8633 11.879 27.781 25.727 45.281 13.25 16.73 28.672 29.238 45.781 37.289"/>
  <path d="m446.9 1900.9c-12.32 6.2695-28.5 12.098-49.52 15.867-33.551 1.0195-62.129-12.66-84.98-40.719-12.027-14.75-19.379-29.93-23.117-38.941l-0.0117-0.01c15.5-1.8711 29.57-4.793 41.219-7.75 4.543 9.2305 16.672 23.82 47.543 20.738 8e-3 0.1289 0.0273 0.2695 0.0469 0.4023 0.11328 0.5781 2.8828 14.277 16.211 27.379 9.3203 9.1484 25.539 19.551 52.609 23.031"/>
  <path d="m485.68 1867.1c-3.2383 5.3477-8.7109 12.59-17.559 19.98-65.992 0.6602-74.949-37.73-75.32-39.5l-0.0508-0.1992c31.559-9.0703 31.219-35.871 29-48.941 4.0781-1.4102 8.2383-2.8516 12.441-4.3008 1.4102 14.531 6.3086 41.02 23.258 58.082 7.8516 7.8984 17.312 12.879 28.23 14.879"/>
  <path d="m542.18 1798.7-0.5 9.5195 0.24219-0.039c-0.8125 8.9375-3.6211 22.988-13 32.969-4.3633 4.6406-9.8125 7.9492-16.293 9.9102-4.5078 1.3594-9.5273 2.0586-15.008 2.1094-0.33984-0.027-0.67969-0.02-1.0117 0-11.609-0.098-20.938-3.8281-28.48-11.398-15.109-15.18-18.508-41.43-19.277-52.57 1.6602-0.5703 3.3203-1.1289 4.9688-1.6914 8.2109-2.7891 16.309-5.5078 23.98-8.0469-0.33203 12.469 0.59766 45.059 19.27 46.02 22.07 1.1289 32.758-28.883 27.898-59.73 3.4219-0.1093 6.2305 0.7188 8.4805 2.5391 8.0703 6.5781 9.0391 24.191 8.7305 30.41"/>
 </g>
 <path d="m172.68 1710.8v21.309h9.3594v-21.309z" fill="url(#radial-pattern-12)"/>
 <path d="m589.93 1759.3c-5.2383 13.84-17.508 24.871-33 30.133-0.83984-9.8906-3.8711-24.523-13.98-32.773-4.9492-4.0469-13.699-8.1367-27.238-4.6367-34.57 8.9688-152.18 51.027-157.17 52.809l-0.30859 0.12109c-0.55078 0.23047-26.301 10.52-61.289 15.898h-0.011718c-12.418 1.9102-26 3.1992-40.031 3.1992-32.727 0-67.918-7.0195-96.449-29.578-20.898-16.57-13.91-44.34-11.27-52.449 4.8203-14.82 14.18-26.934 23.48-31.262l0.019532 0.070312c1.3086 5.7305 3.9805 13.48 9.3594 21.309l0.03125 0.050782c3.7188 5.3984 8.7188 10.82 15.461 15.641 30.797 22.039 82.719 21.391 154.31-1.9414 8.8789-2.8906 17.422-5.6484 25.66-8.3008l0.03125-0.007813c67.578-21.691 114-34.992 145.12-38.68 34.5-4.082 48.383 4.0312 59.59 18.449 10.23 13.141 12.961 28.039 7.6914 41.949" fill="#fff"/>
 <path d="m256.9 1824c-32.727 0-67.918-7.0195-96.449-29.578-11.469-9.1016-14.539-21.57-14.539-32.312 0-8.8203 2.0781-16.488 3.2695-20.137 4.8203-14.82 14.18-26.934 23.48-31.262l0.019532 0.070312c1.3086 5.7305 3.9805 13.48 9.3594 21.309l0.03125 0.050782c14.738 28 48.711 75.07 114.86 88.66-12.418 1.9102-26 3.1992-40.031 3.1992" fill="#cccbc9"/>
 <path d="m329.44 1920.6c-45.562-3.0195-81.52-20.137-107.03-51-11.711-14.168-18.711-28.477-22.641-38.508 0.87109 0.25781 1.7422 0.51953 2.6211 0.75781l0.007813 0.011718c18.82 21.359 63.051 67.918 127.04 88.738"/>
 <path d="m393.91 1916.8c-32.055 0-59.449-13.691-81.508-40.77-12.027-14.75-19.379-29.93-23.117-38.941 0.71875 1.082 47.367 70.09 119.66 70.09 11.984 0.011719 24.66-1.8906 37.961-6.2969-12.32 6.2695-28.5 12.098-49.52 15.867-1.1602 0.03125-2.3242 0.050782-3.4727 0.050782"/>
 <path d="m466.45 1887.1c-64.473 0-73.277-37.75-73.645-39.5 0 0 30.031 27.551 63.719 27.551 9.6289 0 19.547-2.25 29.16-8.0312-3.2383 5.3477-8.7109 12.59-17.559 19.98h-1.6758"/>
 <path d="m497.62 1853.1c-0.15625-0.019531-0.30859-0.019531-0.46094-0.019531-0.18359 0-0.37109 0-0.55078 0.019531-11.609-0.097656-20.938-3.8281-28.48-11.398-15.109-15.18-18.508-41.43-19.277-52.57 1.6602-0.57031 3.3203-1.1289 4.9688-1.6914 3.6797 16.461 16.93 56.902 58.809 63.551-4.5078 1.3594-9.5273 2.0586-15.008 2.1094"/>
 <path d="m381.76 1587.5c-18.961-14.66-37-26.699-53.57-36.539 8.0391-2.1719 16.328-3.8008 24.867-4.9219 6.4219-0.84766 12.793-1.2695 19.102-1.2695 22.32 0 43.91 5.2617 64.68 15.711l-40.238 20.941c-4.4297 2.2969-9.0117 4.207-13.723 5.7188l-0.11719 0.050781c-0.33203 0.10938-0.67188 0.20703-1 0.30859" fill="#a3da66"/>
 <path d="m486.36 1690.3c-30.91-37.789-61.801-67.891-90.879-91.84 2.7305-1.1211 5.418-2.3477 8.0391-3.7305l48.801-25.391c17.289 11.094 33.969 25.91 49.969 44.48 22.621 26.25 38.133 53.762 46.051 69.41-2.8633-0.25-5.8633-0.37891-9.0117-0.37891-14.18 0-31.406 2.5-52.969 7.4492" fill="#a3da66"/>
 <path d="m178.88 1701.5-7.5 0.10156c0.007813 0.44922 0.09375 4.418 1.5586 10.281 1.0977 4.3867 2.9766 9.8398 6.2266 15.59 2.4375 4.3086 5.6484 8.7891 9.8516 13.047 6.3008 6.4023 14.84 12.293 26.07 16.5 11.23 4.2109 25.113 6.7617 42.238 6.7617 24.254-0.011718 55.035-5.0898 94.52-17.941 50-16.289 88.754-28.367 119.1-36.328 15.168-3.9805 28.227-6.9219 39.504-8.8711 11.273-1.9414 20.758-2.8711 28.754-2.8711 5.5352 0 10.355 0.44141 14.598 1.2695 6.3633 1.2617 11.426 3.3516 15.949 6.3008 4.5117 2.9727 8.5391 6.8594 12.496 11.949 3.6758 4.7305 6.2461 9.4531 7.9062 14.102 1.6562 4.6406 2.4141 9.2109 2.4141 13.672 0 5.3867-1.1133 10.629-3.1992 15.598-3.1328 7.4609-8.4961 14.289-15.555 19.723-7.0547 5.4297-15.777 9.4297-25.52 11.258l1.3828 7.3711 7.4883 0.39062c0.007813-0.11328 0.054688-1.0508 0.054688-2.6016 0-2.3594-0.10547-6.1289-0.65625-10.551-0.41406-3.3281-1.0781-7.0195-2.1719-10.801-0.82812-2.8281-1.8945-5.7188-3.3281-8.5195-1.0742-2.0977-2.3594-4.1602-3.918-6.0898-2.3281-2.8906-5.3125-5.5078-8.9805-7.3477-3.6562-1.8516-7.9492-2.8711-12.566-2.8594-3.1367 0-6.4297 0.44922-9.8789 1.3477-4.5195 1.1719-10.289 2.8594-17 4.9297-11.742 3.6211-26.34 8.4219-41.668 13.582-45.977 15.488-98.484 34.277-98.508 34.289l-0.15625 0.050782-0.14844 0.070312 0.5625 1.3672-0.5625-1.3789v0.011718l0.5625 1.3672-0.5625-1.3789c-0.13672 0.058593-12.043 4.8906-30.625 9.6719-18.582 4.7891-43.848 9.5195-70.605 9.5195-16.523 0-33.602-1.8008-50.051-6.4102-16.461-4.6211-32.281-12.012-46.52-23.262l0.011718 0.011719c-5.207-4.1523-8.7539-9.0391-11.105-14.539-2.3438-5.5-3.4492-11.641-3.4492-18.031s1.1094-13 3.0938-19.281c1.4844-4.7188 3.457-9.2383 5.7773-13.34 3.4648-6.1602 7.7266-11.328 12.074-14.828 2.168-1.75 4.3477-3.082 6.4297-3.9805 2.0859-0.89063 4.0547-1.3516 5.9258-1.4297l-0.3125-7.4922-7.5 0.10156 7.5-0.10156-0.3125-7.4883c-3.4688 0.14062-6.8438 0.91016-10.031 2.1484-5.582 2.1719-10.613 5.7227-15.098 10.121-6.7109 6.6211-12.246 15.211-16.215 24.781-3.9531 9.5703-6.3242 20.148-6.3281 30.789 0 8.0977 1.3906 16.258 4.6406 23.91 3.2422 7.6289 8.3945 14.711 15.59 20.41l0.007812 0.007812c15.98 12.633 33.707 20.871 51.773 25.93 18.07 5.0625 36.492 6.9727 54.098 6.9727 28.738-0.011719 55.316-5.0703 74.801-10.109 19.48-5.0508 31.863-10.09 32.098-10.191l-2.8359-6.9414 2.5312 7.0625s0.46875-0.17188 1.3711-0.49219c6.7422-2.4102 37.391-13.32 70.383-24.68 16.496-5.6797 33.578-11.469 48.531-16.348 7.4766-2.4414 14.418-4.6602 20.477-6.5234 6.0547-1.8477 11.238-3.3594 15.121-4.3594 2.3906-0.62891 4.4141-0.86719 6.1133-0.86719 1.9805 0 3.5156 0.31641 4.8242 0.81641 1.1445 0.44141 2.1289 1.0234 3.0625 1.793 1.6211 1.3203 3.082 3.25 4.3008 5.668 1.8359 3.6211 3.0352 8.2812 3.668 12.551 0.64453 4.2812 0.76953 8.1719 0.76562 10.34 0 0.62109-0.007813 1.1016-0.019532 1.4219-0.003906 0.14844-0.007812 0.26953-0.007812 0.32812l-0.003906 0.070312v0.011719l4.1328 0.19922-4.1328-0.21094v0.011719l4.1328 0.19922-4.1328-0.21094-0.5 9.5195 9.3711-1.7578c16.062-3.0234 30.078-10.82 40.188-21.621 5.0508-5.4102 9.125-11.582 11.945-18.281 2.8203-6.7109 4.3789-13.961 4.375-21.418 0.003906-6.1797-1.0625-12.492-3.2891-18.723-2.2266-6.2305-5.6133-12.367-10.191-18.258-3.1367-4.0312-6.5-7.6797-10.234-10.859-5.5898-4.793-12.043-8.5-19.445-10.902-7.4102-2.4102-15.711-3.5508-25.203-3.5508-9.1484 0-19.438 1.0508-31.301 3.0898-17.797 3.0703-39.16 8.3906-65.496 15.992-26.332 7.5977-57.629 17.488-95.203 29.73-38.402 12.508-67.734 17.199-89.875 17.199-18.551-0.011718-32.02-3.2617-41.855-7.8594-7.3828-3.4492-12.762-7.6523-16.809-12.02-3.0312-3.2695-5.3086-6.6523-7.0312-9.9023-2.5898-4.8594-3.918-9.4297-4.582-12.711-0.33594-1.6367-0.50391-2.957-0.58984-3.8164-0.042969-0.43359-0.0625-0.74219-0.070312-0.93359-0.003907-0.089844-0.007813-0.14844-0.007813-0.17969v-0.007813l-3.0508 0.070313 3.0508-0.050782v-0.019531l-3.0508 0.070313 3.0508-0.050782-4.8516 0.089844 4.8516-0.089844-4.8516 0.089844 4.8516-0.089844-7.2422 0.12891 7.2422-0.097656v-0.03125l-7.2422 0.12891 7.2422-0.097656-0.10938-7.7227-7.7031 0.33203 0.3125 7.4883"/>
 <path d="m186.16 1703.3c0.074219-0.28906 2.3633-9.3281 7.8281-22.918 8.1914-20.402 23.551-51.012 49.031-77.871 12.738-13.441 27.984-25.961 46.156-35.922 18.176-9.9492 39.273-17.367 63.883-20.598 6.4688-0.83984 12.773-1.25 18.914-1.25 14.758 0.007812 28.602 2.3086 41.605 6.3672 22.754 7.0898 42.973 19.582 60.527 34.48 26.332 22.34 46.555 50.082 60.082 72.199 6.7656 11.062 11.867 20.711 15.262 27.562 1.6953 3.4297 2.9648 6.1484 3.8086 8.0078 0.41797 0.92969 0.73047 1.6328 0.93359 2.1016 0.10156 0.23828 0.17578 0.41016 0.22266 0.51953l0.050782 0.12891 0.011718 0.023437c1.5938 3.8164 5.9883 5.6289 9.8086 4.0273 3.8242-1.5898 5.6289-5.9805 4.0352-9.8086-0.082031-0.19141-4.2539-10.172-12.461-25.102-12.324-22.379-33.676-55.891-64.215-84.148-15.277-14.129-32.875-26.941-52.848-36.262-19.961-9.3086-42.324-15.098-66.824-15.098-6.793 0-13.75 0.44922-20.859 1.3789-35.574 4.6406-64.797 17.602-88.352 34.359-17.676 12.57-32.188 27.242-44.012 42.152-17.738 22.359-29.461 45.25-36.797 62.598-7.3359 17.34-10.281 29.172-10.355 29.469-0.99609 4.0234 1.457 8.082 5.4766 9.082 4.0234 1 8.0898-1.4609 9.0859-5.4805"/>
 <path d="m433.62 1783.8v0.12891c0 0.89062 0.039062 6.3008 1 14.02 0.72656 5.7891 1.9648 12.879 4.1445 20.371 1.6328 5.6094 3.793 11.441 6.6992 17.109 2.1797 4.25 4.7852 8.4102 7.9141 12.281 4.6875 5.8086 10.602 10.969 17.914 14.641 7.3008 3.6797 15.945 5.7891 25.773 5.7773 6.8086 0 12.969-0.80859 18.508-2.3281 4.8477-1.332 9.2109-3.1992 13.09-5.4805 6.7891-3.9922 12.035-9.2188 15.973-14.832 5.9102-8.4375 8.9805-17.66 10.656-25.617 1.668-7.9609 1.9297-14.711 1.9297-18.371 0-1.7383-0.058593-2.7812-0.070312-2.9219-0.25781-4.1289-3.8164-7.2695-7.9531-7.0195-4.1328 0.26172-7.2734 3.8203-7.0156 7.9609l4.5-0.28125-4.5 0.26172v0.019531l4.5-0.28125-4.5 0.26172v0.03125c0.007812 0.12891 0.039062 0.82812 0.039062 1.9688 0.003907 2.5312-0.16797 7.2617-1.1289 12.781-0.71875 4.1484-1.8828 8.7383-3.6953 13.207-1.3555 3.3516-3.0703 6.6211-5.2148 9.6328-3.2266 4.5-7.3516 8.3906-12.93 11.258-5.582 2.8594-12.715 4.75-22.188 4.75-6.1016 0-11.223-1-15.652-2.6875-3.875-1.4805-7.2344-3.5-10.234-5.9531-5.2383-4.2695-9.3711-9.957-12.562-16.289-4.8008-9.4805-7.3867-20.32-8.668-28.898-1.2969-8.582-1.3281-14.879-1.3281-15.371v-0.019532l-2.7539-0.011718 2.7539 0.023437v-0.011719l-2.7539-0.011718 2.7539 0.023437c0.03125-4.1406-3.3008-7.5312-7.4414-7.5625-4.1445-0.03125-7.5273 3.3008-7.5586 7.4414"/>
 <path d="m180.7 1820.6c0.074219 0.36328 1.6211 7.6406 6.0703 18.441 3.3398 8.1016 8.3203 18.191 15.57 28.801 10.867 15.918 26.895 33.051 50.043 46.148 23.137 13.121 53.324 22.109 92.004 22.09 33.992 0 60.977-4.3281 82.367-10.957 16.043-4.9727 28.934-11.242 39.223-17.902 15.438-9.9883 24.984-20.859 30.648-29.359 5.6719-8.5117 7.4844-14.621 7.6562-15.23 1.1289-3.9883-1.1875-8.1289-5.1758-9.2578-3.9844-1.1328-8.1289 1.1875-9.2578 5.168l3.7812 1.0703-3.7656-1.1211-0.015626 0.050782 3.7812 1.0703-3.7656-1.1211s-0.015626 0.050782-0.054688 0.16016c-0.28906 0.89062-1.832 5.1992-5.8398 11.152-3.0078 4.457-7.4023 9.8477-13.738 15.457-9.5117 8.4023-23.391 17.301-43.695 24.172-20.297 6.8594-47.043 11.648-82.148 11.648-32.34 0-57.57-6.5977-77.418-16.34-14.883-7.3086-26.762-16.41-36.266-25.98-14.25-14.359-23.141-29.809-28.434-41.637-2.6445-5.9102-4.3906-10.91-5.4609-14.383-0.53516-1.7305-0.90234-3.0898-1.1328-3.9805-0.11328-0.44922-0.19141-0.77734-0.24219-0.98828-0.023438-0.10156-0.039062-0.17187-0.046875-0.21094l-0.007813-0.039063-0.050781 0.007813 0.050781-0.007813-0.050781 0.007813 0.050781-0.007813-3.0586 0.64844 3.0586-0.64844-3.0586 0.64844 3.0586-0.64844-6.875 1.4492 6.8789-1.4414-0.003907-0.007813-6.875 1.4492 6.8789-1.4414c-0.85156-4.0469-4.8242-6.6484-8.8789-5.7969-4.0547 0.83984-6.6523 4.8203-5.8047 8.8672"/>
 <path d="m524.2 1761.4c6.6055 32.301-4.0391 65.211-27.133 64.031-23.098-1.1797-19.043-50.801-19.043-50.801l46.176-13.23"/>
 <path d="m420.01 1791.1s16.754 48.969-34.566 57.949c-51.32 8.9805-57.484-26.84-57.484-26.84l92.051-31.109"/>
 <path d="m278.38 1823.2c-0.99609 0.070313-2.0703 0.37109-2.9688 0.85156-0.78906 0.41016-1.4336 0.9375-1.918 1.4492-0.85156 0.89844-1.25 1.6992-1.5078 2.3086-0.37109 0.92188-0.44922 1.4922-0.51172 1.9219-0.054687 0.42969-0.0625 0.71875-0.0625 0.95703 0.003906 0.55078 0.042969 0.79297 0.066406 1 0.050782 0.38281 0.089844 0.53125 0.12109 0.67969 0.058594 0.27344 0.10156 0.42188 0.14453 0.59375 0.089843 0.30859 0.1875 0.63672 0.3125 1.0391 0.48047 1.5195 1.3711 4.0781 2.75 7.4883 2.4102 5.9727 6.2969 14.492 11.953 23.992 8.4883 14.238 20.953 30.707 38.539 43.789 8.793 6.5312 18.871 12.199 30.309 16.219 11.434 4.0312 24.219 6.4023 38.309 6.4023 1.5742 0 3.1602-0.03125 4.7656-0.089843 4.1406-0.16016 7.3711-3.6328 7.2188-7.7734-0.15234-4.1367-3.6328-7.3789-7.7695-7.2188-1.4219 0.050781-2.8242 0.082031-4.2148 0.082031-10.039-0.011718-19.172-1.3633-27.523-3.7109-14.605-4.1094-26.871-11.301-37.168-19.91-15.434-12.902-26.34-29.039-33.285-42.02-3.4766-6.4922-5.9688-12.18-7.5703-16.23-0.79688-2.0195-1.3789-3.6406-1.7422-4.7188-0.17969-0.54297-0.30859-0.95312-0.375-1.1719l-0.035156-0.12109-0.003906-0.019531-0.003907-0.007813-3.8789 1.0391 3.9219-0.87109c-0.03125-0.12891-0.039062-0.16016-0.042969-0.16797l-3.8789 1.0391 3.9219-0.87109-6.4492 1.4219 6.5117-1.0703c-0.027344-0.17969-0.046875-0.28125-0.0625-0.35156l-6.4492 1.4219 6.5117-1.0703-7.0977 1.168 7.1523-0.78906c-0.019532-0.17969-0.039063-0.28906-0.054688-0.37891l-7.0977 1.168 7.1523-0.78906-7.3516 0.80859h7.3945c0-0.41016-0.023437-0.63672-0.042968-0.80859l-7.3516 0.80859h7.3945-7.4648l7.4258 0.79297c0.035156-0.33984 0.039062-0.58984 0.039062-0.79297h-7.4648l7.4258 0.79297-7.4453-0.79297 7.2734 1.7734c0.10156-0.42188 0.14453-0.73047 0.17188-0.98047l-7.4453-0.79297 7.2734 1.7734-7.2773-1.7734 6.9023 2.9023c0.19141-0.46094 0.29688-0.82031 0.375-1.1289l-7.2773-1.7734 6.9023 2.9023-6.9102-2.9102 5.0859 5.5078c1.0664-1 1.5352-1.9297 1.8242-2.5977l-6.9102-2.9102 5.0859 5.5078-5.0859-5.5078 3.0703 6.8398c0.80078-0.35156 1.4883-0.83984 2.0156-1.332l-5.0859-5.5078 3.0703 6.8398-3.0703-6.8398 0.53516 7.4805c0.83984-0.0625 1.7383-0.28125 2.5352-0.64062l-3.0703-6.8398 0.53516 7.4805c4.1289-0.29297 7.2422-3.8828 6.9453-8.0117-0.29297-4.1406-3.8828-7.25-8.0156-6.9492"/>
 <path d="m378.08 1850.5c0.089844 0.45703 0.78906 3.8789 3.043 8.8086 1.6914 3.6992 4.2656 8.25 8.1133 13.008 5.7695 7.1328 14.457 14.703 27.047 20.363 12.594 5.668 29.004 9.4375 50.211 9.4375 1.4844 0 2.9961-0.019531 4.5273-0.058594 4.1406-0.10156 7.4141-3.5391 7.3164-7.6797-0.10156-4.1406-3.5391-7.4102-7.6836-7.3125-1.4141 0.03125-2.8008 0.050781-4.1602 0.050781-17.285 0-30.426-2.7188-40.438-6.6094-7.5117-2.918-13.277-6.5-17.77-10.199-6.7305-5.5508-10.617-11.41-12.844-15.82-1.1094-2.2109-1.793-4.0391-2.1875-5.2695-0.19922-0.60938-0.32422-1.0703-0.39062-1.3398-0.035157-0.12891-0.054688-0.21875-0.0625-0.26172l-0.003907-0.019531h-0.003906l-2.2656 0.46875 2.2695-0.45703-0.003906-0.011719-2.2656 0.46875 2.2695-0.45703-4.7773 0.95703 4.7812-0.9375-0.003907-0.019531-4.7773 0.95703 4.7812-0.9375-7.1562 1.4102 7.1602-1.3789-0.003906-0.03125-7.1562 1.4102 7.1602-1.3789c-0.78125-4.0703-4.7148-6.7305-8.7812-5.9531-4.0664 0.79297-6.7305 4.7227-5.9453 8.793"/>
 <path d="m259.84 1586.7-4.6836-5.6484 2.2695 6.9805c0.82812-0.26953 1.6953-0.73047 2.4141-1.332l-4.6836-5.6484 2.2695 6.9805-2.25-6.9297v7.2773c0.64062 0.011718 1.418-0.078126 2.25-0.34766l-2.25-6.9297v7.2773-7.0586l-2.1914 6.7188c0.49609 0.16016 1.1797 0.33984 2.1914 0.33984v-7.0586l-2.1914 6.7188 2.0117-6.1797-3.0078 5.7617c0.23047 0.12109 0.53516 0.26953 0.99609 0.41797l2.0117-6.1797-3.0078 5.7617 2.2734-4.3516-2.9531 3.9297c0.09375 0.070312 0.25781 0.20312 0.67969 0.42188l2.2734-4.3516-2.9531 3.9297 1.2188-1.6172-1.2891 1.5703 0.070313 0.046875 1.2188-1.6172-1.2891 1.5703 0.17578-0.22266-0.17969 0.22266h0.003906l0.17578-0.22266-0.17969 0.22266c0.015625 0.007813 0.16016 0.12891 0.35938 0.33984 0.30469 0.29688 0.74219 0.76953 1.2539 1.3398 0.50781 0.57813 1.0938 1.2578 1.7266 2.0195 12.238 14.68 30.242 23.109 49.102 23.109 2.8906 0 5.7969-0.19922 8.707-0.60156l57.773-8.0078c11.652-1.6211 22.941-5.2227 33.371-10.652l52.484-27.32c3.6719-1.9102 5.1016-6.4375 3.1875-10.109-1.9102-3.6797-6.4414-5.0977-10.113-3.1875l-52.48 27.309c-8.9141 4.6406-18.555 7.7188-28.508 9.1016l-57.773 8.0078c-2.2227 0.30859-4.4414 0.46094-6.6484 0.46094-14.379 0-28.176-6.4297-37.578-17.711-1.3594-1.6289-2.5742-3.0195-3.7188-4.1914-0.58984-0.58984-1.1367-1.1289-1.8789-1.707-0.38672-0.30078-0.8125-0.62109-1.5039-0.99219-0.35156-0.17969-0.77344-0.39062-1.3672-0.57812-0.59375-0.19141-1.3633-0.39062-2.4531-0.40234-0.69141 0-1.5156 0.10156-2.3867 0.38281-0.87109 0.27734-1.7734 0.75781-2.5234 1.3906-3.1914 2.6484-3.6289 7.3672-0.98828 10.559 2.6445 3.1914 7.375 3.6289 10.562 0.98828"/>
 <path d="m277 1600.3-34.617 92.719c-3.9531 10.59-9.5508 20.488-16.594 29.328l-17.273 21.684c-2.582 3.2383-2.0469 7.957 1.1914 10.539 3.2383 2.5781 7.957 2.0391 10.539-1.1992l17.273-21.68c8.0273-10.07 14.41-21.352 18.914-33.422l34.617-92.719c1.4492-3.8828-0.52344-8.2031-4.4023-9.6523-3.8828-1.4492-8.2031 0.51953-9.6484 4.4023"/>
 <path d="m378.2 1596.1 14.32 53.57c5.3164 19.887 18.598 36.707 36.715 46.488l27.777 14.992c3.6445 1.9688 8.1953 0.60938 10.164-3.043 1.9648-3.6406 0.60547-8.1875-3.0391-10.16l-27.777-14.988c-14.484-7.8203-25.102-21.262-29.348-37.16l-14.32-53.582c-1.0703-4-5.1797-6.3672-9.1836-5.2969-4 1.0703-6.375 5.1797-5.3086 9.1797"/>
 <path d="m235.12 1716.9c0.16406 0.23047 6.375 9.5234 16.141 19.602 4.8906 5.0508 10.668 10.301 17.164 14.73 3.25 2.2109 6.6836 4.2109 10.297 5.8477 3.6172 1.6406 7.4219 2.9336 11.398 3.6406 4.0781 0.73047 7.9727-1.9805 8.7031-6.0586 0.73047-4.082-1.9805-7.9805-6.0586-8.7109-2.5234-0.44922-5.1602-1.3086-7.8398-2.5273-4.6914-2.1211-9.4844-5.3438-13.941-9.0312-6.6992-5.5312-12.645-12.07-16.836-17.18-2.0977-2.5625-3.7656-4.7617-4.8945-6.3125-0.5625-0.76953-0.99219-1.3672-1.2773-1.7773-0.14062-0.19922-0.24609-0.35156-0.3125-0.44922l-0.066406-0.10156-0.011718-0.019531-1.2969 0.87109 1.2969-0.87109-1.2969 0.87109 1.2969-0.87109c-2.3047-3.4414-6.9648-4.3594-10.406-2.0625-3.4414 2.3125-4.3633 6.9727-2.0586 10.41"/>
 <path d="m379.59 1736.6c0.54297-0.37891 6.957-4.9688 14.742-15.359 7.7852-10.391 16.914-26.59 22.871-49.969 1.0234-4.0117-1.3984-8.1016-5.4141-9.1211-4.0117-1.0195-8.0938 1.4023-9.1172 5.4102-5.4766 21.441-13.668 35.762-20.348 44.68-3.3398 4.4609-6.3047 7.5703-8.3711 9.5195-1.0312 0.97266-1.8398 1.6523-2.3516 2.0703-0.25781 0.21094-0.44531 0.35156-0.54687 0.42969l-0.089844 0.070312 0.14062 0.19141-0.14062-0.19922v0.007812l0.14062 0.19141-0.14062-0.19922 2.9141 4.0977-2.8789-4.1172-0.035156 0.019531 2.9141 4.0977-2.8789-4.1172c-3.3984 2.3672-4.2266 7.0469-1.8555 10.438 2.3711 3.4023 7.0469 4.2305 10.445 1.8594"/>
 <path d="m1848.3 1858.4c-2.1797 1.8203-13.852 11.348-32 22.168-0.21875-0.39062-0.44141-0.77734-0.67969-1.1875-8.4102-14.41-30.102-41.543-77.582-51.332-43.969-9.0781-82.348-3.4414-100.8-0.73047-1.8594 0.28125-3.8203 0.5625-5.5195 0.78906-5.4531-21.77-22.191-43.828-33.223-56.578 22.062-8.1094 41.32-38.25 47.25-77.391l0.011719-0.007813c5.9688-39.5-3.7305-74.281-22.742-88.32 2.6133-2.0117 5.6523-4.3125 9.1211-6.7031l0.050781-0.019531 0.21094-0.14844c29.438-20.07 61.84-25.781 98.84-17.359 2.3594 0.52734 4.7383 1.1289 7.1406 1.7773 3.957 1.082 7.8867 2.3125 11.789 3.6836-6.6914 7.4102-12.32 14.816-17 21.809-22.492 33.57-29.633 66.129-30.312 73.008-0.22656 2.2812-0.39844 4.5625-0.51953 6.8203v0.042968c-0.11719 2.3594-0.17969 4.6992-0.17969 7.0273 0 4.3398 0.21094 8.6328 0.62891 12.84 1.4023 14.113 7.2422 27.121 16.902 37.633 9.5898 10.438 22.031 17.43 35.98 20.207 7.5508 1.5 14.609 2.1602 21.18 2.1602 23.418 0 40.578-8.3594 51.66-16.387 1.2695-0.92188 2.4883-1.8633 3.6484-2.793 8.0312-6.4883 13.422-13.16 16.41-17.398 10.199 0.98828 19.109-0.33203 26.66-3.9102 6.3203 15.84 10.199 27.602 11.152 30.559 0.48828 5.6328 3.2578 53.562-38.082 99.742" fill="#f04830"/>
 <path d="m1865.4 1542.2c4-0.64062 7.9102-0.94922 11.688-0.94922 4.0312 0 7.9219 0.35938 11.641 1.0703 17.941 3.4414 30.859 13.559 34.57 27.07 2.5117 9.1289 0.058594 18.078-6.5508 23.949-1.9297 1.6992-2.8281 4.2812-2.418 6.8203 0.41797 2.5391 2.1172 4.6992 4.4805 5.6992 2.7773 1.1914 13.777 12.02 13.25 24.762-0.71094 17.09-22.301 27.789-40.293 33.758-3.2773 1.0898-5.3867 4.2734-5.1094 7.7227 0.019531 0.25 1.6602 25.91-11.719 38.25-6.6211 6.1094-16.34 8.1875-28.902 6.1602-3.0977-0.5-6.207 1.0195-7.75 3.7695-0.96875 1.7305-24.438 42.398-79.688 31.379-21.902-4.3594-38.711-22.711-40.891-44.609-0.76172-7.6406-0.73047-15.641 0.070312-23.762 0.03125-0.28906 4.7188-31.617 27.852-66.148 6.7266-10.051 14.199-19.141 22.367-27.27 0.40234-0.32031 0.76953-0.69922 1.1094-1.1016 7.6719-7.5 15.973-14.148 24.871-19.949 0.66016-0.30859 1.2695-0.69922 1.8086-1.168 20.203-12.801 43.453-21.32 69.613-25.453" fill="#fff"/>
 <path d="m1783.4 1558.1c-8.0312 5.4375-15.23 11.25-21.672 17.207-6.3516-2.5-12.852-4.6797-19.391-6.4492-20.828-5.668-40.75-7.3008-59.641-4.918-18.488 2.3203-35.988 8.4883-52.391 18.488-4.8789-7.3398-13.547-20.18-22.988-33.289-8.5508-11.871-15.398-20.711-20.918-27.32 7.7695 1.8203 13.848 3.4609 15.758 4.4102 2.7109 1.3594 5.9609 0.94922 8.25-1.0312 2.2891-1.9805 3.1719-5.1406 2.2305-8.0078l-7.1016-21.613h65.582l20.531 34.75c1.5195 2.5625 4.3984 3.9922 7.3594 3.6328 2.957-0.35938 5.418-2.4297 6.2773-5.2812l9-29.918c7.8828 4.0781 20.633 11.066 33.121 19.617 22.141 15.141 34.73 29.082 35.992 39.723" fill="#efef31"/>
 <g fill="#fff">
  <path d="m1572.1 1560.2c1.2305-6.7305 7.4805-12.73 12.562-16.469 10.359 13.559 22.25 30.461 33.219 47.09-2.2188 1.6484-4.1992 3.1914-5.9492 4.5508-1.832 1.418-4.0117 3.1094-5.3008 3.9688-6.9883-0.6875-14.031 0.9609-20.781 4.7305-4.1797-2.1289-6.9102-4.7695-8.0781-7.8789-2.1289-5.6797 1.0898-11.93 1.0898-11.93 1.5195-2.7812 1.1406-6.2109-0.9492-8.582-4.8203-5.4492-6.7227-10.508-5.8125-15.48"/>
  <path d="m1493.6 1673.3c3.0195-20.012 10.031-38.082 19.711-50.871 8.5703-11.32 18.41-17.07 26.961-15.77 9.3594 1.4102 17.441 11.012 22.18 26.328 0.8594 2.793 3.2617 4.8203 6.1484 5.2109 2.8906 0.4023 5.75-0.918 7.3203-3.3711 9.1523-14.207 20.371-21.859 30.07-20.469 0.1914 0.039 0.3398 0.062 0.4492 0.082 17.133 2.9492 31.043 34.578 24.562 77.41-6.5195 43.09-29.41 69.227-46.68 66.629-9.3594-1.4219-17.441-11.012-22.18-26.32-0.8711-2.7812-3.2617-4.8086-6.1523-5.2109-0.3398-0.051-0.6797-0.07-1.0195-0.07-2.5195 0-4.9102 1.2812-6.3008 3.4297-9.1992 14.281-20.5 21.922-30.207 20.453-17.273-2.6211-31.391-34.371-24.863-77.461"/>
  <path d="m1561.4 1837.9c-2.7578-6.043-4.9688-12.32-6.6211-18.762 8.9023 0.9609 16.82 3.0703 20.98 7.5 1.9023 2.0312 2.9922 4.6094 3.2812 7.832-3.4609 1.3086-9.4219 3.0195-17.641 3.4297"/>
  <path d="m1537.7 1857.2c-1.0703-1.6602-0.4531-3.1094 0.019-3.8281 0.3399-0.5117 1.6094-2.1484 4.0078-1.7695 5.3711 0.8711 10.332 1.25 14.871 1.3008h0.2188c21.051 0.168 32.973-6.9297 33.57-7.3008 2.0195-1.2422 3.3398-3.3594 3.5508-5.7188 0.8711-9.6133-1.5703-17.543-7.2617-23.594-13.16-14.02-39.387-13.309-60.469-12.727-3.2383 0.078-6.3008 0.168-9.0312 0.1797h-0.078c-6.5117 0-12.289-3.6016-14.75-9.1914-5.582-12.719 11.02-24.949 16.781-28.711 11.719 0.6719 23.539-5.1484 33.82-16.508 6.4883 12.617 15.727 20.848 26.52 23.418 13.84 14.133 43.797 50.77 38.508 74.359-2.0195 8.9805-9.168 15.512-21.879 19.961-5.3594 1.8711-10.41 3.2695-15.148 4.1914-0.1602 0.02-0.3125 0.051-0.461 0.078-19.902 3.75-34.262-0.9805-42.789-14.141"/>
  <path d="m1763.2 1905.2c-61.281 20.559-116.69 12.781-164.89-23.07 0.8984-0.2891 1.7891-0.582 2.6992-0.8906 17.762-6.2188 28.379-16.598 31.57-30.848 0.5391-2.4414 0.8398-4.9219 0.9219-7.4531 1.7188-0.2188 3.668-0.5078 5.9492-0.8399 18.949-2.7773 54.219-7.9688 95.59 0.5704 43.469 8.9805 61.918 33.82 68.25 45.18-11.723 6.2109-25.25 12.383-40.09 17.352"/>
  <path d="m1931.3 1849.3c-4.0391 0.5117-6.9297 4.1602-6.5273 8.2109 0 0.07 0.6797 7.2578-1.582 14.469-2.6211 8.3789-7.9688 12.973-16.348 14.02-17.633 2.2109-35.461-14.059-43.262-22.309 36.289-43.34 38.551-86.559 38.051-101.8 13.32-5.5078 36.219-12.078 45.52-5.5703 9.8789 6.9102 1.3516 30.102-2.4102 37.66-0.9492 1.8906-1.0508 4.1016-0.2891 6.0703 0.7696 1.9688 2.3281 3.5312 4.3008 4.2891 0.1797 0.07 17.91 7.0898 17.91 24.453 0 13.078-26.191 19.348-35.363 20.508"/>
 </g>
 <path d="m1816.3 1880.5c-0.21875-0.39062-0.44141-0.77734-0.67969-1.1875 19.551-36.133 28.238-73.672 31.09-88.273 0.78125-4.0273 0.30078-8.1992-1.3594-11.949l-13.191-29.75c8.0312-6.4883 13.422-13.16 16.41-17.398 2.1914 0.21094 4.3203 0.30859 6.3906 0.30859 7.5781 0 14.34-1.4102 20.27-4.2188 6.3203 15.84 10.199 27.602 11.152 30.559 0.078125 0.91016 0.21875 2.9609 0.21875 5.9297 0 15.281-3.6992 55.16-38.301 93.812-2.1797 1.8203-13.852 11.348-32 22.168" fill="#c73d25"/>
 <path d="m1702.4 1688.6c-1.3477-49.297 14.902-85.387 28.902-107.1 2.3594 0.52734 4.7383 1.1289 7.1406 1.7773 3.957 1.082 7.8867 2.3125 11.789 3.6836-6.6914 7.4102-12.32 14.816-17 21.809-22.492 33.57-29.633 66.129-30.312 73.008-0.22656 2.2812-0.39844 4.5625-0.51953 6.8203" fill="#c73d25"/>
 <path d="m1630.3 1582.4c-4.8789-7.3398-13.547-20.18-22.988-33.289-8.5508-11.871-15.398-20.711-20.918-27.32 7.7695 1.8203 13.848 3.4609 15.758 4.4102 1.0586 0.53125 2.2109 0.78906 3.3516 0.78906 1.7695 0 3.5078-0.62109 4.8984-1.8203 1.6797-1.4609 2.6016-3.5508 2.6016-5.6875 0-0.78125-0.12109-1.5625-0.37109-2.3203l-7.1016-21.613h43.711c10.359 21.293 23.582 48.242 33.449 68.363-18.488 2.3203-35.988 8.4883-52.391 18.488" fill="#f3f364"/>
 <path d="m1638.4 1693-7.418-1.1289c-1.4922 9.8984-3.9609 19.168-7.1211 27.457-4.7305 12.441-11.07 22.641-17.77 29.422-3.3398 3.3906-6.75 5.918-10.012 7.5508-3.2578 1.6289-6.3398 2.3789-9.2773 2.3906-0.83984 0-1.6719-0.070313-2.5117-0.19141h0.011719c-2.2109-0.33984-4.293-1.0898-6.3516-2.3086-3.0781-1.8203-6.1094-4.75-8.8398-8.8125-2.7305-4.0508-5.1406-9.1992-6.9883-15.199-0.87109-2.7812-3.2617-4.8086-6.1523-5.2109-2.8906-0.39844-5.7383 0.91016-7.3203 3.3594-4.4102 6.8516-9.3086 12.172-14.117 15.613-2.4023 1.7266-4.7617 2.9883-7.0312 3.8086-2.2812 0.82812-4.4492 1.2188-6.5586 1.2188-0.84375 0-1.6719-0.058594-2.5-0.1875-1.7109-0.26172-3.3438-0.77344-4.9414-1.5508-2.8008-1.3711-5.5586-3.582-8.1523-6.7422-3.8789-4.7305-7.2891-11.559-9.6484-19.898-2.3594-8.3398-3.6992-18.16-3.6914-28.781 0-6.5703 0.5-13.449 1.5703-20.488 1.5-9.9023 3.9609-19.18 7.1211-27.473 4.7305-12.438 11.07-22.648 17.77-29.418 3.3398-3.3906 6.7422-5.9219 10-7.5508 3.2695-1.6289 6.3398-2.3906 9.2812-2.3906 0.83984 0 1.668 0.0625 2.5 0.19141 2.2109 0.33984 4.2891 1.0898 6.3477 2.3086 3.082 1.8203 6.1133 4.75 8.8438 8.8203 2.7266 4.0508 5.1367 9.1992 6.9883 15.199 0.87109 2.793 3.2617 4.8203 6.1484 5.2109 2.8906 0.40234 5.75-0.91797 7.3203-3.3711 4.4023-6.8477 9.3008-12.168 14.109-15.609 2.4023-1.7305 4.7734-3 7.043-3.8203 2.2773-0.82031 4.4375-1.207 6.5586-1.207 0.83984 0 1.6719 0.058594 2.5 0.1875 1.7109 0.26172 3.3398 0.76953 4.9492 1.5508 2.8008 1.3594 5.5625 3.582 8.1523 6.75 3.8789 4.7188 7.2891 11.559 9.6484 19.91 2.3594 8.3398 3.6914 18.172 3.6914 28.789 0 6.5703-0.5 13.441-1.5703 20.48v-0.007813l7.418 1.1289 7.4219 1.1211c1.168-7.7734 1.7305-15.383 1.7305-22.723 0-9.0391-0.85156-17.66-2.4922-25.617-1.2305-5.9727-2.8984-11.562-5.0078-16.703-3.1719-7.6875-7.3125-14.367-12.582-19.559-2.6406-2.5898-5.5586-4.8008-8.7695-6.5117-3.1992-1.6992-6.6914-2.8867-10.34-3.4375-1.5898-0.24219-3.168-0.35938-4.75-0.35938-3.9883 0-7.918 0.75-11.668 2.1094-5.6211 2.0391-10.832 5.4102-15.613 9.7188-4.7695 4.332-9.1289 9.6211-13.039 15.691l6.3086 4.0586 7.1602-2.2188c-2.957-9.5391-7.1875-17.852-12.859-24.34-2.8398-3.2305-6.0508-6-9.6406-8.1406-3.5898-2.1289-7.5586-3.6094-11.758-4.2422-1.582-0.23828-3.1719-0.35938-4.75-0.35938-3.6992 0-7.3594 0.65234-10.859 1.832-6.1406 2.0703-11.793 5.7188-16.93 10.469-7.7109 7.1523-14.363 16.809-19.703 28.25-5.3281 11.441-9.3398 24.68-11.508 39.039v-0.007813c-1.1797 7.7773-1.7422 15.398-1.7422 22.738 0 9.0391 0.85156 17.66 2.4922 25.609 1.2305 5.9727 2.8984 11.562 5.0078 16.691 3.1719 7.6914 7.3125 14.359 12.582 19.551 2.6406 2.5898 5.5586 4.8008 8.7695 6.5078 3.1992 1.7031 6.6797 2.8906 10.332 3.4414h0.007813c1.5703 0.23828 3.1602 0.35938 4.7422 0.35938 3.9883 0 7.918-0.75 11.656-2.1094 5.6328-2.0391 10.832-5.4102 15.613-9.7188 4.7695-4.3203 9.1289-9.6094 13.039-15.68l-6.3008-4.0625-7.1602 2.2227c2.9609 9.5391 7.1914 17.848 12.859 24.328 2.8398 3.2422 6.0508 6.0117 9.6406 8.1406s7.5586 3.6094 11.762 4.2383c1.5781 0.24219 3.168 0.36328 4.75 0.36328 3.707 0 7.3594-0.65234 10.867-1.832 6.1328-2.0781 11.793-5.7305 16.93-10.48 7.7109-7.1406 14.352-16.801 19.703-28.238 5.3281-11.441 9.3398-24.672 11.52-39.02l-7.4219-1.1211"/>
 <path d="m1538 1812.2c2.3672 14.27 6.8906 26.52 12.051 36.66 1.8672 3.6914 6.3867 5.1719 10.078 3.2891 3.6914-1.8789 5.1602-6.3984 3.2891-10.09-4.5508-8.9492-8.5273-19.73-10.629-32.32-0.67969-4.0898-4.5391-6.8477-8.6289-6.168-4.0898 0.67969-6.8516 4.5508-6.1602 8.6289"/>
 <path d="m1871.9 1719.8c4.7695 11.441 8.4688 21.359 10.957 28.398 1.25 3.5234 2.1992 6.3203 2.832 8.2305 0.32031 0.95312 0.55859 1.6797 0.71875 2.1719 0.070312 0.25 0.12891 0.42969 0.17187 0.55078l0.039063 0.12891 0.007813 0.039063c0.65234 2.0703 2.1719 3.7695 4.1602 4.6406 1.9922 0.85938 4.2812 0.82812 6.2422-0.10938 0.16797-0.082031 5.7891-2.7422 13.449-5.3125 3.8203-1.2891 8.1602-2.5586 12.531-3.4883 4.3672-0.94141 8.7891-1.5195 12.688-1.5195 2.5195 0 4.8203 0.23828 6.75 0.71875 1.9414 0.47266 3.4805 1.1602 4.6914 2 0.82812 0.58984 1.4805 1.2109 2.0312 1.9297 0.80859 1.0625 1.4297 2.3398 1.8672 3.9609 0.44141 1.6094 0.67188 3.5312 0.66016 5.6289 0.011719 2.8008-0.39844 5.9023-1.0391 8.9414-0.96875 4.5586-2.4805 8.9688-3.7383 12.16-0.63281 1.6016-1.2031 2.8984-1.6016 3.7812-0.19922 0.4375-0.35156 0.76953-0.46094 0.98828-0.050781 0.10937-0.089844 0.17969-0.10938 0.23047l-0.019531 0.050782 3.6914 1.8398-3.6914-1.8516v0.011719l3.6914 1.8398-3.6914-1.8516c-0.94922 1.9023-1.0508 4.1016-0.28906 6.0703 0.76953 1.9688 2.3281 3.5312 4.3008 4.2891l1.7695-4.5977-1.8008 4.5898 0.03125 0.007813 1.7695-4.5977-1.8008 4.5898 0.058593-0.14062-0.058593 0.14062 0.058593-0.14062-0.058593 0.14062c0.070312 0.019531 1.3477 0.53906 3.1602 1.5781 2.7305 1.5508 6.6094 4.293 9.5781 8.0625 1.5 1.8867 2.793 4.0273 3.7109 6.4492 0.92187 2.4297 1.4805 5.1484 1.4922 8.3711-0.011719 1.6797-0.36328 3.0273-1.0312 4.3984-0.58203 1.1914-1.4492 2.3789-2.6289 3.5703-2.0508 2.0898-5.0625 4.0898-8.4805 5.75-5.1094 2.5195-11.051 4.2812-15.621 5.3477-2.2812 0.53125-4.2305 0.90234-5.5898 1.1328-0.67187 0.11719-1.1992 0.19922-1.5508 0.25-0.16797 0.019531-0.30078 0.039062-0.37891 0.050781l-0.082031 0.007812h-0.007813l0.41797 3.3203-0.41016-3.3203h-0.007813l0.41797 3.3203-0.41016-3.3203c-4.0703 0.51172-6.957 4.1602-6.5273 8.2305l4.5469-0.48047-4.5469 0.46094v0.019531l4.5469-0.48047-4.5469 0.46094c0 0.078125 0.097656 1.1211 0.097656 2.7305 0 1.8281-0.12891 4.4102-0.59766 7.1797-0.35156 2.0703-0.89062 4.25-1.6914 6.3008-0.58984 1.5469-1.3203 3.0195-2.1914 4.3477-1.3203 2-2.918 3.6914-5.0273 5.0508-2.1211 1.3516-4.793 2.4102-8.5195 2.8789h0.007813c-1.0781 0.13281-2.1602 0.20312-3.25 0.20312-2.5781 0-5.1992-0.37109-7.8281-1.0508-4.6094-1.1914-9.2617-3.3594-13.602-6.0312-6.5195-3.9883-12.301-9.0781-16.359-13.141-2.0391-2.0195-3.6484-3.7891-4.7305-5.0273-0.55078-0.62109-0.96094-1.1016-1.2188-1.4219-0.14062-0.17188-0.23047-0.28125-0.29297-0.35938l-0.058594-0.070313-0.007812-0.019531-2.5703 2.0391 2.5703-2.0312v-0.007813l-2.5703 2.0391 2.5703-2.0312c-1.2734-1.6172-3.1211-2.6172-5.1836-2.8203-2.0469-0.1875-4.0586 0.45312-5.6094 1.8008l0.28125 0.33203-0.28125-0.33203 0.28125 0.33203-0.28125-0.33203c-0.25 0.21094-17.379 14.922-44.641 29.449-13.617 7.2734-29.77 14.5-47.566 19.883-17.812 5.3906-37.242 8.9375-57.5 8.9375-17.84 0-36.301-2.7383-54.992-9.4102-18.68-6.668-37.598-17.277-56.34-33.188l-0.25-0.19922-3.1211 4.0078 3.1523-3.9883-0.03125-0.019531-3.1211 4.0078 3.1523-3.9883-0.38281 0.48047 0.38281-0.48047-0.38281 0.48047 0.38281-0.48047c-0.011719-0.011719-0.19922-0.16016-0.51953-0.45312-3.1211-2.7266-7.8633-2.4297-10.59 0.69141-2.7305 3.1094-2.4297 7.8516 0.67969 10.582 0.66016 0.57813 1.0703 0.91016 1.1875 0.98828l4.6016-5.918-4.8516 5.7188c20.031 17.02 40.59 28.598 61.012 35.891 20.41 7.2891 40.66 10.277 60.031 10.277 22.18 0 43.227-3.9102 62.289-9.7188 28.598-8.7188 52.77-21.711 69.879-32.531s27.141-19.5 27.359-19.68l-4.9102-5.668-5.8906 4.6484c0.22266 0.26172 6.4023 8.1016 16.273 16.152 4.9375 4.0078 10.816 8.0977 17.469 11.25 3.3203 1.5781 6.8398 2.918 10.539 3.8789s7.5898 1.5312 11.59 1.5312c1.6797 0 3.3906-0.10156 5.1016-0.32031h0.007812c3.3828-0.42187 6.4922-1.2227 9.3203-2.3516 4.9609-1.9805 8.9922-5 12.012-8.4414 2.2773-2.5781 4.0195-5.3789 5.3477-8.1797 1.9922-4.1992 3.082-8.4102 3.7031-12.16 0.62891-3.7578 0.77734-7.0703 0.77734-9.5078 0-2.4922-0.16016-4.0703-0.17969-4.2812l-7.4609 0.78125 0.93359 7.4492c0.15625-0.019531 2.9766-0.37891 7.1992-1.2891 3.1602-0.67969 7.0977-1.6602 11.309-3.082 3.1602-1.0586 6.4688-2.3594 9.7305-3.9688 2.4414-1.2188 4.8594-2.6094 7.1602-4.2422 3.4414-2.4492 6.6602-5.4492 9.1016-9.2695 1.2188-1.8984 2.2266-4.0078 2.9297-6.2969 0.6875-2.2812 1.0703-4.7305 1.0703-7.25 0.007813-6.9414-1.7812-13.043-4.4336-18.012-1.9766-3.7383-4.4297-6.8711-6.9297-9.4492-3.7695-3.8711-7.6875-6.5312-10.707-8.2891-3.0234-1.75-5.1602-2.5898-5.4531-2.7031l-2.6875 7 6.7109 3.3516c0.097656-0.19922 2.1562-4.3398 4.2578-10.422 1.0508-3.0391 2.1094-6.5664 2.9219-10.367 0.79688-3.8008 1.3672-7.8828 1.3672-12.062 0-4.1797-0.55859-8.5195-2.2305-12.707-0.83984-2.0898-1.957-4.1406-3.418-6.0312-1.4492-1.8906-3.2422-3.6211-5.3086-5.0703-3.0117-2.1094-6.3516-3.4609-9.7305-4.2812-3.3906-0.82812-6.8516-1.1484-10.312-1.1484-5.4297 0.007813-10.867 0.78125-16.047 1.8984-7.7617 1.6719-14.941 4.1211-20.242 6.1602-5.3008 2.0312-8.7188 3.6602-8.8516 3.7305l3.2305 6.7617 7.1602-2.2305c-0.046875-0.16016-5.4102-17.34-15.207-40.832-1.6016-3.8203-5.9922-5.6172-9.8125-4.0273-3.8203 1.5977-5.6289 5.9883-4.0273 9.8086"/>
 <path d="m1766.3 1577.1c-7.7188-3.2695-15.711-6.0508-23.91-8.2773-15.609-4.2422-29.891-6.0234-42.84-6.0234-17.398 0-32.391 3.2109-44.961 7.8008-12.578 4.5898-22.75 10.543-30.648 15.93v0.011718c-5.832 3.9883-10.461 7.6992-13.77 10.238-1.6289 1.2695-2.9609 2.2422-3.7305 2.7227-0.17969 0.10938-0.33203 0.19922-0.42969 0.25l-0.082031 0.039062v0.007813l1.2227 2.8906-0.76172-3.0391c-0.26953 0.070312-0.39844 0.12109-0.46094 0.14844l1.2227 2.8906-0.76172-3.0391 1.2812 5.1016v-5.25c-0.60156 0-1.0117 0.078125-1.2812 0.14844l1.2812 5.1016v-5.25 5.7188l0.30859-5.7109c-0.070313-0.007812-0.17969-0.007812-0.30859-0.007812v5.7188l0.30859-5.7109-0.41016 7.4922 1.0625-7.4297h-0.023437l-0.41797 2.8594 0.46094-2.8516-0.042969-0.007813-0.41797 2.8594 0.46094-2.8516-0.98047 6.082 1.9492-5.8398c-0.57031-0.19141-0.85938-0.22266-0.96875-0.24219l-0.98047 6.082 1.9492-5.8398c-3.9297-1.3203-8.1797 0.80859-9.4883 4.7383-1.3125 3.9297 0.80859 8.1719 4.7383 9.4805 0.51953 0.17969 0.89844 0.25 1.1719 0.30078 0.25781 0.050781 0.41016 0.070312 0.46875 0.078125l0.64844 0.070312c0.14062 0 0.3125 0.011719 0.51172 0.011719 0.9375 0 1.7188-0.14062 2.3906-0.3125 1.25-0.32031 2.1484-0.75 2.9805-1.1797 1.418-0.76953 2.6367-1.6172 3.9688-2.5898 1.9805-1.4609 4.1602-3.1992 6.6992-5.1484 2.5391-1.9492 5.4297-4.1211 8.6992-6.3516h-0.007812c7.1875-4.9102 16.23-10.168 27.328-14.219 11.102-4.0508 24.262-6.9023 39.82-6.9023 11.582 0 24.5 1.582 38.902 5.5 7.5391 2.043 14.887 4.6016 22 7.6133 3.8164 1.6172 8.2188-0.16016 9.8281-3.9805 1.6211-3.8125-0.16016-8.2109-3.9805-9.832"/>
 <path d="m1886.4 1758.1 2.7773-0.35938-2.7773 0.33984v0.019532l2.7773-0.35938-2.7773 0.33984c0 0.058594 0.30078 2.5391 0.30078 6.8789 0 7.8125-0.97266 21.621-6.2734 38.25-5.3086 16.652-14.918 36.109-32.348 55.492-2.7695 3.0781-2.5195 7.8203 0.55859 10.59 3.0703 2.7695 7.8203 2.5195 10.59-0.5625 18.961-21.059 29.621-42.539 35.492-60.957 5.8672-18.422 6.9805-33.773 6.9805-42.812 0-5.3594-0.39062-8.5-0.43359-8.7773-0.52734-4.1133-4.2891-7.0117-8.3867-6.4805-4.1133 0.52734-7.0117 4.2891-6.4805 8.3984"/>
 <path d="m1710.4 1682.6 7.4609 0.73828c0.007813-0.058594 0.039063-0.33984 0.10156-0.71875 0.23828-1.5312 0.86719-4.7383 2.0195-9.0391 2-7.5625 5.5781-18.602 11.449-31.09 8.8086-18.762 22.75-40.762 44.199-59.539 10.719-9.3906 23.32-18 38.172-25.051 14.84-7.043 31.93-12.543 51.68-15.652 3.9102-0.61719 7.8203-0.94922 11.699-0.94922 3.9375 0 7.8281 0.33984 11.629 1.0703 12.52 2.4102 21.379 7.7109 27.129 13.949 5.75 6.2617 8.4102 13.5 8.4102 20.121 0 3.2695-0.63672 6.3906-1.8867 9.2383-1.25 2.8633-3.1016 5.4531-5.6406 7.7109-1.9297 1.7109-2.8398 4.2812-2.4219 6.832 0.42188 2.5469 2.1094 4.6875 4.4922 5.6875l0.070313 0.042969c0.17969 0.089844 0.65625 0.36719 1.2383 0.80859 1.0312 0.76953 2.3984 2.0195 3.7812 3.5898 2.0781 2.3594 4.1875 5.4414 5.7188 8.8086 1.5312 3.3828 2.4688 7.0117 2.4609 10.633 0 2.5977-0.46094 5.2188-1.5898 7.9492-0.83984 2.0508-2.082 4.1797-3.8711 6.3906-2.6719 3.3086-6.6211 6.8086-12.301 10.277-5.6797 3.4727-13.09 6.8906-22.551 10.02-3.2695 1.0898-5.3867 4.2812-5.1094 7.7227 0.011719 0.14844 0.089843 1.3281 0.089843 3.207 0 2.7422-0.17969 6.9805-0.9375 11.66-0.57031 3.5234-1.4727 7.2812-2.832 10.863-1.0195 2.6797-2.2891 5.2383-3.8281 7.5469-2.3203 3.4727-5.2109 6.332-9.0117 8.4219-1.8984 1.0391-4.0586 1.8984-6.5586 2.5078-2.5117 0.60156-5.3711 0.96094-8.6719 0.96094-2.668 0-5.6211-0.23828-8.8711-0.75781-3.1289-0.5-6.2383 1.0078-7.7578 3.7891l3.0898 1.6992-3.082-1.7188-0.007813 0.019531 3.0898 1.6992-3.082-1.7188c-0.007813 0.027344-4.8477 8.5781-14.887 16.859-5.0195 4.1484-11.32 8.2383-18.992 11.301-7.6797 3.0586-16.73 5.1094-27.438 5.1094-5.6523 0-11.762-0.57031-18.371-1.8906-10.98-2.1914-20.652-7.8008-27.859-15.641-7.2109-7.8477-11.922-17.879-13.031-28.969-0.35156-3.5312-0.55078-7.3086-0.55078-11.34 0-3.9102 0.19141-8.0508 0.62109-12.422l-7.4609-0.73828-7.4609-0.74219c-0.48828 4.8633-0.69922 9.5-0.69922 13.902 0 4.5312 0.23047 8.8086 0.62891 12.82 1.4336 14.418 7.5938 27.5 16.902 37.629 9.3203 10.141 21.82 17.391 35.98 20.211 7.5273 1.5 14.641 2.1797 21.301 2.1797 12.84 0.007813 24.02-2.5312 33.438-6.3516 7.0703-2.8672 13.16-6.4492 18.289-10.188 7.7109-5.6328 13.301-11.621 17.012-16.25 3.7109-4.6406 5.5391-7.9297 5.7109-8.2305l-6.5703-3.6211-1.1992 7.4102c3.9688 0.64062 7.7188 0.94922 11.258 0.94922 5.1914 0 9.9414-0.66797 14.242-1.9297 3.7578-1.0977 7.168-2.6602 10.199-4.5586 5.3086-3.332 9.3984-7.6914 12.461-12.352 2.2969-3.5 4.0469-7.168 5.3867-10.801 2.0117-5.457 3.1211-10.848 3.7617-15.59 0.64062-4.7383 0.78125-8.8477 0.78125-11.73 0-2.6172-0.12109-4.2383-0.13281-4.3984l-7.4766 0.58984 2.3594 7.1211c9.1797-3.0391 16.859-6.4102 23.289-10.07 4.8203-2.7422 8.9297-5.6484 12.398-8.7109 5.2109-4.5898 8.9922-9.5586 11.422-14.699s3.4883-10.422 3.4805-15.398c0-4.8633-0.97266-9.4414-2.4727-13.562-2.2578-6.1797-5.6602-11.391-9.1484-15.449-1.7617-2.0195-3.5391-3.7617-5.3086-5.2109-0.88281-0.71875-1.7617-1.3672-2.6602-1.9492-0.91016-0.57812-1.8203-1.0898-2.8594-1.5312l-2.9102 6.9102 4.9766 5.6094c4.1523-3.6797 7.332-8.1094 9.4336-12.918 2.0977-4.8203 3.1367-10.012 3.1367-15.25 0-10.641-4.2578-21.461-12.367-30.27-8.1133-8.832-20.07-15.621-35.352-18.531-4.8086-0.91797-9.6484-1.3398-14.449-1.3398-4.7305 0-9.4219 0.40234-14.039 1.1289-33.211 5.2305-59.98 16.91-81.262 31.652-15.961 11.039-28.828 23.789-39.141 36.758-15.48 19.473-25.23 39.43-31.219 55.223-3 7.8984-5.0508 14.758-6.3906 20.02-0.67969 2.6289-1.168 4.8594-1.5312 6.6484-0.16797 0.89062-0.30859 1.6719-0.41797 2.3398-0.10938 0.67969-0.19141 1.2422-0.24219 1.7891l7.4609 0.74219"/>
 <path d="m1634.4 1588.7c-0.03125-0.058594-12.52-19.309-27.102-39.539-7.3008-10.129-15.109-20.492-22.262-28.922-3.5781-4.2188-6.9883-7.957-10.18-11.008-1.6094-1.5195-3.1602-2.8828-4.7188-4.0625-1.5703-1.1797-3.1094-2.1875-4.9414-2.9883l-2.9766 6.8789-1.4219 7.3594s0.12891 0.03125 0.39844 0.082031c1.9609 0.37891 11 2.1602 20.281 4.2188 4.6289 1.0391 9.332 2.1523 13.191 3.1719 1.918 0.50781 3.6289 1 4.9688 1.4375 0.66016 0.21094 1.2422 0.41016 1.6719 0.58203 0.4375 0.16016 0.75 0.30078 0.82813 0.33984 2.7109 1.3594 5.9609 0.94922 8.25-1.0312 2.3008-1.9805 3.1719-5.1406 2.2305-8.0195l-7.1016-21.609h65.582l20.531 34.758c1.5195 2.5703 4.3984 3.9805 7.3594 3.6328 2.9688-0.35938 5.418-2.4297 6.2773-5.2891l11.57-38.441-7.1797-2.1602-3.1797 6.8008 0.5-1.0703-0.5 1.0703 0.5-1.0703-0.5 1.0703c0.058594 0.027344 5.1094 2.3906 12.602 6.418 5.6172 3.0195 12.617 6.9805 19.918 11.582 5.4727 3.4492 11.109 7.2578 16.461 11.277 8.0117 6.0312 15.352 12.59 20.41 18.93 2.5391 3.1602 4.5 6.2617 5.7617 9.1016 1.2773 2.8516 1.8594 5.3984 1.8594 7.6719 0 0.46875-0.03125 0.92969-0.082031 1.3789-0.42969 4.1211 2.5625 7.8203 6.6719 8.25 4.1172 0.44141 7.8203-2.5508 8.25-6.6719 0.097656-0.98828 0.16016-1.9688 0.16016-2.957 0-2.8633-0.44141-5.6719-1.1914-8.3906-1.4297-5.082-3.9609-9.8203-7.1211-14.312-5.5586-7.8398-13.129-15.02-21.367-21.617-12.352-9.8711-26.262-18.352-37.141-24.441-10.883-6.0898-18.723-9.7617-18.84-9.8086-1.9609-0.92188-4.25-0.94141-6.2422-0.050781-1.9805 0.87891-3.4883 2.5977-4.1094 4.6797l-6.6406 22.051-14.008-23.699c-1.3516-2.293-3.8008-3.6914-6.4492-3.6914h-80.211c-2.4102 0-4.6719 1.1484-6.082 3.1016-1.4102 1.9492-1.8008 4.457-1.0508 6.7383l10.332 31.449 7.1211-2.3398 3.3594-6.7109c-0.78906-0.38672-1.5508-0.69922-2.3711-1.0078-1.5078-0.5625-3.2188-1.1016-5.1484-1.6523-3.3516-0.95703-7.332-1.9492-11.473-2.918-12.398-2.9023-26.168-5.5508-26.219-5.5586-3.7578-0.72266-7.4609 1.5-8.5898 5.1562-1.1289 3.6523 0.67969 7.5703 4.1914 9.0938 0.1875 0.066406 0.91797 0.47656 1.8477 1.1875 1.7812 1.3398 4.3125 3.7109 7.1211 6.7188 4.9414 5.293 10.859 12.582 16.852 20.453 8.9883 11.82 18.207 25 25.16 35.188 3.4688 5.0898 6.3672 9.4531 8.4102 12.52 1.0195 1.543 1.8164 2.7617 2.3594 3.5898 0.26953 0.41016 0.48047 0.73047 0.61719 0.95312 0.070312 0.097656 0.12109 0.17969 0.16016 0.23828l0.050781 0.082031c2.25 3.4688 6.9023 4.457 10.371 2.207 3.4805-2.2578 4.4688-6.8984 2.2188-10.379"/>
 <path d="m1583 1527.1c-0.17188 0.089844-1.75 0.91797-4.0703 2.4297-3.4805 2.2773-8.6484 6.0586-13.238 11.449-2.293 2.7109-4.4414 5.8281-6.0625 9.4492-1.6094 3.6016-2.6875 7.7305-2.6797 12.191-0.007813 3.7383 0.76172 7.6602 2.3789 11.531 1.6328 3.8789 4.0898 7.707 7.4102 11.469l5.6211-4.9688-6.5781-3.6133c-0.16016 0.30078-1.0312 1.9219-1.9023 4.5117-0.87109 2.5898-1.7578 6.168-1.7578 10.41-0.011718 2.3086 0.26953 4.8203 1 7.4102 1.0703 3.8789 3.2383 7.9102 6.6797 11.41 3.4375 3.5078 8.0703 6.4688 13.969 8.7383 3.8594 1.4922 8.1992-0.42969 9.6914-4.3008 1.4883-3.8594-0.42969-8.1992-4.3008-9.6875-2.8594-1.1094-5.0117-2.3125-6.6094-3.5-1.2031-0.89062-2.1094-1.7617-2.8125-2.6094-1.0391-1.2695-1.6602-2.4727-2.0586-3.7031-0.39844-1.2188-0.55859-2.4766-0.55859-3.7578-0.011718-2.0703 0.46875-4.1523 0.96875-5.6289 0.25-0.74219 0.5-1.3398 0.66797-1.7031 0.082031-0.1875 0.15234-0.32031 0.18359-0.37891l0.019531-0.050781-3.2695-1.7188 3.2383 1.7812 0.03125-0.0625-3.2695-1.7188 3.2383 1.7812c1.5312-2.7812 1.1484-6.2031-0.94922-8.582-2.4102-2.7305-3.9102-5.168-4.8125-7.3203-0.88672-2.1484-1.2188-4-1.2188-5.7383 0-1.3789 0.21094-2.7188 0.62109-4.0625 0.69922-2.3281 2.0508-4.707 3.7891-6.9297 2.6094-3.3477 6.1016-6.2773 8.8984-8.2695 1.4023-1 2.6328-1.7695 3.4727-2.2695 0.41797-0.25781 0.75-0.4375 0.96094-0.55859 0.097656-0.0625 0.17969-0.10156 0.21875-0.12109l0.03125-0.019532-1.2734-2.4102 1.2617 2.4219 0.011719-0.011719-1.2734-2.4102 1.2617 2.4219c3.668-1.9102 5.1016-6.4414 3.1914-10.113-1.9219-3.6797-6.4414-5.1094-10.121-3.1875"/>
 <path d="m1513.6 1751.6c-0.16016 0.082031-1.8203 1.0312-4.2695 2.7227-3.668 2.5391-9.1211 6.707-13.949 12.43-2.4102 2.8711-4.6602 6.1484-6.3789 9.8906-1.7109 3.7305-2.8633 7.9805-2.8633 12.559 0 3.7109 0.78125 7.6016 2.4414 11.371 2.5 5.6875 6.6484 10.25 11.629 13.359 4.9922 3.0977 10.82 4.8008 16.852 4.8008h0.16016c6.5703-0.03125 14.301-0.42188 22.129-0.42188 5.4805 0 10.98 0.19141 16.039 0.78125 3.793 0.42969 7.332 1.0977 10.391 2.0078 2.2891 0.69141 4.3125 1.5234 5.9805 2.4531 1.2617 0.69922 2.3203 1.457 3.2109 2.2695 1.3281 1.207 2.2695 2.5 2.9609 4.1094 0.6875 1.6094 1.1367 3.5977 1.1367 6.2695 0 0.73047-0.027344 1.5-0.10938 2.3203l7.4727 0.66797-3.9102-6.3867 2.5195 4.1094-2.4727-4.1523-0.046875 0.042968 2.5195 4.1094-2.4727-4.1523 0.5 0.85156-0.48828-0.85156h-0.011719l0.5 0.85156-0.48828-0.85156c-0.011719 0.011718-2.2188 1.3008-6.4297 2.582-4.2188 1.2812-10.43 2.5703-18.539 2.5703-4.043 0-8.5625-0.32031-13.531-1.1328-1.0391-0.15625-2.0781-0.25-3.1094-0.25-2.6602 0-5.2188 0.5625-7.5 1.5625-3.4297 1.5-6.25 3.9297-8.2422 6.8984-1.9766 2.9727-3.1602 6.5391-3.168 10.34-0.011718 3.3828 0.98828 6.9219 3.0078 10.012 1.8203 2.8008 4 5.5977 6.6406 8.2305 3.9414 3.9492 8.9219 7.5 15 10 6.082 2.5195 13.223 3.9805 21.391 3.9688 9.4805 0 20.352-1.9297 32.91-6.3203 5.5703-1.9609 10.41-4.3008 14.551-7.0586 6.1992-4.1094 10.852-9.2109 13.801-14.922 1.4688-2.8398 2.5273-5.8203 3.207-8.8398 0.68359-3.0078 0.98047-6.0703 0.98047-9.1211 0-4.9688-0.78906-9.9062-2.0977-14.75-2.3008-8.4766-6.1797-16.707-10.641-24.398-6.6914-11.52-14.73-21.828-21.129-29.328-6.4023-7.5117-11.16-12.191-11.281-12.301-2.9492-2.9102-7.6992-2.8711-10.602 0.089844-2.9102 2.9492-2.8672 7.6992 0.089844 10.598l0.23047-0.23828-0.23047 0.23828 0.23047-0.23828-0.23047 0.23828c0.15234 0.14062 10.641 10.543 20.891 24.652 5.1211 7.0508 10.18 15.031 13.859 22.98 1.8398 3.9688 3.332 7.918 4.3516 11.719 1.0195 3.7891 1.5586 7.4102 1.5586 10.738 0 2.7422-0.35938 5.2812-1.0977 7.6328-0.55078 1.7695-1.3203 3.4375-2.3516 5.0586-1.5508 2.4219-3.7109 4.75-6.7891 6.9688-3.082 2.2227-7.1016 4.3125-12.25 6.1211-11.309 3.9609-20.531 5.4922-27.961 5.4805-4.2812 0-7.9609-0.5-11.168-1.3281-4.8203-1.2617-8.5898-3.2617-11.723-5.6914-3.1172-2.4297-5.5898-5.3086-7.5469-8.3398-0.47266-0.73047-0.59375-1.2695-0.60156-1.8516 0-0.42969 0.089844-0.89062 0.28906-1.3398 0.28125-0.67969 0.8125-1.3398 1.4414-1.7773 0.64844-0.43359 1.3281-0.67188 2.1797-0.68359 0.21875 0 0.46094 0.023437 0.71875 0.0625 5.7695 0.92969 11.09 1.3203 15.922 1.3203 10.168 0 18.16-1.6992 23.688-3.4609 5.543-1.7695 8.6133-3.5898 9.0508-3.8594 2.0312-1.2422 3.3398-3.3516 3.5508-5.7188 0.12109-1.25 0.16797-2.4727 0.16797-3.6719 0-3.4805-0.47656-6.7695-1.457-9.8086-0.85938-2.6602-2.1016-5.1133-3.6406-7.2812-1.3516-1.8906-2.9219-3.5703-4.6289-5.0312-3-2.5508-6.4102-4.4297-10-5.8672-5.3906-2.1406-11.203-3.3203-17.141-4.0117-5.9414-0.69141-12.012-0.89062-17.852-0.89062-8.2891 0-16.16 0.39062-22.211 0.42188h0.042968-0.12109c-3.1992 0-6.3203-0.91016-8.8984-2.5312-2.5938-1.6211-4.6328-3.8906-5.8516-6.6602-0.85156-1.9609-1.1602-3.6602-1.1719-5.3398 0-1.3789 0.23047-2.75 0.67187-4.1797 0.78125-2.4805 2.2695-5.0898 4.1992-7.5586 2.8906-3.7227 6.7305-7.043 9.8008-9.332 1.5391-1.1484 2.8789-2.0508 3.8086-2.6406 0.47266-0.30078 0.83203-0.51953 1.0703-0.66016 0.10938-0.070312 0.19922-0.11719 0.25-0.14844l0.039062-0.03125h0.011719l-1.5898-2.8008 1.5781 2.8008h0.011719l-1.5898-2.8008 1.5781 2.8008-2.9688-5.2383 2.9609 5.25 0.007812-0.011719-2.9688-5.2383 2.9609 5.25c3.6094-2.0391 4.8789-6.6211 2.8477-10.223-2.0391-3.6094-6.6172-4.8789-10.219-2.8398"/>
 <path d="m1618.1 1836.1c0.089843 0.94141 0.37109 1.9609 0.83203 2.8516 0.39844 0.78906 0.91797 1.4688 1.4492 2.0117 0.94141 0.9375 1.8711 1.4375 2.6094 1.7578 1.1328 0.48047 1.9414 0.60937 2.6406 0.71094 0.69922 0.078125 1.2891 0.097656 1.8594 0.097656 1.332 0 2.6016-0.10938 4.0625-0.27734 2.5391-0.28906 5.5898-0.75 9.2578-1.2891 5.4805-0.80078 12.312-1.7734 20.25-2.543 7.9414-0.76953 16.992-1.3398 26.871-1.3398 14.25 0 30.219 1.1797 47.07 4.6602 14.52 3 26.16 7.7695 35.52 13.18 14.02 8.1328 22.941 17.75 28.359 25.293 2.7109 3.7695 4.5391 7 5.6719 9.2383 0.55859 1.1211 0.94922 1.9805 1.1797 2.5391 0.11719 0.28125 0.19922 0.48047 0.25 0.58984l0.039062 0.10938 3.2109-1.1797-3.2227 1.1523 0.011718 0.027344 3.2109-1.1797-3.2227 1.1523c1.3906 3.8984 5.6797 5.9297 9.582 4.5391 3.8984-1.3906 5.9375-5.6914 4.5391-9.5898-0.23828-0.67187-4.5078-12.371-16.91-25.719-6.2109-6.6719-14.449-13.73-25.191-19.953-10.727-6.2188-23.938-11.578-40-14.887-18.02-3.7227-35.02-4.9727-50.098-4.9727-15.93 0-29.742 1.4023-40.352 2.7891-5.3008 0.69141-9.8008 1.3906-13.301 1.8906-1.7383 0.25-3.2383 0.45312-4.418 0.58984-1.1719 0.13281-2.0508 0.19141-2.3711 0.17969h-0.089843l-0.050781 1.0234 0.10156-1.0117-0.050781-0.011719-0.050781 1.0234 0.10156-1.0117-0.37891 3.8711 0.89844-3.7812c-0.28906-0.070313-0.44922-0.078125-0.51953-0.089844l-0.37891 3.8711 0.89844-3.7812-1.3203 5.5898 2.2305-5.2891c-0.39844-0.17188-0.69141-0.25-0.91016-0.30078l-1.3203 5.5898 2.2305-5.2891-2.5312 6 3.5898-5.4297c-0.41016-0.26953-0.75781-0.44922-1.0586-0.57031l-2.5312 6 3.5898-5.4297-3.8281 5.7773 5.8008-3.7969c-0.62109-0.94141-1.3594-1.582-1.9727-1.9805l-3.8281 5.7773 5.8008-3.7969-5.9102 3.8789 7.0391-0.67187c-0.089844-1.0586-0.51172-2.2773-1.1289-3.207l-5.9102 3.8789 7.0391-0.67187c-0.39062-4.1172-4.0508-7.1484-8.168-6.7578-4.1328 0.39062-7.1602 4.0508-6.7734 8.168"/>
 <path d="m1545.2 1683.9c-1.0781 11.039-7.8008 19.418-15 18.707-7.1992-0.69922-12.16-10.23-11.078-21.27 1.0898-11.051 7.8086-19.43 15.008-18.719 7.1992 0.71094 12.16 10.238 11.07 21.281"/>
 <path d="m1599.5 1690c-1.0898 11.043-7.8086 19.422-15.008 18.711-7.1992-0.69922-12.16-10.23-11.082-21.27 1.0898-11.051 7.8125-19.43 15.012-18.719 7.1992 0.70703 12.16 10.238 11.078 21.277"/>
 <path d="m1620.7 1506.9s0.67969 0.75 1.7617 2.1406c0.53906 0.69141 1.1992 1.5391 1.8984 2.5391s1.5117 2.1211 2.3203 3.3906c3.3008 5.0195 7.1484 12.062 10.242 19.441 0.76953 1.8516 1.5273 3.6914 2.1875 5.5508 0.71094 1.8398 1.3203 3.6797 1.8711 5.4805 0.28125 0.89844 0.57031 1.7773 0.82031 2.6367 0.23047 0.88281 0.46094 1.7422 0.67969 2.5703 0.42969 1.6719 0.82812 3.25 1.0977 4.7305 0.30078 1.4805 0.54297 2.8398 0.74219 4.043 0.19141 1.2188 0.28906 2.2773 0.39063 3.1562 0.1875 1.75 0.23828 2.7617 0.23828 2.7617s-0.46875-0.89844-1.1992-2.5c-0.71094-1.5898-1.7188-3.8594-2.9297-6.5898-1.1719-2.7109-2.5312-5.8789-4-9.2695-1.4297-3.3906-2.9688-7.0117-4.5-10.629-0.76172-1.8125-1.5195-3.6211-2.2617-5.4102-0.75-1.793-1.4883-3.543-2.1797-5.2617-0.71875-1.6992-1.3594-3.3711-2.0078-4.9414-0.62109-1.5781-1.2109-3.0664-1.7617-4.457-1.0586-2.7812-1.9297-5.1094-2.5078-6.7617-0.3125-0.82031-0.51172-1.4883-0.67187-1.9297-0.14844-0.44922-0.23047-0.69141-0.23047-0.69141"/>
 <path d="m1741.2 1699.3s0.058594-0.14062 0.17969-0.40234c0.11719-0.27734 0.29688-0.6875 0.53906-1.2305 0.46875-1.0078 1.1406-2.4492 2.0391-4.2383 1.7812-3.5898 4.4102-8.582 7.8594-14.359 1.7227-2.9023 3.6523-5.9922 5.7617-9.1992 2.1211-3.2109 4.3984-6.5508 6.8789-9.9219 1.2109-1.6992 2.5312-3.3711 3.8203-5.0898 1.3398-1.6914 2.6719-3.4102 4.0586-5.0898 1.4102-1.6797 2.8008-3.3984 4.2695-5.0508l2.2031-2.5 2.25-2.4492c3.0078-3.2617 6.1602-6.3906 9.3086-9.3984 1.5703-1.5 3.2109-2.9219 4.7812-4.3633 1.6172-1.3789 3.2188-2.75 4.8008-4.0898 1.6172-1.2773 3.2188-2.5391 4.7773-3.7695 1.6016-1.168 3.1719-2.3203 4.6914-3.4375 3.1094-2.1523 6.0703-4.1406 8.8906-5.8203 0.69922-0.42969 1.3789-0.85156 2.0469-1.2617 0.69141-0.37891 1.3633-0.75781 2.0117-1.1211 1.3008-0.72656 2.5391-1.4102 3.6992-2.0586 2.3906-1.1797 4.4414-2.2383 6.1602-3.0508 3.4727-1.5273 5.4609-2.4102 5.4609-2.4102s-1.832 1.1523-5.0391 3.1602c-1.582 1.043-3.4492 2.3828-5.6016 3.8711-1.0391 0.78906-2.1484 1.6406-3.3203 2.5312-0.57812 0.44922-1.1797 0.91016-1.7891 1.3672-0.58984 0.5-1.1992 1-1.8203 1.5234-2.5 2.0195-5.0703 4.3594-7.7617 6.8594-1.3086 1.2773-2.6484 2.5977-4.0195 3.9492-1.3203 1.3984-2.668 2.8203-4.0391 4.2695-1.3203 1.5-2.6602 3.0195-4.0078 4.5586-1.3008 1.5898-2.6523 3.1602-3.9414 4.8008-2.5703 3.2891-5.1094 6.6719-7.4922 10.16l-1.7969 2.6211-1.7227 2.6484c-1.1602 1.75-2.2305 3.5508-3.3203 5.3203-1.0781 1.7695-2.0898 3.5625-3.1094 5.3203-0.96875 1.7891-1.9688 3.5195-2.8672 5.2812-1.8633 3.4805-3.5312 6.8984-5.0703 10.16-1.5195 3.2695-2.8906 6.3789-4.082 9.2773-2.3984 5.793-4.1406 10.68-5.25 14.082-0.55859 1.7109-0.96875 3.0391-1.2188 3.918-0.0625 0.21094-0.12109 0.41016-0.17188 0.58203-0.027344 0.14062-0.070312 0.25781-0.089844 0.35938-0.058594 0.23047-0.097656 0.33984-0.097656 0.33984-1.4414 5.3516-6.9531 8.5117-12.301 7.0586-5.3398-1.4492-8.5-6.957-7.0508-12.297 0.12109-0.46094 0.26953-0.90234 0.46094-1.332l0.03125-0.078125"/>
 <g fill="#f6da24">
  <path d="m1847 805.37c-4.2812 6.8789-6.5586 12.34-6.7812 12.879l-0.1602 0.42188c-0.047 0.12891-1.7383 5.0664-4.6094 12.938l-12.34-28.668 23.891 2.4297"/>
  <path d="m1821.9 866.81c-2.3516 5.7305-4.8398 11.652-7.4297 17.543-0.8125 1.8281-1.6016 3.6094-2.3828 5.3398l-10.949-22.062 20.762-0.82031"/>
  <path d="m1759.6 872.84-13.891 22.91c-3.2969-8.7305-6.3789-17.68-9.1484-26.09l23.039 3.1797"/>
  <path d="m1733.2 806.72-9.6406 23.57c-1.9102-4.7578-5.9219-13.93-11.941-23.57h21.582"/>
 </g>
 <path d="m1906.8 859.23-0.23828 0.30859c-1.4336 1.9219-35.09 47.531-45.742 84.062-10.051 34.457-33.098 76.66-85.84 82.25-1.2305 0-10.691-0.27344-23.328-7.8203-0.99219-0.58984-2.0117-1.2305-3.0625-1.9297-12.559-8.3906-29.598-25.23-44.719-58.84-33.121-73.602-56.559-104.84-58.641-107.55-0.57813-0.83984-6.2383-9.25-8.5078-19.973-3.0312-14.367 1.3789-26.328 13.109-35.527 7.1797-5.6328 14.098-7.3906 21.168-5.3711 17.652 5.0195 33.371 32.371 39.629 49.5 1.6133 4.3906 3.7109 10.98 6.1328 18.621 6.6875 21.008 13.418 41.199 20.598 58.078 0.089844 0.23047 0.19141 0.48047 0.30078 0.69922 10.801 25.223 22.629 42.902 36.891 44.652 9.1992 1.1289 18.5-6.0703 29.262-22.629 6.2266-9.6016 13.098-22.543 20.438-38.543 1.1914-2.5781 2.3906-5.2383 3.6016-7.9805 4.4492-10.09 8.6289-20.258 12.289-29.527 0.039062-0.10156 0.082031-0.19922 0.12109-0.3125 0.91797-2.3398 1.8086-4.6289 2.668-6.8398l0.089844-0.25c6.332-16.398 10.602-28.738 11.23-30.559 3.1797-7.6406 14.52-27.891 30.109-33.02 7.7227-2.5586 15.691-1.25 24.34 3.9883 8.3633 5.0625 13.09 11.391 14.461 19.352 3.5312 20.59-16.168 44.918-16.359 45.16" fill="#f4f4f4"/>
 <path d="m1960.2 969.11c0 9.5625-1.1016 18.93-3.1914 28-2.1094 9.1289-5.2305 17.969-9.2695 26.43-20.66 43.359-65.27 76.789-120.24 89-9 2-18.281 3.4414-27.77 4.25-1.2422-0.66797-2.6914-1-4.1914-0.86719-1.3984 0.12891-2.6719 0.62891-3.7305 1.3984-3.5078 0.16797-7.0508 0.26953-10.621 0.26953-14.25 0-28.109-1.3906-41.398-4.0117-10.762-2.1172-21.16-5.0469-31.07-8.707-48.32-17.82-85.418-52.871-99.91-95.691-4.3086-12.758-6.6211-26.199-6.6211-40.07 0-16.699 3.3008-34.211 9.5234-51.551 6.2578-17.43 15.449-34.668 27.188-50.699 8.9102 13.402 27.672 44.102 51.281 96.551 33.461 74.352 77.688 77.441 84.789 77.441 0.46875 0 0.78125-0.011718 0.91016-0.023437l0.33984-0.019531c27.691-2.8672 50.832-14.707 68.801-35.199 13.25-15.121 23.41-34.559 30.191-57.82 9.6367-33.027 41.328-76.52 43.297-79.199 0.41016-0.5 1.5117-1.9102 3.0117-4.0117 10.039 13.242 18.309 27.332 24.598 41.684 9.1523 20.949 14.082 42.457 14.082 62.848" fill="#d51e25"/>
 <path d="m1653.9 1278.4c-0.41797 0-0.83984 0.007812-1.2578 0.007812-40.41 0-69.352-16.82-86.012-50-6.4609-12.867-9.8281-25.918-11.578-35.801 12.316 5.1133 32.688 6.1406 64.117-11.59l0.60156-0.37891c68.391-47.621 111.87-3.4102 121.21 7.7188-1.0508 6.5703-2.3125 12.82-3.8203 18.301-4.293 15.609-7.9805 32.281-7.3125 46.949-5.8789 5.6719-27.27 22.48-75.949 24.793" fill="#2fa840"/>
 <path d="m1800.4 1270.4c-4.5703 5.4102-13.633 7.9297-28.5 7.9297-10.582 0-17.781-2.6992-22.012-8.25-10.82-14.191-1.7578-47.109 1.6602-59.512 6.8008-24.711 8.7617-62.359 9.3203-78.91 6.6797 0.58203 13.43 0.87891 20.238 0.87891 2.832 0 5.6406-0.058594 8.4414-0.15625 1.0391 8.7773 3.1602 24.848 7.1719 50.18-1.6914 3.0195-1.082 6.8203 1.4688 9.1602 0.73047 4.457 1.5 9.1484 2.3281 14.109 5.8633 34.859 7.5703 55.48-0.11719 64.57" fill="#2fa840"/>
 <path d="m1781.2 1277.6c-2.7969 0.26953-5.8906 0.40234-9.2773 0.40234-10.582 0-17.781-2.6914-22.012-8.25-10.82-14.191-1.7578-47.109 1.6484-59.5 6.8125-24.723 8.7734-62.371 9.332-78.922 5.2305 0.44922 10.5 0.74219 15.801 0.85156-0.58984 16.938-2.6016 53.77-9.2891 78.07-3.4102 12.391-12.473 45.309-1.6602 59.5 3.2891 4.3203 8.3789 6.918 15.457 7.8477" fill="#37b63e"/>
 <path d="m1985.8 1227.9c-16.633 33.473-45.633 50.43-86.23 50.43-0.42188 0-0.83984-0.007812-1.25-0.007812-58.402-2.7695-77.539-26.41-77.672-26.582l-0.050781-0.058593c0.33203-13.32-2.0586-29.539-5.2188-48.34-0.98828-5.9102-1.8984-11.43-2.7383-16.629 4.7695-5.2812 14.738-14.84 29.238-21.281 27.891-12.379 58.359-7.2891 90.562 15.129l0.59766 0.37891c31.449 17.75 51.82 16.703 64.141 11.582-1.7188 9.7383-5.0312 22.602-11.379 35.379" fill="#2fa840"/>
 <g fill="#fff">
  <path d="m1664.4 963.61c0 25.66-20.797 46.469-46.469 46.469-3.1406 0-6.1992-0.3086-9.1602-0.8984-4.3086-12.758-6.6211-26.199-6.6211-40.07 0-16.699 3.3008-34.219 9.5234-51.551 2.0469-0.28906 4.1367-0.42969 6.2578-0.42969 25.672 0 46.469 20.812 46.469 46.48"/>
  <path d="m1829.9 1097.6c0 5.2109-0.8594 10.211-2.4297 14.891-9 2-18.281 3.4414-27.77 4.25-1.2422-0.668-2.6914-1-4.1914-0.8672-1.3984 0.1289-2.6719 0.6289-3.7305 1.3984-3.5078 0.168-7.0508 0.2695-10.621 0.2695-14.25 0-28.109-1.3906-41.398-4.0117-1.8086-4.9688-2.8008-10.328-2.8008-15.93 0-25.66 20.801-46.469 46.473-46.469 25.656 0 46.469 20.809 46.469 46.469"/>
  <path d="m1960.2 969.11c0 9.5625-1.1016 18.922-3.1914 28-4.2969 1.3008-8.8672 2.0117-13.598 2.0117-25.672 0-46.473-20.801-46.473-46.461 0-25.672 20.801-46.48 46.473-46.48 0.9102 0 1.8203 0.0312 2.707 0.082 9.1523 20.949 14.082 42.457 14.082 62.848"/>
  <path d="m1912.1 1043.9c0 14.07-11.41 25.48-25.48 25.48s-25.48-11.41-25.48-25.48c0-14.078 11.41-25.488 25.48-25.488s25.48 11.41 25.48 25.488"/>
  <path d="m1710.4 1032.9c0 14.07-11.41 25.48-25.477 25.48-14.082 0-25.48-11.41-25.48-25.48s11.398-25.48 25.48-25.48c14.066 0 25.477 11.41 25.477 25.48"/>
 </g>
 <path d="m1719.2 1026.1c-0.078126 0 0.17969-0.089844 0.83984-0.26953 0.21094-0.0625 0.48047-0.11328 0.80078-0.12109-0.98047 0.25781-1.5508 0.39062-1.6406 0.39062" fill="#a81c21"/>
 <path d="m1774.9 1025.9c-1.2305 0-10.691-0.27344-23.328-7.8203-0.99219-0.58984-2.0117-1.2305-3.0625-1.9297 31.66-13.273 77.242-40.293 74.59-84.312-0.66797-11.051-0.19922-21.898 1.0703-32.57 1.1914-2.5781 2.3906-5.2383 3.6016-7.9805 4.4492-10.09 8.6289-20.258 12.289-29.527 0.039062-0.10156 0.082031-0.19922 0.12109-0.3125 0.91797-2.3398 1.8086-4.6289 2.668-6.8398l0.089844-0.25c6.332-16.398 10.602-28.738 11.23-30.559 3.1797-7.6406 14.52-27.891 30.109-33.02 2.543-0.83984 5.1133-1.2695 7.7227-1.2695 5.3203 0 10.82 1.75 16.617 5.2578 8.3633 5.0625 13.09 11.391 14.461 19.352 0.28906 1.6914 0.42188 3.3984 0.42188 5.1211 0.007812 19.297-16.609 39.82-16.781 40.039l-0.23828 0.30859c-1.4336 1.9219-35.09 47.531-45.742 84.062-10.051 34.457-33.098 76.66-85.84 82.25" fill="#dad9d7"/>
 <path d="m1730.5 1232.2s-0.5-0.16797-1.4297-0.5c-0.96094-0.32031-2.3906-0.78906-4.2383-1.3516-3.7031-1.1172-9.0625-2.6094-15.613-4.0195-3.2695-0.69922-6.8281-1.3984-10.617-2-1.9023-0.30859-3.8398-0.61719-5.8398-0.84766-1-0.13281-2.0195-0.26172-3.043-0.39063-1.0195-0.10156-2.0469-0.21094-3.0898-0.30859-1.0469-0.10156-2.0977-0.20312-3.1602-0.30078-1.0586-0.0625-2.1289-0.13281-3.1992-0.19141-1.0703-0.058593-2.1602-0.14844-3.25-0.17969s-2.1797-0.050782-3.2773-0.070313c-1.0898-0.007812-2.2031-0.078125-3.3125-0.039062-1.0977 0.019531-2.2109 0.050781-3.3203 0.070312-2.2891 0.050781-4.5898 0.097657-6.8789 0.16016-2.2617 0.089843-4.6719-0.019532-7-0.0625-2.3594-0.007813-4.6406-0.20703-6.9297-0.33984-4.5586-0.29688-9.0195-0.76953-13.309-1.3281-2.1523-0.25-4.25-0.60156-6.3008-0.90234-2.0625-0.28906-4.0625-0.65625-6.0117-1-1.9492-0.31641-3.8398-0.69922-5.6602-1.0586-1.8281-0.33984-3.5781-0.71875-5.2695-1.0781-1.6797-0.35156-3.2891-0.71094-4.8203-1.082-1.5273-0.33984-2.9805-0.6875-4.3281-1.0312-2.7227-0.65625-5.082-1.2773-7.0117-1.7969-3.8711-1.0508-6.0586-1.7422-6.0586-1.7422s2.2383 0.49219 6.1797 1.1914c1.9688 0.34766 4.3711 0.75781 7.1211 1.1797 1.3789 0.21875 2.8398 0.42969 4.3867 0.64062 1.543 0.21875 3.1719 0.4375 4.8711 0.64062 1.6992 0.20703 3.4688 0.41797 5.3008 0.59766 1.8398 0.19922 3.7305 0.40234 5.6797 0.55078 1.9492 0.16016 3.9492 0.35156 6 0.46094 2.0508 0.12109 4.1406 0.27734 6.2695 0.32812 4.25 0.17969 8.6523 0.24219 13.09 0.14062 2.2227-0.070312 4.4727-0.070312 6.6719-0.25781 2.2188-0.16016 4.3906-0.24219 6.6875-0.54297 2.2695-0.25 4.543-0.50781 6.793-0.75781 1.168-0.13281 2.3281-0.26172 3.4766-0.39063 1.1602-0.12891 2.3203-0.17187 3.4727-0.26172 1.1484-0.078125 2.3008-0.16016 3.4375-0.23828 1.1406-0.058593 2.2812-0.070312 3.4102-0.10937 1.1328-0.03125 2.2617-0.0625 3.3828-0.089844 1.1094 0 2.2188 0.007812 3.3203 0.019531 1.0977 0.007813 2.1875 0.019531 3.2695 0.03125 1.0781 0.039063 2.1406 0.078125 3.1992 0.11719 2.1211 0.0625 4.1797 0.21094 6.1914 0.35156 4.0273 0.26953 7.8164 0.66797 11.309 1.1094 6.9883 0.87109 12.781 1.9297 16.84 2.7695 2.0312 0.42969 3.6406 0.80078 4.7383 1.0586 1.1211 0.28125 1.7227 0.44141 1.7227 0.44141l-3.8516 12.41" fill="#37b63e"/>
 <path d="m1812.3 1219.8s0.60156-0.16016 1.7188-0.44141c1.1016-0.25781 2.7109-0.62891 4.7305-1.0586 4.0625-0.83984 9.8516-1.8984 16.852-2.7695 3.4883-0.44141 7.2812-0.83984 11.309-1.1094 2.0117-0.14062 4.0703-0.28906 6.1914-0.35156 1.0508-0.039062 2.1211-0.078124 3.1992-0.11719 1.082-0.011719 2.1719-0.023437 3.2695-0.03125 1.1016-0.011719 2.2109-0.019531 3.3203-0.019531 1.1211 0.027344 2.25 0.058594 3.3789 0.089844 1.1328 0.039062 2.2734 0.050781 3.4102 0.10937 1.1406 0.078126 2.293 0.16016 3.4414 0.23828 1.1484 0.089844 2.3086 0.13281 3.4688 0.26172 1.1523 0.12891 2.3125 0.25781 3.4727 0.39063 2.2578 0.25 4.5273 0.50781 6.7969 0.75781 2.3008 0.30078 4.4727 0.38281 6.6914 0.54297 2.1992 0.1875 4.4492 0.1875 6.6719 0.25781 4.4375 0.10156 8.8398 0.039063 13.09-0.14062 2.1289-0.050781 4.2188-0.20703 6.2695-0.32812 2.0508-0.10938 4.0508-0.30078 6-0.46094 1.9492-0.14844 3.8398-0.35156 5.6797-0.55078 1.8281-0.17969 3.5977-0.39062 5.3008-0.59766 1.6992-0.20312 3.3281-0.42188 4.8672-0.64062 1.5508-0.21094 3.0117-0.42188 4.3906-0.64062 2.75-0.42188 5.1523-0.83203 7.1211-1.1797 3.9414-0.69922 6.1797-1.1914 6.1797-1.1914s-2.1914 0.69141-6.0586 1.7422c-1.9414 0.51953-4.293 1.1406-7.0117 1.7969-1.3477 0.34375-2.8008 0.69141-4.3281 1.0312-1.5312 0.37109-3.1406 0.73047-4.8203 1.082-1.6914 0.35938-3.4414 0.73828-5.2695 1.0781-1.8203 0.35938-3.7109 0.74219-5.6602 1.0586-1.9531 0.34375-3.9531 0.71094-6.0117 1-2.0508 0.30078-4.1484 0.65234-6.3008 0.90234-4.2891 0.55859-8.75 1.0312-13.309 1.3281-2.2891 0.13281-4.5703 0.33203-6.9297 0.33984-2.332 0.042968-4.7422 0.15234-7 0.0625-2.2891-0.0625-4.5898-0.10938-6.8789-0.16016-1.1133-0.019531-2.2227-0.050781-3.3203-0.070312-1.1133-0.039063-2.2227 0.03125-3.3125 0.039062-1.0977 0.019531-2.1992 0.039063-3.2773 0.070313-1.0898 0.03125-2.1797 0.12109-3.25 0.17969-1.082 0.058594-2.1406 0.12891-3.2031 0.19141-1.0586 0.097656-2.1172 0.19922-3.1602 0.30078-1.0391 0.097656-2.0664 0.20703-3.0898 0.30859-1.0273 0.12891-2.0391 0.25781-3.0391 0.39063-2 0.23047-3.9492 0.53906-5.8398 0.84766-3.7891 0.60156-7.3477 1.3008-10.621 2-6.5469 1.4102-11.918 2.9023-15.609 4.0195-1.8477 0.5625-3.2773 1.0312-4.2383 1.3516-0.94141 0.33203-1.4297 0.5-1.4297 0.5l-3.8516-12.41" fill="#37b63e"/>
 <path d="m1739.8 1113.6c-10.762-2.1172-21.16-5.0469-31.07-8.707h0.83203c8.6484 0 17.988-0.24219 27.867-0.85156 0.46094 3.3086 1.2617 6.5117 2.3711 9.5586m87.711-1.0391c1.5703-4.6797 2.4297-9.6797 2.4297-14.891 0-3.2695-0.33984-6.457-0.98047-9.5391 16.762-5.0312 33.789-11.469 50.711-19.68 2.2305 0.64062 4.5781 0.98047 7.0195 0.98047 11.68 0 21.531-7.8594 24.539-18.59 12.461-7.9297 24.691-16.969 36.52-27.281-20.66 43.359-65.27 76.789-120.24 89" fill="#91191e"/>
 <path d="m1781.1 1117.6c-14.25 0-28.109-1.3906-41.398-4.0117-1.1094-3.0469-1.9102-6.25-2.3711-9.5586 27.371-1.668 58.91-6.1094 91.531-15.91 0.64062 3.082 0.98047 6.2695 0.98047 9.5391 0 5.2109-0.85938 10.211-2.4297 14.891-9 2-18.281 3.4414-27.77 4.25-1.0625-0.57812-2.2812-0.89844-3.5508-0.89844-0.21094 0-0.42188 0.007813-0.64062 0.03125-1.3984 0.12891-2.6719 0.62891-3.7305 1.3984-3.5078 0.16797-7.0508 0.26953-10.621 0.26953" fill="#b0afae"/>
 <path d="m1915.1 856.49c14.082 16.863 25.391 35.672 33.141 54.953 7.7695 19.27 11.961 39 11.961 57.668-0.011718 20.32-4.9102 39.652-13.852 57.332-13.398 26.508-35.949 49.309-64.57 65.48-28.609 16.156-63.227 25.656-100.59 25.656-49.797 0.011719-94.758-16.898-127.06-43.93-16.16-13.52-29.148-29.539-38.09-47.207-8.9414-17.68-13.852-37.012-13.852-57.332 0-18.238 3.9609-37.48 11.32-56.328 7.3594-18.84 18.102-37.281 31.512-53.902 2.5977-3.2305 2.0898-7.9492-1.1289-10.551-3.2305-2.5977-7.9531-2.0898-10.551 1.1328-14.352 17.801-25.852 37.508-33.801 57.867-7.9492 20.363-12.352 41.371-12.352 61.781 0 22.75 5.5312 44.461 15.461 64.102 14.91 29.469 39.66 54.301 70.582 71.77 30.918 17.461 68.059 27.598 107.96 27.598 53.203 0 101.5-18.008 136.69-47.43 17.602-14.707 31.922-32.297 41.852-51.938 9.9375-19.641 15.469-41.352 15.469-64.102-0.011718-20.91-4.6602-42.449-13.039-63.27-8.3828-20.82-20.492-40.93-35.551-58.961-2.6484-3.1797-7.3789-3.5977-10.559-0.94922-3.1836 2.6602-3.6133 7.3906-0.95312 10.559"/>
 <path d="m1775.4 1033.3-0.42188-7.4883 0.29297 5.0898-0.22266-5.0898h-0.070313l0.29297 5.0898-0.22266-5.0898 0.050781 1.0781-0.039063-1.0781h-0.011718l0.050781 1.0781-0.039063-1.0781h-0.17187c-0.70703 0-3.5781-0.082031-7.9297-1.2109-6.5391-1.7109-16.438-5.75-27.688-15.711-11.242-9.9609-23.871-25.918-35.461-51.668-34.23-76.051-58.371-107.2-58.762-107.7l-5.918 4.6133 6.0781-4.3906-3.5781 2.5898 3.5977-2.5703-0.019531-0.019531-3.5781 2.5898 3.5977-2.5703-0.027343-0.03125c-0.25-0.35938-2.7109-3.9492-5.0312-9.25-1.1602-2.6484-2.2812-5.7305-3.1016-9.0195-0.82812-3.3008-1.3398-6.8008-1.3398-10.34 0-4.5117 0.82031-9.0391 2.9102-13.52 2.1133-4.4805 5.5117-9 11.133-13.43 2.9688-2.332 5.7383-3.8594 8.2969-4.8203 2.5625-0.96094 4.9336-1.3594 7.2422-1.3594 2.25 0 4.4688 0.39062 6.7305 1.1484 3.9492 1.332 8.0508 3.8789 12.008 7.3906 5.9609 5.25 11.551 12.602 16.121 20.199 4.582 7.6016 8.1719 15.449 10.41 21.582 1.082 2.957 2.4297 7.0586 3.9805 11.867 2.7109 8.4414 6.0391 19.133 9.8594 30.453 2.8711 8.5 6.0117 17.359 9.4102 25.938 2.5391 6.4414 5.2305 12.73 8.0508 18.602 4.25 8.8203 8.7578 16.699 13.84 22.93 2.5586 3.1211 5.2578 5.8281 8.3281 8 1.5312 1.0781 3.1523 2.0078 4.9023 2.75 1.7383 0.73047 3.5977 1.2695 5.5391 1.5 0.60938 0.078125 1.2109 0.10938 1.8086 0.10938 1.6133 0 3.1602-0.26172 4.6133-0.67969 2.8086-0.83984 5.2383-2.2695 7.5-3.9805 2.1094-1.6211 4.0977-3.5312 6.0391-5.6797 3.6406-4.0312 7.1484-8.9492 10.66-14.531 6.1172-9.75 12.18-21.551 17.898-33.848 8.5703-18.422 16.359-37.941 22.031-52.891 5.668-14.949 9.1992-25.32 9.2188-25.371l-7.0898-2.4297 6.9414 2.8516-4.0508-1.6602 4.0391 1.668 0.011719-0.007813-4.0508-1.6602 4.0391 1.668 0.039063-0.089844c0.22266-0.51953 1.332-3.0781 3.2734-6.5781 1.4492-2.6211 3.3594-5.7695 5.668-8.9727 3.4609-4.8086 7.8594-9.6992 12.781-13.199 2.457-1.75 5.0508-3.168 7.7188-4.1289 2.6797-0.96875 5.4492-1.5117 8.4219-1.5117 2.3789 0 4.918 0.35156 7.668 1.1719 2.7617 0.82812 5.7422 2.1289 8.9688 4.0898 2.9922 1.8086 5.3828 3.7109 7.293 5.6406 2.8672 2.8984 4.6875 5.8594 5.8789 8.957 1.1797 3.0938 1.6992 6.3633 1.6992 9.8008 0.011719 4.5703-0.96094 9.4297-2.5078 14.121-2.3125 7.0508-5.9336 13.68-8.9609 18.449-1.5117 2.3906-2.8789 4.3203-3.8398 5.6211-0.48047 0.66016-0.87109 1.1602-1.1211 1.4805-0.12891 0.16016-0.21875 0.27734-0.28125 0.35938l-0.058594 0.070313-0.011719 0.007812 2.6133 2.1328-2.6016-2.1406-0.011719 0.007812 2.6133 2.1328-2.6016-2.1406-0.12109 0.14844-0.11719 0.15234c-0.082031 0.11719-8.7305 11.77-18.742 28.008-5.0078 8.1328-10.359 17.402-15.16 27-4.7891 9.6016-9.0508 19.512-11.84 29.062-2.4883 8.5586-5.8398 17.719-10.281 26.66-6.6602 13.43-15.75 26.34-28.008 36.328-6.1406 4.9883-13.07 9.2812-20.969 12.59-7.9102 3.3203-16.793 5.6602-26.871 6.6992l0.76953 7.4609-0.42188-7.4883 0.42188 7.4883 0.76953 7.4609c15.301-1.582 28.629-5.8711 40.051-12.051 8.5586-4.6289 16.051-10.309 22.559-16.629 9.7695-9.4805 17.34-20.383 23.23-31.48 5.8906-11.109 10.109-22.422 13.152-32.84 2.4062-8.2812 6.3281-17.492 10.859-26.551 6.7969-13.602 14.969-26.871 21.418-36.68 3.2227-4.9102 6.0117-8.9609 7.9922-11.762 0.98828-1.4102 1.7773-2.5 2.3203-3.2383 0.25781-0.37109 0.46875-0.64844 0.59766-0.83984 0.070313-0.089844 0.12109-0.16016 0.16016-0.19922l0.03125-0.050781 0.007813-0.011719-6.0195-4.4688 5.7891 4.7695c0.19141-0.25 5.0625-6.1602 10.023-15.191 2.4766-4.5078 4.9883-9.8086 6.9102-15.629 1.9102-5.8203 3.2578-12.18 3.2578-18.82 0-3.3203-0.33984-6.707-1.1406-10.09-1.1875-5.0703-3.418-10.117-6.8984-14.75-3.4805-4.6289-8.1523-8.8203-14.059-12.391-4.2031-2.5391-8.3516-4.4102-12.441-5.6289-4.0898-1.2188-8.1094-1.8008-11.969-1.8008-4.4531 0-8.6836 0.76172-12.582 2.0703-6.8281 2.2891-12.621 6.1797-17.469 10.539-7.2812 6.5703-12.582 14.25-16.18 20.332-3.5898 6.0898-5.4414 10.602-5.543 10.84l-0.089843 0.21094-0.070313 0.21094-0.027344 0.089844c-0.33203 0.94922-3.3125 9.6172-7.9922 22.066-3.5078 9.3438-7.9805 20.812-12.98 32.73-3.7578 8.9297-7.8164 18.133-12 26.852-3.1289 6.5391-6.3398 12.82-9.5195 18.52-2.3789 4.2812-4.75 8.2188-7.0586 11.699-3.4414 5.2109-6.7812 9.3594-9.5312 11.883-1.3672 1.2695-2.5703 2.1094-3.4102 2.5391-0.41016 0.21875-0.73828 0.33984-0.9375 0.39062-0.21094 0.058594-0.30078 0.058594-0.3125 0.058594v0.10938l0.011718-0.10938h-0.011718v0.10938l0.011718-0.10938c-0.58203-0.070312-1.2891-0.26953-2.2109-0.75-0.84766-0.44922-1.8594-1.1406-2.9609-2.1016-2.0703-1.7891-4.4102-4.5273-6.7773-7.9883-4.1523-6.0508-8.3906-14.281-12.371-23.41-6-13.719-11.488-29.52-16.121-43.691-2.3203-7.0898-4.4297-13.77-6.3008-19.629-1.8672-5.8594-3.5-10.871-4.8984-14.73-1.9688-5.3789-4.7305-11.641-8.1914-18.09-2.5977-4.8281-5.5977-9.7812-8.9883-14.52-5.1016-7.1016-11.039-13.781-18-18.891-3.4805-2.5508-7.2383-4.7109-11.281-6.2383-4.0391-1.5391-8.3906-2.4414-12.898-2.4297-4.1211-0.011719-8.3516 0.75-12.512 2.3086-4.168 1.5703-8.2773 3.9297-12.289 7.0703-7.2695 5.6992-12.328 12.168-15.461 18.871-3.1289 6.6992-4.3281 13.539-4.3203 19.879 0 5.2305 0.79297 10.16 1.9414 14.59 1.7305 6.6484 4.2695 12.23 6.3906 16.211 2.1211 3.9883 3.8281 6.3789 3.9883 6.5977l0.082031 0.11328 0.078125 0.10938 0.24219-0.19141-0.24219 0.19141 0.24219-0.19141-0.24219 0.19141c0.35156 0.44922 23.672 30.77 56.922 104.63 8.1992 18.238 17.078 32.238 25.961 42.98 13.32 16.109 26.668 24.84 37.379 29.418 10.711 4.5898 18.711 5.043 21.418 5.043 0.48047 0 0.80078-0.011718 0.94141-0.023437l0.17188-0.007813 0.16797-0.019531-0.76953-7.4609"/>
 <path d="m1697 806.72h36.211l-17.223 42.133c-1.5703 3.8281 0.26953 8.207 4.1016 9.7773 3.8281 1.5703 8.2109-0.26953 9.7812-4.0977l25.668-62.812h-58.539c-4.1406 0-7.5 3.3594-7.5 7.5 0 4.1523 3.3594 7.5 7.5 7.5"/>
 <path d="m1750.8 916.36 33.5-55.258-57.5-7.9414c-4.0977-0.55859-7.8906 2.3008-8.4492 6.4102-0.57031 4.1016 2.3008 7.8906 6.3984 8.4492l34.891 4.8203-21.668 35.738c-2.1523 3.543-1.0195 8.1523 2.5195 10.301 3.5508 2.1523 8.1602 1.0195 10.309-2.5195"/>
 <path d="m1819 903.6-17.859-35.973 32.34-1.2695c4.1406-0.16797 7.3594-3.6484 7.1992-7.7891-0.16797-4.1406-3.6484-7.3594-7.7891-7.1992l-55.48 2.1797 28.152 56.719c1.8477 3.7109 6.3477 5.2305 10.059 3.3906 3.7109-1.8516 5.2188-6.3516 3.3789-10.059"/>
 <path d="m1842.8 848.72-19.711-45.777 36.77 3.75c4.1211 0.41797 7.8008-2.582 8.2227-6.7031 0.41797-4.1289-2.582-7.8086-6.6992-8.2266l-62.16-6.332 29.797 69.219c1.6406 3.8125 6.0508 5.5625 9.8633 3.9297 3.7969-1.6367 5.5586-6.0469 3.918-9.8594"/>
 <path d="m1746.1 1123.3v0.14062c-0.019531 1.5-0.25 15.09-1.5078 31.957-0.62109 8.4297-1.5 17.68-2.7305 26.613-1.2227 8.9297-2.8008 17.559-4.75 24.617-1.7695 6.4492-3.6016 13.59-5 20.961-1.4023 7.3711-2.3828 14.961-2.3828 22.379 0 5.4102 0.52344 10.742 1.8828 15.852 1.0195 3.8203 2.5195 7.5195 4.668 10.93 1.6094 2.5508 3.582 4.9297 5.9219 7.0195 3.5 3.1289 7.8281 5.5898 12.801 7.1914 4.9766 1.6094 10.609 2.4102 16.93 2.4102 8.2383-0.011719 15.32-0.69141 21.527-2.332 4.6523-1.2305 8.832-3.0195 12.453-5.5195 2.707-1.8594 5.0781-4.1289 7.0273-6.7109 2.9297-3.8789 4.8594-8.3984 6.0312-13.289 1.1797-4.8984 1.6406-10.199 1.6406-16.008 0-6.3125-0.55078-13.211-1.4805-20.871-0.92969-7.6406-2.2305-16.031-3.7812-25.25-4.8906-29.121-7.8281-49.352-9.5391-62.262-0.85937-6.457-1.4102-11.09-1.75-14.09-0.16016-1.5-0.28125-2.5898-0.35156-3.3008-0.027344-0.34766-0.058594-0.60938-0.070312-0.77734l-0.019532-0.17969v-0.042969l-2.1602 0.19141 2.1602-0.19141-2.1602 0.19141 2.1602-0.19141c-0.36719-4.1289-4-7.1797-8.1289-6.8164-4.1289 0.35938-7.1797 4-6.8203 8.1289 0.03125 0.25 2.0508 23.277 11.879 81.82 1.5312 9.1094 2.8125 17.301 3.6914 24.578 0.87891 7.2812 1.3711 13.641 1.3711 19.062 0.007812 5.918-0.58984 10.68-1.7109 14.27-0.83984 2.707-1.9219 4.75-3.2695 6.418-1.0195 1.2617-2.2109 2.332-3.7305 3.3125-2.2695 1.4492-5.332 2.6797-9.4609 3.5391-4.1211 0.85938-9.2773 1.3203-15.508 1.3203-6.0117 0-10.57-0.91016-14-2.293-2.582-1.0469-4.543-2.3477-6.1523-3.8789-1.2109-1.1602-2.2305-2.4492-3.1094-3.9375-1.3203-2.2227-2.3086-4.8906-2.9688-7.9805-0.66016-3.082-0.97266-6.5703-0.97266-10.312 0-6.0898 0.83203-12.828 2.1211-19.578 1.2812-6.7617 3-13.531 4.7188-19.781 2.293-8.3008 3.9727-17.789 5.2812-27.461 1.9414-14.5 3-29.348 3.582-40.629 0.57031-11.281 0.66797-18.961 0.66797-19.039 0.050781-4.1406-3.2578-7.5391-7.4102-7.5898-4.1406-0.050781-7.5391 3.2695-7.5898 7.4102"/>
 <path d="m1754.9 1181.9c-0.30859-0.42188-7-9.6797-19.668-19.051-6.332-4.6797-14.172-9.3906-23.473-12.941-9.2891-3.5508-20.051-5.9297-32.051-5.9297-9.9766 0-20.789 1.6406-32.258 5.5195-11.469 3.8828-23.602 9.9805-36.32 18.832l4.2891 6.1602-3.6875-6.5312c-8.8125 4.9688-16.434 8.1914-22.934 10.148-6.5 1.9727-11.879 2.6836-16.289 2.6836-4.1992 0-7.5391-0.64062-10.219-1.5312-4.0195-1.3516-6.6289-3.2891-8.2617-4.832-0.80859-0.75781-1.3594-1.4297-1.668-1.8398-0.16016-0.20703-0.25-0.34766-0.28906-0.41016l-0.023437-0.027344-3.4297 2.0977 3.5-1.9883-0.070313-0.10938-3.4297 2.0977 3.5-1.9883-14.348-25.18 0.32812 28.98c0 0.29688 0.10156 7.5391 1.9609 18.359 1.3906 8.1094 3.7695 18.238 7.8984 28.961 3.1133 8.0469 7.1914 16.43 12.613 24.508 8.1172 12.129 19.297 23.602 34.457 31.969 7.5703 4.1836 16.113 7.582 25.68 9.9219 9.582 2.3398 20.172 3.6289 31.871 3.6211h1.6601l0.15234-0.011719c32.777-1.5195 54.84-9.2109 68.797-16.809 13.973-7.5898 19.77-15.039 20.32-15.781 2.4805-3.3203 1.8008-8.0195-1.5195-10.5-3.3086-2.4805-8.0078-1.8008-10.488 1.5195l4.3281 3.2422-4.3008-3.293-0.027344 0.050781 4.3281 3.2422-4.3008-3.293 1.1016 0.83984-1.0898-0.85938-0.011718 0.019531 1.1016 0.83984-1.0898-0.85938c-0.050781 0.0625-4.6719 5.9609-16.641 12.25-11.988 6.293-31.391 13.012-61.211 14.41l0.35156 7.4922-0.070312-7.5c-0.46875 0-0.92969 0-1.3906 0.007812-12.57-0.007812-23.41-1.6406-32.82-4.418-8.2305-2.4414-15.367-5.7617-21.617-9.7109-10.934-6.9102-19.191-15.77-25.5-25.32-9.4609-14.32-14.434-30.219-16.941-42.508-1.2617-6.1406-1.9102-11.371-2.25-15.023-0.17188-1.8203-0.26172-3.25-0.30078-4.1992-0.03125-0.48047-0.039063-0.82812-0.039063-1.0586-0.011719-0.10938-0.011719-0.19141-0.011719-0.24219v-0.046876l-0.64844 0.007813 0.64844-0.007813-0.64844 0.007813 0.64844-0.007813-7.0078 0.089844 7.0078-0.082031v-0.007813l-7.0078 0.089844 7.0078-0.082031-7.5 0.082031-6.5195 3.7188c0.37891 0.64844 2.7305 4.6016 8.1094 8.5117 2.6797 1.9492 6.1211 3.8672 10.34 5.2773 4.2305 1.4219 9.2305 2.3203 14.98 2.3125 6.0391 0 12.902-0.98047 20.633-3.3203 7.7266-2.3398 16.34-6.0195 25.957-11.453l0.3125-0.16797 0.28906-0.21094c11.699-8.1406 22.559-13.551 32.559-16.93 9.9922-3.3711 19.121-4.7305 27.449-4.7305 10.023 0 18.902 1.9727 26.703 4.9414 11.68 4.4609 20.879 11.23 27.109 16.898 3.1094 2.8203 5.4688 5.3594 7.0195 7.1602 0.78125 0.89062 1.3516 1.6094 1.7188 2.0703 0.17969 0.23047 0.32031 0.41016 0.39063 0.51172l0.082031 0.10938 0.007812 0.007813 3.1719-2.3086-3.1797 2.2891 0.007812 0.019532 3.1719-2.3086-3.1797 2.2891c2.418 3.3594 7.1094 4.1328 10.469 1.6992 3.3594-2.418 4.1211-7.0977 1.6992-10.457"/>
 <path d="m1809.4 1190.6-2.2422-1.6094 2.2305 1.6289 0.011719-0.019532-2.2422-1.6094 2.2305 1.6289c0.070313-0.10938 6.0703-8.25 16.941-16.148 5.4297-3.9492 12.059-7.8516 19.758-10.75 7.7109-2.8906 16.473-4.8008 26.344-4.8008 8.3164 0 17.449 1.3594 27.449 4.7305 9.9883 3.3789 20.848 8.7891 32.551 16.93l0.28906 0.21094 0.30859 0.16797c9.6211 5.4336 18.23 9.1133 25.961 11.453s14.59 3.3203 20.641 3.3203c5.7383 0.007812 10.738-0.89062 14.969-2.3125 6.3516-2.1211 10.891-5.3711 13.832-8.168 2.9375-2.8008 4.3398-5.1328 4.6172-5.6211l-6.5195-3.7188-7.5-0.082031 6.8516 0.082031-6.8516-0.089844v0.007813l6.8516 0.082031-6.8516-0.089844v0.039063c-0.007812 0.62891-0.19141 7.5781-2.0195 17.539-1.3594 7.4609-3.6484 16.609-7.4297 26.039-2.8398 7.082-6.5117 14.312-11.23 21.141-7.0898 10.262-16.488 19.602-29.168 26.461-12.703 6.8516-28.793 11.289-49.633 11.309-0.46094-0.007812-0.91797-0.007812-1.3906-0.007812l-0.058594 7.5 0.35156-7.4922c-30.781-1.4492-50.461-8.5586-62.34-15.008-5.9414-3.2305-9.9414-6.3125-12.391-8.4922-1.2305-1.0898-2.0703-1.957-2.5703-2.5-0.25-0.27734-0.41016-0.46875-0.49219-0.57031l-0.070313-0.089844-1.0586 0.83203 1.0703-0.8125-0.011719-0.019531-1.0586 0.83203 1.0703-0.8125-3.4805 2.6602 3.4922-2.6367-0.011718-0.023438-3.4805 2.6602 3.4922-2.6367-4.7305 3.5781 4.7383-3.5703-0.007813-0.007812-4.7305 3.5781 4.7383-3.5703-5.918 4.4492 5.9375-4.4297-0.019531-0.019531-5.918 4.4492 5.9375-4.4297c-2.4805-3.3203-7.1797-4-10.5-1.5195s-4 7.1797-1.5195 10.5c0.55078 0.74219 6.3594 8.1914 20.32 15.781 13.961 7.5977 36.02 15.289 68.801 16.809l0.14844 0.011719h1.6601c13.859 0.007812 26.18-1.8008 37.082-5.0312 9.5391-2.8203 17.969-6.7305 25.379-11.41 12.969-8.1914 22.73-18.719 30-29.738 10.91-16.551 16.328-34.211 19.121-47.762 2.7695-13.551 2.8984-23.051 2.8984-23.398l0.33203-28.98-14.34 25.18 2.9688 1.6992-2.9023-1.8203-0.066406 0.12109 2.9688 1.6992-2.9023-1.8203c-0.019531 0.03125-1.418 2.2422-4.5664 4.3516-1.582 1.0586-3.6016 2.1172-6.1914 2.9297-2.5898 0.80859-5.7695 1.3711-9.6992 1.3711-4.4219 0-9.8008-0.71094-16.301-2.6836-6.5-1.957-14.121-5.1797-22.93-10.148l-3.6797 6.5312 4.2773-6.1602c-12.707-8.8516-24.848-14.949-36.316-18.832-11.473-3.8789-22.281-5.5195-32.25-5.5195-12.012 0-22.773 2.3789-32.062 5.9297-13.949 5.332-24.609 13.242-31.84 19.812-7.2383 6.5781-11.07 11.859-11.301 12.18-2.418 3.3594-1.6602 8.0391 1.7031 10.457 3.3672 2.4336 8.0469 1.6602 10.469-1.6992"/>
 <path d="m1886.6 1069.4c-2.4414 0-4.7891-0.33984-7.0195-0.98047 10.598-5.1484 21.16-10.988 31.559-17.609-3.0078 10.73-12.859 18.59-24.539 18.59" fill="#b0afae"/>
</svg>
