<svg enable-background="new 0 0 864 864" version="1.1" viewBox="0 0 864 864" xmlns="http://www.w3.org/2000/svg">
 <style type="text/css">.st0{fill:#0F0604;}
	.st1{fill:#110907;}
	.st2{fill:#0D0907;}
	.st3{fill:#33271A;}
	.st4{fill:#120806;}
	.st5{fill:#100A07;}
	.st6{fill:#120705;}
	.st7{fill:#261716;}
	.st8{fill:#281710;}
	.st9{fill:#2D595B;}
	.st10{fill:#372A1C;}
	.st11{fill:#1D1712;}
	.st12{fill:#331D16;}
	.st13{fill:#CDECE4;}
	.st14{fill:#2D1B12;}
	.st15{fill:#342018;}
	.st16{fill:#F9D976;}
	.st17{fill:#DBB19C;}
	.st18{fill:#E29862;}
	.st19{fill:#281B14;}
	.st20{fill:#E09761;}
	.st21{fill:#E19961;}
	.st22{fill:#D9B09B;}
	.st23{fill:#ECD070;}
	.st24{fill:#1B110A;}
	.st25{fill:#D2A45D;}
	.st26{fill:#382216;}
	.st27{fill:#D5A65E;}
	.st28{fill:#442B1D;}
	.st29{fill:#452B1D;}
	.st30{fill:#472D1E;}
	.st31{fill:#3E2619;}
	.st32{fill:#B2884A;}
	.st33{fill:#743D1D;}
	.st34{fill:#4B2E20;}
	.st35{fill:#FBF092;}
	.st36{fill:#FEE3C9;}
	.st37{fill:#FAF092;}
	.st38{fill:#E29962;}
	.st39{fill:#232017;}
	.st40{fill:#D7C66E;}
	.st41{fill:#795526;}
	.st42{fill:#E09861;}
	.st43{fill:#C1CE5E;}
	.st44{fill:#F7D875;}
	.st45{fill:#F6D874;}
	.st46{fill:#422D20;}
	.st47{fill:#BDCBCB;}
	.st48{fill:#25241A;}
	.st49{fill:#5B5A5D;}
	.st50{fill:#DE9861;}
	.st51{fill:#CF8C5A;}
	.st52{fill:#9C6135;}
	.st53{fill:#493220;}
	.st54{fill:#7AA5B7;}
	.st55{fill:#422819;}
	.st56{fill:#41281B;}
	.st57{fill:#D1C46A;}
	.st58{fill:#A7746B;}
	.st59{fill:#B9C9C6;}
	.st60{fill:#D7C86E;}
	.st61{fill:#472C1E;}
	.st62{fill:#7DA1B8;}
	.st63{fill:#563625;}
	.st64{fill:#B28B54;}
	.st65{fill:#C2A058;}
	.st66{fill:#362517;}
	.st67{fill:#FDE3C9;}
	.st68{fill:#9B8C49;}
	.st69{fill:#FAEF92;}
	.st70{fill:#857440;}
	.st71{fill:#877A3F;}
	.st72{fill:#412F29;}
	.st73{fill:#45403A;}
	.st74{fill:#221C10;}
	.st75{fill:#9C8B49;}
	.st76{fill:#42362A;}
	.st77{fill:#6D6133;}
	.st78{fill:#9B8B48;}
	.st79{fill:#4B4123;}
	.st80{fill:#413C36;}
	.st81{fill:#735021;}
	.st82{fill:#8F6A34;}
	.st83{fill:#83653B;}
	.st84{fill:#53492E;}
	.st85{fill:#3F271A;}
	.st86{fill:#653F2C;}
	.st87{fill:#746837;}
	.st88{fill:#796D39;}
	.st89{fill:#918045;}
	.st90{fill:#362E1B;}
	.st91{fill:#4A371F;}
	.st92{fill:#A18151;}
	.st93{fill:#9D8D49;}
	.st94{fill:#CEC369;}
	.st95{fill:#E19962;}
	.st96{fill:#62472C;}
	.st97{fill:#3D261A;}
	.st98{fill:#503933;}
	.st99{fill:#534236;}
	.st100{fill:#B1E1E6;}
	.st101{fill:#3C2A21;}
	.st102{fill:#793B1A;}
	.st103{fill:#D8A460;}
	.st104{fill:#261812;}
	.st105{fill:#3C291D;}
	.st106{fill:#8F522A;}
	.st107{fill:#D8A361;}
	.st108{fill:#9A5D31;}
	.st109{fill:#965A2F;}
	.st110{fill:#AB8854;}
	.st111{fill:#AE7243;}
	.st112{fill:#AB7240;}
	.st113{fill:#A2673B;}
	.st114{fill:#D1A05E;}
	.st115{fill:#A2683A;}
	.st116{fill:#6F5A34;}
	.st117{fill:#975B30;}
	.st118{fill:#E09661;}
	.st119{fill:#A06439;}
	.st120{fill:#A2653A;}
	.st121{fill:#AE7044;}
	.st122{fill:#A66C4B;}
	.st123{fill:#0E0506;}
	.st124{fill:#0C0404;}
	.st125{fill:#39271D;}
	.st126{fill:#21160F;}
	.st127{fill:#965E58;}
	.st128{fill:#495A61;}
	.st129{fill:#505255;}
	.st130{fill:#513C2C;}
	.st131{fill:#995F5B;}
	.st132{fill:#995F5C;}
	.st133{fill:#89554C;}
	.st134{fill:#6B5740;}
	.st135{fill:#8F5651;}
	.st136{fill:#66412C;}
	.st137{fill:#F6D875;}
	.st138{fill:#DB9B61;}
	.st139{fill:#D5AB98;}
	.st140{fill:#DEC56B;}
	.st141{fill:#DE9A62;}
	.st142{fill:#DAB19D;}
	.st143{fill:#65412C;}
	.st144{fill:#2C2117;}
	.st145{fill:#080503;}
	.st146{fill:#1B120B;}
	.st147{fill:#180F09;}
	.st148{fill:#68451C;}
	.st149{fill:#1C1009;}
	.st150{fill:#7C5827;}
	.st151{fill:#41301C;}
	.st152{fill:#9A7843;}
	.st153{fill:#8F7444;}
	.st154{fill:#916E3B;}
	.st155{fill:#9A763D;}
	.st156{fill:#A4824E;}
	.st157{fill:#AA8A54;}
	.st158{fill:#3C2B18;}
	.st159{fill:#CEBB73;}
	.st160{fill:#8C723D;}
	.st161{fill:#D7C66D;}
	.st162{fill:#A0804D;}
	.st163{fill:#4D432B;}
	.st164{fill:#DAC370;}
	.st165{fill:#D8BE6F;}
	.st166{fill:#A27A4A;}
	.st167{fill:#785D33;}
	.st168{fill:#A99053;}
	.st169{fill:#A98753;}
	.st170{fill:#C9BD67;}
	.st171{fill:#61401E;}
	.st172{fill:#D8C270;}
	.st173{fill:#D3B571;}
	.st174{fill:#CCB26B;}
	.st175{fill:#BCA05B;}
	.st176{fill:#44361D;}
	.st177{fill:#523E3C;}
	.st178{fill:#291F1D;}
	.st179{fill:#2E1E1D;}
	.st180{fill:#61524E;}
	.st181{fill:#684A4A;}
	.st182{fill:#574845;}
	.st183{fill:#54403E;}
	.st184{fill:#99773C;}
	.st185{fill:#472B1F;}
	.st186{fill:#C4D162;}
	.st187{fill:#F9F093;}
	.st188{fill:#F7F8F8;}
	.st189{fill:#FCFBFC;}
	.st190{fill:#544E39;}
	.st191{fill:#ECE18A;}
	.st192{fill:#DDCF7C;}
	.st193{fill:#4D4C36;}
	.st194{fill:#98973F;}
	.st195{fill:#D7955F;}
	.st196{fill:#F8F8F8;}
	.st197{fill:#ADBBB8;}
	.st198{fill:#EEE9EE;}
	.st199{fill:#B7E5EA;}
	.st200{fill:#33211E;}
	.st201{fill:#1B0F0E;}
	.st202{fill:#D1AE96;}
	.st203{fill:#4C3C20;}
	.st204{fill:#715838;}
	.st205{fill:#7E5E31;}
	.st206{fill:#C2A58B;}
	.st207{fill:#704831;}
	.st208{fill:#F5D775;}
	.st209{fill:#D8AF9B;}
	.st210{fill:#D99860;}
	.st211{fill:#CA915C;}
	.st212{fill:#D5AC99;}
	.st213{fill:#ABDFE9;}
	.st214{fill:#AFE1E8;}
	.st215{fill:#7AA5B6;}
	.st216{fill:#8C7845;}
	.st217{fill:#998A48;}
	.st218{fill:#1D140E;}
	.st219{fill:#7B6E39;}
	.st220{fill:#866A46;}
	.st221{fill:#F2EC8F;}
	.st222{fill:#292315;}
	.st223{fill:#635632;}
	.st224{fill:#856745;}
	.st225{fill:#E08A7B;}
	.st226{fill:#B86562;}
	.st227{fill:#F0F3EC;}
	.st228{fill:#E4E3DC;}
	.st229{fill:#699294;}
	.st230{fill:#BAE5E9;}
	.st231{fill:#99C7D6;}</style>
 <path class="st0" d="m378.5 72c2.6 1.9 5.6 1.1 8.5 0.9 10.6 0.6 21.2-1.1 31.7 1.5 8.5 2.7 16.7 6.3 24.7 10.3 4.3 2.1 9.2 1 13.9 0.8 6.4 0.7 13-0.7 19.3 1.2 11.8 7.6 23.5 15.3 35.3 22.8 5.1 3.2 7.6 9.2 12.8 12.1 2.8 6.9 9.8 9.8 14.7 14.6 1.5 1.5 3.2 3.1 5.2 4.2 3.9 7.1 7.9 14.1 11.6 21.2 1.9 3.6 3.4 7.7 6.9 9.9 6.2 3.8 9.6 8.7 10.5 16.2 0.8 6.8 3.3 13.5 5 20.2 0.8 9.7 2.7 19.1 5.8 28.3 2.9 8.6 3.3 10.9-2.8 12.8-2.8-0.3-3.6-2.6-4.3-4.8-2.7-8-5.3-16.1-6.2-24.6-1.1-10.5-3.9-20.7-6.9-30.8-1.3-4.3-3.5-8.2-6.9-10.9-5.8-4.7-8.8-10.9-11.9-17.3-5.1-10.4-12.2-19.2-21-26.8-10.9-9.4-21.3-19.3-33-27.9-13.3-9.8-27.7-12.3-43.5-10.8-1.8 0.2-3.6 0.5-5.5 0.1-5-0.8-7.8-5.7-12.6-6.9-24.2-10.2-48.8-9.2-73.6-2.3-2 0.3-3.8 1.2-5.2 2.8-2.8 3.3-6.5 4.5-10.7 4.3-17.9-3.9-33.1 4.6-48.8 10.5-4.2 1.6-8.1 4.2-7.7 10.1 0.2 2.8-2.7 4-4.8 5.4-9.1 6.2-19.6 9.9-29.4 14.8-13.4 6.8-21.4 16.7-24.7 31-0.4 1.6-0.9 3.1-1.8 4.4-0.5 0.8-1.2 1.5-2.1 2-1.9 1.2-4.2 0.4-6.2 1.4-1.9 0.9-4 1.6-5.7 2.9-8.3 4.1-12.3 11.1-14.1 20-1.5 7.2-0.9 14.7-3.3 21.7-0.9 2.6-1.4 5.4-3.1 7.6-1.5 1.8-3.7 2.7-5.4 4.1-6.5 6.1-13.6 11.5-21 16.5-3.5 2.5-6.8 5.4-10 8.2-1.5 1.3-3.6 2.6-3.2 4.9 0.6 2.9 3.4 2.6 5.5 3 1.3 0.3 2.4 1 2.9 2.4 0.1 0.4 0 1.2 0.2 1.3 4.7 3.1 6 8.8 10 12.4 1.4 1.1 2 2.6 2 4.3 0 1.6-0.4 3.2-1.3 4.5-3.2 4.5-1.4 6.5 3.3 7.4 1.9 0.4 3.9 0 5.8 0.5 3.6 1.6 7.5 1.5 11.3 1.2 4 0.8 7.9 2 11.2 4.3 4.1 3 8 6.4 11.6 10 2.2 2.3 5.6 3.1 7 6.2 0.3 0.6 0.6 1.2 0.7 1.8 0.7 3-0.1 5.3-3.2 6.5-7.2-3.1-11.7-9.7-17.8-14.2-1.8-1.7-3.5-3.4-5.9-4.2-8.9-2.8-15.2 0.1-19.9 8.2-7.6 13-12.2 11.9 6.5 15.3 1.6 0.3 3.2 0.3 4.7 0.9 3.3 1 3.7 4.7 6 6.6 4.3 1.3 7.3 0.5 7.7-4.6 0.1-0.9 0.3-1.8 0.7-2.7 1.1-2.3 2.1-5.2 5.1-4.6 2.6 0.5 2.4 3.5 2.6 5.8v1.4c-0.5 12.8 0.4 13.9 14.5 18.1-1.1-8-5.9-15.1-4.6-23.2 0.8-2.2 2.1-3.8 4.6-4 3.7 1.8 3.6 5.5 4.5 8.7 1.3 4.6 2.5 9.2 4.1 13.7 1.1 4.5 3.4 8.8 2.8 13.7-1.4 5.5-5 4.7-8.9 3.1-8.6-5-18.4-7.7-26.3-14.1-2.9-2.3-7.2-2.7-11.2-2.6-2 0-5.3 0.4-5.6-1.5-1.2-9.3-9.2-6-14.2-8.2-0.2-0.1-0.5 0-0.7 0-13.8-1.9-14.4-3.4-7.2-14.6 3.9-6.1 7.6-12.3 11.6-18.9-5-0.8-9.5-1.7-13.9-2.2-4-0.5-4.5-2.1-2.8-5.5s5.8-6.4 5-10c-1.1-5.1-5.7-8.7-9.4-12.2-4.2-4-6.9-9.1-10.8-13.3-2.9-3-1.1-5.4 1.5-7.4 11.7-8.9 23.3-17.9 35.1-26.8 5.8-4.4 8.4-10.1 9-17.3 0.6-7.3 2-14.5 3.1-21.7 2.8-1.2 3.7-3.9 4.8-6.4 1.8-4 3.9-7.6 7.6-10.1 5.4-2.8 10.8-5.6 16.2-8.5 4.2-2.3 5.8-6.3 6.7-10.6 2.5-11.8 10.7-18 21-22.3 1.9-0.8 3.7-1.7 5.3-3.1 0.6-0.8 1.2-1.7 1.8-2.5 11.7-4.4 22.7-9.7 29.1-21.4 1.2-2.3 3.5-4 5.3-6 11.8-1.8 22.3-7.9 34-10.2 2-0.4 4.1-1.7 5.9-1.4 10.6 1.6 20-2.2 29.2-6.6 6.7-3.2 13.6-4.6 21-4.2 1.6 0.4 3.1-0.4 4.7-0.8z"/>
 <path class="st1" d="m222.7 362.7c3.1-0.4 7.3 0.9 7.2-4.5 3.8 0.7 3.8 3.8 4.1 6.6-2.6 8.1 3.1 14.4 4.9 21.6 1.8 7.3 5.5 13.9 7.3 21.4 3.3 13.9 12.7 24.1 22.9 33.5 1.7 1.6 3.6 1.8 5.7 1.6 5.4 0.7 9.7 4.1 14.3 6.5 18.5 9.5 37.7 16.8 58.3 20.1 9.6 1.5 19.2 1.7 28.7-0.9 18.9-5.1 36.7-12.7 53.4-23-0.8-4.8 3-4.7 5.9-5.6 4-1.1 5.4-4.6 7.1-7.8 1.3-1.6 2.9-1.1 4.4-0.5 3.2 1.4 5.3-0.8 7.2-2.6 4.5-4.2 9.4-8 13.3-12.9 2.3-3 5-4.1 8.2-1.6 13.2 10 26 4.8 37.6-2.3 16.3-9.9 22.7-25.7 21.7-44.5-0.3-5.3-0.6-10.9-6-13.7-3.4-1.8-12.8 2.7-16.1 7.3-3.2 4.3-4.8 9.3-6.7 14.2-0.6 1.9-1.3 3.7-1.7 5.6-1.6 4.1-4.8 7-7.3 10.4-1.9 2.4-4.3 3.1-7.1 1.3-4.9-5-7-12-12-16.9-2-2.8-4.2-5.4-7-7.5-1.3-1-3-1.9-3.4-3.3-1.9-6.4-5.4-11.6-10.9-15.5-2-1.4-1.5-4.2-0.5-6.4 1.6-3.5 2.7-7.3 4.5-10.7 2-2.1 4.3-2.4 6.8-1.4 3.5 3.4 0.9 6.7 0 10-0.5 1.7-1.7 3.7 0.7 4.8 2.3 1.1 3.3-0.9 4.1-2.5 1.2-2.2 2.2-4.5 3.9-6.5 1.6-1.8 3.2-4.7 6-3 2.4 1.4 1.1 4.2 0.2 6.2-2.2 5-4.1 10.2-5.6 15.4-0.5 1.8-1 3.5 0.4 5.2 2.3 2.7 4.5 5.7 8.1 1.5 1.1-1.2 2.4-2.1 4.2-1.9 1.5 0.4 2.1 1.5 2.3 3-0.9 5.1-4.7 10.4 1.7 16.1 3.1-5.9 5.9-11.6 8.3-17.6 1.8-4.4 3.2-9.1 7-12.4 1.9-1 4.3 0 6.1-1.2 4.2-2.3 8.3-4.5 11.7-7.9 1.5-1.3 2.9-2.6 5-3 6.4-0.5 9.6-6 14.3-9.3 1-0.3 2-0.4 3.1-0.4 1.1-0.1 2.3 0.1 3.4 0 9.6-0.5 9.7-0.9 9.2-10.3-0.4-8.1-1.7-16.2-1.5-24.4-0.3-2.3-0.5-4.6 2.3-5.7 2.8-0.4 4.3 1.4 5.6 3.5 2.4 5.3 2.5 11.1 3.3 16.7-0.5 9.1 2.2 17.9 2.7 26.9-0.4 1.2-1.3 1.7-2.4 2-1.4 0.3-2.8 0.1-4.1-0.2-9.1-0.5-17.3 2.5-24.9 7.1-1.7 1.4-6.5 0.8-3.4 5.3 1.6 2.5 3.3 5 4.5 7.8 2.7 8.3 2.7 16.9 1.2 25.1-1.2 6.6-0.5 12.1 3 17.6 0.5 1.9 0 3.5-1.3 4.9-4.5 2-5.3-3.2-8.2-4.3-7.2 7.6-7.5 9-3.1 18.2-0.4 2.9-2.4 4.5-4.5 6-2.2 0.7-3.8-0.3-4.3-2.3-1.6-6.1-4.8-3.8-8.1-1.7-4.7 2.9-9.2 6.1-14.8 7-3.1 1.5-6.7 0.9-9.8 2.3-3.7 1.2-7.5 0.7-11.2 0.3-1.3 0-2.6-0.1-3.8-0.7-1.4-0.5-2.3-2-4-2 1.7 0.1 2.5 1.7 4 2.1 2 0.8 3.8 2 6 2.5 2.1 1.1 4.3 2.2 3.9 5.2-0.3 0.6-0.7 1.2-1.3 1.5-4.4 1.7-8.2-0.5-11.8-2.1-7.1-3.2-13.2-1.9-19.4 2.2-12.7 8.4-24.6 17.6-32.5 31.1-0.6 0.4-1.3 0.6-2 0.7-1.5 0-2.7-0.5-3.6-1.7-0.9-3.5-2-5.7-6.5-3.5-5.2 2.5-10.5 4.5-14.5 8.9-1.7 1.9-3.8 3.4-6.5 3.5-2.3 0.4-3.1-2.3-5.1-2.4-0.7 0.2-1.9 0-0.9 1.4 2.1 2.1 2.3 4-0.7 5.2-1.7 0.7-3.4 1.2-5 2-1.6 0.7-3.3 1.1-5.1 1.1-1-0.1-2-0.4-2.8-1-2.9-5.5-8.3-3.8-12.9-4.3-1.3 0.2-2.6 0-3.9-0.1-2.7-0.2-5.3-0.8-8-1.2-2-0.3-4-0.4-5.9-1.3-6.7-2.3-11.3 3.2-17.1 4.6-0.7 0.1-1.5 0-2.2-0.3-3.7-2.2-3-5-1.1-7.9 0.5-1.7-0.2-2.3-1.8-2.8-3.4-1.1-7-2-10.1-3.8-4.6-2.7-8.2-4-13.6-0.5-7.2 4.6-16.6 0.5-18.3-6.5-0.5-2.2 0-3.2 2.2-1.5 1-0.1 1.9 0.3 2.7 0.9 1.4 2.3 3.6 2.8 5.9 1.7 3.7-1.8 0.1-2.4-0.7-3.5-3.3-0.8-5.3-4.4-9-4.5-1 2.5-3 1.6-3.3 0.2-0.7-4.4-4.4-5.7-7.2-7.8-11.7-8.5-19.4-19.9-23.2-33.6-4.1-14.5-10.4-28.2-14.9-42.6-1.4-3-4.3-3.9-5.9-6z"/>
 <path class="st2" d="m687.3 704.4c7.7-5.5 14.7 0 22 1.5 2.9 0.6 4.3 2.6 5.1 5.3 0.7 1.5 1.3 3 1.2 4.6-0.5 7.8 3.1 13.8 7.9 19.6 4.9 5.9 6.6 12.3 1.9 19.3-2.6 2.4-5.6 3.8-9.1 4.2-5.9 0-11.9 0.2-17.7-1.6-3.8-1.2-7.2 0.1-10.1 2.8-5.3 5-11.3 6.5-18.2 3.8-5.3-2.1-10.4-0.8-15.2 1.3-7.7 3.5-15.6 6.5-23.9 8.5-5.8 1.9-11.4 4.2-17.3 5.7-10.3 3.1-19.7 8.5-30.4 10.8-14.4 3-28.2 3.5-41.2-4.7-1.6-1.5-3.5-2.7-4.5-5.4 0-0.2-1.1 1.4-0.3 0.9 1.2 3.3-1.1 4.7-3.4 6.1-1.8 0.6-3.5 0.6-5.2-0.3-2.7-2-2.2-4.2-0.4-6.5 2.3-2.3 1.2-5.1 1.1-7.6-0.4-5.6-0.3-11.2 1-16.7 0.6-4.5 0.9-8.9-0.9-13.2-0.6-1.7-1-3.4-0.5-5.2 0.5-1.4 1.6-2.2 3-2.5 4.3-0.4 4.8-3.5 4.8-6.9-0.1-4.2 0.7-8.1 3.4-11.5 2.3-2.7 6-1.3 8.6-3 3.8-1.8 7.3-4.1 11.3-5.4 2.5-0.4 4.1 0.4 4.2 3.1-1.1 4.5-5 6.2-8.3 8.6-2.6 1.8-6.2 1-8.7 3.2-3.1 2.6-2.1 6.1-2.2 9.3-0.6 2.2-0.4 4.6-1.2 6.8-7.8 8.8-5 18.8-3 28.6 0.9 4.2 4 7.6 7.8 9.8 1.5 1.4 3.4 0.3 5.1 0.7 1.6 0.4 2.9 1.5 4.3 2.4 11.9 3.5 23-0.3 34.1-4 4.3-1.4 8.6-3.1 12.8-4.9 11.9-4.3 24.2-7.2 36-11.7 8.5-3.2 16-8 24-11.9 3-1.5 7.5-5.2 7 3.1-0.2 3.1 4.9 4.4 8.3 2.3 2.6-1.6 4-4.4 6.4-6.3 3.2-2.4 6.6-2.7 10.3-1.2 3 1.1 6 2.1 9.3 2 2.1 0.1 4.6 2.1 6.4-0.1 1.7-2.2 0-4.5-1.4-6.1-6.3-7-8.7-15.8-11.8-24.3-1.7-4.7-4.3-8.1-10-6.9-2.4 0.5-4.8 0.4-7-1-0.9-0.7-1.4-1.6-1.3-2.7 0.8-3.8 3.8-2.1 5.9-2.7z"/>
 <path class="st3" d="m319.4 472.9c0.3 2.7-1.1 6.2 3.2 7.1 0.4 3.6-2 5.9-3.9 8.4-8.3 10.5-11 22.6-11.5 35.8-0.4 11.8-2.7 23.6-3.5 35.4-0.4 6.4-1.6 12.8-1.2 19.2 0.6 8.7-2 16.1-7.5 22.8-7 8.5-8.7 17.9-4.2 28.2 0.6 3 4.1 4.8 3.5 8.4-5.4 10.3-10.6 20.8-18.7 29.4-7 7.5-7.4 10.4-3 19.6 1.9 3.9 4.8 7.3 5.7 11.7 0.3 2.2-0.3 4.2-1.2 6.1-1.7 4.8-3.8 9.3-9.9 9.7-2-0.7-3.9-1.5-4.8-3.6 7.5-4 8.3-7.8 4.6-15.2-6.8-13.8-9.5-25.2 2.4-34.5 4.1-3.2 7.3-7.5 9.9-12.1 2.3-4.3 0-8.9 0.6-13.2 0.1-2.1-1.1-4-1.3-6.1 0.5-2.7-1.7-5.6 0.6-8.1 2.8-2.8-0.1-6.2 1-9.2 2.1-5.3 3.2-10.7 7.2-15.3 7.6-8.8 6.8-20 6.6-30.6-0.2-9.9 0.4-19.8 3-29.1 2.1-7.7-0.4-15.2 1.4-22.8 2.9-12.2 6.3-24.1 13.5-34.6 2.3-3.1 4.4-5.8 7.5-7.4z"/>
 <path class="st4" d="m545.4 403.9c0.4-1.5 0.9-2.9 1.3-4.4 2.7-5.3 8.8-6.8 12.4-11.1 1.9-1.6 4.1-2.8 6.3-4.2 3.7-2.4 7.3-5 11.6-6 3.9-6.9 11.7-10.9 14-19 0.9-3.2 3.4-5.4 5.4-7.8 1.9-2.3 2.6-4.7 0.9-7.4 0.8-2.8 3.6-2.8 5.5-4 2-0.7 4-1.2 6.1-0.3 1.8 1.2 2.8 2.9 3.1 5.1-4.9 3.3-11.1 5.7-13.2 11.2-2.8 7.2-7.2 12.6-13 17.3-0.2 0.1-0.5 0.4-0.4 0.5 1.4 9-6.9 11.1-11.2 16-2.9 0.3-5.2 1.5-6.6 4.1-4.1 2.8-8.2 5.6-12.2 8.5-0.7 0.5-1.7 1.3-1.7 2 0.4 8.9-6.8 12-12.5 15.5-3.8 2.4-4.1 4.2-2.1 7.4 3.6 5.8 1.5 8.9-4.3 11.2-7 2.7-13.8 5.7-20.7 8.8-3.1 1.4-3.9 3.1-0.7 5.9 12.8 11.1 20.7 25.8 27.8 40.9 3.2 6.7 9.6 11.8 10.1 19.8 1.7 1.5 3.1 3.3 4.2 5.4 1.5 2.8 1.1 4.8-2.3 5.6-5-2.5-0.3 4-3.2 3.5-0.9 0.7-1.9 0.9-3 0.7-2.7-0.8-3-3.1-3.5-5.4-4.7-21.2-15.5-39.4-28.4-56.5-5.4-7.2-13.2-11.9-20.3-17.3-1.9-3.1-4.5-5.6-6.9-8.3-0.9-1.5-1.6-3-0.1-4.6l-0.1 0.1c2.9-2.2 4.7 0.1 6.4 1.7 2.2 2.1 4.7 2.6 7.5 2 2.6-0.4 4-4.2 7.3-2.4 3.3 1 6-0.3 8.5-2.1 1.7-1.2 2.1-3.7 4.5-4.1 7.2 0.2 7.2 0.2 8.2-8.4-0.4-3.4 2.2-4.5 4.4-6.1 1.2-6.5 7.7-8.8 10.9-13.8z"/>
 <path class="st5" d="m584.1 530.5c11.9 3.6 20.7 10.7 23.8 23 1.5 6.3 4.6 11.2 8.5 16 2.4 2.9 4.3 6.4 3.1 10.1-1.8 5.4 0.5 9.8 2.3 14.3 9.2 23.5 9.7 47.5 3.9 71.8-2.3 9.7-4.7 19.3-7.1 29 0.9 1 1.8 2.4 3.3 2.2 13.7-1.7 27 2.4 40.5 3.1 0.4 0.1 0.8 0.1 1.2 0.1 2.5-1.3 4-0.3 4.9 2.1-0.2 2.6-1.9 4.7-0.5 7.8 2.1 4.8-1.1 5.1-4.5 3.8-6.2-2.4-12.5-4.2-18.8-6.1-10.9-4.2-20.6-2.8-28.8 6-1.1 1.2-2.2 2.3-4 2.5-3-0.2-3.5-2.5-4-4.9-0.3-6.7 1-13.2 1.6-19.8 2.2-6.8 5.9-13 7.1-20.1 0.8-2 1.2-4 1.1-6.2 0.1-2.5-0.2-5.1 0.3-7.6 1.2-3.8 2.4-7.6 2.7-11.6 1.5-4.1 1.2-8.3 1.2-12.5-1.4-10.5-2.4-21-5.6-31.2-0.9-2.9-1.5-5.4-5.4-3.9-1.7 0.4-3.4 0.6-4.4-1.3-1.1-3.3 1.2-5.6 2.4-8.2 2-4.2 3.6-8.5 1-13.1-1.4-0.9-0.3-6.7-4.5-2.3-6.3 3.7-5.4-1.7-5.3-4.6 0.1-5.3 0.6-10.5-1.4-15.6-2.1-7.5-8.1-11.3-14.5-14.7-2.6-1.4-6.4-1.9-6.5-6.1 1.4-3 3.7-3 6.4-2z"/>
 <path class="st6" d="m612 344.9c-2.6-0.5-3.3-2.3-3.3-4.7 1.9-4.1 0.5-6.9-2.6-10-4.1-4.1-9.4-7.4-11.2-13.5-0.3-2.1 0.6-4 1.2-5.9 1.6-4.8 2.6-9.7 4.2-14.5 0.9-2.3 3.2-3.5 4.5-5.5 2.3-2.4 5-3.8 8.1-4.7 2.7-0.1 4.2-2.3 6.2-3.6 3.7-2.5 5.8-1 6.2 4-2.6 4.2-6.6 7.6-10.5 9.4-7.9 3.7-7.5 10.6-9 17-0.6 2.4 0.6 3.8 2 5.4 4.4 4.9 8.2 10.3 13.1 14.7 4.1 3.7 3.7 5.7-0.9 7.9-2.7 1.5-5.4 2.7-8 4z"/>
 <path class="st7" d="m262.5 711c1.9 0.3 4.2 0.1 4.5 2.9-0.2 4.4 2.9 7.6 4 11.5-0.1 1.4-0.6 2.5-1.9 3.2-3 1-6.3 1.2-9.3 2.1-3.5 1-7.2 1.4-7.4 6.5-0.1 2.4-2.8 3.3-4.7 4.6-5.3 3.4-10.1 7.4-14.3 12.3 7.1-2.3 12.6-8 20.3-8.6 5 0.6 5.1 2.9 2 6.1-3 3.1-7.7 3.8-10.6 7.1-5.7 5.2-12.1 6.8-19.4 3.5-1.3-0.8-2.2-2-2.7-3.4-1.6-6 0.4-10.5 5.3-14.3 6.5-5.1 11.7-11.5 17-17.6 4.8-3.4 11.2-5 13.6-11.4 0.5-1.2 1.1-2.5 1.6-3.7 0.6-0.4 1.3-0.6 2-0.8z"/>
 <path class="st8" d="m625.3 286.6c-1.3-4.3-3.4-5.6-6.1-1.1-1.6 2.7-3.8 2.8-6.4 2.6 0.1-3.3-0.9-5.9-3.5-8.3-5.7-5.1-11.4-10.3-17.2-15.3-3.3-2.7-6.8-5.2-9.5-8.6-1.8-2.2-4-4.5-1.5-7.7 6.7-3.5 3.4-8.5 1.5-12.9-3.7-8.8-5.5-17.8-4.1-27.4 2.7 10.7 5.3 21.4 8 32.1 1.1 4.3 3.2 7.8 6.5 10.9 10.5 9.9 20.5 20.4 31.7 29.5 2.2 1.8 3.2 3.9 0.6 6.2z"/>
 <path class="st9" d="m265.3 472.6c10.5 0.2 17 5.5 16.8 13.8-0.2 7.7-7.9 14.9-16.1 15-6.3 0.1-15.6-11-15.1-18.1 0.4-6.1 6.8-10.9 14.4-10.7z"/>
 <path class="st10" d="m584.1 530.5c-2.3 0.2-4.5 0.5-5.6 2.9-9.2 0.7-17.7-1.7-25.5-6.6-0.9-0.6-1.2-1.9-0.7-3.1 6.3-4.1-1.2-6.6-1.2-9.9 9.1 9.3 21.7 11.7 33 16.7z"/>
 <path class="st11" d="m668 702.6c-1-1.7-2.5-2.3-4.3-2.5 8.4-6.4 14.7-5.7 21 2.4 0.6 0.8 1.8 1.2 2.7 1.8-1.8 0.9-3.7 1.8-5.5 2.7-4.8-1-8.9-4-13.9-4.4z"/>
 <path class="st12" d="m544.6 140.4c-7.1-2.2-11.8-7.9-17.5-12.1-2.3-1.7-2.4-4.2-2.4-6.7 6.8 6.1 14.7 11 19.9 18.8z"/>
 <path class="st13" d="m276.6 452.4c0.1-3.3 1.9-1.5 3-0.9 2.2 1.1 4.4 2.4 6.5 3.6-0.1 5.4-3 5.9-7.2 4.3-0.4-0.5-0.7-1.1-1.1-1.6 0.5-2.1 1-4.1-1.2-5.4z"/>
 <path class="st14" d="m567.5 394.1c0.7-3.8 1.7-7.1 6.6-4.1-1.6 2.4-4.5 2.7-6.6 4.1z"/>
 <path class="st15" d="m225.5 136.5c0.8-3.9 5-3.4 7.2-5.5 1.8-1 3.6-2 5.4-3.1 3.2-0.9 6.3-1.8 9.5-2.7-2.4 5.7-8.5 6.8-13 9.3-8.2 4.5-11.2 11.4-13 19.6-0.9 4-2.7 6.7-7 7.1 4.7-7.7 8.3-16 10.9-24.7z"/>
 <path class="st16" d="m581.1 248.2c1.2 7.6 8.6 9.9 12.7 14.9 1.7 5.6-2.7 8.8-5.1 12.7-1 1.7-3.4 2.5-3.2 5-0.6 4.9-1.7 9.5-6.5 12-4.8 0.2-6.8-4.4-10.4-6.2-6.3-2.8-7.1-8.9-7.2-14.4-0.1-7.7-3.2-14.6-3.5-20.2 2.5 9.4 3.6 20.8 5.2 32.2 0.2 1.4-0.1 2.7-1.4 3.7-1.6 1.4 1.4 2.9-0.1 4.3-2.5 4.9-6.6 6-11.6 5.1-1.9-0.7-1.7-2.8-2.8-4.3 1.2 2.5 0.3 4.4-1 6.3-5.1 4-10.5 7.1-17.4 5.8-0.8-0.7-1.2-1.7-1.2-2.7 0.6-4.1 3.4-7.4 3.3-11-0.4 4.8-3.9 9.2-4.5 14.5-1.9 4.3-3 8.9-3.9 13.5-0.6 3.1-1.8 5.5-4.7 7-5.6 1.1-10.4-0.6-14.5-4.5-2.2-8.3 3.2-15.4 3.4-23.4 0-1.8 0.7-3.6 0.7-4.5-1.2 8.3-3 17.4-6 26.2-10.5 2.3-18.2-2.8-25.1-9.8-0.4-0.9-0.6-1.9-1.1-2.8-6.5-4.5-15-5.5-20.4-11.8-1-1.7-2.2-3.2-3.5-4.7-6.4-12.7-13.9-24.7-20.6-37.2-1.4-2.7-2.9-5.2-2.5-8.4-0.3-3.6-1.1-7.1-0.6-10.8-0.6 4.5 0.8 8.8 0.6 13.2 0.4 8 3.5 16 0.7 24.1-1.5 1.9-3.9 3.3-6 2.7-8.6-2.4-17.5-0.1-26-2.2-5.3-4.3-4.8-11.2-7.6-16.6-0.4 3.8 0.3 7.7-1.4 11.4-4.3 5.6-8.3 6.4-17.3 3.8-4.1-2.8-4.7-7.5-4.8-11.6-0.2-6.9-1.7-13.6-1.7-20.4v-13.8c-0.2 4.1 0.3 8.9-0.3 13.6-3.6 12.7-10.8 24.1-13.8 37-0.7 2.8-1 5.8-2.3 8.5-0.8 1.6-1.2 3.7-3.6 3.3-2-0.4-3.1-2.1-3.2-4-0.2-4.8-1.3-9.5-1.6-14.2-0.6-3.3-0.8-6.7-1.5-9.4 0.7 4.8 1.2 10.1 2.2 15.4-0.5 7.9 4.6 15.4 1.4 23.4-2.7 3.8-6.1 3.6-9.7 1.5-1.8-1.9-2.4-4.2-2.8-6.8-1.5-10.2-4.1-20.1-5.6-26.4 2.1 8 4.8 19.8 6.5 31.8 0.1 0.7-0.5 1.3-1 1.8-8.9 2-17.2-0.8-25.5-3.1-4.7-2.1-4.3-7.1-6.1-10.9-3.5-7.7-6.9-15.4-8.5-23.7-0.6-12.8-3.6-25.2-4.8-37.9-0.4-3.8 0.5-6.6 2.5-9.6 9.7-14.4 19.5-28.7 30.8-42 5.8-7.7 14.7-12.3 20.2-20.3 7-7.7 15.3-14 24.2-18.9 7.7-4.2 17.2-3.4 26.2-3.3 6 0 10.9 2 16 5.1 11.2 6.8 12.9 18.3 15.3 29.4 1.7 7.5 3.4 15.1 4.2 20.3-2.2-10.7-4.8-23.8-8.1-36.7 1.2-5.8-3.9-11.5-0.2-17.3 2.1-2.3 4.9-1.9 7.5-1.9 5.9-0.5 10.3 2.2 14.8 5.9 10.1 8.4 18.9 17.9 25.9 29.1 6.8 7.5 15.3 13.1 22 20.7 10.4 11.7 18.3 24.9 23.4 36.6-8-20.1-22.9-38.6-42-53.7-10.1-11.1-17.3-23.9-22.5-37.9-3.8-10.2-4.2-10-15.2-8.8-4.1 0.4-8.1 1.2-12.2 1.6-2.4 0.2-5.1 1.1-6.9-1.5-0.2-5.9 6-6.8 8.5-10.6 0.1-0.9 0.7 0.4 0.5-0.5-0.1-0.2 0.8-0.8 0.7-1.1-0.4-1.1-1-0.2-1.5 0-5.7 2.2-11.2 4.9-17 7-8.8 3.2-17.3 3.2-25.8-0.8-6.3-3.3-12.4-7-17.9-11.5-8.8-5.9-9.4-11.4-2.2-20.5 24.2-8 48.3-7.7 72.4 0.4 1.3 0.4 2.3 1.4 3.5 2.1 2.6 4 5 8.3 11 6.9 28.7-7.1 49.5 7.9 69.4 25.2 6.4 5.5 12.4 11.5 18.7 17.2 9.1 8.3 15.5 18.4 20.2 29.7 0.8 1.9 1.2 4.1 2.9 5.3 15.3 10.9 16.7 28.1 19.4 44.4 2 11.4 4.3 22.4 8.5 33z"/>
 <path class="st16" d="m221.3 169.3c2.1-6 4.3-12 6.2-18.1 1.8-5.8 5.7-9.9 10.7-12.8 9.8-5.8 19.4-11.8 30.2-15.9 2.7-1 5.3-2.6 7.8-4.2 3.1-2 2.8-2.7 3.4-6.6 0.5-3.5 3.5-6.4 6.4-7.7 17.2-7.3 33.8-17.8 54-12.8 7.3 1.8 10.5 8.8 16.4 12.4 4.5 3.9 9.6 6.9 14.3 10.5 2.7 2.1 5.4 4.3 6.2 8-0.5 5.3-4.2 6.9-8.6 6.7-13.2-0.6-24.2 5.7-35.7 10.6-1.9 0.8-3.5 2.1-4.3 4.1-5.5 13.3-12.9 25.7-18.1 39.1-8.1 10.8-15.7 21.9-23.3 33-2.5 3.6-3 7.2-2.6 11.6 1.2 12 5.1 23.8 3.5 36-0.7 3.2-1.4 6.5-3.8 9-3.1 2.2-6.7 2.7-10.4 2.8-1.4 0.3-2.7 0.8-4.1 1.1-3.2 0.7-6.4 1.9-9.6 0.2-3.2-2.9-4.1-6.8-4.4-10.8-0.4-8.9-3.1-17.4-4.2-25.1 0.9 7.7 3.9 16.1 3.8 25-0.3 1.9-1.1 3.5-2.5 4.9-3.1 2.8-6.8 4.6-10.8 5.4-6 1.2-11.9 2.2-17.7 4.2-4.9 1.7-9 0.4-10.9-5-1.3-9.6 0.3-19.2-0.6-27.7-1.2 4.7 2.5 11.1-1.8 16.7-10.5 2.3-25.3-3.1-29.6-10.9 0.2-9.8 0.7-19.5 6-28.2 3.4-9.5 4.1-19.5 5.8-29.4s5.6-18.3 16.2-21.7c7 1.1 5.1 7.9 7.5 11.7 3.7-4.7 1.9-11 4.6-16.1z"/>
 <path class="st17" d="m461.2 333.7c0.6 3.2-0.9 5.8-2.5 8.3-3.2 5.3-1.5 8.2 3.9 10.1 3.3 1.1 7.5 1.8 4.5 7.3-1.2 2.2 1.2 4.1 3.1 5.5 3.6 2.8 7.2 5.6 9.5 9.6-2.3 3.3-5.7 2.5-8.8 2.1-5.2-0.8-10.5-1.5-15.6-2.6-4.5-1-7-0.2-7.3 4.8-0.1 1.4-0.9 2.6-2.3 3.2-2.9-0.4-2.6-2.7-2.9-4.7-1.8-15.4-2.9-16.3-18.3-15.4-5.2-2.8-8.9-7-8-13.1 0.8-5.5-1.9-5.1-4.9-3.6-10.7 5.4-22.7 9-29.5 20.2-26.3 10.3-52.9 13.3-80 3-6.8-9-17-12.6-27-16.4-2.1-0.8-4.7-1.7-6.4 0.2-1.5 1.7 0.6 3.3 1.3 4.9 2 4.5-1.9 5.9-4 8.4-1.6 1.6-2.8 3.4-5.4 3.8-10.6 1.6-14.2 6.6-12.5 17 0.2 1.4 0.7 2.7 0.2 4-1.1 2.1-2.8 3.2-5.2 3.1-0.4-0.1-1-0.2-1.2-0.6-4.4-8.8-8.2-17.7-9.3-27.6 0.1-2.8-1.7-4.8-2.7-7.1l-3-12c-0.8-1.7 0.4-1.8 1.6-2 16.5-4 32.4-10.1 47.9-16.9 4.5-2 7-5.6 8.1-10.3 1.5-3.5 3.8-6.4 6.1-9.4 3.4-2.4 3.7-8.9 10-7.6 3.3 2.2 4.1 6 5.2 9.3 2.9 8.3 6 16.6 9 24.9 1.8 5.1 4.6 9.8 8.4 13.8 0.5 1.5 0.6 3 1 4.1-0.5-2.1-0.2-4.4 1.4-6.4 4.2-3.6 8.5-4.2 13.2-0.9 2.3 3.2 0.9 7 2 10-0.1-3.1-2.2-7 1.6-10.1 6.7-1.6 7.7-3.2 6.2-9.8-2.2-9.8-3-19.7-4.9-29.5-0.4-2.2-0.4-4.6 0.2-6.8 4.4-15.1 7.8-30.5 14.3-44.9 0.9-2.1 2.2-4.5 4.9-4 2.3 0.5 2.5 3 2.6 5.1 0.3 8.8 3 17 5.7 25.2 1.1 3.3 1.5 6.3-2.5 8.1-4.1 0.1-8-0.7-11.3-3.2 4.7 7.1 10.2 13.9 14.6 21.5 1.2 11.9 1.3 23.8 2.6 33.2-1.1-5.4-0.9-13.4-1.7-21.3-0.2-2.6-1.2-5.6 2.1-7.3 6.9 2 13.2 5.9 20.4 7.2 17.1 5.3 34.3 10.3 52.4 10.7-1.1-5-4.8-8-8.1-11.3-5.5-5.5-5.8-7.6-1.1-14 2.3-3.1 5.3-5.6 7.7-8.6 5.3-3 7.7-2.1 8 3.5 0.2 4.3 1.1 8.5 0.7 12.8-0.8 8.3 3.7 15.1 6 22.5z"/>
 <path class="st18" d="m182.6 252c4.4 7.8 12.9 7.3 19.8 9.8 2.5 0.9 5.3 1 7.9 1.4 4.3 5.1 1.3 11.2 2.2 16.7v2.3c0.2 4.4-0.7 8.8 0.8 13.1 1.3 4 1.7 8.1 1.3 12.2-0.2 2.2-0.1 5.5-4.2 4.2-3.7-3.3-7.4-6.5-11.1-9.8-1.7-2.5-0.4-5.1-0.2-7.9-1.8 7.5-7.5 1.8-11 3.5-3.6 0.2-7.5 2.8-10.8-1.1-2.1-2.3-1.1-4.6 0-6.9 1.9-4.1 4.8-7.6 5.9-10.8-4.2 4.9-4.7 14.2-13.1 17.4-1.3-0.3-2.6-0.7-4-0.9-3.7-0.5-4.9-1.9-2.4-5.3 1.6-2.2 2.8-4.7 4.1-7.1 1.1-8.5 7.3-14.6 10.2-22.2 2.1-2.6 0.3-7.2 4.6-8.6z"/>
 <path class="st18" d="m214.7 274.3c1.5 1.7 2 5.3 5.3 4 10.3-4 21.9-3.3 31.6-9.5 2.6 2.1 2.2 4.8 1.4 7.5-2.9 9.6-3.5 19.7-5.8 29.5-2.2 9.5-5.9 11.1-14 5.1-2.6-9.2-0.8-18.7-1.4-26.2-0.8 8.2 1.1 18.2-0.7 28.2-3.9 3.7-7.6 7.6-13.8 5.5-0.1-0.4-0.2-0.9-0.3-1.3-3.2-12.1-4.8-24.5-4.5-37 0.1-2.2 0.2-4.3 2.2-5.8z"/>
 <path class="st19" d="m233.9 310.2c2.1 0.8 4.2 1.8 6.4 2.3 2.2 0.6 4 0 4.5-2.8 2.2-13.7 4.5-27.3 6.8-40.9 0.5-1.4 1.1-2.7 1.6-4.1 1.4-2 2.7-2.4 4 0.1 1 3.6 1.9 7.3 2.9 10.9 4.4 6.1 5.7 13.3 6.7 20.5 0.7 4.7 2.5 4.3 5.4 2.1 1.4-0.3 2.6 0.1 3.8 0.8 2.7 2.2 4.9 3.8 5-1.9 0.3-8.6-1.2-17.4 2.5-25.6-0.1-3.1 1-5.8 2.2-8.6 1.6-1.2 3.2-0.9 4.6 0.3 4.1 11 8.2 22 12.3 33.1 0.8 0.7 1.1 1.6 1 2.7-2 4-3.8-0.9-5.7-0.1-0.6-0.2-1.2-0.6-1.7-1-4.4-2.4-6.6-1.5-7.7 3.9-0.8 3.9-1.2 7.8-5.5 9.7-5.2 1.1-10.5-0.6-15.7 0.1-2.5 0.3-4.3-1.3-5.7-3.2-1.4-1.7-2.2-4.2-4.9-4.3-2.3-0.3-4.1 0.2-4.6 2.7-0.4 2.1 1.4 2.5 2.8 3.1 1 0.5 2 1 2.6 2 0.1 0.7 0 1.3-0.4 1.8-3.3 2.1-7.1 3-10.5 4.9-2.6 0.7-5.1 1.4-7.8 0.4-3.9-2-7.3-1-10.9 1.2-2.5 1.5-4.9 3.3-7.9 3.9-2 0.8-2.6 2.6-2.9 4.5-2.5-0.9-2.6-2.5-1.2-4.5 2.1-1.4 2.5-3.3 1.5-5.6 4.5-0.9 8.3-3.4 12.3-5.5 1.4-1.2 1.5-4.1 4.2-2.9z"/>
 <path class="st20" d="m216 324c0.4 1.5-0.1 3.2 1.2 4.5 0.7 9.2 4.8 17.5 7.6 27.6-7.2-3.4-13.4-6.4-19.6-9.2-4-1.8-3.2-5.3-2.6-8.3 0.8-3.9 1.1-7.6 0.8-12.1-2.5 1.3-3 3.3-3.4 5.5-1.9 10.3-2.4 10.6-12.6 7.1-0.6-10.2 3.9-19 7.5-28 0.8-2 2.1-3.6 4.7-2.3 5.4 5.1 12 9 16.4 15.2z"/>
 <path class="st21" d="m184.3 332.3c-7.8 0.4-15.1-2.8-23.8-3.1 5.6-8.5 10-17.4 16.6-24.3 4.1-4.3 11.3-2.3 17.2-0.3 0.8 1.7 1.6 3.4 0.9 5.3-2.4 6.6-5.1 13.2-7.3 19.9-0.5 1.5-1.5 2.9-3.6 2.5z"/>
 <path class="st22" d="m220.2 324c5.2-7.3 13.4-10.2 18.6-6.6 2.6 5.1-1.8 8.4-3.4 12.3-1.2 2.9-3.2 5.4-3.1 8.9 5.8 1.1 10.2-2.4 14.8-4.4 11.8-5.2 25.4-6.3 35.1-16 1.1-1.1 2.5-2.1 4.2-0.9-0.8 5.4-3.6 9.2-8.4 11.7-14.9 7.6-31.4 11.1-46.6 17.8-1.9 0.8-2.8-1.8-4.3-0.5-3.6-7.2-4.7-14.9-6.9-22.3z"/>
 <path class="st20" d="m153.7 263c-4.7 4.1-6.1-1.8-8.4-3.4-2.9-2 1.1-3 2.2-4.2 3.9-4.4 8.5-8.1 13.4-11.2 6.4 4.5 12 9.8 16.2 16.6-1.5 7.1-5.2 12.9-10.5 17.7-2.2 2.3-3.2 0.5-4.7-1.1-2.6-2.9 0.4-4.4 1.5-7.3-3.3 1.5-6.5 2.7-8.6-0.6-1.5-2.2 0.3-3.7 1.9-5.1 0.4-0.8 0.7-1.6-0.1-2.2-1.2-0.6-2 0.6-2.9 0.8z"/>
 <path class="st23" d="m176 260.5c-5.5-5-11.7-9.4-15.1-16.3 6.8-5.6 14.7-10 20.7-16.7 3.9 0.1 2.9 3 2.4 5-2.2 8.6-2.7 17.5-5.2 26.1-0.6 1.1-1.5 1.8-2.8 1.9z"/>
 <path class="st24" d="m177.3 258.8c1.7-8.6 3.3-17.2 5.1-25.8 0.4-2 1.5-3.9-0.7-5.4 1.3-2 3.8-1.7 5.5-2.9l-4.5 27.3c-2 3-0.2 7-2.7 9.8-3.6 1.4-3.3-0.7-2.7-3z"/>
 <path class="st25" d="m355.4 104.7c-5.1-4.5-10.8-8.2-15.3-13.5 3.5 0.1 6.7-0.1 8.8-3.7 1.3-2.2 4-2.8 6.4-3.3-0.2 1.3-0.1 2.9-0.7 4-3.9 6.9-2.2 12 4.6 15.6-1.1 1.3-2.7 0.2-3.8 0.9z"/>
 <path class="st26" d="m184.3 332.3c3.7-9.1 7.8-18 9.9-27.7 1.8 1.4 3.5 2.7 5.3 4.1-1.6-0.2-2.2 0.5-2.8 2.1-3 9.4-6.3 18.8-9.4 28.2-2.3-1.6-0.3-5.2-3-6.7z"/>
 <path class="st27" d="m221.3 169.3c1.4 8.3-1.1 15.7-5.3 23.7-2.6-6.9-1.8-14.3-6.9-19.4 1.8-1.1 3.7-2.1 5.5-3.2 0.7-0.1 1.5 0 1.8 0.6 1.4 2.9 2.5 2.6 3.6-0.2 0.5-0.4 0.9-1 1.3-1.5z"/>
 <path class="st28" d="m214.4 280.1c0.9 12.3 1.8 24.7 2.7 37-1.2-3-5.3-2.5-6.6-5.4 4.7-4.8 1.4-10.1 1.1-15.2-1.1-4.6 0.4-9.4-0.9-14 0-0.4-0.1-0.7-0.1-1.1 1-1.6 1.8-3.3 3.8-1.3z"/>
 <path class="st29" d="m170.2 296.1c5.8-4.9 7.5-12.3 11.6-18.2 1.5-2.2 2.9-4.5 6.2-6.5-1.3 10-9.7 16-10.6 25l-7.2-0.3z"/>
 <path class="st30" d="m177.3 258.8c0.3 1.5 0.8 2.9 2.7 3l-12 21c-0.5-1.4-0.9-2.8-1.4-4.2 1.9-6.7 7.7-11.3 9.4-18 0.4-0.6 0.8-1.2 1.3-1.8z"/>
 <path class="st31" d="m188.2 297.5c7.2 0.3 10.6-4.4 13-10.7 1.8 5.8-0.5 10.3-1.8 15.1-3.7-1.4-7.5-2.9-11.2-4.4z"/>
 <path class="st32" d="m442.2 93.6c-3.1 1.7-7.1 2.8-9.7 1.7-3.1-1.3 0.9-5.9-1.3-8.6 5 0.1 6.6 5.7 11 6.9z"/>
 <path class="st33" d="m220 170.9v8.7c-4.6-2-2.4-6.9-5.4-9.1 2-1.9 3.5 1.4 5.4 0.4z"/>
 <path class="st34" d="m153.7 263c0.2-0.4 0.2-0.9 0.5-1.2 1.6-1.9 4-4.3 5.9-1.9 1.5 2-1.4 3.6-3.4 4.5-1-0.4-2-0.9-3-1.4z"/>
 <path class="st35" d="m495.7 448.2c26.8 15.7 38.1 42.3 49 69.3 1.4 3.4-0.6 7.4 2 10.5 1.9 1.4 3 3.3 3.8 5.5 4.8 13.1 8.6 26.4 10.4 40.2 1.1 6.8 1.5 13.6 1.9 20.4 0.5 8.2-2.1 15.7-4 23.4 0.5-1.9 0.3-4.7 3.2-4.5 3 0.2 3.2 3 3.1 5.2-0.5 9.3-1.6 18.7-1.2 28 0.5 4.4-0.8 8.7-1.6 12.8-2.4 12-0.6 23.5 3.2 34.8 2.3 6.9 0.5 11.9-5.3 15.9l-10.8 5.7c-4.9 0.3-8-3.2-11.7-5.6-9.8-4.6-20.1-4.6-30.6-3.8-3.6 0.3-7.3 0.7-10.9 0.1-3.5-1.1-6.9-2.5-10.4-3.2-5.1-5.7-6.2-12.1-2.2-19.5 4.8-8.8 9.1-17.9 15.3-26 2.9-4.3-1.6-5.7-3.2-8.2-0.9-1.5-1.6-3-1.9-4.7-3.4-11.5 0.8-20.8 8.2-29.2 4.8-5.3 7.9-11.6 9.8-17.1-1.5 5.3-5 11-9.1 16.4-2.3 1.6-2.9 5.7-6.8 4.6-3.5-1-4.2-4.4-5.3-7.4-1.7-4.4-1.1-8.9-1.2-13.4-0.1-4.3 0.4-8.6-0.5-12.9-0.2-0.7-0.2-1.4-0.2-2.1 0.4-8.6-0.4-17.2-1.7-25.7-0.6-10.2-3.4-20.1-4.3-27.5 1.3 8.8 3.9 20.1 4.8 31.8-0.1 0.8-0.2 1.5-0.6 2.2-2.2 3.4-5.4 4.5-9.2 3.9-7.3-2.5-9.8-9.4-12.8-15.3-3.4-6.6-5.4-13.9-7.1-21.3-2.3-9.7 3.5-15.9 8.6-22.6 11.1-9 24.2-12.2 38.2-12.8 12-0.5 20.2 6.4 27.5 13.5-3.2-2-6.1-5.6-9.9-8.2-7.4-5.2-15.1-5.5-23.4-4.9-12 0.9-22.6 5.2-32.4 11.8-0.8 0.6-1.7 1-2.7 1.1-2.9 0.4-5.2-1.2-7.8-2.9-1.6 4.1-1.2 8 0.1 12 1.6 19.4 7.5 36.9 20.6 51.8 4.3 4.9 7.9 10.7 10 17 1.6 5.9 3.1 11.9 2.8 18.2-0.1 1.4-0.4 2.9 0.3 4.1 6.5 10.3 2.5 21.6 3.4 32.4 0.1 1.1-0.4 2.2-1 3.2-11.6 6.2-24 4.6-36.5 4-10.5-0.5-20.4-4-30.7-5.3-3.8-1-6.9-3.6-10.7-4.4-4.7-2.4-8.2-6.1-11.1-10.5-1.1-2-1.3-4 0.2-6 3.2-3.3 6.6-6.3 11.3-7.4 1.7-0.5 3.4 0 5.1 0.3 9.3 3.4 18.9 4.1 27.6 3.2-7 0.3-15.2 0.7-23.2-2-5.8-0.7-10.3-4.6-15.8-6.4-13.5-5.8-25.5-13.4-33.4-26.4-3.5-5.8-9.6-9.1-14.1-14s-9.1-9.7-11.7-16c-3.4-7.7-7.6-15-11.5-22.4 0.6-7.7-6.5-9.5-10.4-13.7 2.6 2.8 5.9 4.9 7.2 8.7 0.6 4-0.3 7.2-4.5 8.7-5.6 0-10.4-2.8-14.9-4.5 2.1 1.7 5.1 2.7 8 4.2 6.5 1.9 12.8 4.6 18.8 7.7 2 1.6 3.3 3.7 3.5 6.3-0.1 3.1-1.9 4.5-4.7 4.8-2.5 0.2-4.9 0.7-6.7 1.5 1.6-0.1 3.7-1.4 6.1-0.7 3.2 1.1 7 0.8 9.4 3.8 2.5 2.6 4.6 5.6 6.9 8.4 1.6 2 2.9 4.1 1.4 6.8-7.8 8.1-17.6 13.7-26.1 20.2 7.2-3.8 12.7-11.2 21.5-13.4 8.8-0.7 11.3 5.4 13.2 12.1 0.1 0.7 0 1.5-0.1 2.2-3.2 8.6-7.8 16.6-10.9 25.2-5.6 15.6-5.1 32.5-10.9 48.1-1.2 3.2-0.6 6.8-0.1 10.2 0.6 3.9 0.8 7.7 0.7 11.6-0.1 14.3-6.8 21.7-21.3 23.5-2-0.4-3.9-1-5.3-2.5-1.4-2.1-1.5-4.3-0.8-6.6 1.9-4.5-1.9 0.2-2-1.2-8.1 5.4-17 4-25.7 2.7-5.2-0.8-11-1.5-13.3-7.7-2.8-4.7-5.8-9.3-8.2-14.2-2.2-4.5-3.2-10.1 0.7-13.5 10.6-9.2 15.2-22.5 23.7-33 2-3.8 3.3-7.9 6.8-11.3-2.1 1.8-3.2 3.7-4.8 5.1-2.2 1.9-4.3 2.7-5.8-0.8-5.3-8.2-5.1-21.6 1.8-28.7s8.8-15.1 9.4-24.6c1-16.8 1.6-33.6 4.6-50.4 1.2-6.7 0.7-14 2.3-21.2 2.3-10.6 8.1-18.7 15.3-26.2 0.4 0 0.7-0.1 1.1-0.2 5.6-2 10.9-1.2 16.2 1 2.4 1.2 2.8 3.2 3 5.7 1.3 20.4 9.3 38.2 20.7 54.9 6 8.9 11.5 18.1 20.5 24.4 8.1 5.6 17.6 8.6 25.8 14 4.7 3.1 7.7-0.3 8.8-4.2 2.5-9.7 6.7-18.9 8.1-28.9 5.3-12.7 8.2-25.9 9.4-39.5 1.8-8.4 1.2-17.2 3.9-25.4 5.4-8.3 8.6-18.1 15.9-25.3 1.6-1.6 2.9-3.5 5.1-4.5 7.7-2 14.6-6.4 22.5-7.8 2.9-0.5 5.4-0.5 7.8 1 1.8 1.3 3.2 2.3 4.5 3.5z"/>
 <path class="st36" d="m444.8 381.8c0.4-0.8 1-1.5 1.3-2.3 1-2.9-1.8-7.1 1.5-8.6 2.2-1 5.7 1 8.6 1 8 0.1 15.4 4 23.5 2.8 4.9 4.8 7.3 11.1 10.5 16.9 1.7 2.1 1.8 4.5 2.1 7 0.6 5.5 3.5 7.4 8.9 6.3 9.2-1.8 14.4-9.3 13.4-19.1-0.3-3.2-1.6-6.2-1.8-9.3 0.3-2.8 2.7-3.9 4.2-5-4 1.5-7.5 6.1-13.1 3.5 3.1-7.9 5.1-16.3 13.9-20.9 11.1-5.9 18.2-2.9 19.3 9.6 2 21.8-4.8 40-24.1 51.5-10.1 6-21.4 10.2-33.6 5.1-4.8-2-10.9-1.4-14.8 2-5.8 5.1-10.9 11.1-18.2 15-0.2-1.7-0.3-3-0.4-4.3-2.4-4.4-4.5-8.9-8.6-12.2-4.3-3.5-9.1-3.4-12.4 1.1-2.7 3.7-4.5 8.1-4.3 12.6 0.4 7.8 7.3 8.6 12.8 10.8-23.9 15.1-48.8 28-78.1 27.4-18.2-0.4-35.2-6.8-51.9-13.6-10.4-4.2-20-9.9-29.7-15.3-2.1 0.5-3.4-0.7-4.9-1.9-11.6-9.7-20.1-21.4-23.4-36.3-0.9-4.1-4.2-7.8-2.3-12.4 1.4-1 2.8-2 4.3-3 1.1-0.8 2.3-0.6 3.2 0.2 9.6 7.5 20.1 2.2 23.4-8.8 8.3-6.2 16.6-12.3 26.8-15.1 25.3 8.2 50.5 7.3 75.5-1.1 1.9-0.6 4-0.9 6-1.4 5.2-0.7 9.2 2.6 13.6 4.3 5.8 2.2 11.7 4.1 17.2 7 1.3 1 2 2.5 2.9 3.8 6.4 9.5 16.2 11.1 25.2 4 1.1-0.9 1.9-2 3.5-1.3z"/>
 <path class="st37" d="m421.5 468.7c0.3 0 0.7-0.1 1-0.2 4.4-4 9.4-6.5 15.4-7 1.4 0 2.6 0.6 3.9 1.1 5.7 2.1 6.4 4 3.5 9.5-0.9 1.8-1.5 3.7-2.8 5.3-2.3 3.1-5 4.7-8.2 2.4 3 1.5 5.3 3.6 4.6 8.4-0.8 5.4-2.1 10.8-1.7 16.3-0.5 2.7-1 5.4-1.2 8.1-0.3 2.6-0.8 5.1-3.5 6.2-3.1 1.3-4.3-1.7-6.1-3.1-0.9-0.7-1.7-1.5-2.1-2.3 1.4 2 3.5 3.7 5.3 5.6 3.9 4.1 4.8 10.9 1.9 15.6-1.5 2.3-1.8 2.3-6.3 0.1 5.3 4 3.4 8.6 1.9 13.2-0.5 3.2-1.4 6.2-2.6 9.2-1.7 4.1-3.5 4.2-7.6 1 5.1 5.9 5.3 13.7 0.4 19.5-2.4 2.9-5.8 3.7-8.5 1.7-5.8-4.3-11.6-8.8-12.4-16.9 3.8-11.4 7.4-22.9 12-34 4.4-10.6 4.2-21.6 5.6-32.6 0.5-4.3-2.3-9.9 4.5-12 1.1-0.4-0.2-1.1-0.5-1.7-2.5-5.7-1.5-10.1 3.5-13.4z"/>
 <path class="st18" d="m504.1 321.2c4.5 1.8 8.9 3.6 13.8 4.1 1.3 1.2 1.6 2.9 1.1 4.4-2.3 7.2-4.9 14.3-9.6 20.4-5.2 11.4-10.4 22.7-15.6 34.2-7.5-7.1-8.5-13.3-3.5-20.2 0.9-4.7 0.9-9.6 3.9-13.6-3.1 2.8-1.5 8.3-5.7 10.6-0.3 0.3-0.7 0.6-1 0.9-2.2 2.4-2.6 9.1-7.7 5.4-3.5-2.6-9.3-5.2-5.4-13 3-6 5.2-12.8 8.3-20.8-5 3.9-7.7 7.3-8.9 11.7-1.2 4.2-2.9 5.1-7.3 3.4-5.3-2-2.7-4.8-1.7-7.5 1-3 2.3-5.9 3.5-8.8 1.2-8.6 2.9-17 9.3-23.6 6 7.6 14.6 9.7 23.5 11 1.4 1.8-0.3 3.4-0.4 5 0.9-1.4 0.4-4.2 3.4-3.6z"/>
 <path class="st18" d="m560.5 390.1c-4.6 3.2-8.2 7.8-13.8 9.4-5.4-3.9-7.9-8.5-5.4-15.5 3.2-9.3 1.6-18.9 0-28.4 0.1-1.4 0.6-2.9 1.8-3.5 8.9-5.1 16.8-11.4 24.4-18.2 0.9 0.4 1.9 0.7 2.8 1.1 7.2 4.6 9.9 12.8 15.2 19 4.7 8.2 4.1 10.8-2.9 14.9-4.2 2.5-7.7 2.3-10.5-2-0.6-1.2-1.1-2.5-2.1-3.5 0.6 0.6 1 1.3 1.5 2.1 1.7 4.7 8.2 7.3 5.9 13.7-3.8 2.4-7.5 4.7-11.3 7.1-2.8 1.1-4-0.9-5.5-2.7-3.3-4.1-5.9-8.7-8.6-12 2.1 3.1 4.7 6.9 7.5 10.5 1.9 2.5 2.8 5 1 8z"/>
 <path class="st38" d="m596.4 317.1c4.5 4.7 9 9.4 13.6 14 5.7 5.7 5.7 5.7-1.2 9.2-1.8 0.6-3.6 1.2-5.4 1.9-3.7 1.1-6.4-0.5-9.1-3-3.2-2.9-4.9-7.1-7.6-9.1 3.2 5.4 10.3 9.5 10.8 17.8-0.9 3-2.7 5.3-5.1 7-2.3 1.7-4.8 2.9-6.8-0.6-3.1-7.1-9.2-12.3-12.3-19.4-4.3-8.7-3.3-18.2-4.3-27.5 3.5-0.3 3 2.7 3.5 4.6 0.7 2.8 0.7 5.7 1.5 8.3 5-4.6 4.9-12.7 11.4-16.4 6.8 1.7 9.4 7 11 13.2z"/>
 <path class="st39" d="m421.5 468.7c-4.4 7.2-3.5 13.7 3.2 19.8-3 0.6-3-1.3-3.8-2-0.8-0.8-1.5-2-2.8-1.6-1.6 0.4-1.7 1.9-1.9 3.3-0.7 5.2-1.3 10.6-1.1 15.7 0.8 15.6-7 28.5-11.1 42.6-1.6 5.5-3.1 11-6.3 15.9-0.6 0.9-1.6 1.1-2.6 0.9-3.2-1.5-5.9-4.7-10-2.9-4.6-6.4-9.3-12.7-13.4-19.4-0.8-2-1.3-4-1.1-6.2 1.3-3.4 2.1-7.4 7.3-4.6 3.3 6.1 4.6 13.4 10.1 18.3 2.6 1.7 4.9 7.9 7.9 0.3 1.3-5.1 3.3-9.8 5.6-14.5 0.7-1.4 1.2-3 1.6-4.5 3.8-10.9 8.8-21.6 5.8-33.8-2.5 0.2-4.1 2.4-6.4 3.2-6.7 2.2-7.5 4.1-5.4 11.1 1 3.2 2.9 6.2 2.5 9.8-0.8 2.8-2.5 3.3-5 1.9-4.8-4.2-6.4-9.7-6.8-15.8-0.2-2.1 0.3-4.1 0.8-6.1 2.6-10.1-2.1-15.8-11.2-18.9 1.1-1.5 2.7-1.3 4.2-1.5 1-0.1 2.7 0.5 2.6-1.1s-2-1.4-3.2-1.9c0.4-2.9 3.4-2.5 4.9-3.9 4.2-2.9 0.6 5 4.2 3 0.8 1.6 1.3 3.4 2.7 4.6 0.7 0.9 1.5 1.7 2.3 2.5 2.2 2.1 3 6.9 6.6 6 4.6-1.2 8.5-4.3 10.1-9.3 0.5-1.5 0.8-3.1 1.3-4.6 1.4-2.9 1.1-7 5.3-8.1 0.6 1.1 1.8 1.6 3.1 1.8z"/>
 <path class="st40" d="m438 463.1c-5.2 1.8-10.3 3.6-15.5 5.4 3.9-8.6 9.1-16.2 17-21.6 7-4.7 13.3-10.3 20.9-14.1 4.7-2.3 9.1-2 13.6 0.3 4.2 2.1 8.5 4.4 13.5 3.8-1 2 0.5 3 1.7 4.1 0.7 1.9 2.7 3.1 2.6 5.4-7.2-2.2-13.3 1.4-19.5 3.8-3.6 1.4-7 3.2-11 3.4-0.5-5.9 4.5-7.3 8.1-9.5 2.3-1.5 5.2-2.2 8-2.7-7.9 1.8-8 1.8-16.5 9.2-2.8 2.5-5.6 4-8.6 2.1 3.5 1.7 3.1 4.5 0.7 7.4-2.1 2.6-3.3 7.3-8.3 4.5-1.8-1-4-1.1-5.7-2.3-1.6-1.4-0.5 0.8-1 0.8z"/>
 <path class="st18" d="m529.1 304.6c5.7-1.9 11.9-2.8 16.6-7 2.3 0.3 3.3 2.3 2.8 4-2.2 9.1 0.8 18.8-3.5 27.7-1.9 6.7-7 9-13.3 9.8-3.4-2.9 0-6.4-0.7-8.9 0 3.9-2 7.7-3.4 11.8-3.3 4.1-8.5 5.4-12.4 8.7-4.5-1.5-2.7-5.3-1.7-7.3 5.3-10.5 8.1-21.7 11.3-32.9 0.6-2.5 1.4-5 4.3-5.9z"/>
 <path class="st41" d="m395.2 562.3c0.8 0 1.6-0.1 2.4-0.1 1.6 6.3 6.6 10.2 10.6 14.6 2.3 2.5 7.4 3.4 8.5-2.8 0.2-1.1 0.6-2.2 1.1-3.2 2.5-4.9 2.9-9.1-2.5-12.7-1.8-1.2-4.2-2.9-3.8-5.9 0.5-0.1 1-0.5 1.2-0.3 3.1 2 4.6 8.3 8.6 6.3 2.6-1.4 3-7.2 4.3-11 0.5-1 1.3-1.9 2.6-1.4 0.7 0.3 0.6 1 0.3 1.7-0.8 10.1-5.2 19.3-7.8 29-1.8 7-5.7 8.2-12.1 4.8-14.9-7.8-30.7-14.3-40.6-29.2-13.9-21-27.6-42.1-27.1-68.7 0-0.4-0.5-0.8-0.7-1.1-2.3-2.6-2.7-5.2-0.3-8l5.7 1.2c2.5 3.4-1.1 8 2.1 11.2 3.4 1.4 4.9 3.4 2.1 6.7-1.7 2-1.6 4.3-0.9 6.5 4.9 16 11.4 31.2 22.2 44.3 4.4 7.6 9.4 14.6 17.1 19.2 2.3 1.4 4.3 3.3 6.9 4.3-0.5-1.8-1.7-3.7 0.1-5.4z"/>
 <path class="st17" d="m513.5 376.3c5.4 6.7 4.6 14.1 1.7 21.2-2.9 7-9.5 9.5-16.6 10.3-5.4 0.6-9.2-3.8-8.7-9.4 0.2-2.3 0.2-4.6 0.3-6.8 2.1 1.6 3.9 1.2 4.9-1.1 1.7-4.1 5.3-6.5 7.8-9.9 2.9-3.1 6.1-5.4 10.6-4.3z"/>
 <path class="st38" d="m549.6 296.3c4.4-0.1 8.3-2 12.1-4 0.9 10 1.5 20 2.8 30 0.7 5-0.9 7.3-5.7 7.4-3.5 0.1-7.1 2.1-10.6-0.2-0.6-0.7-1.6-1.5-1.4-2.3 1.4-10.3-0.8-20.9 2.8-30.9z"/>
 <path class="st42" d="m530 423.7c4.2 8.4 3.8 9.5-3.3 11.4-2.8 0.7-3.6-0.6-4.7-2.3-1.6-1-2.8-2.3-2.9-3.6 0.7 2.5 1.9 5.7-0.1 8.9-2.6 1.2-5.3 2-7.7 3.6-2.8 1.8-2.7-0.5-3.5-1.9-2.7-4.7-8.3-8.4-4.8-15.1 6.8-1.5 12.3-5.5 17.7-9.4 5.8-4.2 6.4-0.7 6.9 3.6 0.3 2-0.5 4.3 2.4 4.8z"/>
 <path class="st43" d="m377.3 481.1c10.7-0.2 14 3.3 13.4 14.1-0.1 1.6 0 3.2 0 4.8-2.5 3.7-6.4 4.5-10.5 5-7.6-0.1-8.6-0.9-10.5-8.6-1.3-5.2-3.9-10.9 3.7-13.7 1.5-0.2 3-0.2 3.9-1.6z"/>
 <path class="st44" d="m585.4 304.7c-4.3 6.9-6.7 14.9-13 21.2-1.7-6.2-1-12.6-3.6-18.3-1-5.5-1.9-11.1-2.9-16.6-1.1-2.9-1-5 3-4.2 5.4 3.5 9.9 8.1 14.5 12.6 1.5 1.3 3 2.9 2 5.3z"/>
 <path class="st0" d="m243.4 393.1c5.1 13.8 8.2 28.3 18.4 39.9 3.7 4.2 8.5 6.7 12.2 10.7-0.5 2.7-1.8 2.9-3.7 1.2-12.1-10.9-22.8-22.5-26.9-39.3-2.5-10.3-6.9-20.1-10.6-30.1-1.3-3.5-2.9-6.8-0.1-10.2 3.6 9.2 7.2 18.5 10.7 27.8z"/>
 <path class="st45" d="m567.4 333.9c-5.2 11.5-17.2 14.8-26.2 21.7-1.5-2.2-3-4.5-4.5-6.7-0.2-3.4 2.6-4.9 4.5-7 7.7-6.4 16.7-8 26.2-8z"/>
 <path class="st46" d="m477.6 308.6c-3 7.9-5.3 16-9.3 23.6-2.5 0.1-5.1-0.5-7.1 1.5-10.7-9.6-7.7-22.6-8.6-34.7-0.1-1.9 0.2-3.9-1.4-4.9-1.9-1.2-2.4 1.5-3.7 2-1.3 0.2-2.4-0.1-3.1-1.2-0.1-2-2-3.7-0.7-5.9 3.8-2.9 6.6 0.3 9.7 1.7 1.9 0.7 2.4 2.5 2.9 4.2 2.4 5.3 3 10.9 3.5 16.7 0.3 4.7 0.3 9.6 3.7 14.1 4.2-4.3 4.4-10.2 7-14.8 1.6-2.8 2.6-6.6 7.2-4.7-0.1 0.9-0.1 1.7-0.1 2.4z"/>
 <path class="st47" d="m418.3 466.8c-1.9 2.6-1.2 6.4-3.8 8.8-7.4 3.7-15.4 5.3-23.7 5.7-3.1-1.4-3.5-3.3-0.8-5.6 8.2-7.6 17.8-12.8 28.6-15.9 1.7 2.4-1.1 4.7-0.3 7z"/>
 <path class="st48" d="m373.5 482.7c-4.2 4.2-3 8.9-1.7 13.9 1.2 4.5 3.4 7 8.2 6.8 0.8 0.7 1 1.7 0.8 2.7-0.7 2-1.8 3.7-3.6 4.8-1.3 0.6-2.7 0.6-4-0.1-2.2-1.7-2.9-4.4-4.1-6.8-2.8-6.4-2.8-6.4-7.1-2.1-4.5 3.8-5.4-0.6-7.2-3.1-2.2-4.2-2-8.8-2.7-13.3 0-2.9-0.7-6.1 1.7-8.5h4.3c1.9 1.9 2.4 4.2 2.1 6.8 0 1.3-0.5 3.5 0.6 3.7 2.2 0.5 2.9-2.1 4.4-3.3s3-2.6 5.2-1.7c1 0 2 0.1 3.1 0.2z"/>
 <path class="st49" d="m433.7 445.2c-5.9 0-11.6-0.7-14.4-6.9-1.7-3.9 1.8-16.2 5-19.2 6-5.5 15-2.6 20.2 6.6 1.2 2.2 2.3 4.5 1.6 7.2-0.9-0.2-1.8-1.4-2.7 0-0.6 0.4-1.2 0.4-1.8 0.1-1.7-1.6-2-4-3.2-5.9-3.5-5.3-8.8-5.2-11.3 0.7-1.3 3.2-5.6 7.1 0.1 10.4 3.1 1.4 7.9-0.8 9.4 4.2-1.7 0.2-3.4 0.3-5.4 0.6 1.2 0.5 2.1 0.8 2.9 1.3 0.1 0 0.1 0.4 0.1 0.6-0.1 0.1-0.4 0.2-0.5 0.3z"/>
 <path class="st50" d="m502.7 442.4c-4.5 2.4-8.3 2.7-10.8-3-0.6-1.5-2.3-2.9-4.4-2.4 0.9-3.3-2.8-2.7-3.7-4.4-1.7-1.4-3.7-2.7-1.5-5.2l10.8-0.3c3.1-0.7 6.8-1.9 8.4 1.7 1.8 4.2 5.3 8.7 1.2 13.6z"/>
 <path class="st51" d="m545.4 403.9c1.8 4.6-2.5 5.6-4.7 7.8-2 2.1-4.2 4-6.3 6-6.4-4.3-7.5-7.5-3.3-12.8 2.6-3.3 3.4-9.4 7.3-9.7 2.6-0.3 2.9 7 7 8.7z"/>
 <path class="st52" d="m568.8 288c-3.9-2-2.3 1.5-2.8 2.8-1.3-1.1-2.2-2.8-4.2-2.9-2.4-14.3-3.6-28.9-7.6-42.9-0.3-1.2-0.8-3 1-3.3 1.6-0.3 2.4 1.1 2.7 2.5 1.9 8.9 5.2 17.5 5.4 26.7 0.2 5.7 0.6 11.5 6.8 14.5 0.1 1.1-0.2 2.1-1.3 2.6z"/>
 <path class="st53" d="m529.1 304.6c-5.5 13.8-8.3 28.4-14.4 42-0.6 1.3-2 2.9 0.5 3.9-2.1 2.3-3.9 0.4-5.7-0.5 1.1-8.8 7.7-15.8 8.5-24.7 4.3-6.2 3.5-14.1 7.1-20.6 1-1.7 1.5-4 4.3-2.9-0.2 1-0.2 1.9-0.3 2.8z"/>
 <path class="st54" d="m436.6 442.4c-3.4-2.7-7.9 0.3-11.3-2.4-0.1-2.5-0.7-4.9 0.5-7.4 3.6-7.5 11-7.4 16.5 0.2 0.4 0 0.7 0 1.1 0.1 0.1 4.9-2.6 7.7-6.8 9.5z"/>
 <path class="st55" d="m549.6 296.3c0.5 11.1-0.2 22.1-1.4 33.1-1.1-0.1-2.1-0.1-3.2-0.2-0.4-8.2 0.3-16.3 1.1-24.4 0.3-2.5 0.8-4.9-0.5-7.3 1.6-2.4 0.1-5.3 1.6-9.3 1 3.6 1.7 5.8 2.4 8.1z"/>
 <path class="st56" d="m573.2 334.9c6.1 4.7 10.3 11 13.2 18.1-0.7 0.9-1.4 1.7-2.7 1.6-4.5-6.5-9-13.1-13.5-19.6 1 0 2-0.1 3-0.1z"/>
 <path class="st57" d="m339.9 474.4c0.1 2.7 0.2 5.3 0.3 8-5.5-0.9-11-1.7-16.5-2.6 4.5-4.5 9.5-7.5 16.2-5.4z"/>
 <path class="st58" d="m513.5 376.3c-3.5 1.4-6.5 4.2-10.5 4.3 0.2-1.9-1-4 1-5.6 6.6-0.9 11.5-6.2 18.9-7-1.7 5.1-6.8 5.3-9.4 8.3z"/>
 <path class="st59" d="m370.3 482.4c-1.3 1-2.6 2-3.9 2.9-2.8 0-5.7 2.8-8.5-0.2 0-2.7 0.1-5.5 0.1-8.2 2.9 0 5.8 0 8.7-0.2 4.5-0.1 5.7 1.7 3.6 5.7z"/>
 <path class="st60" d="m353.8 477c0.1 2.8 0.2 5.5 0.3 8.3-2.2 2.7-6.4 1-8.4 4-2.6-4.5-1.8-9.1 0.1-13.6 2.6 0.4 5.3 0.8 8 1.3z"/>
 <path class="st61" d="m502.7 442.4c1-9.1-2.8-15.2-9.7-15.2 2.9-2.5 6.9-0.6 10-2.4-0.2 5.6 4.2 9.7 4.8 15.1-1.1-0.4-2.1-0.8-2.4 1.1-0.3 1.1-0.7 2.8-2.7 1.4z"/>
 <path class="st62" d="m279 459.3c3.4 0.2 5.8-1.2 7.2-4.3 2.6 0.8 5.9 1.4 6.4 4 0.3 1.8-2.6 3.9-4.8 4.2-3.5 0.5-7.5 1-8.8-3.9z"/>
 <path class="st63" d="m527.5 341.9c0.8-6.1 0.6-12.5 4.2-19.1 2.4 6.3 0.1 11.3 0 16.3-2 0.1-2.8 1.8-4.2 2.8z"/>
 <path class="st64" d="m477.8 429.9c-1.7-0.6-3.4-1.2-5.1-1.9-1.5-0.6-4.5 0-3.6-2.6 0.6-1.9 3.1-2.4 5.1-0.9 1.3 0.9 2.5 1.9 3.7 2.8 0.8 0.9 0.7 1.8-0.1 2.6z"/>
 <path class="st30" d="m488.5 360.9c1.6-4.1 3.2-8.3 4.8-12.4 0.7 5.6-0.5 10.7-3.1 15.5-0.5-1.1-1.1-2.1-1.7-3.1z"/>
 <path class="st65" d="m541.2 341.8c-0.6 2.9-2.2 5.2-4.5 7-4.3-3.9-4.3-3.9 4.5-7z"/>
 <path class="st66" d="m477.8 429.9c0.1-0.9 0.1-1.7 0.2-2.6 1.4 0 2.8 0.1 4.3 0.1 0.5 1.7 1 3.5 1.5 5.2-2.5 0.2-4.5-0.7-6-2.7z"/>
 <path class="st36" d="m385.8 472.7c-0.8 2.4-3.7 2.1-4.9 3.9-1-0.1-2.6 0.1-3-0.5-1-1.5 0.6-1.8 1.5-2 2.2-0.5 4.1-1.9 6.4-1.4z"/>
 <path class="st67" d="m532.7 757.2c-2 5.6-0.7 11.2-0.5 16.8 0.1 2.4 2 5.6-1.6 7.3-6-0.8-6.8-6-8.9-11.1-2.1 3-1.3 6.1-2.3 8.7-1 2.8-2.7 5-5.8 5.1-3.6 0.1-4.2-2.8-4.9-5.5-0.8-3-0.5-6.4-2.3-9.3-2.8 1.9-2.9 5.2-4.4 7.7-1.4 2.3-2.5 5.5-5.8 4.9-3.7-0.7-3.6-4.2-3.9-7.2-0.2-2.7 0-5.5 0.1-9.4-2.5 3.7-4.8 6.3-6.5 9.4-1.9 2.3-4.2 3.7-7.1 1.8-3-1.9-2.9-5-2-8s2.1-6 3.3-9c1.4-3.4 0.7-6.1-1-8.9-0.4-1.4-0.4-2.9-0.2-4.4 1-3.9 3.5-6.9 6-9.9 1.8-1.7 3.5-3.7 5.7-5.1 12.4-4.4 24.4-2.7 36.1 2.3 1.7 0.8 2.9 2.1 3.4 4-0.3 1.6 0.8 2.7 1.6 4 1.5 5.3-0.2 10.6 1 15.8z"/>
 <path class="st68" d="m687.6 748.5c-5.4 9.9-6.9 10.3-19.8 5.1-0.2-2.6 3.2-3.1 3.5-6.6-20.3 13.4-42.4 20.8-65.2 26.3-7.1 0.9-13.1-3.4-14-10.1 0.8-2 2.4-3.1 4-4.5 6.3-5.3 10.1-12.1 11.3-20.3 1.3-2.3 2.1-5.7 5.9-3.1 1.1 1.2 1.2 2.7 1.6 4.1 0.5 1.9 1 0 1.6-0.1 2.6-2.1 5.2-1.1 7.7 0.1 6.1 3.1 12.7 5.3 17.4 10.7 2.1 2.4 3.6 1.8 5.4-0.4 5.4-6.6 12.9-10.9 18.5-17.3 1.2-1.4 2.7-2.4 4.6-2.8 6-1.1 19 9.1 19.8 15.7-0.5 1.2-1.5 2.1-2.3 3.2z"/>
 <path class="st68" d="m556.2 781.7c-0.9-0.9-1.9-1.8-2.8-2.6-4.8-4.3-7.8-9.6-8.6-16.1v-9c-0.2-4.6 0.2-9.1 1.4-13.5 2.8-7.5 4.9-15.2 9-22.2 2.8-2.3 5.5-4.5 8.3-6.8 1.2-4.9 2.5-9.7 5-14.2 2.7-1 4.3 0.6 6 2.2 4.1 3.9 8 8.2 12.1 12.2 3.5 3.4 2.9 6.6 0 10.2-6.5 8.4-15 13.9-24.8 17.5-1.9 0.7-4.7 0.9-5 3-0.3 2.4 2.3 3.7 4.1 5.1 5.7 4.6 11.9 8.5 17.8 12.8 2.3 1.6 4.5 3.5 3.7 6.7-0.7 3-2.9 5-5.8 5.1-6.9 0.3-12.2 3.3-16.6 8.4-1 1.1-2.3 1.9-3.8 1.2z"/>
 <path class="st69" d="m541.2 716.8c-2.8 5.8-1.5 12.3-3.1 18.3-1.3 4.8-2.9 4.4-5.4 1-3.7-1.2-7.4-2.4-10.9-3.9-10.2-4.6-20.5-3.8-30.9-1.1-1.4 0.4-2.7 0.5-3.9-0.5-1.8-7.4 1.6-13.4 5.4-19.3 7.2-5.8 15.4-6.8 24.3-5.9 6.4 0.6 13.2-0.6 19 3.5 3.2 1.8 5.9 3.8 5.5 7.9z"/>
 <path class="st70" d="m556.2 781.7c5.2-6.2 10.1-12.7 19.7-11.4 2.2 0.3 3.9-1.4 4.8-3.4 1.2-2.7-1.3-3.6-2.9-4.7-8-5.7-16-11.3-23.7-17.6-3.4-2.8-2.3-3.8 0.7-5 4.9-2 9.7-4.2 14.6-6 7.6-2.7 11.6-9.4 17-14.6 1.6-1.6 1.7-3.2 0-4.7-6.1-5.6-11-12.3-18-16.9-3.4-1.2-2.8-3.7-2.1-6.2 2.8-3.2 5-1 6.8 1 9.5 10.4 19.3 20.6 28.9 31 1.9 2.1 3.7 4.8 1.1 7.2-2.4 2.2-5 0.2-6.5-1.6-4.1-4.8-7.7-4.3-12-0.1-5.3 5.1-11.4 9.1-17.7 12.9-1.8 1.1-4 2.5-1.4 4.7 6.1 5.2 12.9 9.5 19.7 13.7 1.4 0.8 3.1 0 4.7 0.1 1.9 0.2 2.8 1.5 3.4 3.2 2.9 4.9 6.6 9 12.6 10-13.6 6.8-27.6 12-43.2 11.1-2.5-0.2-4.9-0.3-6.5-2.7z"/>
 <path class="st71" d="m688.7 745.6c-1.1-4.1-13.7-14.7-17.5-14.5-1 0-2.3 0.7-2.9 1.4-6.2 8.2-16.6 12.2-21.3 21.8-1.7 3.4-3.6 0.5-4.6-0.8-5.3-6.5-13-9.2-20-12.9-1.7-0.9-3.3-1.5-5.2-0.5-1.2-1-1.3-2.3-0.9-3.7 2.8-3.5 6.2-2.2 9.3-0.9 5 2.2 10 4.6 14.3 8 2.4 1.9 4.8 2.6 7.2 0 4.1-4.4 9-7.7 13.3-11.8 3.6-3.4 4.2-6 0.1-9.4-3.8-3.2-7.6-6.6-11.5-9.7-2-1.6-4.8-3.1-3-6.6 7.1 2.1 14.5 3.3 22.6 8.4-3-5-8.3-9-0.6-11.8 6.2-3.4 10.3-0.3 13.8 4.4 0.4 0.5 0.9 1 1.3 1.4 0.5 0.5 0.7 1.1 0.6 1.8-1 2.9-3.5 4.8-5.2 7.1-5 6.5-4.9 7.3 1.9 11.5 4.3 2.7 8.6 5.1 11.3 9.7 0.2 3 1.5 6.3-3 7.1z"/>
 <path class="st72" d="m484.5 773.2c2.4-3.9 4.8-7.7 7.1-11.6 0.5-0.8 1.2-1.7 2.1-1.3 1 0.4 2.1 1.4 1.6 2.7-1.8 4.4 0.4 9.1-1.1 13.6-0.5 1.4-0.9 3.4 1.4 4 2 0.5 3-0.9 3.6-2.4 1.4-3.4 2.4-6.9 4-10.2 0.7-1.6 0.8-4.5 3.8-3.7 2.5 0.7 2.6 2.9 2.8 5 0.3 3 0.8 5.9 1.1 8.9 0.2 2-0.4 4.8 2.5 4.7 2.7 0 4.5-2 4.5-5.1 0-2.3-0.1-4.6 0.3-6.9 0.4-2.1-0.2-5.4 2.6-5.7 2.6-0.2 3.2 2.7 3.6 5 0.9 4.4 2.8 8.2 6.3 11.1-1.9 0.9-3 2.1-1.7 4.3-3.9-2.4-7.1-3.1-11.4 0.5-5.1 4.2-9.2 2-13.3-5.1l-5.7 4.5c-3 1.7-6.2 1.5-8.7-0.4-2.7-2.1-5.8-2-8.7-2.9-1.8-2.4 0-3.6 1.7-4.7 1.5-1.1 2.5-2.3 1.6-4.3z"/>
 <path class="st73" d="m688.8 708.5c6.4-3 10.2 0.6 12.1 5.9 3.5 9.6 6.3 19.3 13.2 27.2 2 2.3 3.9 6 1.3 8.7-2.4 2.5-5.9 1.6-8.7-0.5-2.4-1.7-5.5-2.1-7.9-3.9-4-2.8-6.5-6.3-6.5-11.3 0-6.4-1.2-12.5-3.7-18.5-1.3-2.4-2-5.1 0.2-7.6z"/>
 <path class="st74" d="m567 690.8c0.5 2.2 0.9 4.5 1.4 6.7 0.4 5.4-1.3 10.1-5 14-0.1-2.4-1.6-2.2-3.2-1.8 5.6-7.4 4.2-14.9 1-23-4.4-11-1.6-22.4-0.4-33.6 0.2-2.2 0.7-4.5 1.1-6.7 1.8-0.8 3 0 4.2 1.2 2.4 3.3 1.5 7.1 1.1 10.6-1.1 9.1-2.4 18.1 0.6 27.1 0.5 2-0.1 3.8-0.8 5.5z"/>
 <path class="st75" d="m546.6 753.6c0 3.4 0 6.8 0.1 10.2-2.1 4.1 1.3 6.8 2.5 10 1.4 3.7 1.5 3.6-1 6.1-7-5.1-11.6-11.6-11.4-20.6 0.2-7.3-2-15.4 5.5-20.8 2.9-0.3 2.7 1.8 2.2 3.4-0.8 2.1 0.2 3.9 0.6 5.7-0.2 3.5-1.3 6.9-1 10.5 0-1.9-0.4-4.1 2.5-4.5z"/>
 <path class="st11" d="m688.8 708.5c2 9.7 6.2 18.8 5.9 29-0.1 3.1 2.9 4.8 5.4 6.5 2.4 1.6 5.2 2.9 6.5 5.8-3.6 0.4-7.3-0.2-10.4-1.7-3.2-1.5-5.8-1-8.6 0.3 0.4-1 0.7-1.9 1.1-2.9 2-2.5 1.7-5.4 1-8.2-3.1-9-5-18.2-6.4-27.6 0-0.4-0.1-0.9-0.2-1.3 1.9 0.1 3.8 1.2 5.7 0.1z"/>
 <path class="st76" d="m487.6 730.4c14.6-5.8 28.6-3.8 42.2 3.2 1.2 0.6 2.6 1 2.9 2.6-0.8 0.5-1.7 0.9-2.5 1.4-12.8-6.4-25.9-9.1-39.9-4.2-1.7-0.3-3.5-0.5-2.7-3z"/>
 <path class="st77" d="m544.1 747.1c-1.7-0.8-6-0.2-2.3-4.1 1.2-1.3 2.9-2.6 0.5-4.4 0.5-2.3 0.9-4.6 1.4-6.8 4.4-2.9 3.8-6.7 1.9-10.7 2.5-3.1 6.6-0.8 9.4-2.7-0.3 8-4.5 14.7-7.1 22-2.4 1.5 0 5.9-3.8 6.7z"/>
 <path class="st78" d="m545.7 721c3.3-0.4 5.6-0.1 3.9 4.3-0.8 2.1-1.1 4.4-1.5 6.6-0.2 1.3 0.1 3.2-1.6 3.3-2 0.1-2.2-2-2.6-3.5-1.7-4-2.1-7.7 1.8-10.7z"/>
 <path class="st79" d="m548.2 780c1.6-5-3.6-8.2-3.3-13 0.1-1.6-0.7-3.1 1.7-3.2 0.8 5.7 5.7 9.6 6.7 15.3-1.5 1.2-2.8 3.9-5.1 0.9z"/>
 <path class="st80" d="m701.6 709.5c5 1.8 7.4 5 7.7 9.6 0.1 1.4 0 3-1.6 3.4-1.8 0.5-2.1-1.1-2.5-2.4-1.1-3.5-2.4-7-3.6-10.6z"/>
 <path class="st81" d="m541.2 716.8c-1.8-1.9-3.6-3.8-5.4-5.8-1.1-4.6 1.6-3.4 4-2.5 3.7 1.6 5.5 6 9.8 6.9-2.4 2.9-5.8-0.4-8.4 1.4z"/>
 <path class="st76" d="m532.7 757.2c-1.9-5.1-0.8-10.4-1-15.6 2.7 5 1.1 10.3 1 15.6z"/>
 <path class="st35" d="m269.8 725.1c-1.6-3.5-9.6-5.5-2.7-11.1 5.1-1.1 6.5-5.5 8.3-9.6 1.1-1 2.5-1.4 3.8-0.9 9.5 4.2 20.1 3.5 29.9 6.6 5.7 1.8 9.2 4.9 9.1 11.2-0.2 2.7-0.2 5.5-0.2 8.2 0 11-3.2 13.7-14.4 12.5-7.3-1.7-14.8-2.5-21.6-6.3-4.8-2.8-9.1-5.9-12.2-10.6z"/>
 <path class="st82" d="m316.3 720.6c0-4.6-3.1-6.1-6.9-7.7-11-4.4-23.6-2.4-34.1-8.5 0.5-1.9 1.1-3.8 1.6-5.7 11.5 6.2 23.1 9.9 35.9 3.5 2.7-1.4 6.1-1.4 9.4-2.1 0.3 2.6-1.5 3.3-2.7 4.4-2.2 2.2-2.9 4.4-0.2 6.7 1.4 0.4 3 0 4.1 1.3-2.3 2.6-1.9 7.9-7.1 8.1z"/>
 <path class="st83" d="m289.3 631c1.6 1 2.6 1.6 4.3-0.5 2.4-3 5.1-6.3 9.6-7-2.8 5.3-5 10.9-10.1 14.5 0.4-3.2-4.5-3.5-3.8-7z"/>
 <path class="st35" d="m552.3 523.8c2.8 4.9 8.4 4 12.6 5.9s9 2.6 13.6 3.8c7.9 4.6 17.3 7.2 21.6 16.5 0.4 0.8 0.6 1.7 0.8 2.6 0 12.1 3.4 24.6-3.7 36-6.1 10-12.6 19.7-21 27.9-2.2 2.2-4.2 5.6-7.9 4.2-3.9-1.5-2.5-5.4-2.7-8.5-0.1-1.4-0.1-2.8-0.5-4.1-2.2-12.9-2.4-26-5.1-38.9-1.2-11.9-5.2-23-8.9-34.2-0.8-2.4-2.1-4.6-1.5-7.2 1.3-1-2.7-5.7 2.7-4z"/>
 <path class="st6" d="m583.7 354.6c0.9-0.5 1.8-1.1 2.7-1.6 1.1 2.8 2.8 2.3 4.4 0.7 2-2 3.8-4.2 5.6-6.3 0.9-0.7 0.1-2.4 1.6-2.8 3.3 0.7 4.8 2.7 2 5.2-7.2 6.4-7 18.2-16.8 22.6-1.7 0.8-2.3 2.8-1.6 4.8 0.5 1.5 1.5 3.2-0.6 4.1-2 0.9-2.6-1.4-3.8-2.2-2.4-4.6-4.9-9.2-7.3-13.8 0.9-0.8 1.8-0.8 2.7 0.1 3.9 6.9 7.8 1.9 11.5-0.2 4.9-2.7 2.7-5.8 0-8.7-0.3-0.4-0.2-1.3-0.4-1.9z"/>
 <path class="st84" d="m549.5 527.9c4.2 6.8 6.1 14.5 8.3 22 1.8 6.3 2.8 12.9 4.1 19.3-2.1 0.7-0.9 3.7-3 4.4-1.9-15.8-7.4-30.7-12.3-45.7 1.1 0.1 2 0 2.9 0z"/>
 <path class="st85" d="m598.1 344.6c-0.2 1.1-0.5 2.2-1.6 2.8-1.2-6.2-6.9-9.2-9.9-14.2-1.6-2.7-3.6-5.1-4.9-8 6.3 3.1 10.7 8.2 14.8 13.5 1.9 2.4 3.7 4 6.8 3.5-1.1 2.1-4.1 0.3-5.2 2.4z"/>
 <path class="st14" d="m560.5 390.1c0.6-5.2-3.4-8.3-6.1-11.7-2.9-3.7-5.2-7.6-7.2-13 7.8 4 9.8 11.6 14.5 16.8 1.3 1.5 1.8 3.8 4.2 4-1.7 1.3-3.5 2.6-5.4 3.9z"/>
 <path class="st86" d="m518.9 438.1c1.7-5.6-4.1-9.8-3.4-17.1 3.5 4.6 6.3 7.4 6.4 11.8-2.2 1.1-0.4 4.4-3 5.3z"/>
 <path class="st66" d="m491.9 446.4c-1.1-1.7-2.9-3-2.6-5.4 3.2 1.4 4.6 4.5 6.4 7.2-1.2-0.6-2.5-1.2-3.8-1.8z"/>
 <path class="st68" d="m567 690.8c-6-12.7-3.2-25.9-1.8-39 0.2-1.5 0.1-2.7-0.5-4-1.5-2.1-1.8-4.2-0.2-6.4 2.2-2.1 4.6-3.9 8-3.2 9.5 6.4 17.7 13.7 23.7 23.9 3 5 8.5 8.8 12.7 13.2 4.6 4.8 5.8 9.5 2.7 15.3 0.1 6.8-0.5 13.6-1.8 20.3-0.9 2-0.1 4 0.1 6.1-0.6 3.8-0.7 7.7-1.8 11.3-0.1 12.3-2.4 23.6-13.3 31.3-1.1 0.8-2.2 1.7-3.7 1.3-3.9 3-6.8 2.2-10.6-1.2-5-4.6-11.2-7.9-16.7-11.9-3.2-2.3-6.3-4.1 0.2-7.1 8.1-3.7 15.4-9.2 21.5-15.6 4.5-4.7 7.2-3.8 10.9 0.5 1.5 1.7 3.5 6 6 3.4 2.1-2.2-2-4.4-3.8-6.3-8.8-9.5-17.7-18.8-26.4-28.3-1.4-1.7-2.3-4-5.2-3.6z"/>
 <path class="st68" d="m646 706c4.5 7 12.3 10.5 17.9 16.4 3.4 3.5 4.1 5.3 0.4 8.6-6 5.2-11.9 10.7-17.6 16.2-2.3 2.2-3.5 1.4-5.7-0.1-7.2-5-14.2-10.7-23.6-11.1-4.8-4.6-4.7-11.2-6.9-16.9-0.6-1.7 1-2.8 2.3-3.8 6.2-11.5 20.2-15.5 33.2-9.3z"/>
 <path class="st68" d="m619.8 665.8c0.3 2 0.2 3.9-1.3 5.6-0.7 0.5-1.6 1-1.9 1.9-1.8 5.8-5 4.2-8 1.4-4-3.7-8.4-7.3-11.4-11.7-6.4-9.2-14.4-16.8-23.2-23.6-0.3-0.3-0.4-0.8-0.5-1.2 0.4-4.9 5-6.1 8-8.7 6.5-5.7 12.2-12.1 17.6-18.8 1.7-2.1 2.8-4.8 5.9-5.3 7.2 2.5 11.6 12.4 9.5 21.6-1.1 5.1-3.7 9.6-5.8 14.3 0.3-0.9 0.8-1.6 1.4-2.4 1.1-1.6 1.6-4.3 4.4-3.4 2.6 0.8 3.1 3.2 3.1 5.6 0.2 6.2 0 12.4 0.1 18.6 0.1 2.2-0.6 4.7 2.1 6.1z"/>
 <path class="st37" d="m611.5 574.8c4.6 3.5 2.2 7.5 1 11.6-1.2 3.7-3.6 6.7-5.3 10.1 0.3 5.2-3.9 8-6.3 11.7-7.2 11-16.9 19.6-27.5 27.2-5.8 4.1-8.1 2.9-9.3-4.3-0.1-2.2 0.6-4.2 1.9-5.9 12.5-9.3 21.7-21.4 29.2-35 3.8-4.7 4.1-11.4 9.2-15.3 2.4-0.8 4.7-1.6 7.1-0.1z"/>
 <path class="st87" d="m619.8 665.8c-1.3 0.8-2.6 1.6-4.7 2.8 0.7-11 0.8-21.3-1.2-32-2.3 3.6-4.6 7.2-7.1 11.3-0.8-4.9-1-5 3.7-15.5 3.4-7.6 2.9-14.6-1-21.7-1.1-2.1-2.2-4.1-4.9-4.2-0.5-3.6 0.6-5.8 4.7-5.7 8.2 9.9 11.8 21.3 11.4 34.1-0.3 7.6-0.2 15.2-0.7 22.8-0.1 2.6-0.2 5.4-0.2 8.1z"/>
 <path class="st88" d="m574.3 638.2c8.7 5 15.1 12.5 21.4 19.9 5.4 6.3 11.4 11.8 17 17.8 2.5-1.1 0.7-7.2 5.7-4.6-0.2 7.2-4 13.1-6.9 19.4-0.8-2.9 2.7-6.1 0.2-8.5-5.4-5.2-8.6-12.6-15.5-16.1-2.3-1.2-3.9-1.4-3-4.5 0.7-2.6-1.7-4.1-3.2-5.6-5.7-5.6-11.4-11-17.1-16.6-0.1-1.1 0.3-1.6 1.4-1.2z"/>
 <path class="st89" d="m618.5 634.1c2-6.3-1.7-11.8-3.1-17.4-1.4-5.4-4.3-10.5-6.6-15.7-0.7-1.8 0.6-2.8 1.6-4 5.3-4.4 6.3-4.3 7.7 2.2 2.4 11.1 5.6 22 5.6 33.5-0.5 1.7-1.6 2.7-3.6 2.4-0.6-0.2-1.2-0.6-1.6-1z"/>
 <path class="st90" d="m610.3 596.9c-0.5 1.3-1.1 2.6-1.6 4-1.4 1.8-2.8 3.7-4.1 5.5-8.4 12.2-18.8 22.5-30.3 31.8-0.5 0.4-0.9 0.8-1.4 1.2-2.8-0.5-4.6 1.7-7 2.6-2.8-3.6-5-7.1-0.1-10.7-0.1 8.1 4.4 4 6.9 2.2 13.6-9.7 24.7-21.7 33.5-35.9 0.2-0.4 0.6-0.7 0.8-1.1 1.1 1.4 2.2 0.7 3.3 0.4z"/>
 <path class="st91" d="m612.8 715.3c-2.4 6.3 4.1 10.8 3.6 16.8-0.1 1.3 0.7 2.6 1 4l-0.3 4.2c-0.5 2.1-0.6 4.5-3.7 5.9-0.2-3.5-0.4-6.7-0.5-9.9-4.1-5.9-3.4-12.9-4.3-19.5 0.2-1.9 0.1-3.9 1.4-5.6 0.4 1.5 0 3.9 2.8 4.1z"/>
 <path class="st92" d="m604.6 576.1c-2.8 4.9-5.6 9.8-8.4 14.8-0.8-0.6-1.2-1.5-1.4-2.4 7.4-11.1 5.4-23.7 6-35.9 2.5 5.8 1.8 11.9 1.4 17.9-0.1 1.1-1.2 5.1 2.3 1.6 2.9 1.2 2.9 1.5 0.1 4z"/>
 <path class="st93" d="m618.5 634.1h1.3c4.4 3.4 4 7.9 2.9 12.5-0.4 3.8-0.8 7.6-2.7 11.1-2.6-7.8-1.1-15.8-1.5-23.6z"/>
 <path class="st94" d="m604.6 576.1c0.3-1.4 1.9-2.8-0.1-4.1 0-1.8 0.6-4.5 2.4-3.8 2.6 0.9 4.9 3.2 4.6 6.6-2.1 1.2-4.5 1.3-6.9 1.3z"/>
 <path class="st87" d="m622.7 646.6c0.4-4.5-1-8.6-2.9-12.5 1.3-0.5 2.6-0.9 3.8-1.4 0.1 4.6 1 9.4-0.9 13.9z"/>
 <path class="st95" d="m583.8 280c-0.9-1.1-3.3-3.2-1.3-3.5 8.2-1.1 7.8-8.8 11.4-13.4 6.5 5.9 12.8 12.1 19.6 17.6 4.3 3.4 3.3 5.3-0.7 7.4-2.2 1.4-4.5 2.8-6.7 4.3-2.4 3.2-4.6 2.2-6.7-0.4-3.9-4.7-8.6-8.2-14.1-10.8l-1.5-1.2z"/>
 <path class="st95" d="m583.8 280c0.5-0.1 1-0.1 1.5-0.2 4.2 3.5 9 6.2 12.6 10.4 1.7 1.9 3.3 3.8 3.8 6.4-0.1 5.3-1.4 10.3-3.8 15-5.7 0.9-6.8-4.7-9.5-7.4-3.6-3.6-8.8-6.2-9.6-12.1 2.3-3.7 5.1-7.3 5-12.1z"/>
 <path class="st96" d="m578.8 292.2c6.4 6.5 12.7 13 19.1 19.5l-1.5 5.4c-3.2-4.5-6.5-9-10.9-12.4-5.5-5.6-10.4-11.8-16.7-16.7 0.5-0.9 0.9-1.8 1.4-2.7 2.8 2.3 5.7 4.6 8.6 6.9z"/>
 <path class="st97" d="m601.7 296.7c-5.6-5.5-12.2-10-16.4-16.8 6.5 1.5 11.1 5.8 15.3 10.7 1.6 1.8 2.8 3.5 5.4 1.8 0 2.7-3.4 2.3-4.3 4.3z"/>
 <path class="st67" d="m252.9 746.9c-5.4 2.4-10.8 4.7-15.3 8.6-1.4 1.2-2.9 2.3-5 1.9-1.5-0.3-3.3-0.2-3.9-2.2-0.5-1.7 0.8-2.5 1.8-3.3 4.5-3.6 9.2-6.8 13.3-10.7 2.6-2.4 9.9-1.4 6.6-8.5-0.2-0.3 1.4-2 2.3-2.3 5.1-1.5 10-3.9 15.5-2.6 1.2 0.6 2.9-0.1 3.9 0.9 6.5 6.4 15 9 23.3 11.8 3.9 2.1 6.5 5 5.6 9.8-3.2 5-8.6 5.8-13.7 6.7-8.1 1.5-16 3-23.8 6.1-4.1 1.6-9.1 4.2-12.9-1.3-1.1-9.3 7.2-9.5 12.9-13.2-2-1-4-0.6-5.6-1.5-1.4-1-3.2-1-5-0.2z"/>
 <path class="st98" d="m252.9 746.9c4.5-2.4 9.3-0.6 14-1.4 0.9-0.2 2 0.1 2 1.2 0 0.8-0.5 1.9-1.1 2.2-3 1.6-6 3.1-9.1 4.5-3.3 1.6-6.9 2.8-7 7.4-1.4 1-2.5 2.5-4.2 3-3.1-1.3 1-6.4-3.7-6.8 2.3-4.1 7.3-4.2 10.4-7 0.8-0.7 2.4-1.1 1.8-2.3-0.4-0.6-2-0.5-3.1-0.8z"/>
 <path class="st99" d="m294.6 741.7c-10.1-2.1-18.7-6.9-26.2-13.9 0.5-0.9 0.9-1.8 1.4-2.7 8.1 4.8 15.2 11.3 24.9 13.2 2.8 0.5 6-0.3 8.4 1.9-1.6 2.6-4.2 1.7-6.5 1.9-0.8 0.1-1.4 0-2-0.4z"/>
 <path class="st100" d="m260.2 494.7c-6.3-7.6-6.9-11.7-2.5-16 3.3-3.3 7.1-4.9 11.7-2.9 5.2 2.4 9.7 5.3 8.7 12.2-1.1 0.6-2.1 0.3-3.2-0.1-7.6-2.9-7.7-2.8-11 5-0.6 1.9-1.4 3.5-3.7 1.8z"/>
 <path class="st54" d="m260.2 494.7c0.9-0.1 2.3-0.3 2.1-1.3-1-4.4-0.2-7.1 4.6-9.1s7.3 0.2 10.1 3.1c0.3 0.3 0.8 0.4 1.2 0.6-5 9.2-10.6 11.3-18 6.7z"/>
 <path class="st18" d="m303.2 298.7c-0.1-0.7-0.3-1.5-0.4-2.2 8.7 1.3 17.3 2.6 26 3.9 3.9 1 2.3 5.1 4 7.3-0.7-2.8-2.4-5.4-0.9-8.4 3 1.3 5.9 2.4 8.7-0.4 4.9 1.9 3.3 6.7 4 10.1 1.9 9 2.7 18.3 4.5 27.4 1.1 6-0.1 6.8-6.1 7.4-4.2 0.4-8-1-12-2-4.8-5.7-4.2-13.4-7.1-19.8-1.1-2.4-1.3-5.2-3-7.4-0.6-0.7-0.7 0.8-0.1 0.1 0.2-0.2 0.4-0.1 0.6 0.3 2.8 9 7.5 17.6 6.8 27.4-6.7 3.6-8.4 3.3-11-2.9-5.1-11.8-8.8-24.2-13.7-36.1-0.9-1.6 0.3-3.2-0.3-4.7z"/>
 <path class="st101" d="m303.2 298.7c5.2 12 9.9 24.2 13.9 36.7 1.7 5.3 3.6 9.8 10.4 6.4 0.9-0.8 1.4-2.4 3.1-1.5 5.3 0.7 10.6 1.4 16.9 2.2-3.1-14.8-3.2-29.5-7.2-43.6-0.7-8.1-1.3-16.2-2-24.3 0.1-2.2-2.8-5.9 2.6-5.6l2.7 18c5.1-16.6 11.4-32.6 18.7-48.2 1.2-1.5 2.5-1.3 3.8-0.2 2.3 10.5 0.2 21.5 4.1 31.8 3.9 4 5.9 8.7 5.3 14.3-3.3 5.9-4.1 6.1-8 2.3 2.4 0.2 3.6-0.9 2.7-3.2-4.1-10.8-6.8-21.8-6.6-33.6-0.6-0.1-1.3-0.1-1.9-0.2-3.1 7.9-6.5 15.7-9.1 23.8-2.6 7.8-4.5 15.8-6.5 23.7-2.4 9.5 2.2 18.4 2.9 27.7 0.3 4.1 1.3 8.1 1.6 12.2 0.8 9 0.7 9-8.1 8.5-1.3 1.1-2.8 1.3-4.3 0.5-4.3-2.9-8.4-2.7-12.3 0.8-1 1-1.9 2.3-3.6 1.4-3.3-1.2-4.9-4-6.4-7-6.6-13.1-9.6-27.7-16-40.8-0.5-0.9-2.1-1.4-1.3-2.9 1.8-0.9 2.7 2.6 4.6 0.8z"/>
 <path class="st102" d="m355.4 104.7c0.9-1.5 2.5-0.8 3.7-0.9 5.5 3.6 11 7.2 16.5 10.9 4.1 2.2 7.6 4.9 10.3 8.8 4.3 6.2 8.1 6.5 13.3 0.9 4.3-4.7 7.8-10.4 14.3-12.4 1.9-0.6 4.7-3.4 6.1 0.9-3 2.9-6.1 5.8-9.1 8.7-0.6 1.9-1.3 3.9-1.4 6.5 5.1-0.9 9.9-2.4 14.9-2.1 1.8 0.1 3.7 0.1 5.4 0.8 1.6 0.6 3.2 1.6 3 3.4-0.2 2.2-2.2 1.7-3.8 1.6s-3.2-0.4-4.7 0.4c-2.7 0.2-5.3 0.3-8 0.5-3.2 2.8-5.3 5.5-1.1 9.3 2.4 2.1 1 5.7 2.4 8.3 4.1 14.5 7.7 29.1 8.3 45.3-5.8-12.6-8.1-25-10.2-37.5-1.9-11.5-9.1-18.7-18.4-23-6.8-3.1-15.3-1.1-23-0.8-15.7 0.7-24.6 12.5-35.2 21.4-4.1-0.7-4.9-2.7-1.9-6.4 4.1-4.9 8.9-9.1 14.4-12.5 6.5-4 12.3-9.2 21-8.5 3.7 0.3 6.4-2.5 3.7-6.9-5.6-7-14.3-10.4-20.5-16.7z"/>
 <path class="st103" d="m375.8 121.5c2.6 1.7 5.1 3.9 4 7.2-1 3.2-4.4 1.6-6.7 1.7-15.4 0.4-24.6 11.4-35 20.3-1 0.8-5.1 4 0.5 5.1-5.2 7.7-13.6 12.2-19.6 19-3.3-0.1-4 3.1-5.9 4.8-1.4 1.2-2.2 3.5-4.8 2.4 4.6-14.4 13.5-26.9 18.3-41.3 0.3-1 1.3-2.1 2.2-2.4 12.7-4.5 24.3-13 38.9-11.4 4 0.3 7.4-0.6 8.1-5.4z"/>
 <path class="st18" d="m396.9 271.4c4.9-0.2 9.9 1.4 14.6-1.3 1.8-1.1 2.7 1.1 4.1 1.7 4.1 1.8 8.3 1.7 12.4-0.2 3.7 6.3 3.4 13.4 3.8 20.3 0.1 1.8-0.2 3.7-0.2 5.5 0 3.2 0.4 6.9-3.1 8.4-3.7 1.6-7.6 1.8-10.7-1.6-2.4-7.8-1-16.2-3.4-24.1 2.1 7.2 1.3 14.7 2.8 22 0 0.7-0.2 1.4-0.4 2.1-5.6 5.8-11.5 5.3-13.4-1.6-2.6-9.3-4.6-18.8-7.3-28.2-0.4-1-0.2-2.2 0.8-3z"/>
 <path class="st104" d="m418.5 301.9c2.2 5.1 6.8 2.2 10 2.4 2.2 0.1 0.6-3.5 0.7-5.3 0.3-9.2-0.1-18.3-1.2-27.4-0.4-7.8-0.8-15.5-1.2-23.3 1.1-1 0.2-2.6 1.1-3.5 1.2-1.2 2.2-1.3 1.8 0.9 2.1 8.9 7.7 16.1 12 23.9 3.9 7.1 8.1 14 11.5 21.3-3.3 0.8-6.6-3-10-0.2-1.4 3.4-7.9 2.4-7 8.1 3.1-0.7 4.5-4.9 8.2-3.8 1 0.4 1.9 0.9 2.9 1.3-3.1 5.1-10.5 8.6-9.9 14.7 0.5 5.5 7.9 8.3 10.7 13.6 1.2 2.3 4.2 3.5 4.8 6.4-5.1 2.3-7.9-1.2-10.9-4.2-2.5-3.4-6-4.4-10.1-4.7-5.2-0.4-10.4-1.3-13.8-6.1-0.1-0.7-0.1-1.3 0.2-1.9 3.3-2.6 6.8-1.3 10.2-0.6 0.6 0.1 1.2 0.4 1.8 0.4-0.4-0.9-1.3-1.1-2-1.7-3.5-2.3-7-3.3-10.9-1-1.1 0-2.1-0.4-2.7-1.4-1-2.3-0.1-4.4 0.9-6.4 0-0.5 0.1-0.9 0.1-1.4 1.1-0.9 2-0.9 2.8-0.1z"/>
 <path class="st103" d="m423.9 132.2c2.2-1.9 5.3-0.3 8.7-2.4-6.7-2.7-12.5-1.8-18.5-0.5-3 0.6-7.1 4.5-9 0.8-1.7-3.2 2.1-6.4 5.2-8.5 7.5 0.5 14.8-1.2 22.1-2.5 6.4-1.1 9.8 0.7 12.2 6.7 3.6 8.9 6.6 18 11.7 26.3 3.5 5.7 7.1 11.2 11.9 15.8-2.9 3.7-4.4-2.6-7-1.1-3.9-9.7-11.4-16.6-19-23-5.3-4.6-9.4-12.2-18.3-11.6z"/>
 <path class="st105" d="m415.9 303.3v6.6c-6.8 5.4-11.5 4.4-15.1-2.9-1.4-2.8-1.8-6.1-4.4-8-1.7 0.6-1.7 1.8-1.7 2.9-0.2 3.7-0.2 7.7-5.1 8.4-4.8 0.7-9.3-0.2-12.2-4.4-2.7-3.9-5-8.2-4.6-13.3 1.6-2.1 3.7-1.6 5.7-0.8 3.4 2.1 3.3 6.8 7.2 9.9-1-12.4-2.5-24.1 1.1-35.5 0.3-5.8 0.5-11.5 0.8-17.3 5.1 7 6.7 15 9.4 22.6 3.3 9.4 5.9 19 7.9 28.8 0.6 2.7 0.8 6.2 3.5 6.6 2.5 0.3 5.9-0.5 7.5-3.6z"/>
 <path class="st106" d="m308.3 182c2.4-2.6 4.7-5.3 7.2-7.7 1.1-1.1 2.9-3 3.5 0.6-10.7 14.2-21.5 28.4-31.3 43.3-1.7 2.5-2.1 4.5-1.8 7.4 1.2 12.6 4.5 25 4.5 37.8-1.5-0.1-3.1-0.2-4.6-0.3 1-12.4-2-24.3-3.5-36.5-0.5-3.8-0.4-7.5 1.8-10.5 8.3-11.3 15.1-23.6 24.2-34.1z"/>
 <path class="st18" d="m386.7 266.1c0.1 12.9 0.3 25.9 2.3 39.1-5.1-0.3-8.2-1.9-9.1-6.9-0.4-2.2-1.6-4.2-2.5-6.3-4-1.5-3.4-4.8-3.1-8 0-5-4.1-8.8-3.9-13.8 3.2 0 6.4-0.3 9.5 0 3.5 0.4 5.6-1 6.8-4.1z"/>
 <path class="st18" d="m477.6 306.3c-3.9-0.8-3.9 2.6-4.7 4.6-2.3 5.5-4.1 11.1-6.3 16.6-1.2 3-2.8 4-5.2 0.7-2.2-3.1-2.9-6.4-3.3-10.1-0.7-7.7-2.3-15.3-1.9-23.1 6.1 5.7 14.8 6.7 21.4 11.3z"/>
 <path class="st107" d="m419.6 112.9c-7.6-0.9-11.6 4.7-15.8 9.4-1.8 2-3.3 4.3-5.3 6.1-4.2 3.9-10.7 2.8-13.5-2.2-2.4-4.5-6.2-7.8-9.5-11.6 18.3 7.8 32.9-3.9 49.7-10.1-1.2 4.3-3 6.6-5.6 8.4z"/>
 <path class="st108" d="m461.4 166.8c2.8-2.8 4.4 2.2 7 1.1 14.7 10.9 26.1 24.8 35.2 40.6 3.8 6.6 6.9 13.5 8.2 21.4-11.8-25.2-28.6-46.2-50.4-63.1z"/>
 <path class="st109" d="m466.7 226.9c3.8 7.1 4.9 14.9 5.4 22.7 0.9 13.7 5.1 27 4.1 40.8-0.1 1.5 0.4 3.7-1.9 3.8-2.2 0.1-2-2.1-2-3.6-0.9-20.5-4.2-40.8-7-61.1 0-0.9-0.2-1.9 1.4-2.6z"/>
 <path class="st110" d="m331.8 299.3c0.3 2.8 2.4 5.4 0.7 8.6-3.1-1.7-1.6-5.6-3.7-7.5-3-14.2-6-28.3-9-42.5 0.7-0.1 1.3-0.3 2-0.4 4.9 13.5 7.3 27.6 10 41.8z"/>
 <path class="st111" d="m504.1 321.2c-1.1 1.7-2.2 3.4-3.4 5.1-1.7-2.3 0.1-4.4 0.4-6.7 2-11.7 4-23.4 6.1-35.1 0.8 0.1 1.5 0.3 2.3 0.4 1.8 12.7-4.2 24.2-5.4 36.3z"/>
 <path class="st112" d="m408.9 258c-5.3-10.2-5.8-21.2-6.4-32.3 3.8 10.4 7.1 20.9 6.4 32.3z"/>
 <path class="st113" d="m429.8 245.6c-2.2-0.5-0.9 2.9-2.9 2.6-0.4-6.1-0.9-12.2-1.3-18.3-0.1-1.3-0.4-3.1 1.5-3.1 1.6-0.1 2.3 1.5 2.3 2.9 0.3 5.3 0.3 10.6 0.4 15.9z"/>
 <path class="st114" d="m417.3 150.3c-1.7-3.5-2.4-7.6-6.3-9.8-1.4-0.8-3.5-2-3.1-4 0.4-2.6 3.1-2.1 4.9-2.7 1.1-0.4 2.1-0.7 3.2-1-0.9 5.8 2.2 11.5 1.3 17.5z"/>
 <path class="st115" d="m366.3 238.5c-1.3 0.1-2.5 0.2-3.8 0.2-0.4-6.7-1.2-13.4 1.8-21.3 2.5 7.9 2 14.5 2 21.1z"/>
 <path class="st116" d="m341.1 268.9c-3.4 0.7-2 3.7-2.6 5.6-2.5-7.5-3.2-15-1.8-22.8 3.3 5.4 3.3 11.5 4.4 17.2z"/>
 <path class="st117" d="m529.3 301.8c-1.4 1-2.9 1.9-4.3 2.9 2-7 4.1-13.9 6.1-20.9 3 6.7 1.3 12.5-1.8 18z"/>
 <path class="st118" d="m283.7 271.6c2.5 4.5-0.7 8.9-0.5 13.4 0.2 4.7 0.1 9.5-0.2 14.3-0.1 2.2 1.8 5.7-1.8 6.4-3.4 0.7-5.2-2-5.7-5.3-2-1.8-2.5-4.2-2.3-6.7 0.4-4.8-1.1-9.3-1.4-13.9 0.2-2.3-0.6-4.6 0.7-6.8 3.8-0.5 7.5-1 11.2-1.4z"/>
 <path class="st18" d="m272.3 298.9c-1.3 0.9-1.1 2.4-1.2 3.7-0.1 1.9-1.1 3-2.9 2.9-1.6-0.1-2.1-1.5-2.4-2.9-1.9-9-3.7-18-5.6-27 3.2-0.5 6.3-1 9.5-1.4 2.5 1.1 2.8 3.3 2.8 5.6 0 4.1 1 8.1 1.3 12.1 0.1 2.5 0.9 5.1-1.5 7z"/>
 <path class="st119" d="m214.4 280.1c-1.5-0.4-2.7 0.2-3.7 1.2-0.1-6-0.2-12.1-0.3-18.1 1.3-5.7-0.2-11.3 0.1-17 0.2-3.1 0-6.2 2.1-8.5 0.7 0.1 1.4 0.1 2.1 0.2v36.4c-0.1 2-0.2 3.9-0.3 5.8z"/>
 <path class="st120" d="m257.3 264.8c-1.3-1-2.7-1-4-0.1-1.7-10.7-3.4-21.5-5.2-32.2 6.7 9.9 7.5 21.2 9.2 32.3z"/>
 <path class="st121" d="m269.3 217.7c4.5 10.7 3.2 21.9 2.7 32.9-3.8-10.7-3.7-21.8-2.7-32.9z"/>
 <path class="st122" d="m271.4 280c-0.6-1.9-1.1-3.8-1.7-5.7 0.7-1 1.7-1.5 2.9-1.4 0.9 1.8 1.5 3.6 1.2 5.7-0.6 0.7-1 1.9-2.4 1.4z"/>
 <path class="st123" d="m412.8 376.7c-10.4-3.6-20.9-6.8-30.3-12.8-0.9-3.5 1-5.8 3.5-7.5 8.4-5.4 17.2-10.2 26.4-14 2.4-1 5.6-2.1 7.7 0.5s-1.3 3.7-2.3 5.5c-1.4 2.4 0.5 4.3 1.5 6.1 1.3 2.3 3.1 4.4 4.7 6.5-0.1 1.9-1.7 3-2.3 4.7-0.9 2.2-0.7 4.5-0.1 6.7 0.6 2.6 0.4 5-2.2 6.5-3.1 2.1-4.6-0.6-6.6-2.2z"/>
 <path class="st124" d="m301 366.4c-7.8 6.4-17.2 10.2-25.6 15.5-1.7 2.6-4 2.2-6.3 1.1-2.2-1.5-3.8-4.1-2.3-6.2 2.7-3.9-1-4.1-2.4-5.8-1.4-2.4-0.9-4.8-0.1-7.2 0.8-2.7 3.8-2.2 5.5-3.9-0.3-0.6-0.4-1.3-0.8-1.7-2.1-2.2-6.1-4-4.1-7.7 2-3.6 6-2.5 9.3-1.3 8.2 3 16.3 6 23.5 11 2.2 1.6 4.2 3.1 3.3 6.2z"/>
 <path class="st125" d="m286.4 317.2c-6.4 7.4-15.2 10.6-23.9 13.9-10 3.8-20 7.3-30.1 10.9-1.2 0.4-2.4 1.9-3.7 0.7-1.4-1.4-0.4-2.9 0.2-4.4 3.3-7 6.5-14 9.7-21 2.5-0.1 4.9-0.2 7.4-0.3 1 0.4-0.8 3.1 1.9 2.2 1.5-0.5 3.1-0.9 4.7-1 1.9-0.1 4-0.2 4.7 1.8s-1.1 3.3-2.6 4.3c-2.9 1.9-6.2 2.8-9.4 4.1-2.3 0.9-4.5 2.2-7.1 5 7.6-2.6 13.7-5.8 20.1-8.3 9.9-2.4 19.1-5.9 25.6-14.3 1.2-1.2 2.1-2.9 3.9-3.4 1.5-0.3 2.9 0 3.9 1.3-1.7 2.9-3.5 5.7-5.3 8.5z"/>
 <path class="st126" d="m374.4 284.1c1 2.7 2 5.3 3.1 8-1.3 1.7-2.9-0.2-4.3 0.2-1.4 1.2-3 0.8-5 0.6 3 4.8 7 8.4 9.6 13.2 1.7 3.1 5.2 3.6 8.2 4.6 3.5 1.1 7.1 2 10.4 3.7 2.1 1.1 4.9 1.9 4.5 5.2-1.9 1.5-3.9 0.9-5.9 0.4-6.7-2.1-13.8-3.2-18.9-8.7-3.2-0.4-4.3-2.9-5.4-5.4-5.3-7.1-10.6-14.3-15.9-21.4 0.4-0.5 0.7-0.9 1.1-1.4 4 1.3 7.9 2.6 11.9 3.8 3.9 3.4 4.9-0.6 6.6-2.8z"/>
 <path class="st127" d="m353.4 296.3c3.4 6 3.3 12.7 4.2 19.1 1.9 12.8 2.9 25.8 4.2 38.7 0.1 1.4 0.1 2.8-0.1 4.1-0.2 1.2-0.8 2.3-2.1 2.3-1.5 0-1.7-1.4-1.8-2.5-0.5-4.8-0.8-9.6-1.3-14.3-1.2-10.9-2.6-21.7-3.7-32.6-0.5-4.9-1.2-9.9 0.6-14.8z"/>
 <path class="st128" d="m420.1 364c0.8-1.7 2.6-2 4-2.9 12.8-4.6 20.5 0.5 20.9 13.9 0.1 2.3-0.1 4.5-0.1 6.8-10 12.5-24 10.3-32-5.1 2 0.2 3.6 2.5 5.9 1.1 2.7 1.3 4.2 4.2 7 5.3 5.5 2.5 9.9 1.2 13.3-3.8 0.9-10.5-2.6-14.2-12.6-13.7-2.4 0.1-4.7 0.5-6.4-1.6z"/>
 <path class="st129" d="m264.2 363.9c-0.1 2.4-0.2 4.9 1.4 7-1.8 2.2-4.5 1.9-6.8 2.4-8 1.9-9.9 6.5-5.8 13.9 4.5 3.5 9 4.5 13.8 0.5 1.7-1.5 2-3.8 2.9-5.7 1.9 0 3.8-0.1 5.8-0.1-3.2 15-15.4 18.7-27.7 8.2-5.6-12.7-1.1-21.3 12.3-22.6 2.8-0.3 2.3-3 4.1-3.6z"/>
 <path class="st130" d="m394.9 320c1.9-0.5 4.3 0.4 5.8-1.6 4.9-2.9 9.5-0.4 14.3 0.7 9.3 3.3 19.2 4.2 28.8 6.1 2.6 2.7 4.3 6.9 9.3 5.6-6.6 3.1-12.8-0.5-19.1-1.2-13.4-1.5-26.3-5.4-39.1-9.6z"/>
 <path class="st131" d="m298.7 307.3c4 14.7 5.8 29.7 4.3 44.9-2-14.9-6.4-29.6-4.3-44.9z"/>
 <path class="st132" d="m370.6 305.9 5.4 5.4c-3.2 7.6 0.6 15.1 0.3 22.6-0.2 5.1 1.8 10.2-0.8 15.3-4.4-14.1-3.5-28.8-4.9-43.3z"/>
 <path class="st133" d="m338.3 346.4c1.4-0.2 2.9-0.3 4.3-0.5-2.4 5.7 1.9 11.4-0.1 18.9-4.2-6.5-3.7-12.6-4.2-18.4z"/>
 <path class="st134" d="m291.8 308.8c-1.4 0-2.8-0.1-4.2-0.1 1.8-8.4 4-11 9.7-11h1.4c0.4 1 0.8 2 1.3 2.9-4.6 1-4.6 6.3-8.2 8.2z"/>
 <path class="st135" d="m322.4 348.5c1.2-0.5 2.4-0.9 3.6-1.4-0.5 4.4 1.8 9.1-1 14.8-2.3-5.1-3-9.1-2.6-13.4z"/>
 <path class="st119" d="m210.8 282.5c1.8 4.6 1.1 9.3 0.9 14-1.9-4.6-1.2-9.3-0.9-14z"/>
 <path class="st136" d="m233.9 310.2c-1.4 0.9-2.8 1.8-4.2 2.7 1.5-8.1-0.7-16.3 0.1-24.5 0.3-3.5-0.9-7.3 3.3-11.1 1.6 11.5 0.7 22.2 0.8 32.9z"/>
 <path class="st137" d="m284.9 311.5c-4.8 11.6-15.6 13.1-25.8 15.6-0.9 0.3-2.4-0.2-2.2-0.7 2.2-4.5-2.8-9.2 0.3-13.6l-0.1 0.1c0.4-3.7-5-6.7-1.1-10.7 4.3-1 7.1 0.3 7.9 4.9 0.3 1.9 1.4 4 3.5 3 5.5-2.4 10.7 0 16.1 0.1 1.3-0.5 1.9-0.1 1.4 1.3z"/>
 <path class="st138" d="m257.2 312.7c0.6 4.8 1.3 9.5 1.9 14.3-6.6 3-13.2 6-19.8 8.9-1.3 0.6-2.9 1-3.8-0.1-1-1.1 0.1-2.6 0.7-3.7 2.4-4.1 6.7-5.2 10.8-6.5 3.5-1.1 6.6-2.5 10.5-5.2-6.4-1.3-10.7 2-15.4 3-1.1-4.1 2.6-4.5 4.1-6.4 3.1-2.7 6.7-4.3 11-4.3z"/>
 <path class="st139" d="m256.4 297.4c-4.7 0.7-6.8-1.7-5.4-5.9s-0.3-11.6 4-12c3.8-0.3 2.8 7.1 4.1 11 0.9 2.9 5.3 7.4-2.7 6.9z"/>
 <path class="st140" d="m284.9 311.5c-0.5-0.4-0.9-0.9-1.4-1.3 3.1-2.4 3.1-5.8 3.2-9.2 0.1-4.3 4.8-8.6 8.8-8.1 3.4 0.5 0.9 3.4 1.8 4.9-5.6 1.6-5.8 7.9-9.7 11-0.9 0.8-1.8 1.7-2.7 2.7z"/>
 <path class="st141" d="m256 302.1c-0.9 3.7 3.9 6.8 1.1 10.7-1-0.4-2-1.2-3.1-1.2-3.2 0-5.9 0.4-4.9-4.6 0.9-4.1 1.7-7.3 6.9-4.9z"/>
 <path class="st142" d="m290.3 275.6c1.3 3.1 2.6 6.1 4 9.1 0.8 1.8 1.6 3.4-0.6 4.6-1.5 0.9-2.9 2.5-4.9 1.6-2.3-1-1.2-3-1-4.7 0.4-3.6 0.8-7.1 1.2-10.7 0.5 0.1 0.9 0.1 1.3 0.1z"/>
 <path class="st143" d="m271.4 280c0.8-0.5 1.6-0.9 2.4-1.4 1.1 7.2 1.9 14.4 1.8 21.7-1.1-0.5-2.2-0.9-3.3-1.4 1-6.3-2.8-12.5-0.9-18.9z"/>
 <path class="st144" d="m296 741.5c2-2.3 4.7-0.7 7-1.3 12.8 0 12.8 0 12.5-13.1 0-2.1-1.2-4.5 0.8-6.4 2.2-2.9 1.3-8.5 7.2-8 3.8-1.5 7.6-2.7 11.3-4.5 5.1-2.5 8-6.7 8.1-12.5 0.2-5.9 0.4-11.8-1.2-17.7-2-7.5 1.9-14.2 3.7-21.1 3.3-12.5 2.7-25.8 8.6-37.7 1.6-0.5 2.2-2.2 3.3-3.2 3.1-2.6 4.3-0.8 4.6 2.3-6.2 16.5-4.1 34.5-10.1 51.1-3 8.3-0.4 17.3-0.3 26-0.2 2.2-0.8 4.4-1.5 6.4-3.9 9.1-10.3 15.5-20.3 17.5-5.4 1.1-6.7 4.8-6.9 9.5 0.4 7.9 0.5 15.6-9 18.8-3.2 1.5-5.3 4-7.7 6.5-6.3 6.5-13.8 9.1-22.7 6.9-9.2 0.8-17.5 5.6-26.9 6.1-3.5 0.2-6.7 0.1-9.1-2.9 0.4-1.6-0.5-3.8 1.2-4.8 1.5-0.9 1.9 1.3 3 1.8 1.4 2.3 3.3 3 5.7 1.8 12.8-6.2 27.5-5.7 40.5-11.3 0.8-0.3 1.5-1 2.2-1.5 3.5-5.5-1.3-6.6-4-8.7z"/>
 <path class="st145" d="m404.9 628.5 9.6 9.6c3.9 1.4 7.3 3.9 10.8 6 0.5 0.5 0.8 1 1 1.7 0 1.5-0.7 2.5-2.2 2.9-4 0.3-6.7-2.4-9.7-4.3-5.1-3.2-6.4-2.9-8.3 2.7-1.5 4.4-3.5 8.4-6.2 12.1-4.7 6.5-7.4 14-11.3 20.9-1.3 1.9-1.9 4.1-3 6-3.6 5.5-5.4 12-8.4 17.8-7 9.5-9.4 20.3-9.3 31.8 0.2 14.6 8.3 25.9 22.4 31.5 2.3 0.9 5 1 6.7 3.2 0.9 2.7-0.4 4.3-2.8 5.4-17.5 0.7-33.1-14-35.7-33.7-1.3-5 0.1-9.9 0-14.9 0.6-7.7 3.3-14.9 6.3-22 1.1-2.9 2.2-5.9 3.9-8.6 9.1-19.3 22.3-36.6 27.8-57.6 1.3-1.9 1.9-4 2.7-6.1 1-2.3 2.1-5.1 5.7-4.4z"/>
 <path class="st146" d="m404.9 628.5c-4.9 2.1-2.8 8.3-6.5 11.1-3.1-4.4-2.1-9.7-2.2-14.4-0.2-8.5-4.5-14.1-10-19.4-0.8-0.8-1.7-1.6-2.7-2.2-3.1-2-5-6.8-8.4-6.3-3.1 0.5-3.1 5.7-5 8.4-1.5 2.1-2.8 4.2-5.8 4.1-3.4-1.1-2.7-3.7-2.1-6.1 0.7-2.8 2.1-5.4 2.8-8.2 0.1-0.4 0.1-0.8 0.1-1.2-0.4-5.1 1.2-10.5-2.8-14.8-1-1.2-2.6-1.6-4-2.2-1.5-0.6-3.4-1.5-1.4-3.6-0.4-5.7-5.8-8.2-8.1-12.7 0.2-2.2-2-3.7-1.6-5.8 0.5-2.6 1.6-4.2 3.8-1.1 5.7 9 12.7 16.8 21 23.4 1.2 1 2.7 1.9 3.4 3.2 7.3 14.1 20 21.9 33.5 28.7 2.3 1.1 4 2.6 2.9 5.5-4.6 1.3-4.7 6.3-7.5 9.1-2 1.8 0.1 3.1 0.6 4.5z"/>
 <path class="st147" d="m487.6 730.4c0.9 1 1.8 2 2.7 2.9-0.7 2-1.7 3.7-4 4.2-6.4-0.8-4.2-5.9-4.7-9.6 3.4-8.7 4.7-17.2-2.1-25.1-1.4-1.7-2.5-3.2-5-2.5-1.8 0-3.4-0.4-4.2-2.2 1.5-9.1 7.6-15.9 12.1-23.6 0.8-0.8 2.1-1.1 2.6-2.2 0.8-1.8 2.5-3.8 1.4-5.7-1.1-2-3.6-1.5-5.6-1.6-0.9 0-1.8 0.3-2.7 0.3-4.6-0.2-9.2-0.1-12.9-3.5-0.9-2.2 0.1-3.6 2-4.6 4.4-1.4 8.9-0.5 13.3-0.5 3.3 0 6.9 0.5 9-3 1.8-2.3 1-5.4 2.6-7.8 1-1.3 2.1-2.1 3.7-0.9 0.5 1.4 1.1 2.7 1.6 4.1 1 2.9 3 5.4 3.8 8.3-5.4 8.7-10.6 17.6-15.2 26.8-3 6-3.1 11.6 0.1 17.4 2.2 2 5.4 2.6 7.1 5.2 1.3 1.9 1.5 3.9 0 5.8-1.7 6-5.2 11.4-5.6 17.8z"/>
 <path class="st148" d="m484.8 587c-3.9-7.5-8.9-14.2-14.2-20.8-10.2-12.7-14.6-27.8-15.9-43.9-0.1-1.4-0.3-2.7-0.4-4.1-1-1.9-0.4-4-0.5-6-0.1-1.4 0.5-3.3 2.2-2.1 3.6 2.6 5.2-1.4 7.9-1.8 0.6-0.4 1.2-0.7 1.7-1.1 0.7-0.6 1.6-0.9 2.4-0.3 1 0.8 1 1.8 0.3 2.9-0.3 0.6-0.7 1.1-1 1.7-2.6 5.3-8.8 8.7-7.5 16.1 2.1 11.8 5.1 23.1 12.4 32.9 1.6 2.2 3.5 4.2 5.3 6.3 3.9 1.7 5.2 5.4 6.8 8.7 0.9-3.8 0.4-7.9 1.9-11.8 0.2-0.3 0.3-0.7 0.3-1.1 1.5-1-1.4-4.5 2.4-4.2 1.4 8.5 3.4 17 1.7 25.8-1.4 2.1-3.6 2.5-5.8 2.8z"/>
 <path class="st149" d="m565.9 631.3c-3.1 3.6 0.5 7.2 0.1 10.7-2.1 1.6-0.8 3.9-1.2 5.8-1-0.5-1.9-0.9-2.9-1.4v-33.1c-2.3 3-1.8 7.2-5.8 10.1 4.9-17 6.1-33.3 2.9-49.8 0.6-5.5 0.6-5.5 3-4.4 1.8 12.9 3.5 25.7 5.3 38.6-0.5 4.8-1.5 9.6 1 14.3 0.7 1.3 0 2.6-0.6 3.8-0.7 1.8-1.2 3.6-1.8 5.4z"/>
 <path class="st150" d="m438 463.1c-1.2-0.7-2.3-1.4-3.9-2.4 4-2.4 6.8 0.8 9.3 2.1 6.5 3.3 7.9-2 9.3-5.4 2-5-3.1-3.2-5.2-4.1-1.2-0.5-2.7-0.5-3.2-2.2 1.6-2.4 3.7-1.3 5.5-0.6 4.8 1.9 8.3 1.1 12-2.9 3.2-3.4 6.1-5.5-2-8.2 8.6 4.8 16.5-3.4 25.3 2.5-9.9 1.7-18.7 3.3-23.7 11.6-8.5 7.9-13 18.4-19.1 27.9-3.5-0.4-2.3-2.7-1.9-4.7 0.5-1 0.9-2 1.5-3 4-7.6 4-7.6-3.9-10.6z"/>
 <path class="st151" d="m484.8 587c0.3-4.2 3.3-2.8 5.7-2.8v0.1c1.4 4.5-0.4 9.3 1 13.9 0.4 5.4 0 10.7 2.4 16 2.2 4.8 3.7 5 6.5 0.8 0.5-0.7 1.4-1.2 2-1.8 2.2 0 2.9 0.7 1.4 2.7-1.7 2.6-3.5 5.2-5.2 7.8-4.3 6.7-5.2 13.8-2.9 21.4-1 0.5-1.9 1-2.9 1.5-1.2 0-1.8-0.4-1.4-1.7-3.5-9.3 3.7-18.8-2-28.8-4.7-8.4-1.3-19.6-4.6-29.1z"/>
 <path class="st152" d="m468.2 509.9c-0.1-1.7-1.2-2.3-2.6-2.6 12.6-10.2 27.3-12.8 43-12.7 9.7 0 15.8 6.2 22.6 11.5 2.7 2.1 5.1 4.5 7.6 6.9 0.8 0.8 1.6 1.8 0.7 3-1 1.2-2.2 0.3-3-0.4-5-4-9.8-8.2-14.8-12.2-6.5-5.1-13.9-5.8-21.9-5.2-11.8 0.9-22 5.3-31.6 11.7z"/>
 <path class="st153" d="m491.5 644.9c0.5 0.6 0.9 1.1 1.4 1.7 0.1 2.8 1 5.7-0.8 8.3-2.7-1.2-5.2-2.4-8.5-1.9-17.5 2.6-34.7 0.5-51.5-4.9-1.1-0.4-2.2-0.5-3.4-0.5-1.6-0.1-2.4-1.3-3.3-2.3h-0.1c-0.6-0.9-2.1-1.5-1.1-3 10.3 0.2 19.9 3.9 30.1 4.9 12.7 1.2 24.9 0.6 37.2-2.3z"/>
 <path class="st154" d="m428.5 547.5c-0.8-1.3-1.9-0.7-2.9-0.3-0.2-3.5 3-6.8 0-10.4-2.3-2.7-5.6-4.6-7.1-9.2 4.5 1.6 6.6 5.2 9.8 8.2 2.7-5.2 4.9-10 0.8-15.1-3.3-4-7-7.8-10.1-12.1 4.4 1.3 6.9 4.8 9.9 7.7 2.9 2.9 4.3 1.7 5-1.6s1.1-6.8 1.6-10.1c3.4-1.3 3.2 0.7 2.7 3-0.9 13.9-4.2 27.2-9.7 39.9z"/>
 <path class="st155" d="m493.2 712.7c-0.5-1.9-1.1-3.7-1.6-5.6 0.8-1.9 2.3-2.6 4.2-2.5 8.8-0.3 17.6-1.5 26.5-0.9 6.3 0.4 12.1 1.6 17.5 4.8-1.9 0-3.8 0-4 2.5-14.4-5.9-28.7-6.1-42.6 1.7z"/>
 <path class="st156" d="m356.9 573.7c0.6 4.2 5.8 0.2 6.8 3.8-2.9 3.7-7.7 3.2-11.3 5.4-8.4 3.8-14 11.9-23 14.8-0.8 0.3-1.6 0.6-2.7 0.4 8.2-10.4 20.4-16 30.2-24.4z"/>
 <path class="st157" d="m438.2 507.6c-0.4-1.4-0.9-2.8-2.7-3 0-1.8-0.4-3.8 0.1-5.5 2.4-9.4 2.5-18-7.6-23.3-0.5-0.2-0.6-1.1-1.2-2.4 3.7 0.2 5.5 2.6 7.4 4.5 2.8 2.8 4.6 1.9 6.2-1.1 0.2 1.7 0.1 3.6 1.9 4.7-3.1 8.4-2.2 17.4-4.1 26.1z"/>
 <path class="st158" d="m351 554.1c-2.1-0.8-3-0.1-2.2 2 0.6 1.6 1.6 3.2 0 4.8-1.8-4.1-6.4-1.8-9-3.9-0.6-2.3 1.2-2.5 2.7-3.1 1.9-0.7 3.3-1.7 1.7-3.9-0.9-1.9-1.7-3.8-2.6-5.7-2.1-1.5-3-3.8-4-6.1-0.6-1.5-1.1-3-0.8-4.6 0.4-1 1-1.6 2.1-1.8 6 6.4 8.6 14.6 12.1 22.3z"/>
 <path class="st159" d="m488.8 558.4-2.4 4.2c-2-13.3-3.9-26.6-5.9-39.9 0.6-0.1 1.2-0.2 1.7-0.3 2.7 11.9 6.4 23.6 6.6 36z"/>
 <path class="st160" d="m424.2 616c10.4 3.6 21.4 0.6 32 2.8-12.3 4.2-24.4 3.2-36.4-1.2 1-1.9 3.2-0.4 4.4-1.6z"/>
 <path class="st161" d="m352.3 582.8c2.8-3.9 6.6-5.6 11.3-5.4 6.5 5.1 3.9 11 1.4 16.9-2.4-5.9-3.9-12.7-12.7-11.5z"/>
 <path class="st162" d="m338.7 532c-0.4 0.5-0.7 1-1.1 1.6-5.3 0.2-1.8-5.4-4.6-6.8-3.1-4-8.4-6-11.1-11.1 6.8 0.6 16.4 7.6 17.8 12.7 0.6 1.3 0 2.5-1 3.6z"/>
 <path class="st163" d="m364.9 595.5c0.5 2.5-0.8 4.8-1.1 7.2-0.3 2.1-2.2 4.8 1 6.5 2 4.1 0 6.2-3.8 7.3-1.5-1.5-2.3-0.3-2.8 0.8-0.9 1.8-2 2.8-4 1.7 2.7-8.2 6.4-16 10.7-23.5z"/>
 <path class="st164" d="m486.1 563.8c2.2 5.2 0.1 10.3 0.5 16.9-4.8-4.8-6.7-9.5-9.2-13.8 3.3 0 6.2-1.1 8.7-3.1z"/>
 <path class="st165" d="m463.8 508.4c-0.8 1.3-1.7 2.6-2.6 3.8-3.7 5.1-3.7 5.1-6.4-0.7-0.2 2.2-0.3 4.5-0.5 6.7-2.5-5.3-1.4-10.3 0.9-16.4 2.2 4 5.2 5.7 8.6 6.6z"/>
 <path class="st166" d="m503.8 615.8c0-1.1-0.4-2.1-1.4-2.7 3.8-7.4 7.7-14.8 11.5-22.2-0.8 9.5-2.9 18.3-10.1 24.9z"/>
 <path class="st167" d="m339 537.5c1.7 2 2.7 4.2 2.5 6.9-6.9-0.9-12.6-5.3-19.3-7 0.2-6.5 4.1-1.3 6.1-1.9 3.8-0.3 7.6-0.7 10.7 2z"/>
 <path class="st168" d="m344.1 550.1c4.3 5.9-3.6 4.3-4.4 7-4.5 0.5-9.1 2.6-14.4-0.4 4.6-3.7 9.8-2.5 14.3-3.9 1.9-0.5 4.4 0.4 4.5-2.7z"/>
 <path class="st169" d="m329.3 535.9c-2.1 1.8-5.5-3.2-7 1.5-4.3-1.5-8.2-3.7-12.4-7.8 7.8-0.8 13.2 3.4 19.1 5.3 0.4 0.1 0.6 0.3 0.6 0.6-0.1 0.3-0.2 0.4-0.3 0.4z"/>
 <path class="st170" d="m404.4 624.1c0-1.3 0.1-2.7 0-4-0.2-5.4 2.2-7.1 7.2-5.5 2.1-0.6 2.8 0.5 2.9 2.3-3.3 2.5-6.7 4.9-10.1 7.2z"/>
 <path class="st171" d="m414.5 617c-1-0.8-1.9-1.5-2.9-2.3l-2.7-5.1c5.9 0.3 9.9 5 15.3 6.5-1 1.8-2.8 1.3-4.4 1.6-1.7-0.3-3.5-0.5-5.3-0.7z"/>
 <path class="st172" d="m329.3 535.9c-0.1-0.3-0.2-0.7-0.3-1 4.5-1.2 4.1-4.8 4.1-8.2 3.7 0.8 2 5.3 4.6 6.8 0.5 1.3 0.9 2.6 1.4 4-3.7 1.9-6.4-2-9.8-1.6z"/>
 <path class="st173" d="m495.8 704.6c-0.8 1.8-2.3 2.4-4.2 2.5-2.5-1.2-4.9-2.4-5.6-5.5 3.7-0.1 7 0.5 9.8 3z"/>
 <path class="st174" d="m501.2 657.5c-5.3-0.9-4.4-4.7-3.8-8.3 2.7 2 8.2 2.9 3.8 8.3z"/>
 <path class="st175" d="m319.4 711.2c-2.1-0.2-4.7-0.6-4.7-2.9-0.1-2.6 2.8-3.1 4.9-3.8-0.1 2.2-0.1 4.5-0.2 6.7z"/>
 <path class="st176" d="m424.2 642.2c0.4 1 0.8 2 1.1 3-4-1.7-7.5-4.3-10.8-7.1 3.7 0.4 6.8 1.9 9.7 4.1z"/>
 <path class="st148" d="m491.5 598.1c-2.1-4.5-0.9-9.2-1-13.9 2 4.6 1.2 9.3 1 13.9z"/>
 <path class="st177" d="m388.3 443.9c-2.9 10-10.3 15.9-20.6 16.5-1.4-0.1-2.8-0.2-3.1-2 2.5-4.8 9-3.9 12.3-8.5-12 0.8-23.3 4-34.9 5.2-4 0.4-8.2 0-12.1 1.8-3.2-1.1-5.3-2.8-3.9-6.6 2.5-2.1 5.7-1.6 8.5-2.8 16.5-2.3 33.1-4.2 49.5-7.4 2.4 0.1 2.7 2.6 4.3 3.8z"/>
 <path class="st178" d="m326.3 450.9c0.5 2.5 2 4.2 4.3 5.3 2.2-1 4.6-0.9 6.7-0.2 6.7 2.3 13.6 1.9 20.4 1.4 2.5-0.2 5.1-0.7 7 1.5 0.9 0.5 1.9 1 2.8 1.4-21.5 8.1-44.5 4.9-51.3-19.7-1.7-6-6.5-11.9-2.3-18.8 2.9-0.2 3.1 2.3 4.1 4 1.8 8.8 6 16.6 8.3 25.1z"/>
 <path class="st179" d="m388.3 443.9c-5 3-2.5-1.3-2.8-2.9-4.2-4.7-2.7-11.3-5.3-16.6-2.9-9-2.9-9-11.6-8.1-1.8-0.3-3-1.2-3.2-3.1 0.5-3.9 4.7-5.5 5.9-9 1-1 2.1-1.3 3.3-0.3 10.8 11.1 16.9 24 13.7 40z"/>
 <path class="st180" d="m314.1 416.3c1.5-10.2 8.1-11.1 19.7-10.2 7 0.5 13.3 0 19.4-3.5 3.2-1.9 6.5-3.3 10.4-2.6 1.4 0.7 2.3 1.6 1.3 3.2-10.4 6.3-21.7 8.8-33.7 9.1-1.4 0-2.7-0.2-4.1 0-3.2 0.6-6.5 1.1-2.3 5.1 0.8 0.7 0.5 1.6-0.1 2.4-4.8 2.5-8.2 1.1-10.6-3.5z"/>
 <path class="st181" d="m314.1 416.3c3.4 2.3 7 3.4 11.1 2.6 0.7-1 1.7-1.6 2.8-1.8 11.9-1.8 23.9-3.4 35.7-5.6 0.9-0.2 1.8 0.2 2.6 0.7 0 1.8 1 2.6 2.7 2.7-0.2 3.5-3.2 3.4-5.4 4-11.4 2.9-23.1 4.4-34.9 5.4-4.1 0.3-8.1 1-12.1 1.7-0.8-1.3-1.7-2.7-2.5-4-0.4-1.9-0.8-3.8 0-5.7z"/>
 <path class="st182" d="m364.9 402.5c-0.4-0.9-0.9-1.7-1.3-2.6 4.5-1 8.2 0.2 11 3.9-1.1 0.1-2.2 0.2-2.8 1.4-3.2 1.3-5.3 0-6.9-2.7z"/>
 <path class="st183" d="m329.4 394.2c-0.3 1.7-1 2.9-2.6 2.7-1.5-0.1-2.3-1.2-2-2.8 0.3-1.4 0.9-2.7 2.4-2.6 1.6 0.2 2.1 1.6 2.2 2.7z"/>
 <path class="st184" d="m424.1 546.3c-3.9-2.1-6-4-7.1-8.3 4.2 1.4 5.5 4 7.1 8.3z"/>
 <path class="st185" d="m572.7 365.4c-0.9 0-1.8-0.1-2.7-0.1-1.9-2.1-4-4.1-5.3-8.5 3.9 3 6.4 5.3 8 8.6z"/>
 <path class="st186" d="m377 510c0.2-2 0.5-3.9 3-4.2 3.2-1 6.4-3.1 9.4 0.3 1 5.4 3.3 10.2 5.7 15 3.8 3.9 6.7 8.5 8.1 13.8-1.8 5-4.6 9.6-5.4 15-3.7 3.2-7.4 1.7-11.2 0.3-5.8-5.2-8.5-12-9.5-19.5-3.7-6.9-3-13.8-0.1-20.7z"/>
 <path class="st187" d="m345.6 489.2c-0.5-8.4 5.7-2.4 8.4-4 0.4 4.2 0.3 8.6 2.2 12.6 5.7 10 7.7 21.7 14.4 31.2 1.3 1.8 0.4 4 1.1 5.9 0.5 1.8 2.5 3.2 1.5 5.4-0.9 1.8-0.6 4.2-2.8 5.2-1.2 0.6-2 0.5-2.8-0.8-8.9-13.8-16.3-28.3-20.9-44.1-1.3-4.4-3.4-9.4 4.7-9.9-2.3-2.7-4.2-0.5-5.8-1.5z"/>
 <path class="st188" d="m398.3 519.2c-1.4-3.8-3-7.6-4.3-11.5-1.8-5.4 0.8-9.5 6.1-9.7 4.8-0.2 6.5-5.6 11-6.4 1.8 13.6 0.5 26.7-6.5 38.7-6.5-1.2-5.3-6.8-6.3-11.1z"/>
 <path class="st189" d="m390.9 481.3c7.4-3.7 15.3-5.6 23.7-5.7 0.7 9.3-7.1 12.4-12.6 17.1-1.9 1.6-3-0.7-4.1-2.2-2.2-3.2-4.7-6.1-7-9.2z"/>
 <path class="st190" d="m371.7 534.9c-0.9-1.8-2-3.5-2.8-5.4-1.2-3-2.9-2.1-4.8-0.3 1.9-8.4-3.4-14.6-5.3-21.7-0.9-3.2-2.7-6.2-2.7-9.7 2.5-0.8 0.6 6.3 4.7 2.6 1.4 1 2.2 2.5 3.1 3.9 2.3 6.2 4.9 12.2 7.4 17.6-0.1-3.7-1.9-8.2 2-11.9h3.7c0 6.9 0 13.8 0.1 20.7-3.7-1-3.7 2.6-5.4 4.2z"/>
 <path class="st191" d="m370.4 545.5c-0.2-2.3 0.5-4.2 2.8-5.2 3.8 6.4 11.1 10.6 12.5 18.7 1.2 1.8 3.2 3.3 1.2 5.7-7.7-4.5-14.1-10.1-16.5-19.2z"/>
 <path class="st192" d="m386.9 564.8-1.2-5.7c0.9-1.6 0.9-5.3 4.2-2 1.8 1.8 3.6 3.5 5.4 5.3 0.3 3.3 2.9 5.5 4.5 8.9-5.4-1-9.6-2.8-12.9-6.5z"/>
 <path class="st193" d="m398.3 519.2c2.5 3.5 3.1 8.1 6.3 11.1 0.3 1.8-0.5 3.2-1.4 4.6-4.8-3.4-6.2-8.7-8.1-13.8 2.1 1.1 2.9-0.1 3.2-1.9z"/>
 <path class="st190" d="m389.5 506.1c-3.1-0.9-6.3 1.7-9.4-0.3 0-0.8 0-1.6-0.1-2.5 3.6-1.1 7.2-2.2 10.7-3.4-0.4 2.1-0.8 4.1-1.2 6.2z"/>
 <path class="st194" d="m386.6 550.2c3.7-0.1 7.5-0.2 11.2-0.3-3 7.6-3 7.6-11.2 0.3z"/>
 <path class="st195" d="m444.6 294.9c-3.3 3-6.6 5.9-10.1 9-2.5-10.8-2.2-11.2 8.9-13.3 5.2 0.1 2.2 2.5 1.2 4.3z"/>
 <path class="st196" d="m373.3 510v18.5c-5.8-8.6-9.5-15.8-11.3-23.9 1.3-5.7 3.1-6 8.4-1.5 2.5 1.7 2.3 4.4 2.9 6.9z"/>
 <path class="st197" d="m370.4 503.1c-3-0.6-6.4-3.7-8.4 1.5-1.4-1.1-1.1-2.7-1.2-4.1 2.7-1.5 1.8-5.8 5.8-6.9 1.3 3.1 2.6 6.3 3.8 9.5z"/>
 <path class="st198" d="m357.9 485.2c2.8 0.5 5.7-2.7 8.5 0.2-2.1 2.6-4.3 5.1-6.5 7.7-2.4-2.4-2.1-5.2-2-7.9z"/>
 <path class="st199" d="m442.2 432.8c-9.4-6.8-11.2-6.1-16.9 7.2-7.3-5-1-10 0.1-15 0.8-3.4 3.3-4.8 6.7-4.5 5.1 0.4 8.3 3.2 9.3 8.3 0.3 1.3 0.6 2.7 0.8 4z"/>
 <path class="st200" d="m483.1 727.5c0.8 3.5-0.6 7.6 3.2 10.1-1.9 2.7-3.8 5.5-5.7 8.2-1.3 4.1-3.5 7.6-6.8 10.5-2.2 1.9-4.4 3.9-4.2 7.3 4 3.2 6.2 7.5 7.9 12.2 0.7 2 1.5 3.7 0.4 5.7-1.6 0.2-3.2 0.2-4.4-1.2-2.8-4.2-5-8.6-10-11.3s-4.8-11.3-0.4-15.4c1.9-1.8 4.7-3 4.3-6.4 0.4-2.7 2.5-4.2 4.6-5.4 2.2-1.2 3.3-2.9 3.7-5.2 2.6-2.9 3.3-7.4 7.4-9.1z"/>
 <path class="st201" d="m477.9 781.4c-1.2-3.8-4-6.9-4.3-11.1-0.2-2.9-2.8-2.2-4.6-2.8-3.2-1.1-4.7-2.5-0.2-4.2 3.6-3.9 7.9-7.2 9.7-12.5 0.3-0.9 1.2-1.3 2.1-0.6 5.4 4.8 1.2 9.9 0.3 14.8-0.3 1.7-1.7 3.2-2.2 4.9-0.6 1.9-1.4 4.1 0.6 5.6 2.8 2 3.9-0.9 5.4-2.3 1.1-0.2 2.5-1 3.1-0.6 1.6 1.1 0.2 2.3-0.7 3.2-2 2-4.2 3.8-6.3 5.7-1.1 0-2 0-2.9-0.1z"/>
 <path class="st202" d="m480.5 750.2c-1.8 6.3-3.7 12.5-11.8 13.1-2.1-2.2-2.1-3.9 0.4-6.1 4.1-3.5 7.7-7.6 11.5-11.4 0 1.4-0.1 2.9-0.1 4.4z"/>
 <path class="st203" d="m591.1 761c11.7-8 15.4-19.7 15.1-33.1 1.5-2.5 2.8-1.9 3.7 0.4 1.4 3.7-0.2 7.1-1 10.6-0.5 11.1-7.2 18.2-15.4 24.4-1.3-0.3-2.1-1.1-2.4-2.3z"/>
 <path class="st204" d="m608.8 738.8c0-3.1-0.1-6.3-0.1-9.4 0-2-1-2.2-2.6-1.6 0.8-3.7 1.5-7.5 2.3-11.2 3.5 6.1 3.8 12.8 4.3 19.5-3.1-1.9-2.3 2.1-3.9 2.7z"/>
 <path class="st79" d="m544.1 747.1c2.5-1.6-0.4-6.3 3.9-6.8-0.1 4.5-2 8.8-1.4 13.4-0.6 2.4-1.2 4.7-2 7.6-2.7-5-3-9.5-0.5-14.2z"/>
 <path class="st68" d="m683.4 709.8c4.9 8.5 7.7 17.6 6.4 27.6-5.5-3.5-10.9-7.1-16.5-10.4-2.6-1.6-2.1-3.4-0.7-5.1 3.3-4.3 5.8-9.3 10.8-12.1z"/>
 <path class="st205" d="m567.5 625.8c-0.9-6-3-12-0.3-18v13.8c12.7-9.8 20.3-21.3 27.6-33.2 0.5 0.8 0.9 1.6 1.4 2.4-7.2 13.6-14.9 26.9-28.7 35z"/>
 <path class="st206" d="m296 741.5c0.9 0.2 1.8 0.2 2.6 0.7 1.8 1.1 5.2-0.2 5.5 2.7 0.2 2.2-1.7 4.1-3.9 5 0-4-2.9-6-5.6-8.1 0.4-0.2 0.9-0.2 1.4-0.3z"/>
 <path class="st207" d="m330.7 340.3c-1 0.5-2.1 1-3.1 1.5-2.8-10.1-5.5-20.1-8.3-30.2 0.6-0.2 1.1-0.4 1.7-0.6 4.5 9.3 7.1 19.3 9.7 29.3z"/>
 <path class="st105" d="m418.5 301.9h-2.5c-2.3-9.4-3-19-3.2-28.7 4.9 9 5.5 18.8 5.7 28.7z"/>
 <path class="st208" d="m414.4 321.3c-4.6-1-9.1-1.9-13.7-2.9-16.3-4.1-28.8-13.3-37-28.2 3.2-0.3 6.3 1.3 9.4 2.1 2.7 2.2 2.5 5.8 3.7 8.6 2.3 5.7 7.2 8.6 13.1 7.6 4.6-0.8 1.7-4.3 2.2-6.5 0.5-2.4-2.7-6.2 2.6-6.7 4.1-0.4 5.3 2 6.2 5.6 2.8 10.3 3 10.3 14.8 9h2.7c1-0.6 2-0.6 3 0.1 1.6 3.1-1.6 3.2-2.7 4.6l0.1-0.1c-0.3 3 2.9 8.4-4.4 6.8z"/>
 <path class="st209" d="m431.5 262.2c7.4 7.2 8.6 16.1 14.4 21.9 0.2 0.2 0.3 1.1 0.1 1.2-3.1 2.2-6.8 2.2-10.3 2.6-2.4 0.3-3-1.5-3.1-3.5-0.3-6.7-0.7-13.5-1.1-22.2z"/>
 <path class="st210" d="m414.4 321.3c5.2 0.2 2.5-4.9 4.6-6.8 4.3 4.2 9.8 5.4 15.4 5.4 4.5 0 7.2 1.9 9.4 5.4-6 3.9-11.7-0.5-17.6-0.7-4-0.2-7.9-2.2-11.8-3.3z"/>
 <path class="st211" d="m418.9 314.6c0.8-1.5 1.6-2.9 2.4-4.4 2.8-1.7 5.6-0.8 8.3-0.1 1.1 0.8 2.3 1.5 3.2 2.4 0.7 0.7 1.7 2 1.5 2.7-0.5 1.5-2.2 1.5-3.5 1-3.8-1.4-7.9-1.6-11.9-1.6z"/>
 <path class="st105" d="m429.6 310.1c-2.8 0-5.6 0.1-8.3 0.1-0.9-0.1-1.8-0.2-2.7-0.3 3.8-7.1 7.3 0.5 11 0.2z"/>
 <path class="st212" d="m391.1 269.5c4 6.4 5.6 13.5 7 20.6 0.3 1.2-0.2 2.2-1.7 2.4-2.4 0.2-4.1-0.6-4.6-3-1.3-6.6-1.9-13.2-0.7-20z"/>
 <path class="st213" d="m420.1 364c1.8 0 3.7 0.2 5.5-0.1 12.4-2.5 18.2 3.7 15.2 16.6-1.7 2.3-3.1 1.5-4.9-0.1-6.9-6-8-5.6-10.9 3-0.1 0.4-0.5 0.7-0.8 1-2.9-1.4-4.7-3.6-5.4-6.7 2.2-1.2 2.5-2.6 1-4.8-2.1-2.9-2-6 0.3-8.9z"/>
 <path class="st214" d="m269.6 382.1c2.3 2.7 0.7 4.8-1.1 6.9-5.6-6.7-11.2-5.9-16.8 0-4-3.8-4.6-8.3-2-13.1 2.4-4.4 6.6-5.1 11.2-4.8 1.6 0.1 3.2-0.1 4.8-0.2 1.7 0.5 3.4 1 5.6 1.6-2.2 3-6.3 5.8-1.7 9.6z"/>
 <path class="st54" d="m424.1 384.5c-1.5-4.3-1.4-8.4 3.3-10.3 4.7-2 7.9 0.5 9.7 4.8 0.8 2 1.8 2.3 3.6 1.5-4.4 6.6-9 7.7-16.6 4z"/>
 <path class="st215" d="m251.7 389c1.4-0.7 1.6-2.1 2-3.4 1.1-3.3 3-5.4 6.9-5.2 3.7 0.2 5.8 2 6.5 5.6 0.2 1 0.9 2 1.4 2.9-5.8 5-10.2 5-16.8 0.1z"/>
 <path class="st216" d="m396.6 770.4c-13.2 0.2-28.8-14.1-30.3-27.3-1.8-14.7-0.2-28.5 9.5-40.4 3 1.7 3 4.9 3.6 7.8 0.6 2.6 0.4 5.5 3 8 3.8-3.5 5.4-8.4 7.8-12.6 1.7-2.9 2.7-6.4 6.5-7.6 0.7 0 1.3 0.2 1.8 0.6 2.3 3.5 0.1 6.5-1 9.7-1.8 5-5.4 8.9-8 14.9 6.6-0.2 12.3-1.7 17.4-4 15.8-7.3 32.5-12 48.5-18.7 3.8-1.6 8.1-4 11.9 0.5 0.5 1.4 0.3 2.6-0.8 3.7-10.4 3.3-19.9 9.2-30.5 11.8-3.8 0.9-4.1 2.9-2.2 6 2.3 3.7 4.3 7.5 6.2 11.4 0.2 0.7 0.2 1.3 0.1 2-0.3 1.4-1 2.5-2.3 3.2-6.2-0.6-7.5-6.1-10-10.3-4.1-7-4-7.3-11.6-4.4-7.7 2.9-15.7 5.2-23.5 7.8-3.9 1.3-3.9 2.9-2.5 6 2.9 6.3 6.5 12.1 11 17.4 2.8 3.3 5.6 4 9.7 2.5 6-2.2 10.6-6.1 15.3-10.3 1.9-1.7 3.3-4.7 6.8-3.6 3.1 2.9 2.5 6.1 0.7 9.3-1.7 3-3.4 5.9-4.1 9.3-7.1 8.1-23 11.7-33 7.3z"/>
 <path class="st217" d="m386.8 679.4c4.9-13.1 14.7-23.8 18.6-37.5 2.3-8.1 7.6-0.7 9.6 0.4 2.9 1.5 6.2 3.5 8.9 5.8 5.5 2 6 3.2 2.7 7.4-0.6 0.7 0.2-0.1-0.5 0.5-7.7 6.1-13 14.4-20.1 21.1-5 2.3-10.5 2.8-15.7 4.6-1.4 0.5-3.6 0.7-3.5-2.3z"/>
 <path class="st68" d="m396.6 698.8c-4 7.1-8 14.2-12 21.4-0.7 1.2-1.3 2.8-2.8 2.7-2.1 0-2.1-2.2-2.5-3.6-1.3-5.5-2.4-11.1-3.6-16.6 2.4-6.1 4.3-12.4 8.5-17.6 4.3-3.2 9.2-5.1 14.4-6 5.2-1 6.8 0.6 5.2 5.9-1.4 5-3.7 9.7-7.2 13.8z"/>
 <path class="st218" d="m396.6 770.4c4.9-1.7 9.9 0.4 14.9-0.9 6-1.6 11.9-3 16.8-7.1 3.7-6.3 9.9-9.2 16-12.3 8.9-4.5 18.6-7.3 27.1-12.7 1.5-1 3.3-1.6 5 0 2.3 2.6-0.3 3.6-1.7 4.8-2.1 1.8-4.4 3.3-6.5 4.9-4.9 4.6-11.5 5.4-17.5 7.5-4.9 1.7-8.9 4.3-12.7 7.7-12.7 11.4-27.7 14.9-44.3 12.3 1.9-0.8 2.8-2.2 2.9-4.2z"/>
 <path class="st176" d="m406.1 675.4c5.1-7.6 11.1-14.4 18.3-20.1 3.8-3 3.6-5.1-0.4-7.3 0.5-0.9 0.9-1.8 1.4-2.8 1.1 0.3 2.2 0.6 3.3 0.9 1.4 0 2.6 0.5 3.5 1.5 1.3 1.3 1.7 2.9 1.3 4.7-1.3 3.4-4.3 5.2-6.7 7.6-5.5 5.5-11 10.9-14.9 17.7-1 1.8-2.3 3.4-4.5 3.9-4.2-1.3-3.6-3.5-1.3-6.1z"/>
 <path class="st219" d="m406.1 675.4c0.3 1.8-1.8 4.2 1.3 5.3 0.4 7-4.2 15.8-9.5 18.2h-1.3c-0.3-3.7 2-6.4 3.4-9.5 1.3-2.8 2.9-5.5 2.8-8.9-6.8-0.4-12.2 3.9-18.4 4.7 0.8-1.9 1.7-3.8 2.5-5.7 6.8 0.7 12.7-3.4 19.2-4.1z"/>
 <path class="st68" d="m397.9 698.8c4.3-5.5 5.9-12.3 9.5-18.2 6.2-11.4 15.3-20.3 25-28.7 5.2-2.4 9.4 1.5 13.6 3.1 6.5 2.5 14.2 1.3 19.8 6.2 4.5 0.6 9 1.2 13.4 1.8 6.7 3.1 7.5 5.7 4.1 12.3-4.1 7.4-8.3 14.7-12.4 22.1-0.9 1.8-0.7 4.8-4.1 4.1-5.1-2.8-9.3 0.7-13.6 2.2-19.4 6.8-38.1 15.8-58 21.4-1.3 0.4-2.6 1-3.9 1.1-1.5 0.1-3.6 0.2-4.5-0.6-1.7-1.6 0-3.5 0.9-4.8 3.4-4.9 6.4-9.9 8.7-15.4 1-2.2 1.6-4.3 1.5-6.6z"/>
 <path class="st220" d="m476.5 737.4c-15.7 9-33.4 14-48.1 25-0.3-3.3 0.2-6.6 2.6-8.8 3.2-2.9 2.5-5.9 1.4-9.2 0.9-2.7 2.8-4.5 5.4-5.5 0.5-0.9 1-1.9 1.5-2.8 4.6-8.1 6.3-8.8 11.6-5.4 3.8-13.8 12.4-24 24.2-31.8 0.9-1 1.9-2 2.8-2.9 0.1-0.1 0.4-0.1 0.6-0.1 4.9 10.1 13.3 19.6 4.6 31.7-0.9 4-3 7.4-6.6 9.8z"/>
 <path class="st221" d="m431 647.8c-0.8-0.5-1.6-1.1-2.4-1.6 3.3-2.8 5.3 1.1 8 1.6 16.3 3.3 32.7 5.9 49.2 2.5 5-1 6.1 0.5 6.2 4.7 0.2 3.2-1.5 3.8-4.4 4.3-6.5 0.9-12.9-1.4-19.3-0.5-9.1 0.3-17.7-1.6-26.2-4.7-4-1.5-7.9-3.2-11.1-6.3z"/>
 <path class="st222" d="m475.1 698.8c-5.9 8.1-14.4 14-19 23.3-2.3 4.6-2.4 10.2-6 14.4-1.9-2.1 1.9-5.6-2.3-6.5-3.1-0.7-3.5 2.3-5.2 3.6-1.1 0.9-0.8 3.5-3.4 2.5v-1.4c-1.9-2.3-0.7-4.5 0.7-6.2 7.6-8.9 15-18.1 25.4-24.2 0.5-0.9 0.9-1.8 1.4-2.7l4.1-4.1c1.2 1.4 2.8 1.3 4.3 1.3z"/>
 <path class="st223" d="m431 647.8c11.7 6 24.8 7.6 37.3 11-1.1 0.5-2.7 0.7-2.5 2.5-11.7-0.9-22.7-4.8-33.4-9.3-0.4-1.4-0.9-2.8-1.4-4.2z"/>
 <path class="st224" d="m483.4 675.4c0.2-4.6 0.3-9.2-4.1-12.3 0.9 0 1.9-0.3 2.7 0 2.7 1.1 7.7-2 8 1.9 0.2 3.9-1.6 8.8-6.6 10.4z"/>
 <path class="st225" d="m381.5 423.1c3.9 5.4 3.5 11.7 3.9 17.8-11.8 4.2-24.1 5.8-36.4 7.1-4.7 0.5-9.5 1-14.2 1.5-7.9 0.9-10-1.7-7.3-9.1 1-2.7 2.6-4.9 4.8-6.7 10.7-8.9 22.9-14.4 37-14.4 4.3 0.2 8.8 0.6 12.2 3.8z"/>
 <path class="st226" d="m381.5 423.1c-14.8-3.2-28.5-0.2-41.4 7.5-4.6 2.8-9 5.9-10.8 11-1.5 4.2-1.6 8.9 5.4 7.9-2.8 0.5-5.7 0.9-8.5 1.4-6.5-7.1-8.2-16-9.7-25-0.2-3.3 1.1-3.8 4.5-3.8 16.3-0.3 32.3-2.8 47.9-7.2 9.5-3.4 10.8-2.5 12.6 8.2z"/>
 <path class="st227" d="m364.8 459c-11.6 1.8-23.2 3-34.2-2.8 2.9-5.3 8.6-3.2 12.5-3.7 12-1.4 23.9-3.8 35.8-5.8 1.2-0.2 2.7-0.6 4.2 0.9-3.8 7.6-12 8-18.3 11.4z"/>
 <path class="st228" d="m364.9 402.5c2.3 0.9 4.6 1.8 6.9 2.7 2.1 5.4-3.6 4.6-5.5 6.9-13.2 5.3-27.2 5.8-41.1 6.7-1.8-2.6-7.7 1.1-7.3-4 0.4-4.4 4.9-4.9 8.6-5 10.7-0.4 21.3-0.7 31.1-6.1 2-1 4.8-0.8 7.3-1.2z"/>
 <path class="st229" d="m393.9 637.6c0.9 5.9-1.4 10.1-6.8 11.9-5.5 1.9-9.3-1-12.5-5.4-3.1-4.3-6.1-8.2-5.7-14.1 0.4-5.8 3.9-8.7 8.3-10.7 4.3-2 7.9 0.4 10.7 3.8 3.5 4.3 7.4 8.4 6 14.5z"/>
 <path class="st68" d="m437.8 738.9c-1.2 2.4-1.9 5.3-5.4 5.5-6.3 7.4-13.4 13.5-22.7 16.9-3.2 1.2-5.7 1.1-8.1-1.5-6.3-7.1-11.3-14.9-14.9-23.6-1.2-2.8-1.8-4.9 2.7-5.7 10.6-1.8 20.7-5.6 30.4-9.8 4.9-2.1 6-0.3 7.7 3 2.9 5.4 5.1 11.3 10.3 15.2z"/>
 <path class="st68" d="m465.5 704.3c-6.4 6.8-12.9 13.6-19.3 20.3-2.8 3-5.6 6-6.8 10-4.8-4.4-6.7-10.6-10-16-0.8-1.3-0.7-2.8 1.2-3.1 10.5-2 20.1-6.5 29.8-10.9 1.3-0.6 3.3-1.5 5.1-0.3z"/>
 <path class="st230" d="m377.3 640.9c-5.7-7.7-6.2-13.3-1.5-16.7 4.6-3.3 9-0.7 14 8.4 0.8 1.9 1.1 3.8-0.6 6.1-4.1-4.9-7.1-3.4-9.5 1.5-0.5 0.8-1.4 1.2-2.4 0.7z"/>
 <path class="st231" d="m377.3 640.9c1.5-1 1.1-2.9 1.7-4.3 1.2-2.6 3-4.8 5.9-5.1 3.3-0.3 2.8 3.2 4.5 5.4 0.2-1.8 0.3-3.1 0.4-4.5 1.2 1.3 1.2 2.9 1.2 4.4 0 4.6-2.3 8.2-6.4 9.4-3.8 1.4-5.9-2.1-7.3-5.3z"/>
</svg>
