<svg width="200" height="200" version="1.1" viewBox="709 1522 642 418" xmlns="http://www.w3.org/2000/svg">
 <path d="m831.62 1872.2c3.1172 14.02 6.0977 24.859 8.2305 32.031h-70.73c-1.8516-5.9414-5.0703-16.98-8.5625-32.242-4.0703-17.789-8.5195-41.309-11.598-69.121-6.4727-58.348-8.0898-147.88 20.309-245.47h70.832c-3.5508 12.531-6.6211 24.922-9.25 37.129-1.5117 6.9609-2.8828 13.863-4.1133 20.691-13.648 75.441-11.477 142.58-6.207 189.8 2.9883 26.777 7.1602 49.508 11.09 67.18" fill="#21223e"/>
 <path d="m849.15 1881.1c-4.582-18.512-10.121-45.359-13.762-78.191-6.125-55.199-7.8828-138.32 15.992-229.76h35.586c-23.477 92.348-21.602 176.06-15.363 231.9 3.5195 31.52 8.6562 57.391 13.137 76.051h-35.59" fill="#e8e8e7"/>
 <path d="m1277.9 1811c-8.5508 9.1523-18.43 18.113-29.598 26.84l-0.042969 0.03125c-16.867 13.191-36.648 25.859-59.188 37.871-34.961 18.66-74.891 28.531-115.45 28.531h-166.96c-1.832-5.8828-5.0117-16.781-8.4609-31.832-4.1016-17.828-8.5898-41.5-11.699-69.531-5.1602-46.508-7.2305-112.84 6.5195-187.26 1.2578-6.7812 2.6406-13.629 4.168-20.531 2.7305-12.391 5.9219-24.969 9.6211-37.68h182.89c36.379 0 72.762 8.1094 105.22 23.449 50.812 23.93 112.94 66.973 120.43 136.04 3.5 32.09-9.0977 63.738-37.449 94.066" fill="#21223e"/>
 <path d="m1224.1 1719.8c-10.609 1.9805-21.32-0.87891-31.852-8.5117-16.309-11.797-24.949-29.137-25.711-51.527-0.32812-9.9492 1.043-18.781 2.2617-24.473l88.5 62.07c-5.2383 6.5703-17.328 19.473-33.199 22.441" fill="#fff"/>
 <path d="m948.71 1763.4c-3.3125-6.8398-5.0781-14.391-5.0781-22.113 0-28.027 22.805-50.828 50.832-50.828 28.031 0 50.832 22.801 50.832 50.828 0 12.781-4.7109 24.852-13.301 34.242-9.2188-0.41016-15.559-2.4805-17.289-5.8516-2.0391-3.9883 1.5703-12.008 9.8984-22.008 0.48047-0.57031 0.83203-1.2617 1.0117-1.9922 0.050781-0.20703 0.089844-0.41797 0.10938-0.62891 0.14844-1.2305 0.21875-2.4883 0.21875-3.7617 0-19.16-15.59-34.738-34.746-34.738-18.727 0-34.039 14.922-34.691 33.5-1.4648 3.0391-5.5195 12.09-7.7969 23.352" fill="#f5f5f5"/>
 <path d="m1159.4 1830.1c-1.6094 0.72266-2.7266 2.2422-2.9297 3.9922-0.19922 1.7578 0.54297 3.4883 1.9531 4.5586 2.5273 1.9219 4.0195 6.5391 3.6289 11.25-0.21094 2.5391-1.3516 8.7695-7.2891 11.891-0.11328 0.058594-0.23047 0.12109-0.33984 0.19141-22.262 14-46.652 13.699-72.473-0.89062-19.848-11.211-33.141-27.039-33.27-27.191-0.89063-1.0781-2.1992-1.7305-3.5898-1.8008-0.25-0.019532-24.691-1.5-66.789-20.207-9.6914-4.3125-15.906-10.672-19-19.461-7.0703-20.07 5.0703-45.801 6.4883-48.691 0.44531-0.73828 0.69922-1.6172 0.69922-2.5508 0-13.637 11.086-24.738 24.715-24.738 13.648 0 24.746 11.102 24.746 24.738 0 0.41016-0.007813 0.8125-0.027344 1.2031-10.863 13.398-14.172 23.789-10.113 31.738 5.582 10.91 23.301 12.059 37.18 11.109 6.1523-0.42969 11.633-3.6094 15.031-8.7188 6.9492-10.441 25.25-34.57 44.742-33.34 8.8086 0.55859 15.109 2.9414 18.727 7.0703 3.582 4.0703 3.3203 8.5781 3.3125 8.7109-0.17188 1.8594 0.69922 3.6602 2.2695 4.668 1.5703 1.0117 3.5703 1.0586 5.1914 0.14062 7.2383-4.1406 15.098-5.1484 22.117-2.8398 6.043 1.9883 10.762 6.25 13.301 12.008 4.8203 10.953-8.3516 19.48-8.8906 19.832-1.7109 1.0703-2.6094 3.0586-2.2773 5.0391 0.31641 1.9922 1.7969 3.5898 3.7578 4.0625 0.070313 0.019531 7.2188 2.0195 9.5195 12.617 2.1328 9.7695-9.8984 15.383-10.391 15.609" fill="#f5f5f5"/>
 <path d="m826.74 1615.2-56.469-0.33984 5.2422-20.82 55.34 0.46875c-1.5117 6.9609-2.8828 13.863-4.1133 20.691" fill="#d5d3db"/>
 <path d="m1125 1617-232.06-1.3906c1.2578-6.7812 2.6406-13.629 4.168-20.531l228.06 1.9219-0.17188 20" fill="#d5d3db"/>
 <path d="m839.85 1904.3h-70.73c-1.8516-5.9414-5.0703-16.98-8.5625-32.242l71.062 0.21094c3.1172 14.02 6.0977 24.859 8.2305 32.031" fill="#1b1d2f"/>
 <path d="m1073.6 1904.3h-166.96c-1.832-5.8828-5.0117-16.781-8.4609-31.832l227.05 0.67187s85.738-11.141 123.01-35.242c-16.867 13.191-36.648 25.859-59.188 37.871-34.961 18.66-74.891 28.531-115.45 28.531" fill="#1b1d2f"/>
 <path d="m850.1 1549.9-7.1797-2.1602c-19.902 66.039-26.527 128.71-26.527 182.93 0.011719 108.43 26.457 183.03 26.641 183.57l7.0664-2.5117v-7.5h-86.43v7.5l7.0703-2.5v-0.011719c-0.22266-0.59766-25.793-73.398-25.777-178.55-0.003906-53 6.4766-114.2 25.891-178.6l-7.1836-2.168v7.5h86.43v-7.5l-7.1797-2.1602 7.1797 2.1602v-7.5h-86.43c-3.3047 0-6.2266 2.168-7.1797 5.3398-19.902 66.039-26.527 128.71-26.527 182.93 0.011718 108.43 26.457 183.03 26.641 183.57 1.0586 2.9883 3.8984 4.9883 7.0664 4.9883h86.43c2.4336 0 4.7227-1.1797 6.1289-3.1719 1.4023-1.9883 1.7539-4.5391 0.94141-6.8281v-0.011719c-0.22266-0.59766-25.789-73.398-25.777-178.55 0-53 6.4766-114.2 25.891-178.6 0.6875-2.2812 0.25781-4.7305-1.1641-6.6406-1.418-1.9102-3.6367-3.0273-6.0195-3.0273v7.5"/>
 <path d="m1089.6 1542.4h-188.47c-3.3086 0-6.2266 2.168-7.1836 5.3398-19.902 66.039-26.527 128.71-26.527 182.93 0.011718 108.43 26.461 183.03 26.641 183.57 1.0586 2.9883 3.8984 4.9883 7.0703 4.9883h172.4c1.9727 0 3.9023-0.80078 5.3008-2.1914 1.4023-1.3984 2.1992-3.3281 2.1992-5.3086 0-1.9688-0.79688-3.8984-2.1992-5.3008-1.3984-1.3984-3.3281-2.1992-5.3008-2.1992h-172.4c-1.9766 0-3.9102 0.80078-5.3047 2.1992-1.3984 1.4023-2.1953 3.332-2.1953 5.3008 0 1.9805 0.79688 3.9102 2.1953 5.3086 1.3945 1.3906 3.3281 2.1914 5.3047 2.1914h172.4c42.652 0 84.812-10.16 122.51-30.289 28.949-15.449 62.219-36.633 88.641-63.461 13.199-13.43 24.691-28.289 32.941-44.648 8.25-16.352 13.219-34.25 13.219-53.391 0-4.0117-0.21875-8.0625-0.66016-12.172-2.0898-19.219-7.9609-36.641-16.391-52.23-12.641-23.387-30.949-42.637-50.961-58.387-20.02-15.75-41.77-28.023-61.598-37.371l0.007812 0.007813c-34.918-16.5-73.078-24.887-111.64-24.887h-188.47v15h188.47c36.383 0 72.363 7.9062 105.23 23.449 25.441 11.969 53.949 28.93 76.77 51.418 11.41 11.25 21.41 23.859 29 37.902 7.5898 14.059 12.793 29.527 14.66 46.719 0.39062 3.5703 0.58203 7.0898 0.58203 10.551-0.011719 16.527-4.25 32.008-11.609 46.641-11.031 21.91-29.203 41.77-50.012 58.879-20.789 17.121-44.141 31.5-65.238 42.75-35.461 18.918-75.18 28.52-115.45 28.52h-172.4c-1.9766 0-3.9102 0.80078-5.3047 2.1992-1.3984 1.4023-2.1953 3.332-2.1953 5.3008 0 1.9805 0.79688 3.9102 2.1953 5.3086 1.3945 1.3906 3.3281 2.1914 5.3047 2.1914h172.4c1.9727 0 3.9023-0.80078 5.3008-2.1914 1.4023-1.3984 2.1992-3.3281 2.1992-5.3086 0-1.9688-0.79688-3.8984-2.1992-5.3008-1.3984-1.3984-3.3281-2.1992-5.3008-2.1992h-172.4v7.5l7.0664-2.5v-0.011719c-0.22266-0.59766-25.789-73.398-25.777-178.55 0-53 6.4766-114.2 25.891-178.6l-7.1797-2.168v7.5h188.47v-15"/>
 <path d="m844.93 1573.1h51.07v-10h-51.07z"/>
 <path d="m843.3 1896.1h51.07v-15h-51.07z"/>
 <path d="m1264.3 1696.2-4.1875-2.7109 0.19922 0.12891-0.19922-0.13672v0.007813l0.19922 0.12891-0.19922-0.13672c-0.13281 0.20703-4.7617 7.1875-12.441 13.91-3.8281 3.3594-8.4102 6.6484-13.508 9.0586-5.1133 2.418-10.703 3.9609-16.711 3.9609-3.7812 0-7.7422-0.60938-11.949-2.043-4.2031-1.4297-8.6406-3.6992-13.312-7.0898-10.461-7.5781-16.801-16.707-20.648-26.238-3.8398-9.5312-5.1094-19.488-5.1094-28.391 0-7.9688 1.0195-15.059 2.0391-20.109 0.50781-2.5312 1.0078-4.5508 1.3906-5.9102 0.17969-0.69141 0.33984-1.2109 0.4375-1.5508 0.050781-0.16797 0.089844-0.28906 0.12109-0.36719l0.019531-0.082031 0.011719-0.011719-1.7422-0.57812 1.7422 0.57812-1.7422-0.57812 1.7422 0.57812-4.75-1.5781-2.8711 4.1016 47.75 33.488 47.891 33.59v-0.007813l2.9609 2.0781 2.8672-4.0898-4.1875-2.7109 4.1875 2.7109 2.8828-4.0898-2.9609-2.082h-0.011719l-47.891-33.59-47.75-33.488c-1.2969-0.91016-2.9297-1.1484-4.4297-0.66016-1.5078 0.5-2.6797 1.6602-3.1797 3.1719-0.097656 0.31641-4.5195 13.559-4.5273 31.188 0 9.832 1.3867 21.062 5.8281 32.121 4.4414 11.051 12.02 21.91 24.059 30.609 5.3906 3.9102 10.73 6.6719 15.953 8.4609 5.2305 1.7773 10.32 2.5703 15.18 2.5703 7.8672 0 15.039-2.0625 21.277-5.0625 9.3633-4.5 16.691-11.07 21.773-16.488 5.0781-5.4414 7.8789-9.7617 8-9.9414 1.457-2.2578 0.87891-5.2578-1.3203-6.8086l-2.8828 4.0898"/>
 <path d="m1037.7 1784c10.891-10.992 17.621-26.121 17.621-42.793 0-16.777-6.8125-32.02-17.812-43.008-11-11-26.238-17.82-43.02-17.82-16.773 0-32.012 6.8203-43.004 17.809-11.004 11-17.828 26.23-17.828 43.02 0 15.113 5.5273 28.98 14.699 39.602l7.5742-6.5312c-7.668-8.8984-12.27-20.41-12.273-33.07 0.003906-14.047 5.6875-26.727 14.895-35.938 9.2188-9.2109 21.895-14.891 35.938-14.891 14.062 0 26.73 5.6797 35.941 14.891 9.2109 9.2109 14.891 21.879 14.891 35.938 0 13.961-5.6016 26.531-14.723 35.75l7.1016 7.043"/>
 <path d="m957.04 1738.9c-0.082031 0.16016-2.5234 4.8984-4.9805 12.148-2.4492 7.2617-4.9375 17.039-4.9492 27.449 0 3.9297 0.36328 7.9492 1.25 11.961 1.3281 5.9883 3.8633 11.949 8.0898 17.262 4.2188 5.3086 10.094 9.9102 17.793 13.316 44.262 19.672 69.773 21.031 70.352 21.051l0.23828-4.9883-3.8477 3.1875c0.17969 0.20312 8.7188 10.5 22.801 20.902 7.0469 5.1992 15.5 10.43 25.027 14.391 9.5312 3.957 20.18 6.6484 31.531 6.6602 12.609 0.007812 26.059-3.3828 39.398-11.781l-2.6602-4.2383 2.3203 4.4297c4.4609-2.3203 7.7227-5.9023 9.75-9.8398 2.0508-3.9531 2.9609-8.25 2.9609-12.422 0-3.4297-0.60938-6.7812-1.8477-9.8281-1.2305-3.0312-3.1133-5.8203-5.8008-7.8711l-3.0195 3.9805 2.0391 4.5703c0.28125-0.14062 4.0508-1.8125 8.0703-5.3203 2-1.7617 4.0781-4 5.7109-6.8398 1.6367-2.8203 2.7969-6.3125 2.7969-10.223 0-1.4492-0.16016-2.957-0.5-4.4766-0.86719-4.0312-2.2969-7.3711-4-10.062-2.5469-4.0508-5.6602-6.5781-8.1602-8.0781-2.5078-1.4922-4.418-1.9922-4.7891-2.082l-1.168 4.8594 2.6484 4.2422c0.23828-0.16016 3.6406-2.2812 7.1992-6.1523 1.7812-1.9375 3.6016-4.3398 5.0312-7.207 1.4297-2.8711 2.4492-6.2812 2.4492-10.043 0-2.8672-0.59766-5.918-1.9414-8.9492-2.6367-5.9805-6.918-10.809-12.168-14.109-5.2383-3.3008-11.441-5.0586-17.922-5.0586-6.4102-0.011719-13.109 1.7305-19.438 5.3477l2.4805 4.3516 4.9805 0.46094c0.007812-0.14062 0.039062-0.54297 0.039062-1.1602 0-1.2109-0.12109-3.2617-0.78906-5.75-0.5-1.8711-1.3203-3.9922-2.6523-6.1523-1.9805-3.2305-5.1406-6.5-9.7305-8.9688-4.5977-2.4805-10.559-4.1719-18.23-4.6602-0.69922-0.050781-1.3867-0.070312-2.0781-0.070312-6.2812 0-12.211 1.7891-17.582 4.5117-8.0781 4.0898-15.059 10.258-20.816 16.449-5.7617 6.2109-10.293 12.48-13.223 16.879-1.668 2.5117-4.3789 4.082-7.3984 4.2891-2.0312 0.14062-4.3594 0.24219-6.7891 0.24219-2.793 0-5.7227-0.12891-8.4609-0.49219-2.0625-0.25781-4.0195-0.64844-5.7227-1.1602-1.2891-0.37891-2.4297-0.83984-3.3672-1.3398-1.4219-0.75-2.3594-1.5703-2.9219-2.3789-0.27734-0.41016-0.48828-0.82813-0.64062-1.3203-0.14844-0.5-0.23828-1.0703-0.23828-1.8008 0-0.80859 0.12109-1.8203 0.46094-3.0391 0.5-1.8281 1.4805-4.1406 3.0977-6.8789 1.6328-2.75 3.8906-5.9219 6.8906-9.5195 0.5-0.60156 0.87109-1.3516 1.0391-2.1211v-0.011719c0.042968-0.19922 0.0625-0.27734 0.082031-0.48828 0.14844-1.2383 0.21875-2.5 0.21875-3.7617 0-9.5664-3.8984-18.289-10.18-24.559-6.2695-6.2812-14.988-10.191-24.566-10.18-9.5742-0.011719-18.285 3.8984-24.551 10.18-6.2695 6.2812-10.164 14.992-10.164 24.559 0 2.7617 2.2383 5 5 5s5-2.2383 5-5c0.003907-6.8398 2.7578-13 7.2422-17.488 4.4883-4.4883 10.633-7.25 17.473-7.25s12.996 2.7617 17.496 7.25c4.4922 4.5 7.25 10.648 7.25 17.488 0 0.88281-0.050781 1.7617-0.14844 2.5898l4.9688 0.59375-4.8906-1.082v0.011718l4.8906 1.0703-3.8477-3.2031c-4.3516 5.2305-7.4727 9.8398-9.5703 14.07-1.0508 2.1094-1.8398 4.1211-2.3828 6.082-0.52734 1.9492-0.80859 3.8477-0.80859 5.6875-0.011718 1.9414 0.32031 3.8203 0.96094 5.543 0.55078 1.5 1.3477 2.8789 2.3008 4.0703 1.668 2.0977 3.7695 3.6367 6.0078 4.8086 3.3711 1.7383 7.1016 2.6992 10.879 3.2891 3.7812 0.58984 7.6211 0.78125 11.203 0.78125 2.707 0 5.2578-0.10938 7.4766-0.26172 6.0898-0.41797 11.652-3.6289 15.031-8.7188 3.6289-5.4609 9.9922-14.082 17.781-21.129 3.8789-3.5195 8.1211-6.6406 12.438-8.8203 4.3398-2.1914 8.7227-3.4414 13.082-3.4414 0.48047 0 0.96094 0.019531 1.4414 0.050781 5.8281 0.37109 10.02 1.5195 13.039 2.9414 2.2695 1.0586 3.8906 2.2695 5.0977 3.4883 1.8125 1.8281 2.7617 3.7383 3.293 5.4297 0.53906 1.6719 0.60938 3.1016 0.60938 3.6914v0.26953l-0.011719 0.019531 2.832 0.19922-2.8203-0.25781-0.011719 0.058593 2.832 0.19922-2.8203-0.25781c-0.17188 1.8594 0.69922 3.6602 2.2695 4.668 1.5703 1.0117 3.5703 1.0586 5.1914 0.14062 4.9102-2.8086 9.8594-4.0391 14.477-4.0391 4.6719 0 8.9922 1.2578 12.602 3.5273 3.6094 2.2695 6.5 5.5312 8.3398 9.6797 0.80078 1.8203 1.0898 3.4102 1.0898 4.9102 0 1.9531-0.51953 3.8008-1.4102 5.6016-1.3086 2.6797-3.5 5.1211-5.3711 6.8008-0.9375 0.84766-1.7773 1.5078-2.3672 1.9375-0.29297 0.22266-0.53125 0.38281-0.67188 0.47266l-0.14844 0.10937-0.03125 0.007813 1.0898 1.7109-1.0703-1.7188-0.019531 0.007813 1.0898 1.7109-1.0703-1.7188c-1.7109 1.0703-2.6094 3.0586-2.2773 5.0391 0.31641 1.9805 1.8086 3.5898 3.7578 4.0625l0.80859-3.3633-0.87891 3.3398 0.070312 0.023437 0.80859-3.3633-0.87891 3.3398 0.17188-0.64844-0.17969 0.64844h0.007813l0.17188-0.64844-0.17969 0.64844c0.058594 0.023437 1.9492 0.58203 4 2.3711 1.0273 0.89062 2.1172 2.0898 3.1094 3.7422 0.98828 1.6484 1.8906 3.7578 2.4883 6.5273 0.19141 0.85156 0.26953 1.6328 0.26953 2.3594-0.007813 1.9531-0.54688 3.6211-1.4688 5.2422-0.69141 1.1992-1.6016 2.3281-2.6094 3.3398-1.5117 1.5078-3.2305 2.7383-4.5391 3.5391-0.65234 0.40234-1.2031 0.69922-1.5703 0.89062-0.17969 0.10156-0.32031 0.16797-0.40234 0.21094l-0.078125 0.027344-0.011719 0.011718 1.1914 2.6016-1.1719-2.6133-0.019532 0.011718 1.1914 2.6016-1.1719-2.6133c-1.6172 0.72266-2.7266 2.2305-2.9297 3.9922-0.19922 1.7578 0.54297 3.4883 1.9531 4.5586 0.91797 0.69141 1.8789 1.9414 2.5781 3.6602s1.1094 3.8594 1.1094 6.0703c0 2.6992-0.60938 5.4805-1.8281 7.8086-1.2305 2.3516-2.9922 4.2617-5.5195 5.6016l-0.33984 0.19141c-11.844 7.4297-23.23 10.23-34.082 10.25-9.75 0-19.102-2.332-27.691-5.8906-12.879-5.3398-23.969-13.5-31.77-20.32-3.8984-3.3984-6.9805-6.4688-9.0703-8.6719-1.0469-1.0977-1.8477-1.9766-2.3672-2.5781-0.26953-0.30078-0.46094-0.53125-0.58984-0.67187l-0.14062-0.16797-0.03125-0.03125-1.6406 1.3594 1.6406-1.3594-1.6406 1.3594 1.6406-1.3594c-0.89844-1.0898-2.1914-1.7383-3.6016-1.8008l-0.078125 1.6523 0.089844-1.6523h-0.011719l-0.078125 1.6523 0.089844-1.6523c-0.19922-0.019532-24.352-1.3477-66.789-20.207-4.2734-1.9023-7.6719-4.1328-10.406-6.5703-4.0898-3.6797-6.7227-7.8398-8.4141-12.391-1.6797-4.5312-2.375-9.4609-2.375-14.441-0.007813-8.7773 2.1836-17.648 4.4219-24.238 1.1172-3.3008 2.2344-6.0312 3.0625-7.9219 0.41406-0.9375 0.75781-1.668 0.99219-2.1602 0.11719-0.23828 0.20312-0.41797 0.26172-0.53906l0.0625-0.12109 0.011719-0.027344h0.003906l-2.5039-1.293 2.5 1.3008 0.003906-0.007812-2.5039-1.293 2.5 1.3008c1.2695-2.4609 0.30859-5.4688-2.1445-6.7383-2.4531-1.2695-5.4688-0.3125-6.7383 2.1406"/>
 <path d="m1261.4 1694.1c-4.6797 10.32-14.41 17.41-25.66 17.41-15.812 0-28.621-14-28.621-31.277 0-7.4727 2.3906-14.332 6.3906-19.723l47.891 33.59"/>
</svg>
