<svg width="200" height="200" version="1.1" viewBox="1513 154 465 465" xmlns="http://www.w3.org/2000/svg">
<defs>
 </defs>
<g>
  <path d="m1942.4 189.52v393.7h-393.71v-393.7h393.71" fill="#f8c620"/>
  <g fill="#0f0e0c">
   <path d="m1949.9 590.72v-7.5h-401.21v-393.7h393.71v401.2h7.5v-7.5 7.5h7.5v-416.2h-423.71v423.7h423.71v-7.5h-7.5"/>
   <path d="m1596.3 223.19c0 8.0781-6.5508 14.629-14.629 14.629-8.082 0-14.633-6.5508-14.633-14.629 0-8.082 6.5508-14.633 14.633-14.633 8.0781 0 14.629 6.5508 14.629 14.633"/>
   <path d="m1596.3 553.27c0 8.082-6.5508 14.629-14.629 14.629-8.082 0-14.633-6.5469-14.633-14.629 0-8.0781 6.5508-14.629 14.633-14.629 8.0781 0 14.629 6.5508 14.629 14.629"/>
   <path d="m1926.4 223.19c0 8.0781-6.5508 14.629-14.629 14.629-8.082 0-14.633-6.5508-14.633-14.629 0-8.082 6.5508-14.633 14.633-14.633 8.0781 0 14.629 6.5508 14.629 14.633"/>
  </g>
  <path d="m1678.4 354.04h-64.551v-79.32l30.68-35.52h194.21l37.16 44.59v101.16l-35.891 35.879-65.609 0.98047v52.012h-65.461v-76.109l23.812-22.27h71.277v-88.152h-125.63v66.75" fill="#fff"/>
  <path d="m1709 516.88h63.641v27.062h-63.641v-27.062" fill="#fff"/>
  <path d="m1926.4 553.27c0 8.082-6.5508 14.629-14.629 14.629-8.082 0-14.633-6.5469-14.633-14.629 0-8.0781 6.5508-14.629 14.633-14.629 8.0781 0 14.629 6.5508 14.629 14.629" fill="#0f0e0c"/>
  <path d="m1780.1 551.44v-7.5h-71.141v-27.062h63.641v34.562h7.5v-7.5 7.5h7.5v-49.562h-93.641v57.062h93.641v-7.5h-7.5" fill="#f58614"/>
  <path d="m1606.4 361.54v7.5h87.051v-66.75h95.629v58.152h-62.207l-32.883 30.758v97.621h95.461v-52.23l56.922-0.85156 44.578-44.578v-112.8l-45.141-54.16h-208.1l-38.812 44.941v99.898h7.5v-7.5h7.5v-86.82l30.68-35.52h194.21l37.16 44.59v101.16l-35.891 35.879-65.609 0.98047v52.012h-65.461v-76.109l23.812-22.27h71.277v-88.152h-125.63v66.75h-72.051v7.5h7.5-7.5" fill="#f58614"/>
 </g>
</svg>