<svg width="200" height="200" version="1.1" viewBox="158 1449 542 528" xmlns="http://www.w3.org/2000/svg">
 <path d="m258.21 1600.6c0-63.988 79.895-116.06 178.1-116.06 98.207 0 178.1 52.07 178.1 116.06 0 63.992-79.895 116.05-178.1 116.05-98.203 0-178.1-52.059-178.1-116.05" fill="#00f"/>
 <path d="m297.22 1600.6c0-50.137 62.395-90.918 139.09-90.918s139.09 40.781 139.09 90.918c0 50.133-62.395 90.922-139.09 90.922s-139.09-40.789-139.09-90.922" fill="#0ff"/>
 <path d="m336.16 1600.6c0-35.84 44.926-65 100.14-65 55.223 0 100.15 29.16 100.15 65s-44.926 64.992-100.15 64.992c-55.219 0-100.14-29.152-100.14-64.992" fill="#fff"/>
 <g fill="#7bcb34">
  <path d="m367.04 1911.9c-27.094 0.48047-66.703-1.8203-101.52-15.379-40.406-15.742-64.375-42.922-71.238-80.789-1.9453-10.723 4.0039-21.25 14.141-25.031 16.09-6 37.832-12.02 60.234-12.02 29.816 0 60.805 10.68 81.16 46.32 2.3867 4.168 4.9688 8.6289 7.8984 13.648 10.402 17.801 18.75 34.629 24.809 50.031 2.0742 5.2812 1.4609 11-1.6797 15.699-3.1328 4.6797-8.1641 7.4219-13.805 7.5195"/>
  <path d="m451.61 1931.9c-5.8711 6.2812-13.828 9.7305-22.41 9.7305-4.6484 0-9.1094-1.0117-13.148-2.9414-3.4609-1.6406-6.6211-3.9492-9.3203-6.8477-5.8711-6.3125-8.7617-14.523-8.1289-23.121l12.918-178.09c4.3516 0.37109 8.7305 0.64844 13.141 0.82031 3.8594 0.16016 7.75 0.23828 11.648 0.23828 3.8633 0 7.7109-0.078125 11.531-0.23828l11.98 177.42c0.57031 8.582-2.3398 16.762-8.2109 23.031"/>
  <path d="m664.34 1815.8c-6.8633 37.867-30.832 65.047-71.238 80.789-34.816 13.559-74.422 15.859-101.52 15.379-5.6367-0.097657-10.668-2.8398-13.801-7.5195-3.1406-4.6992-3.7539-10.418-1.6797-15.699 6.0586-15.402 14.402-32.23 24.809-50.031 2.9141-4.9883 5.5-9.4609 7.8945-13.648 20.363-35.641 51.344-46.32 81.164-46.32 22.398 0 44.145 6.0312 60.23 12.02h0.003906c10.137 3.7812 16.082 14.309 14.141 25.031"/>
 </g>
 <g fill="#9ad545">
  <path d="m424.66 1731.5c0.089844 0.007812-5.8086 140.66-8.6094 207.24-3.4609-1.6406-6.6211-3.9492-9.3203-6.8477-5.8711-6.3125-8.7617-14.523-8.1289-23.121l12.918-178.09c4.3516 0.37109 8.7305 0.64844 13.141 0.82031"/>
  <path d="m376.91 1907.5s-0.39453-0.55078-1.0469-1.3711c-0.62109-0.82813-1.7383-2.1367-3.1055-3.7695-1.4297-1.5977-3.1406-3.5781-5.2539-5.7383-2.0352-2.2305-4.5352-4.5703-7.1836-7.1992-1.3828-1.2617-2.8203-2.582-4.3086-3.9414-0.74609-0.67969-1.5039-1.3711-2.2773-2.0703-0.79688-0.67969-1.6055-1.3594-2.4258-2.0586-1.6445-1.3828-3.332-2.8125-5.0547-4.2695-1.7812-1.3906-3.6016-2.8203-5.4531-4.2617-0.92578-0.73047-1.8594-1.4609-2.8008-2.1992-0.96875-0.69922-1.9453-1.4023-2.9258-2.1094-1.9688-1.4219-3.9609-2.8516-5.9688-4.3008-2.0117-1.4414-4.1328-2.75-6.2148-4.1523-2.1016-1.3672-4.1797-2.7891-6.3203-4.1172-2.1602-1.3008-4.3242-2.5898-6.4766-3.8828-1.0781-0.64844-2.1523-1.2891-3.2266-1.9375-1.0664-0.65234-2.1406-1.2812-3.2422-1.8594-4.3789-2.3398-8.6523-4.7305-12.863-6.9102-4.2656-2.0703-8.3906-4.0703-12.305-5.9727-0.48828-0.22656-0.97656-0.46875-1.457-0.69922-0.49219-0.21875-0.98047-0.42969-1.4688-0.64062-0.96875-0.41016-1.9258-0.82031-2.8672-1.2305-1.8789-0.80859-3.6953-1.5898-5.4414-2.3398-3.4922-1.5-6.6836-2.918-9.5977-3.9492-2.8906-1.0898-5.4141-2.0391-7.4922-2.8203-4.1562-1.5703-6.5352-2.457-6.5352-2.457s2.4258 0.73828 6.6719 2.0469c2.125 0.66016 4.707 1.4531 7.668 2.3633 2.9844 0.84766 6.2578 2.0664 9.8477 3.3594 1.8008 0.64844 3.668 1.3203 5.6055 2.0078 0.97266 0.35156 1.957 0.71094 2.957 1.0703 0.5 0.17969 1.0039 0.35938 1.5117 0.53906 0.5 0.20312 1.0039 0.41016 1.5078 0.62109 4.0508 1.6719 8.3242 3.4219 12.742 5.2422 4.375 1.9297 8.832 4.0664 13.402 6.168 1.1484 0.51172 2.2734 1.0898 3.3945 1.6797 1.125 0.58203 2.25 1.1719 3.3828 1.75 2.2617 1.1719 4.5312 2.3516 6.8008 3.5312 2.2539 1.2109 4.4492 2.5312 6.668 3.7891 2.2031 1.2812 4.4453 2.4922 6.582 3.832 2.1367 1.3477 4.2578 2.6797 6.3516 4 1.0469 0.66016 2.0859 1.3164 3.1211 1.9766 1.0078 0.69141 2.0078 1.3828 3 2.0625 1.9844 1.3711 3.9375 2.7109 5.8477 4.0273 1.8672 1.3828 3.6914 2.7422 5.4648 4.0625 0.88672 0.66016 1.7617 1.3203 2.625 1.9609 0.83984 0.67969 1.668 1.3398 2.4844 1.9883 1.625 1.3086 3.1953 2.582 4.6992 3.8008 2.9219 2.5586 5.6641 4.8398 7.9492 7.0391 2.3438 2.1289 4.2969 4.1094 5.9219 5.7305 1.6016 1.6797 2.8281 2.9492 3.7031 3.9688 0.89063 1 1.2656 1.4609 1.2656 1.4609l-7.8633 6.1797"/>
  <path d="m473.59 1901.3s0.37109-0.46094 1.2617-1.4609c0.87891-1.0195 2.1055-2.2891 3.707-3.9688 1.625-1.6211 3.5781-3.6016 5.9219-5.7305 2.2852-2.1992 5.0273-4.4805 7.9453-7.0391 1.5078-1.2188 3.0781-2.4922 4.7031-3.8008 0.8125-0.64844 1.6406-1.3086 2.4805-1.9883 0.86328-0.64062 1.7383-1.3008 2.625-1.9609 1.7773-1.3203 3.6016-2.6797 5.4648-4.0625 1.9102-1.3164 3.8633-2.6562 5.8516-4.0273 0.99219-0.67969 1.9922-1.3711 3-2.0625 1.0352-0.66016 2.0742-1.3164 3.1211-1.9766 2.0938-1.3203 4.2109-2.6523 6.3477-4 2.1406-1.3398 4.3828-2.5508 6.582-3.832 2.2227-1.2578 4.418-2.5781 6.668-3.7891 2.2695-1.1797 4.543-2.3594 6.8047-3.5312 1.1289-0.57812 2.2578-1.168 3.3828-1.75 1.1172-0.58984 2.2422-1.168 3.3906-1.6797 4.5742-2.1016 9.0312-4.2383 13.402-6.168 4.4219-1.8203 8.6914-3.5703 12.742-5.2422 0.50781-0.21094 1.0117-0.41797 1.5078-0.62109 0.50781-0.17969 1.0117-0.35938 1.5156-0.53906 1-0.35938 1.9844-0.71875 2.9531-1.0703 1.9375-0.6875 3.8086-1.3594 5.6055-2.0078 3.5898-1.293 6.8672-2.5117 9.8516-3.3594 2.9609-0.91016 5.5391-1.7031 7.6641-2.3633 4.2461-1.3086 6.6719-2.0469 6.6719-2.0469s-2.375 0.88672-6.5352 2.457c-2.0742 0.78125-4.5977 1.7305-7.4922 2.8203-2.9141 1.0312-6.1016 2.4492-9.5938 3.9492-1.7461 0.75-3.5625 1.5312-5.4453 2.3398-0.94141 0.41016-1.8945 0.82031-2.8672 1.2305-0.48438 0.21094-0.97266 0.42188-1.4648 0.64062-0.48438 0.23047-0.96875 0.47266-1.4609 0.69922-3.9102 1.9023-8.0352 3.9023-12.301 5.9727-4.2109 2.1797-8.4883 4.5703-12.863 6.9102-1.1016 0.57812-2.1758 1.207-3.2461 1.8594-1.0703 0.64844-2.1484 1.2891-3.2227 1.9375-2.1562 1.293-4.3164 2.582-6.4805 3.8828-2.1367 1.3281-4.2148 2.75-6.3164 4.1172-2.082 1.4023-4.2031 2.7109-6.2188 4.1523-2.0078 1.4492-3.9961 2.8789-5.9648 4.3008-0.98437 0.70703-1.9609 1.4102-2.9297 2.1094-0.9375 0.73828-1.8711 1.4688-2.8008 2.1992-1.8477 1.4414-3.668 2.8711-5.4492 4.2617-1.7266 1.457-3.4141 2.8867-5.0586 4.2695-0.82031 0.69922-1.625 1.3789-2.4219 2.0586-0.77344 0.69922-1.5312 1.3906-2.2812 2.0703-1.4883 1.3594-2.9258 2.6797-4.3047 3.9414-2.6484 2.6289-5.1484 4.9688-7.1875 7.1992-2.1094 2.1602-3.8203 4.1406-5.2539 5.7383-1.3672 1.6328-2.4844 2.9414-3.1055 3.7695-0.64844 0.82031-1.0469 1.3711-1.0469 1.3711l-7.8594-6.1797"/>
 </g>
 <path d="m391.45 1639.5h-6.6016c-6.1484 0-11.129-4.9922-11.129-11.133v-61.719c0-6.1484 4.9805-11.129 11.129-11.129h6.6016c6.1445 0 11.129 4.9805 11.129 11.129v61.719c0 6.1406-4.9844 11.133-11.129 11.133" fill="#0f0e0c"/>
 <path d="m487.77 1639.5h-6.5977c-6.1484 0-11.129-4.9922-11.129-11.133v-61.719c0-6.1484 4.9805-11.129 11.129-11.129h6.5977c6.1484 0 11.133 4.9805 11.133 11.129v61.719c0 6.1406-4.9844 11.133-11.133 11.133" fill="#0f0e0c"/>
 <path d="m385.02 1584.4c0 11.129-1.8789 20.148-4.1992 20.148-2.3164 0-4.1953-9.0195-4.1953-20.148s1.8789-20.148 4.1953-20.148c2.3203 0 4.1992 9.0195 4.1992 20.148" fill="#fff"/>
 <path d="m481.72 1584.4c0 11.129-1.8828 20.148-4.1992 20.148-2.3203 0-4.1992-9.0195-4.1992-20.148s1.8789-20.148 4.1992-20.148c2.3164 0 4.1992 9.0195 4.1992 20.148" fill="#fff"/>
 <g fill="#0f0e0c">
  <path d="m621.91 1600.6h-7.5c-0.003906 7.7734-1.1797 15.34-3.4414 22.691-3.9531 12.871-11.254 25.121-21.469 36.32-15.309 16.781-37.191 31.109-63.488 41.168-26.289 10.062-56.953 15.871-89.703 15.871-24.949 0-48.691-3.3711-70.211-9.4297-32.285-9.0781-59.531-24.25-78.426-42.879-9.457-9.3203-16.828-19.48-21.824-30.18-4.9922-10.699-7.6328-21.91-7.6367-33.562 0-7.7695 1.1758-15.34 3.4375-22.699 3.957-12.871 11.254-25.121 21.469-36.309 15.309-16.789 37.195-31.109 63.488-41.172 26.289-10.07 56.957-15.879 89.703-15.879 24.953 0 48.691 3.3711 70.211 9.4297 32.285 9.082 59.535 24.25 78.43 42.891 9.4531 9.3203 16.824 19.48 21.82 30.168 4.9961 10.703 7.6367 21.922 7.6406 33.57h15c0-9.2891-1.418-18.379-4.1016-27.109-4.6992-15.277-13.246-29.43-24.73-42.02-17.242-18.871-41.09-34.289-69.203-45.059-28.121-10.762-60.547-16.859-95.066-16.871-26.301 0-51.387 3.5508-74.277 9.9883-34.328 9.6836-63.758 25.844-84.887 46.652-10.559 10.398-19.035 21.98-24.887 34.5-5.8516 12.508-9.0547 25.98-9.0469 39.918-0.003907 9.293 1.418 18.371 4.1016 27.102 4.6953 15.281 13.242 29.441 24.727 42.02 17.242 18.879 41.09 34.301 69.203 45.07 28.121 10.762 60.547 16.859 95.066 16.859 26.301 0 51.387-3.5391 74.277-9.9883 34.328-9.6797 63.758-25.84 84.891-46.641 10.555-10.398 19.031-21.992 24.883-34.512 5.8516-12.508 9.0547-25.969 9.0508-39.91h-7.5"/>
  <path d="m580.4 1600.6h-5c-0.007813 12.223-3.6992 23.863-10.547 34.652-10.254 16.168-27.73 30.309-50.035 40.328-22.289 10.031-49.344 15.941-78.512 15.941-38.887 0.007813-74.02-10.531-99.117-27.262-12.551-8.3477-22.582-18.23-29.43-29.008-6.8477-10.789-10.535-22.43-10.543-34.652 0.007812-12.219 3.6953-23.867 10.543-34.66 10.258-16.168 27.734-30.297 50.035-40.316 22.293-10.031 49.348-15.953 78.512-15.941 38.891-0.019531 74.023 10.531 99.117 27.25 12.555 8.3594 22.586 18.23 29.43 29.008 6.8477 10.793 10.539 22.441 10.547 34.66h10c0.003906-14.27-4.3711-27.859-12.105-40.02-11.617-18.258-30.684-33.418-54.375-44.078-23.703-10.66-52.094-16.82-82.613-16.82-40.688 0.007812-77.602 10.941-104.66 28.93-13.523 9-24.594 19.801-32.328 31.969-7.7383 12.16-12.109 25.75-12.105 40.02-0.003906 14.273 4.3672 27.852 12.105 40.023 11.617 18.25 30.68 33.406 54.371 44.078 23.703 10.648 52.098 16.82 82.613 16.82 40.691-0.011718 77.605-10.941 104.66-28.93 13.52-9.0117 24.59-19.801 32.328-31.969 7.7344-12.172 12.109-25.75 12.105-40.023h-5"/>
  <path d="m541.46 1600.6h-5c-0.007812 8.6406-2.6055 16.871-7.4844 24.562-7.3008 11.52-19.84 21.688-35.926 28.918-16.074 7.2305-35.637 11.52-56.738 11.512-28.133 0.019531-53.531-7.6289-71.578-19.66-9.0273-6.0117-16.211-13.09-21.086-20.77-4.875-7.6914-7.4766-15.922-7.4805-24.562 0.003907-8.6367 2.6055-16.879 7.4805-24.57 7.3008-11.508 19.84-21.688 35.926-28.906 16.078-7.2422 35.641-11.523 56.738-11.523 28.137-0.007813 53.535 7.6328 71.582 19.672 9.0273 6 16.207 13.09 21.082 20.758 4.8789 7.6914 7.4766 15.934 7.4844 24.57h10c0.003907-10.688-3.2773-20.867-9.043-29.93-8.6602-13.609-22.789-24.809-40.266-32.668-17.488-7.8711-38.387-12.402-60.84-12.402-29.934 0.011718-57.113 8.043-77.121 21.34-9.9961 6.6602-18.215 14.66-23.98 23.73-5.7656 9.0625-9.0508 19.242-9.043 29.93-0.007812 10.691 3.2773 20.863 9.043 29.922 8.6602 13.609 22.785 24.809 40.266 32.68 17.488 7.8594 38.387 12.391 60.836 12.391 29.938-0.011719 57.113-8.0312 77.121-21.34 10-6.6523 18.219-14.652 23.984-23.73 5.7656-9.0586 9.0469-19.23 9.043-29.922h-5"/>
  <path d="m447.35 1724.1 12.469 184.79c0.046875 0.71094 0.070313 1.4102 0.070313 2.1016 0 4.2109-0.85156 8.2109-2.3906 11.871-2.3125 5.4766-6.2031 10.199-11.098 13.52-4.9062 3.3281-10.77 5.2695-17.199 5.2695-4.2891 0-8.3203-0.87109-11.988-2.4219-5.5039-2.3398-10.191-6.2578-13.488-11.16-3.2969-4.8984-5.2031-10.75-5.207-17.047 0-0.75 0.027344-1.5117 0.085937-2.2812l13.477-185.79-14.957-1.082-13.48 185.79c-0.082031 1.1211-0.125 2.25-0.125 3.3633 0 6.2383 1.2695 12.227 3.5703 17.68 3.4531 8.1797 9.207 15.148 16.492 20.098 7.2773 4.9414 16.129 7.8516 25.621 7.8516 6.3242 0 12.375-1.2891 17.855-3.6211 8.2227-3.5 15.168-9.3086 20.066-16.59 4.9062-7.2812 7.7695-16.078 7.7656-25.449 0-1.0312-0.035157-2.0586-0.10547-3.1016l-12.469-184.79-14.965 1.0117"/>
  <path d="m205.8 1783.7 2.6172 7.0195c7.6445-2.8516 17.023-5.8516 27.352-8.1289 10.324-2.2812 21.59-3.832 32.992-3.832 7.4805 0 15.02 0.66016 22.41 2.1992 11.09 2.3203 21.824 6.582 31.746 13.59 9.918 7.0117 19.074 16.793 26.895 30.473 2.6133 4.5586 5.25 9.1211 7.8984 13.648 12.039 20.59 19.809 37.32 24.809 50.031 0.83203 2.1289 1.2031 4.2188 1.207 6.2695 0.003906 4.3906-1.7656 8.6289-4.7539 11.75-1.4883 1.5586-3.2656 2.8398-5.2617 3.7305-2 0.89844-4.2188 1.418-6.6758 1.4688-2.0391 0.03125-4.1523 0.050781-6.3398 0.050781-13.836 0-30.398-0.78906-47.609-3.3203-12.906-1.8984-26.18-4.7812-38.934-9.0078-9.5664-3.1719-18.84-7.1016-27.469-11.922-12.949-7.2305-24.422-16.441-33.461-28.172-9.0352-11.738-15.711-26.008-18.945-43.797-0.24609-1.3594-0.36719-2.7227-0.36719-4.0625 0-4.6094 1.4141-9.0273 3.9336-12.707 2.5273-3.6836 6.125-6.6016 10.574-8.2617l-2.6172-7.0195-2.6211-7.0312c-7.4062 2.7617-13.504 7.6914-17.707 13.832-4.2109 6.1406-6.5625 13.508-6.5625 21.188 0 2.2305 0.19922 4.4922 0.60938 6.7422 2.1445 11.848 5.7227 22.539 10.473 32.109 8.3086 16.758 20.203 30.02 33.973 40.309 10.332 7.7305 21.711 13.82 33.523 18.633 17.727 7.2188 36.441 11.559 54.266 14.129 17.82 2.5703 34.762 3.3594 48.941 3.3594 2.2734 0 4.4766-0.019531 6.6016-0.058594 4.4805-0.070312 8.7383-1.0625 12.551-2.7695 5.7227-2.5703 10.434-6.7305 13.719-11.801 3.2812-5.0625 5.1562-11.07 5.1602-17.371 0-3.8984-0.72656-7.8906-2.25-11.762-5.293-13.457-13.41-30.887-25.816-52.109-2.6289-4.5-5.2422-9.0078-7.8203-13.527-5.8672-10.262-12.57-18.832-19.883-25.863-10.969-10.547-23.297-17.598-35.969-21.938-12.676-4.3398-25.676-6.0117-38.227-6.0117-12.758 0-25.066 1.7227-36.227 4.1797-11.164 2.4727-21.184 5.6797-29.355 8.7305l-7.0273 2.6211 7.0273-2.6211 2.6211 7.0312"/>
  <path d="m652.81 1783.7 2.6211-7.0312c-8.1719-3.0508-18.191-6.2578-29.355-8.7305-11.164-2.457-23.469-4.1797-36.227-4.1797-8.3672 0-16.934 0.74219-25.473 2.5195-12.805 2.6719-25.574 7.7031-37.34 16.02-11.766 8.3008-22.473 19.871-31.266 35.273-2.5781 4.5195-5.1914 9.0273-7.8203 13.527-12.406 21.223-20.523 38.652-25.816 52.109-1.5234 3.8711-2.25 7.8633-2.25 11.762 0.007812 8.3984 3.3281 16.27 8.9023 22.109 2.793 2.9219 6.1602 5.3516 9.9766 7.0625 3.8086 1.707 8.0703 2.6992 12.551 2.7695 2.125 0.039063 4.3281 0.058594 6.6016 0.058594 14.402 0 31.656-0.80859 49.793-3.4805 13.602-2 27.699-5.0508 41.469-9.6094 10.328-3.4219 20.469-7.6992 30.062-13.059 14.383-8.0312 27.547-18.523 38.027-32.113 10.488-13.59 18.211-30.277 21.824-50.277 0.41016-2.25 0.60938-4.5117 0.60938-6.7422 0-7.6797-2.3555-15.047-6.5625-21.188-4.2031-6.1406-10.301-11.07-17.707-13.832l-2.6211 7.0312-2.6172 7.0195c4.4492 1.6602 8.0469 4.5781 10.574 8.2617 2.5195 3.6797 3.9336 8.0977 3.9336 12.707 0 1.3398-0.12109 2.7031-0.36719 4.0625-1.9102 10.539-5.0469 19.848-9.1523 28.117-7.1875 14.473-17.359 25.863-29.523 34.973-9.1211 6.8281-19.359 12.34-30.191 16.75-16.25 6.6172-33.824 10.738-50.746 13.18-16.922 2.4375-33.188 3.1992-46.805 3.1992-2.1875 0-4.3008-0.019531-6.3438-0.050781-2.4531-0.050781-4.6719-0.57031-6.6719-1.4688-2.9922-1.3398-5.5039-3.5391-7.2656-6.2617-1.7617-2.7188-2.75-5.918-2.75-9.2188 0.003906-2.0508 0.375-4.1406 1.207-6.2695 5-12.711 12.77-29.441 24.809-50.031 2.6484-4.5273 5.2852-9.0898 7.8945-13.648 5.2109-9.1211 11.027-16.512 17.258-22.492 9.3438-8.9805 19.629-14.859 30.434-18.57 10.797-3.6992 22.137-5.1992 33.363-5.1992 11.402 0 22.668 1.5508 32.992 3.832 10.324 2.2773 19.707 5.2773 27.352 8.1289l2.6172-7.0195"/>
 </g>
</svg>
