<svg width="200" height="200" version="1.1" viewBox="1517 752 518 562" xmlns="http://www.w3.org/2000/svg">
 <g fill="#f6da24">
  <path d="m1847 805.37c-4.2812 6.8789-6.5586 12.34-6.7812 12.879l-0.1602 0.42188c-0.047 0.12891-1.7383 5.0664-4.6094 12.938l-12.34-28.668 23.891 2.4297"/>
  <path d="m1821.9 866.81c-2.3516 5.7305-4.8398 11.652-7.4297 17.543-0.8125 1.8281-1.6016 3.6094-2.3828 5.3398l-10.949-22.062 20.762-0.82031"/>
  <path d="m1759.6 872.84-13.891 22.91c-3.2969-8.7305-6.3789-17.68-9.1484-26.09l23.039 3.1797"/>
  <path d="m1733.2 806.72-9.6406 23.57c-1.9102-4.7578-5.9219-13.93-11.941-23.57h21.582"/>
 </g>
 <path d="m1906.8 859.23-0.23828 0.30859c-1.4336 1.9219-35.09 47.531-45.742 84.062-10.051 34.457-33.098 76.66-85.84 82.25-1.2305 0-10.691-0.27344-23.328-7.8203-0.99219-0.58984-2.0117-1.2305-3.0625-1.9297-12.559-8.3906-29.598-25.23-44.719-58.84-33.121-73.602-56.559-104.84-58.641-107.55-0.57813-0.83984-6.2383-9.25-8.5078-19.973-3.0312-14.367 1.3789-26.328 13.109-35.527 7.1797-5.6328 14.098-7.3906 21.168-5.3711 17.652 5.0195 33.371 32.371 39.629 49.5 1.6133 4.3906 3.7109 10.98 6.1328 18.621 6.6875 21.008 13.418 41.199 20.598 58.078 0.089844 0.23047 0.19141 0.48047 0.30078 0.69922 10.801 25.223 22.629 42.902 36.891 44.652 9.1992 1.1289 18.5-6.0703 29.262-22.629 6.2266-9.6016 13.098-22.543 20.438-38.543 1.1914-2.5781 2.3906-5.2383 3.6016-7.9805 4.4492-10.09 8.6289-20.258 12.289-29.527 0.039062-0.10156 0.082031-0.19922 0.12109-0.3125 0.91797-2.3398 1.8086-4.6289 2.668-6.8398l0.089844-0.25c6.332-16.398 10.602-28.738 11.23-30.559 3.1797-7.6406 14.52-27.891 30.109-33.02 7.7227-2.5586 15.691-1.25 24.34 3.9883 8.3633 5.0625 13.09 11.391 14.461 19.352 3.5312 20.59-16.168 44.918-16.359 45.16" fill="#f4f4f4"/>
 <path d="m1960.2 969.11c0 9.5625-1.1016 18.93-3.1914 28-2.1094 9.1289-5.2305 17.969-9.2695 26.43-20.66 43.359-65.27 76.789-120.24 89-9 2-18.281 3.4414-27.77 4.25-1.2422-0.66797-2.6914-1-4.1914-0.86719-1.3984 0.12891-2.6719 0.62891-3.7305 1.3984-3.5078 0.16797-7.0508 0.26953-10.621 0.26953-14.25 0-28.109-1.3906-41.398-4.0117-10.762-2.1172-21.16-5.0469-31.07-8.707-48.32-17.82-85.418-52.871-99.91-95.691-4.3086-12.758-6.6211-26.199-6.6211-40.07 0-16.699 3.3008-34.211 9.5234-51.551 6.2578-17.43 15.449-34.668 27.188-50.699 8.9102 13.402 27.672 44.102 51.281 96.551 33.461 74.352 77.688 77.441 84.789 77.441 0.46875 0 0.78125-0.011718 0.91016-0.023437l0.33984-0.019531c27.691-2.8672 50.832-14.707 68.801-35.199 13.25-15.121 23.41-34.559 30.191-57.82 9.6367-33.027 41.328-76.52 43.297-79.199 0.41016-0.5 1.5117-1.9102 3.0117-4.0117 10.039 13.242 18.309 27.332 24.598 41.684 9.1523 20.949 14.082 42.457 14.082 62.848" fill="#d51e25"/>
 <path d="m1653.9 1278.4c-0.41797 0-0.83984 0.007812-1.2578 0.007812-40.41 0-69.352-16.82-86.012-50-6.4609-12.867-9.8281-25.918-11.578-35.801 12.316 5.1133 32.688 6.1406 64.117-11.59l0.60156-0.37891c68.391-47.621 111.87-3.4102 121.21 7.7188-1.0508 6.5703-2.3125 12.82-3.8203 18.301-4.293 15.609-7.9805 32.281-7.3125 46.949-5.8789 5.6719-27.27 22.48-75.949 24.793" fill="#2fa840"/>
 <path d="m1800.4 1270.4c-4.5703 5.4102-13.633 7.9297-28.5 7.9297-10.582 0-17.781-2.6992-22.012-8.25-10.82-14.191-1.7578-47.109 1.6602-59.512 6.8008-24.711 8.7617-62.359 9.3203-78.91 6.6797 0.58203 13.43 0.87891 20.238 0.87891 2.832 0 5.6406-0.058594 8.4414-0.15625 1.0391 8.7773 3.1602 24.848 7.1719 50.18-1.6914 3.0195-1.082 6.8203 1.4688 9.1602 0.73047 4.457 1.5 9.1484 2.3281 14.109 5.8633 34.859 7.5703 55.48-0.11719 64.57" fill="#2fa840"/>
 <path d="m1781.2 1277.6c-2.7969 0.26953-5.8906 0.40234-9.2773 0.40234-10.582 0-17.781-2.6914-22.012-8.25-10.82-14.191-1.7578-47.109 1.6484-59.5 6.8125-24.723 8.7734-62.371 9.332-78.922 5.2305 0.44922 10.5 0.74219 15.801 0.85156-0.58984 16.938-2.6016 53.77-9.2891 78.07-3.4102 12.391-12.473 45.309-1.6602 59.5 3.2891 4.3203 8.3789 6.918 15.457 7.8477" fill="#37b63e"/>
 <path d="m1985.8 1227.9c-16.633 33.473-45.633 50.43-86.23 50.43-0.42188 0-0.83984-0.007812-1.25-0.007812-58.402-2.7695-77.539-26.41-77.672-26.582l-0.050781-0.058593c0.33203-13.32-2.0586-29.539-5.2188-48.34-0.98828-5.9102-1.8984-11.43-2.7383-16.629 4.7695-5.2812 14.738-14.84 29.238-21.281 27.891-12.379 58.359-7.2891 90.562 15.129l0.59766 0.37891c31.449 17.75 51.82 16.703 64.141 11.582-1.7188 9.7383-5.0312 22.602-11.379 35.379" fill="#2fa840"/>
 <g fill="#fff">
  <path d="m1664.4 963.61c0 25.66-20.797 46.469-46.469 46.469-3.1406 0-6.1992-0.3086-9.1602-0.8984-4.3086-12.758-6.6211-26.199-6.6211-40.07 0-16.699 3.3008-34.219 9.5234-51.551 2.0469-0.28906 4.1367-0.42969 6.2578-0.42969 25.672 0 46.469 20.812 46.469 46.48"/>
  <path d="m1829.9 1097.6c0 5.2109-0.8594 10.211-2.4297 14.891-9 2-18.281 3.4414-27.77 4.25-1.2422-0.668-2.6914-1-4.1914-0.8672-1.3984 0.1289-2.6719 0.6289-3.7305 1.3984-3.5078 0.168-7.0508 0.2695-10.621 0.2695-14.25 0-28.109-1.3906-41.398-4.0117-1.8086-4.9688-2.8008-10.328-2.8008-15.93 0-25.66 20.801-46.469 46.473-46.469 25.656 0 46.469 20.809 46.469 46.469"/>
  <path d="m1960.2 969.11c0 9.5625-1.1016 18.922-3.1914 28-4.2969 1.3008-8.8672 2.0117-13.598 2.0117-25.672 0-46.473-20.801-46.473-46.461 0-25.672 20.801-46.48 46.473-46.48 0.9102 0 1.8203 0.0312 2.707 0.082 9.1523 20.949 14.082 42.457 14.082 62.848"/>
  <path d="m1912.1 1043.9c0 14.07-11.41 25.48-25.48 25.48s-25.48-11.41-25.48-25.48c0-14.078 11.41-25.488 25.48-25.488s25.48 11.41 25.48 25.488"/>
  <path d="m1710.4 1032.9c0 14.07-11.41 25.48-25.477 25.48-14.082 0-25.48-11.41-25.48-25.48s11.398-25.48 25.48-25.48c14.066 0 25.477 11.41 25.477 25.48"/>
 </g>
 <path d="m1719.2 1026.1c-0.078126 0 0.17969-0.089844 0.83984-0.26953 0.21094-0.0625 0.48047-0.11328 0.80078-0.12109-0.98047 0.25781-1.5508 0.39062-1.6406 0.39062" fill="#a81c21"/>
 <path d="m1774.9 1025.9c-1.2305 0-10.691-0.27344-23.328-7.8203-0.99219-0.58984-2.0117-1.2305-3.0625-1.9297 31.66-13.273 77.242-40.293 74.59-84.312-0.66797-11.051-0.19922-21.898 1.0703-32.57 1.1914-2.5781 2.3906-5.2383 3.6016-7.9805 4.4492-10.09 8.6289-20.258 12.289-29.527 0.039062-0.10156 0.082031-0.19922 0.12109-0.3125 0.91797-2.3398 1.8086-4.6289 2.668-6.8398l0.089844-0.25c6.332-16.398 10.602-28.738 11.23-30.559 3.1797-7.6406 14.52-27.891 30.109-33.02 2.543-0.83984 5.1133-1.2695 7.7227-1.2695 5.3203 0 10.82 1.75 16.617 5.2578 8.3633 5.0625 13.09 11.391 14.461 19.352 0.28906 1.6914 0.42188 3.3984 0.42188 5.1211 0.007812 19.297-16.609 39.82-16.781 40.039l-0.23828 0.30859c-1.4336 1.9219-35.09 47.531-45.742 84.062-10.051 34.457-33.098 76.66-85.84 82.25" fill="#dad9d7"/>
 <path d="m1730.5 1232.2s-0.5-0.16797-1.4297-0.5c-0.96094-0.32031-2.3906-0.78906-4.2383-1.3516-3.7031-1.1172-9.0625-2.6094-15.613-4.0195-3.2695-0.69922-6.8281-1.3984-10.617-2-1.9023-0.30859-3.8398-0.61719-5.8398-0.84766-1-0.13281-2.0195-0.26172-3.043-0.39063-1.0195-0.10156-2.0469-0.21094-3.0898-0.30859-1.0469-0.10156-2.0977-0.20312-3.1602-0.30078-1.0586-0.0625-2.1289-0.13281-3.1992-0.19141-1.0703-0.058593-2.1602-0.14844-3.25-0.17969s-2.1797-0.050782-3.2773-0.070313c-1.0898-0.007812-2.2031-0.078125-3.3125-0.039062-1.0977 0.019531-2.2109 0.050781-3.3203 0.070312-2.2891 0.050781-4.5898 0.097657-6.8789 0.16016-2.2617 0.089843-4.6719-0.019532-7-0.0625-2.3594-0.007813-4.6406-0.20703-6.9297-0.33984-4.5586-0.29688-9.0195-0.76953-13.309-1.3281-2.1523-0.25-4.25-0.60156-6.3008-0.90234-2.0625-0.28906-4.0625-0.65625-6.0117-1-1.9492-0.31641-3.8398-0.69922-5.6602-1.0586-1.8281-0.33984-3.5781-0.71875-5.2695-1.0781-1.6797-0.35156-3.2891-0.71094-4.8203-1.082-1.5273-0.33984-2.9805-0.6875-4.3281-1.0312-2.7227-0.65625-5.082-1.2773-7.0117-1.7969-3.8711-1.0508-6.0586-1.7422-6.0586-1.7422s2.2383 0.49219 6.1797 1.1914c1.9688 0.34766 4.3711 0.75781 7.1211 1.1797 1.3789 0.21875 2.8398 0.42969 4.3867 0.64062 1.543 0.21875 3.1719 0.4375 4.8711 0.64062 1.6992 0.20703 3.4688 0.41797 5.3008 0.59766 1.8398 0.19922 3.7305 0.40234 5.6797 0.55078 1.9492 0.16016 3.9492 0.35156 6 0.46094 2.0508 0.12109 4.1406 0.27734 6.2695 0.32812 4.25 0.17969 8.6523 0.24219 13.09 0.14062 2.2227-0.070312 4.4727-0.070312 6.6719-0.25781 2.2188-0.16016 4.3906-0.24219 6.6875-0.54297 2.2695-0.25 4.543-0.50781 6.793-0.75781 1.168-0.13281 2.3281-0.26172 3.4766-0.39063 1.1602-0.12891 2.3203-0.17187 3.4727-0.26172 1.1484-0.078125 2.3008-0.16016 3.4375-0.23828 1.1406-0.058593 2.2812-0.070312 3.4102-0.10937 1.1328-0.03125 2.2617-0.0625 3.3828-0.089844 1.1094 0 2.2188 0.007812 3.3203 0.019531 1.0977 0.007813 2.1875 0.019531 3.2695 0.03125 1.0781 0.039063 2.1406 0.078125 3.1992 0.11719 2.1211 0.0625 4.1797 0.21094 6.1914 0.35156 4.0273 0.26953 7.8164 0.66797 11.309 1.1094 6.9883 0.87109 12.781 1.9297 16.84 2.7695 2.0312 0.42969 3.6406 0.80078 4.7383 1.0586 1.1211 0.28125 1.7227 0.44141 1.7227 0.44141l-3.8516 12.41" fill="#37b63e"/>
 <path d="m1812.3 1219.8s0.60156-0.16016 1.7188-0.44141c1.1016-0.25781 2.7109-0.62891 4.7305-1.0586 4.0625-0.83984 9.8516-1.8984 16.852-2.7695 3.4883-0.44141 7.2812-0.83984 11.309-1.1094 2.0117-0.14062 4.0703-0.28906 6.1914-0.35156 1.0508-0.039062 2.1211-0.078124 3.1992-0.11719 1.082-0.011719 2.1719-0.023437 3.2695-0.03125 1.1016-0.011719 2.2109-0.019531 3.3203-0.019531 1.1211 0.027344 2.25 0.058594 3.3789 0.089844 1.1328 0.039062 2.2734 0.050781 3.4102 0.10937 1.1406 0.078126 2.293 0.16016 3.4414 0.23828 1.1484 0.089844 2.3086 0.13281 3.4688 0.26172 1.1523 0.12891 2.3125 0.25781 3.4727 0.39063 2.2578 0.25 4.5273 0.50781 6.7969 0.75781 2.3008 0.30078 4.4727 0.38281 6.6914 0.54297 2.1992 0.1875 4.4492 0.1875 6.6719 0.25781 4.4375 0.10156 8.8398 0.039063 13.09-0.14062 2.1289-0.050781 4.2188-0.20703 6.2695-0.32812 2.0508-0.10938 4.0508-0.30078 6-0.46094 1.9492-0.14844 3.8398-0.35156 5.6797-0.55078 1.8281-0.17969 3.5977-0.39062 5.3008-0.59766 1.6992-0.20312 3.3281-0.42188 4.8672-0.64062 1.5508-0.21094 3.0117-0.42188 4.3906-0.64062 2.75-0.42188 5.1523-0.83203 7.1211-1.1797 3.9414-0.69922 6.1797-1.1914 6.1797-1.1914s-2.1914 0.69141-6.0586 1.7422c-1.9414 0.51953-4.293 1.1406-7.0117 1.7969-1.3477 0.34375-2.8008 0.69141-4.3281 1.0312-1.5312 0.37109-3.1406 0.73047-4.8203 1.082-1.6914 0.35938-3.4414 0.73828-5.2695 1.0781-1.8203 0.35938-3.7109 0.74219-5.6602 1.0586-1.9531 0.34375-3.9531 0.71094-6.0117 1-2.0508 0.30078-4.1484 0.65234-6.3008 0.90234-4.2891 0.55859-8.75 1.0312-13.309 1.3281-2.2891 0.13281-4.5703 0.33203-6.9297 0.33984-2.332 0.042968-4.7422 0.15234-7 0.0625-2.2891-0.0625-4.5898-0.10938-6.8789-0.16016-1.1133-0.019531-2.2227-0.050781-3.3203-0.070312-1.1133-0.039063-2.2227 0.03125-3.3125 0.039062-1.0977 0.019531-2.1992 0.039063-3.2773 0.070313-1.0898 0.03125-2.1797 0.12109-3.25 0.17969-1.082 0.058594-2.1406 0.12891-3.2031 0.19141-1.0586 0.097656-2.1172 0.19922-3.1602 0.30078-1.0391 0.097656-2.0664 0.20703-3.0898 0.30859-1.0273 0.12891-2.0391 0.25781-3.0391 0.39063-2 0.23047-3.9492 0.53906-5.8398 0.84766-3.7891 0.60156-7.3477 1.3008-10.621 2-6.5469 1.4102-11.918 2.9023-15.609 4.0195-1.8477 0.5625-3.2773 1.0312-4.2383 1.3516-0.94141 0.33203-1.4297 0.5-1.4297 0.5l-3.8516-12.41" fill="#37b63e"/>
 <path d="m1739.8 1113.6c-10.762-2.1172-21.16-5.0469-31.07-8.707h0.83203c8.6484 0 17.988-0.24219 27.867-0.85156 0.46094 3.3086 1.2617 6.5117 2.3711 9.5586m87.711-1.0391c1.5703-4.6797 2.4297-9.6797 2.4297-14.891 0-3.2695-0.33984-6.457-0.98047-9.5391 16.762-5.0312 33.789-11.469 50.711-19.68 2.2305 0.64062 4.5781 0.98047 7.0195 0.98047 11.68 0 21.531-7.8594 24.539-18.59 12.461-7.9297 24.691-16.969 36.52-27.281-20.66 43.359-65.27 76.789-120.24 89" fill="#91191e"/>
 <path d="m1781.1 1117.6c-14.25 0-28.109-1.3906-41.398-4.0117-1.1094-3.0469-1.9102-6.25-2.3711-9.5586 27.371-1.668 58.91-6.1094 91.531-15.91 0.64062 3.082 0.98047 6.2695 0.98047 9.5391 0 5.2109-0.85938 10.211-2.4297 14.891-9 2-18.281 3.4414-27.77 4.25-1.0625-0.57812-2.2812-0.89844-3.5508-0.89844-0.21094 0-0.42188 0.007813-0.64062 0.03125-1.3984 0.12891-2.6719 0.62891-3.7305 1.3984-3.5078 0.16797-7.0508 0.26953-10.621 0.26953" fill="#b0afae"/>
 <path d="m1915.1 856.49c14.082 16.863 25.391 35.672 33.141 54.953 7.7695 19.27 11.961 39 11.961 57.668-0.011718 20.32-4.9102 39.652-13.852 57.332-13.398 26.508-35.949 49.309-64.57 65.48-28.609 16.156-63.227 25.656-100.59 25.656-49.797 0.011719-94.758-16.898-127.06-43.93-16.16-13.52-29.148-29.539-38.09-47.207-8.9414-17.68-13.852-37.012-13.852-57.332 0-18.238 3.9609-37.48 11.32-56.328 7.3594-18.84 18.102-37.281 31.512-53.902 2.5977-3.2305 2.0898-7.9492-1.1289-10.551-3.2305-2.5977-7.9531-2.0898-10.551 1.1328-14.352 17.801-25.852 37.508-33.801 57.867-7.9492 20.363-12.352 41.371-12.352 61.781 0 22.75 5.5312 44.461 15.461 64.102 14.91 29.469 39.66 54.301 70.582 71.77 30.918 17.461 68.059 27.598 107.96 27.598 53.203 0 101.5-18.008 136.69-47.43 17.602-14.707 31.922-32.297 41.852-51.938 9.9375-19.641 15.469-41.352 15.469-64.102-0.011718-20.91-4.6602-42.449-13.039-63.27-8.3828-20.82-20.492-40.93-35.551-58.961-2.6484-3.1797-7.3789-3.5977-10.559-0.94922-3.1836 2.6602-3.6133 7.3906-0.95312 10.559"/>
 <path d="m1775.4 1033.3-0.42188-7.4883 0.29297 5.0898-0.22266-5.0898h-0.070313l0.29297 5.0898-0.22266-5.0898 0.050781 1.0781-0.039063-1.0781h-0.011718l0.050781 1.0781-0.039063-1.0781h-0.17187c-0.70703 0-3.5781-0.082031-7.9297-1.2109-6.5391-1.7109-16.438-5.75-27.688-15.711-11.242-9.9609-23.871-25.918-35.461-51.668-34.23-76.051-58.371-107.2-58.762-107.7l-5.918 4.6133 6.0781-4.3906-3.5781 2.5898 3.5977-2.5703-0.019531-0.019531-3.5781 2.5898 3.5977-2.5703-0.027343-0.03125c-0.25-0.35938-2.7109-3.9492-5.0312-9.25-1.1602-2.6484-2.2812-5.7305-3.1016-9.0195-0.82812-3.3008-1.3398-6.8008-1.3398-10.34 0-4.5117 0.82031-9.0391 2.9102-13.52 2.1133-4.4805 5.5117-9 11.133-13.43 2.9688-2.332 5.7383-3.8594 8.2969-4.8203 2.5625-0.96094 4.9336-1.3594 7.2422-1.3594 2.25 0 4.4688 0.39062 6.7305 1.1484 3.9492 1.332 8.0508 3.8789 12.008 7.3906 5.9609 5.25 11.551 12.602 16.121 20.199 4.582 7.6016 8.1719 15.449 10.41 21.582 1.082 2.957 2.4297 7.0586 3.9805 11.867 2.7109 8.4414 6.0391 19.133 9.8594 30.453 2.8711 8.5 6.0117 17.359 9.4102 25.938 2.5391 6.4414 5.2305 12.73 8.0508 18.602 4.25 8.8203 8.7578 16.699 13.84 22.93 2.5586 3.1211 5.2578 5.8281 8.3281 8 1.5312 1.0781 3.1523 2.0078 4.9023 2.75 1.7383 0.73047 3.5977 1.2695 5.5391 1.5 0.60938 0.078125 1.2109 0.10938 1.8086 0.10938 1.6133 0 3.1602-0.26172 4.6133-0.67969 2.8086-0.83984 5.2383-2.2695 7.5-3.9805 2.1094-1.6211 4.0977-3.5312 6.0391-5.6797 3.6406-4.0312 7.1484-8.9492 10.66-14.531 6.1172-9.75 12.18-21.551 17.898-33.848 8.5703-18.422 16.359-37.941 22.031-52.891 5.668-14.949 9.1992-25.32 9.2188-25.371l-7.0898-2.4297 6.9414 2.8516-4.0508-1.6602 4.0391 1.668 0.011719-0.007813-4.0508-1.6602 4.0391 1.668 0.039063-0.089844c0.22266-0.51953 1.332-3.0781 3.2734-6.5781 1.4492-2.6211 3.3594-5.7695 5.668-8.9727 3.4609-4.8086 7.8594-9.6992 12.781-13.199 2.457-1.75 5.0508-3.168 7.7188-4.1289 2.6797-0.96875 5.4492-1.5117 8.4219-1.5117 2.3789 0 4.918 0.35156 7.668 1.1719 2.7617 0.82812 5.7422 2.1289 8.9688 4.0898 2.9922 1.8086 5.3828 3.7109 7.293 5.6406 2.8672 2.8984 4.6875 5.8594 5.8789 8.957 1.1797 3.0938 1.6992 6.3633 1.6992 9.8008 0.011719 4.5703-0.96094 9.4297-2.5078 14.121-2.3125 7.0508-5.9336 13.68-8.9609 18.449-1.5117 2.3906-2.8789 4.3203-3.8398 5.6211-0.48047 0.66016-0.87109 1.1602-1.1211 1.4805-0.12891 0.16016-0.21875 0.27734-0.28125 0.35938l-0.058594 0.070313-0.011719 0.007812 2.6133 2.1328-2.6016-2.1406-0.011719 0.007812 2.6133 2.1328-2.6016-2.1406-0.12109 0.14844-0.11719 0.15234c-0.082031 0.11719-8.7305 11.77-18.742 28.008-5.0078 8.1328-10.359 17.402-15.16 27-4.7891 9.6016-9.0508 19.512-11.84 29.062-2.4883 8.5586-5.8398 17.719-10.281 26.66-6.6602 13.43-15.75 26.34-28.008 36.328-6.1406 4.9883-13.07 9.2812-20.969 12.59-7.9102 3.3203-16.793 5.6602-26.871 6.6992l0.76953 7.4609-0.42188-7.4883 0.42188 7.4883 0.76953 7.4609c15.301-1.582 28.629-5.8711 40.051-12.051 8.5586-4.6289 16.051-10.309 22.559-16.629 9.7695-9.4805 17.34-20.383 23.23-31.48 5.8906-11.109 10.109-22.422 13.152-32.84 2.4062-8.2812 6.3281-17.492 10.859-26.551 6.7969-13.602 14.969-26.871 21.418-36.68 3.2227-4.9102 6.0117-8.9609 7.9922-11.762 0.98828-1.4102 1.7773-2.5 2.3203-3.2383 0.25781-0.37109 0.46875-0.64844 0.59766-0.83984 0.070313-0.089844 0.12109-0.16016 0.16016-0.19922l0.03125-0.050781 0.007813-0.011719-6.0195-4.4688 5.7891 4.7695c0.19141-0.25 5.0625-6.1602 10.023-15.191 2.4766-4.5078 4.9883-9.8086 6.9102-15.629 1.9102-5.8203 3.2578-12.18 3.2578-18.82 0-3.3203-0.33984-6.707-1.1406-10.09-1.1875-5.0703-3.418-10.117-6.8984-14.75-3.4805-4.6289-8.1523-8.8203-14.059-12.391-4.2031-2.5391-8.3516-4.4102-12.441-5.6289-4.0898-1.2188-8.1094-1.8008-11.969-1.8008-4.4531 0-8.6836 0.76172-12.582 2.0703-6.8281 2.2891-12.621 6.1797-17.469 10.539-7.2812 6.5703-12.582 14.25-16.18 20.332-3.5898 6.0898-5.4414 10.602-5.543 10.84l-0.089843 0.21094-0.070313 0.21094-0.027344 0.089844c-0.33203 0.94922-3.3125 9.6172-7.9922 22.066-3.5078 9.3438-7.9805 20.812-12.98 32.73-3.7578 8.9297-7.8164 18.133-12 26.852-3.1289 6.5391-6.3398 12.82-9.5195 18.52-2.3789 4.2812-4.75 8.2188-7.0586 11.699-3.4414 5.2109-6.7812 9.3594-9.5312 11.883-1.3672 1.2695-2.5703 2.1094-3.4102 2.5391-0.41016 0.21875-0.73828 0.33984-0.9375 0.39062-0.21094 0.058594-0.30078 0.058594-0.3125 0.058594v0.10938l0.011718-0.10938h-0.011718v0.10938l0.011718-0.10938c-0.58203-0.070312-1.2891-0.26953-2.2109-0.75-0.84766-0.44922-1.8594-1.1406-2.9609-2.1016-2.0703-1.7891-4.4102-4.5273-6.7773-7.9883-4.1523-6.0508-8.3906-14.281-12.371-23.41-6-13.719-11.488-29.52-16.121-43.691-2.3203-7.0898-4.4297-13.77-6.3008-19.629-1.8672-5.8594-3.5-10.871-4.8984-14.73-1.9688-5.3789-4.7305-11.641-8.1914-18.09-2.5977-4.8281-5.5977-9.7812-8.9883-14.52-5.1016-7.1016-11.039-13.781-18-18.891-3.4805-2.5508-7.2383-4.7109-11.281-6.2383-4.0391-1.5391-8.3906-2.4414-12.898-2.4297-4.1211-0.011719-8.3516 0.75-12.512 2.3086-4.168 1.5703-8.2773 3.9297-12.289 7.0703-7.2695 5.6992-12.328 12.168-15.461 18.871-3.1289 6.6992-4.3281 13.539-4.3203 19.879 0 5.2305 0.79297 10.16 1.9414 14.59 1.7305 6.6484 4.2695 12.23 6.3906 16.211 2.1211 3.9883 3.8281 6.3789 3.9883 6.5977l0.082031 0.11328 0.078125 0.10938 0.24219-0.19141-0.24219 0.19141 0.24219-0.19141-0.24219 0.19141c0.35156 0.44922 23.672 30.77 56.922 104.63 8.1992 18.238 17.078 32.238 25.961 42.98 13.32 16.109 26.668 24.84 37.379 29.418 10.711 4.5898 18.711 5.043 21.418 5.043 0.48047 0 0.80078-0.011718 0.94141-0.023437l0.17188-0.007813 0.16797-0.019531-0.76953-7.4609"/>
 <path d="m1697 806.72h36.211l-17.223 42.133c-1.5703 3.8281 0.26953 8.207 4.1016 9.7773 3.8281 1.5703 8.2109-0.26953 9.7812-4.0977l25.668-62.812h-58.539c-4.1406 0-7.5 3.3594-7.5 7.5 0 4.1523 3.3594 7.5 7.5 7.5"/>
 <path d="m1750.8 916.36 33.5-55.258-57.5-7.9414c-4.0977-0.55859-7.8906 2.3008-8.4492 6.4102-0.57031 4.1016 2.3008 7.8906 6.3984 8.4492l34.891 4.8203-21.668 35.738c-2.1523 3.543-1.0195 8.1523 2.5195 10.301 3.5508 2.1523 8.1602 1.0195 10.309-2.5195"/>
 <path d="m1819 903.6-17.859-35.973 32.34-1.2695c4.1406-0.16797 7.3594-3.6484 7.1992-7.7891-0.16797-4.1406-3.6484-7.3594-7.7891-7.1992l-55.48 2.1797 28.152 56.719c1.8477 3.7109 6.3477 5.2305 10.059 3.3906 3.7109-1.8516 5.2188-6.3516 3.3789-10.059"/>
 <path d="m1842.8 848.72-19.711-45.777 36.77 3.75c4.1211 0.41797 7.8008-2.582 8.2227-6.7031 0.41797-4.1289-2.582-7.8086-6.6992-8.2266l-62.16-6.332 29.797 69.219c1.6406 3.8125 6.0508 5.5625 9.8633 3.9297 3.7969-1.6367 5.5586-6.0469 3.918-9.8594"/>
 <path d="m1746.1 1123.3v0.14062c-0.019531 1.5-0.25 15.09-1.5078 31.957-0.62109 8.4297-1.5 17.68-2.7305 26.613-1.2227 8.9297-2.8008 17.559-4.75 24.617-1.7695 6.4492-3.6016 13.59-5 20.961-1.4023 7.3711-2.3828 14.961-2.3828 22.379 0 5.4102 0.52344 10.742 1.8828 15.852 1.0195 3.8203 2.5195 7.5195 4.668 10.93 1.6094 2.5508 3.582 4.9297 5.9219 7.0195 3.5 3.1289 7.8281 5.5898 12.801 7.1914 4.9766 1.6094 10.609 2.4102 16.93 2.4102 8.2383-0.011719 15.32-0.69141 21.527-2.332 4.6523-1.2305 8.832-3.0195 12.453-5.5195 2.707-1.8594 5.0781-4.1289 7.0273-6.7109 2.9297-3.8789 4.8594-8.3984 6.0312-13.289 1.1797-4.8984 1.6406-10.199 1.6406-16.008 0-6.3125-0.55078-13.211-1.4805-20.871-0.92969-7.6406-2.2305-16.031-3.7812-25.25-4.8906-29.121-7.8281-49.352-9.5391-62.262-0.85937-6.457-1.4102-11.09-1.75-14.09-0.16016-1.5-0.28125-2.5898-0.35156-3.3008-0.027344-0.34766-0.058594-0.60938-0.070312-0.77734l-0.019532-0.17969v-0.042969l-2.1602 0.19141 2.1602-0.19141-2.1602 0.19141 2.1602-0.19141c-0.36719-4.1289-4-7.1797-8.1289-6.8164-4.1289 0.35938-7.1797 4-6.8203 8.1289 0.03125 0.25 2.0508 23.277 11.879 81.82 1.5312 9.1094 2.8125 17.301 3.6914 24.578 0.87891 7.2812 1.3711 13.641 1.3711 19.062 0.007812 5.918-0.58984 10.68-1.7109 14.27-0.83984 2.707-1.9219 4.75-3.2695 6.418-1.0195 1.2617-2.2109 2.332-3.7305 3.3125-2.2695 1.4492-5.332 2.6797-9.4609 3.5391-4.1211 0.85938-9.2773 1.3203-15.508 1.3203-6.0117 0-10.57-0.91016-14-2.293-2.582-1.0469-4.543-2.3477-6.1523-3.8789-1.2109-1.1602-2.2305-2.4492-3.1094-3.9375-1.3203-2.2227-2.3086-4.8906-2.9688-7.9805-0.66016-3.082-0.97266-6.5703-0.97266-10.312 0-6.0898 0.83203-12.828 2.1211-19.578 1.2812-6.7617 3-13.531 4.7188-19.781 2.293-8.3008 3.9727-17.789 5.2812-27.461 1.9414-14.5 3-29.348 3.582-40.629 0.57031-11.281 0.66797-18.961 0.66797-19.039 0.050781-4.1406-3.2578-7.5391-7.4102-7.5898-4.1406-0.050781-7.5391 3.2695-7.5898 7.4102"/>
 <path d="m1754.9 1181.9c-0.30859-0.42188-7-9.6797-19.668-19.051-6.332-4.6797-14.172-9.3906-23.473-12.941-9.2891-3.5508-20.051-5.9297-32.051-5.9297-9.9766 0-20.789 1.6406-32.258 5.5195-11.469 3.8828-23.602 9.9805-36.32 18.832l4.2891 6.1602-3.6875-6.5312c-8.8125 4.9688-16.434 8.1914-22.934 10.148-6.5 1.9727-11.879 2.6836-16.289 2.6836-4.1992 0-7.5391-0.64062-10.219-1.5312-4.0195-1.3516-6.6289-3.2891-8.2617-4.832-0.80859-0.75781-1.3594-1.4297-1.668-1.8398-0.16016-0.20703-0.25-0.34766-0.28906-0.41016l-0.023437-0.027344-3.4297 2.0977 3.5-1.9883-0.070313-0.10938-3.4297 2.0977 3.5-1.9883-14.348-25.18 0.32812 28.98c0 0.29688 0.10156 7.5391 1.9609 18.359 1.3906 8.1094 3.7695 18.238 7.8984 28.961 3.1133 8.0469 7.1914 16.43 12.613 24.508 8.1172 12.129 19.297 23.602 34.457 31.969 7.5703 4.1836 16.113 7.582 25.68 9.9219 9.582 2.3398 20.172 3.6289 31.871 3.6211h1.6601l0.15234-0.011719c32.777-1.5195 54.84-9.2109 68.797-16.809 13.973-7.5898 19.77-15.039 20.32-15.781 2.4805-3.3203 1.8008-8.0195-1.5195-10.5-3.3086-2.4805-8.0078-1.8008-10.488 1.5195l4.3281 3.2422-4.3008-3.293-0.027344 0.050781 4.3281 3.2422-4.3008-3.293 1.1016 0.83984-1.0898-0.85938-0.011718 0.019531 1.1016 0.83984-1.0898-0.85938c-0.050781 0.0625-4.6719 5.9609-16.641 12.25-11.988 6.293-31.391 13.012-61.211 14.41l0.35156 7.4922-0.070312-7.5c-0.46875 0-0.92969 0-1.3906 0.007812-12.57-0.007812-23.41-1.6406-32.82-4.418-8.2305-2.4414-15.367-5.7617-21.617-9.7109-10.934-6.9102-19.191-15.77-25.5-25.32-9.4609-14.32-14.434-30.219-16.941-42.508-1.2617-6.1406-1.9102-11.371-2.25-15.023-0.17188-1.8203-0.26172-3.25-0.30078-4.1992-0.03125-0.48047-0.039063-0.82812-0.039063-1.0586-0.011719-0.10938-0.011719-0.19141-0.011719-0.24219v-0.046876l-0.64844 0.007813 0.64844-0.007813-0.64844 0.007813 0.64844-0.007813-7.0078 0.089844 7.0078-0.082031v-0.007813l-7.0078 0.089844 7.0078-0.082031-7.5 0.082031-6.5195 3.7188c0.37891 0.64844 2.7305 4.6016 8.1094 8.5117 2.6797 1.9492 6.1211 3.8672 10.34 5.2773 4.2305 1.4219 9.2305 2.3203 14.98 2.3125 6.0391 0 12.902-0.98047 20.633-3.3203 7.7266-2.3398 16.34-6.0195 25.957-11.453l0.3125-0.16797 0.28906-0.21094c11.699-8.1406 22.559-13.551 32.559-16.93 9.9922-3.3711 19.121-4.7305 27.449-4.7305 10.023 0 18.902 1.9727 26.703 4.9414 11.68 4.4609 20.879 11.23 27.109 16.898 3.1094 2.8203 5.4688 5.3594 7.0195 7.1602 0.78125 0.89062 1.3516 1.6094 1.7188 2.0703 0.17969 0.23047 0.32031 0.41016 0.39063 0.51172l0.082031 0.10938 0.007812 0.007813 3.1719-2.3086-3.1797 2.2891 0.007812 0.019532 3.1719-2.3086-3.1797 2.2891c2.418 3.3594 7.1094 4.1328 10.469 1.6992 3.3594-2.418 4.1211-7.0977 1.6992-10.457"/>
 <path d="m1809.4 1190.6-2.2422-1.6094 2.2305 1.6289 0.011719-0.019532-2.2422-1.6094 2.2305 1.6289c0.070313-0.10938 6.0703-8.25 16.941-16.148 5.4297-3.9492 12.059-7.8516 19.758-10.75 7.7109-2.8906 16.473-4.8008 26.344-4.8008 8.3164 0 17.449 1.3594 27.449 4.7305 9.9883 3.3789 20.848 8.7891 32.551 16.93l0.28906 0.21094 0.30859 0.16797c9.6211 5.4336 18.23 9.1133 25.961 11.453s14.59 3.3203 20.641 3.3203c5.7383 0.007812 10.738-0.89062 14.969-2.3125 6.3516-2.1211 10.891-5.3711 13.832-8.168 2.9375-2.8008 4.3398-5.1328 4.6172-5.6211l-6.5195-3.7188-7.5-0.082031 6.8516 0.082031-6.8516-0.089844v0.007813l6.8516 0.082031-6.8516-0.089844v0.039063c-0.007812 0.62891-0.19141 7.5781-2.0195 17.539-1.3594 7.4609-3.6484 16.609-7.4297 26.039-2.8398 7.082-6.5117 14.312-11.23 21.141-7.0898 10.262-16.488 19.602-29.168 26.461-12.703 6.8516-28.793 11.289-49.633 11.309-0.46094-0.007812-0.91797-0.007812-1.3906-0.007812l-0.058594 7.5 0.35156-7.4922c-30.781-1.4492-50.461-8.5586-62.34-15.008-5.9414-3.2305-9.9414-6.3125-12.391-8.4922-1.2305-1.0898-2.0703-1.957-2.5703-2.5-0.25-0.27734-0.41016-0.46875-0.49219-0.57031l-0.070313-0.089844-1.0586 0.83203 1.0703-0.8125-0.011719-0.019531-1.0586 0.83203 1.0703-0.8125-3.4805 2.6602 3.4922-2.6367-0.011718-0.023438-3.4805 2.6602 3.4922-2.6367-4.7305 3.5781 4.7383-3.5703-0.007813-0.007812-4.7305 3.5781 4.7383-3.5703-5.918 4.4492 5.9375-4.4297-0.019531-0.019531-5.918 4.4492 5.9375-4.4297c-2.4805-3.3203-7.1797-4-10.5-1.5195s-4 7.1797-1.5195 10.5c0.55078 0.74219 6.3594 8.1914 20.32 15.781 13.961 7.5977 36.02 15.289 68.801 16.809l0.14844 0.011719h1.6601c13.859 0.007812 26.18-1.8008 37.082-5.0312 9.5391-2.8203 17.969-6.7305 25.379-11.41 12.969-8.1914 22.73-18.719 30-29.738 10.91-16.551 16.328-34.211 19.121-47.762 2.7695-13.551 2.8984-23.051 2.8984-23.398l0.33203-28.98-14.34 25.18 2.9688 1.6992-2.9023-1.8203-0.066406 0.12109 2.9688 1.6992-2.9023-1.8203c-0.019531 0.03125-1.418 2.2422-4.5664 4.3516-1.582 1.0586-3.6016 2.1172-6.1914 2.9297-2.5898 0.80859-5.7695 1.3711-9.6992 1.3711-4.4219 0-9.8008-0.71094-16.301-2.6836-6.5-1.957-14.121-5.1797-22.93-10.148l-3.6797 6.5312 4.2773-6.1602c-12.707-8.8516-24.848-14.949-36.316-18.832-11.473-3.8789-22.281-5.5195-32.25-5.5195-12.012 0-22.773 2.3789-32.062 5.9297-13.949 5.332-24.609 13.242-31.84 19.812-7.2383 6.5781-11.07 11.859-11.301 12.18-2.418 3.3594-1.6602 8.0391 1.7031 10.457 3.3672 2.4336 8.0469 1.6602 10.469-1.6992"/>
 <path d="m1886.6 1069.4c-2.4414 0-4.7891-0.33984-7.0195-0.98047 10.598-5.1484 21.16-10.988 31.559-17.609-3.0078 10.73-12.859 18.59-24.539 18.59" fill="#b0afae"/>
</svg>
