<svg width="200" height="200" version="1.1" viewBox="829 1431 558 577" xmlns="http://www.w3.org/2000/svg">
<defs>
 </defs>
<g>
  <path d="m1279.3 1964.5c-38.609 13.898-73.168 10.07-102.7-11.371-1.3594-0.98828-2.6797-1.9883-3.9609-3.0195-11.129-8.8516-19.109-18.551-23.98-25.391 36.832-7.3906 58.32-23.078 65.371-47.73 5.9219 0.011719 18.309 1.3594 37.969 9.6602 7.1797 3.0312 15.34 7 24.512 12.172 14.211 8.0078 22.449 18.008 24.48 29.719 2.668 15.352-6.4492 30.469-21.691 35.961" fill="#9c6b36"/>
  <g fill="#0f0e0c">
   <path d="m910.19 1952.7 3.418-6.6836c-9.0117-4.6094-16.598-9.5898-22.895-14.809-9.4453-7.8281-15.98-16.148-20.191-24.66-4.207-8.5195-6.125-17.258-6.1289-26.141 0-10.949 2.9688-22.148 8.5117-32.98 2.8516-5.5781 6.1523-10.59 9.8555-14.949 5.5586-6.5508 12.008-11.66 19.387-15.168 7.3789-3.5 15.723-5.4414 25.266-5.4531 6.7812 0 14.164 1 22.168 3.1719s16.621 5.5312 25.828 10.238c21.605 11.051 40.254 26.703 53.293 43.5 6.5195 8.3906 11.652 17.062 15.102 25.512 3.4609 8.4609 5.2305 16.672 5.2305 24.191-0.011719 6.7305-1.3828 12.879-4.25 18.5-2.2109 4.3203-5.2031 8.0898-8.9414 11.41-5.6016 4.957-12.949 8.8594-21.648 11.508-8.6914 2.6406-18.711 4.0117-29.453 4.0117-11.211 0-23.199-1.4922-35.277-4.4727-12.082-2.9883-24.254-7.4688-35.855-13.41l-3.418 6.6836-3.418 6.6797c12.668 6.4766 25.902 11.348 39.094 14.609 13.191 3.2578 26.344 4.9102 38.875 4.9102 16-0.011719 31.023-2.6797 43.801-8.3711 6.3906-2.8516 12.211-6.4688 17.242-10.922 5.0273-4.4492 9.25-9.7383 12.348-15.809 4.0508-7.8906 5.9102-16.531 5.9023-25.328 0-9.8711-2.293-19.941-6.3398-29.863-6.1016-14.879-16.16-29.469-29.062-42.668-12.918-13.18-28.703-24.961-46.391-34.02-10.008-5.1211-19.582-8.8789-28.727-11.371-9.1406-2.4805-17.855-3.6914-26.102-3.6914-7.7305 0-15.055 1.0703-21.871 3.1211-10.23 3.0703-19.301 8.3516-26.984 15.312-7.6914 6.957-14.016 15.559-19.008 25.309-6.457 12.609-10.156 26.141-10.156 39.809 0 7.3828 1.082 14.793 3.3594 22.043 3.418 10.887 9.5352 21.398 18.488 31 8.957 9.6172 20.727 18.348 35.531 25.93l3.418-6.6797"/>
   <path d="m985.01 1793.6 1.1172 7.4102c26.199-3.9531 67.301-8.4336 109.62-8.4219 23.301 0 46.969 1.3594 68.672 4.8516 21.688 3.4805 41.379 9.1367 56.656 17.398l0.23047 0.12891 0.24219 0.10938c19.09 8.6328 37.621 11.523 53.738 11.512 13.73 0 25.73-2.0703 35.02-4.4609 17.48-4.4883 32.922-15.109 42.992-30.277 3.6211-5.4609 7.0273-11.941 9.5391-19.41 2.5117-7.4609 4.1016-15.93 4.1016-25.262 0-7.25-0.96094-15.008-3.1406-23.219-2.1914-8.2109-5.5898-16.859-10.461-25.93-9.5391-17.781-18.5-30.18-26.871-40.242-6.2695-7.5508-12.168-13.758-17.707-19.969-8.3008-9.332-15.84-18.621-23.562-33.172-7.7109-14.527-15.551-34.398-23.758-64.41l-7.2422 1.9805 7.2812-1.8086c-4.1094-16.449-11.281-30.32-20.309-41.73-6.7617-8.5586-14.551-15.75-22.844-21.719-12.438-8.9492-25.977-15.172-39.078-19.281-13.102-4.1016-25.75-6.0898-36.578-6.4805-2.7734-0.097657-5.6602-0.16016-8.6602-0.16016-9.2617 0-19.551 0.58984-30.383 2.5625-16.25 2.9375-33.75 9.0195-50.641 20.738-16.898 11.711-33.09 29.012-46.938 53.961-18.949 34.109-41.816 64.301-59.918 85.891-9.0508 10.797-16.91 19.449-22.488 25.379-2.7891 2.9688-5.0078 5.2578-6.5234 6.8008-0.75391 0.76953-1.3359 1.3477-1.7227 1.7305-0.19531 0.19922-0.33984 0.33984-0.43359 0.42969l-0.10156 0.10938-0.023437 0.019531h-0.003906l5.2383 5.3711-4.9766-5.6094c-0.25 0.22656-10.48 9.2891-20.875 23.457-5.1953 7.0898-10.441 15.461-14.453 24.75-4.0039 9.2812-6.7969 19.531-6.8047 30.293-0.003906 6.6875 1.1016 13.566 3.6602 20.348 2.5508 6.7812 6.5508 13.43 12.148 19.699l-0.027344-0.027344c6.3125 7.1289 14.352 13.25 22.609 18.527 17.465 11.16 37.676 16.801 58.109 16.801 5.5547 0 11.125-0.41797 16.664-1.2578l-1.1172-7.4102-1.1172-7.4219c-4.8008 0.73047-9.625 1.0898-14.43 1.0898-17.68-0.007812-35.07-4.8789-50.035-14.441-7.5156-4.7891-14.559-10.27-19.434-15.809l-0.027344-0.03125c-4.4688-5.0195-7.4219-10.02-9.3086-15.008-1.8789-4.9922-2.6914-10-2.6953-15.059-0.003906-8.1211 2.1523-16.434 5.5742-24.352 5.1172-11.879 13.055-22.781 19.711-30.57 3.3242-3.8984 6.3203-7.0312 8.4648-9.1719 1.0703-1.0664 1.9297-1.8867 2.5078-2.4297 0.28906-0.26953 0.50781-0.46875 0.64844-0.59766l0.15234-0.12891 0.027343-0.03125-0.41016-0.46094 0.41016 0.46094-0.41016-0.46094 0.41016 0.46094 0.13281-0.12109 0.12891-0.12109c0.13672-0.13672 13.793-13.469 32.316-35.57 18.523-22.109 41.922-52.957 61.531-88.238 8.5898-15.469 17.949-27.469 27.641-36.801 14.527-14 29.801-22.09 44.73-26.801 14.93-4.6992 29.547-5.957 42.48-5.9492 2.7891 0 5.5 0.050782 8.1172 0.15234 8.3594 0.28906 18.34 1.7305 28.73 4.6367 15.582 4.3711 32.039 12.043 45.781 23.883 6.8789 5.918 13.098 12.879 18.27 21.027 5.168 8.1523 9.3086 17.5 12.02 28.301l0.019531 0.082032 0.019531 0.089844c7.4805 27.301 14.762 46.859 22.18 62 5.5703 11.34 11.223 20.188 16.941 27.758 4.2891 5.6914 8.6016 10.641 12.91 15.441 6.4805 7.1914 12.922 14 19.648 22.551 6.7305 8.5586 13.801 18.891 21.473 33.168 4.3672 8.1328 7.3203 15.691 9.1797 22.691s2.6406 13.43 2.6406 19.359c0 7.6289-1.293 14.43-3.3203 20.492-2.0312 6.0469-4.8203 11.359-7.8203 15.887-7.9297 11.941-20.191 20.441-34.23 24.043-8.3008 2.1367-19.07 4-31.281 3.9883-14.348 0-30.66-2.5391-47.551-10.18l-3.0898 6.8281 3.5625-6.5977c-17.48-9.4102-38.641-15.332-61.41-19.012-22.77-3.6602-47.172-5.0391-71.051-5.0391-43.371 0-85.039 4.5508-111.86 8.5898l1.1172 7.4219"/>
   <path d="m1129.6 1922.7c0.12891 0.23828 2.2695 4.3281 6.5391 10.367 6.4219 9.0703 17.602 22.57 34.113 33.961 8.25 5.6914 17.84 10.84 28.789 14.57 10.938 3.7305 23.238 6.0195 36.82 6.0195 14.719 0 30.91-2.6914 48.48-9.0195 9.5469-3.4414 17.547-9.6406 23.168-17.469 5.6211-7.8203 8.9023-17.32 8.9023-27.312 0-2.5977-0.22266-5.2305-0.68359-7.8477-1.1992-6.9531-4.0586-14.262-9.2383-21.16-5.1719-6.9102-12.57-13.391-22.66-19.07-18.039-10.172-32.75-16.102-44.352-19.492-11.598-3.3906-20.098-4.2305-25.648-4.2305-4.6016 0-7.168 0.58203-7.7812 0.74219l3.7695 14.508-1.1367-4.3984 1.0078 4.4414 0.12891-0.042969-1.1367-4.3984 1.0078 4.4414-0.21875-0.97266 0.21094 0.97266h0.007813l-0.21875-0.97266 0.21094 0.97266 0.046875-0.011719c0.28125-0.050781 1.6211-0.28125 4.1016-0.28125 4.0312 0 11.09 0.60156 21.441 3.6328 10.359 3.0273 24.02 8.4805 41.199 18.16 8.5898 4.8477 14.258 9.9805 18.008 14.988 3.7422 5.0117 5.6328 9.9297 6.4727 14.73 0.30859 1.7812 0.46094 3.5391 0.46094 5.2891 0 6.6914-2.1914 13.141-6.082 18.562-3.8906 5.4102-9.4414 9.7188-16.07 12.109-16.098 5.7891-30.508 8.1289-43.398 8.1289-15.852 0-29.441-3.5312-41.102-8.8398-8.7305-3.9805-16.359-8.9805-22.898-14.262-9.8008-7.918-17.133-16.469-21.949-23-2.4102-3.2695-4.2031-6.0195-5.3711-7.9297-0.58203-0.94922-1.0117-1.6875-1.2812-2.1797-0.12891-0.23828-0.23047-0.41797-0.28906-0.52734l-0.058594-0.11328-0.011719-0.007812-1.2305 0.64844 1.2305-0.64844-1.2305 0.64844 1.2305-0.64844-4.8008 2.5078 4.8125-2.5-0.011719-0.007812-4.8008 2.5078 4.8125-2.5-13.312 6.9336"/>
  </g>
  <path d="m1044.8 1936.9c-6.043 11.797-18.25 20.129-35.082 24.168-4.8984 1.1797-10.187 1.9922-15.828 2.4219-25.441 1.9375-54.699-4.4532-80.262-17.543-24.289-12.43-39.809-28.168-46.129-46.789-3.5117-10.348-4.0195-21.391-1.5703-32.621 1.3789-6.3593 3.7188-12.789 6.9883-19.18 12.121-23.668 30.742-35.68 54.273-35.68 14.367 0 30.566 4.4804 48.238 13.52 25.559 13.09 47.852 33.082 61.16 54.852 13.09 21.422 16.008 41.609 8.211 56.852" fill="#9d6b37"/>
  <path d="m1200.6 1868.6h-0.02c-2.8281 14.891-12.691 35.582-65.398 43.203-11.223 1.6171-24.043 2.5781-38.113 2.8476-3.6289 0.07-7.1484 0.043-10.559-0.07-8.25-0.2773-15.848-1.0977-22.75-2.4375-1.2109-12.652-6.0312-26.16-14.398-39.852-8.9023-14.559-21.371-28.359-36.02-40.16 0.09-0.5313 0.1875-1.0586 0.289-1.5899 1.2891-7.0078 3.0196-13.48 4.7813-19 0.1172-0.3906 0.25-0.7695 0.3672-1.1484 1.5117-4.6211 3.0117-8.5195 4.2109-11.422 0.4219-0.9804 0.8008-1.8594 1.1289-2.5976 44.531-4.3907 114.93-7.7305 166.92 6.7773 0.6211 2.3399 1.2578 4.7109 1.918 7.1719 0.3515 1.3008 0.7031 2.5976 1.0507 3.9101 5.0313 18.777 9.6993 37.918 6.5899 54.367" fill="#dda688"/>
  <path d="m1340.8 1783.6c-4.1406 6.2305-9.461 11.551-15.652 15.723-5.5703 3.7578-11.848 6.5898-18.578 8.3203-18.91 4.8593-47.871 7.7265-78.602-6.0899-28.41-15.25-70.668-23.281-125.6-23.891-31.121-0.3203-60.891 1.8203-83.711 4.1875l-0.012-0.02c-0.2382 0.02-0.4687 0.051-0.6992 0.09-14.93 1.5703-26.828 3.2109-34.059 4.3008-4.8203 0.7305-9.6602 1.0898-14.449 1.0898-17.812 0-35.16-4.9609-50.012-14.441-8.3281-5.3164-14.871-10.637-19.461-15.84-8.7305-9.7969-12.629-20.527-11.93-32.816 1.9102-32.934 36.66-64.223 37.012-64.531l0.25781-0.2422c2.2422-2.1875 55.211-54.258 93.852-123.81 36.031-64.859 87.441-70.668 122.97-69.398 31.98 1.1367 90.043 18.82 104.8 77.848l0.039 0.1718c16.32 59.609 32.051 82.391 48.391 101.1 2.4804 2.832 4.9687 5.5703 7.4804 8.332 11.582 12.738 23.551 25.91 37.281 51.488 19.5 36.293 11.129 62.68 0.6797 78.43" fill="#cb6333"/>
  <g fill="#fff">
   <path d="m985.26 1715.9 24.977 31.66c-11.941 2.2109-22.078 4.5312-30.039 6.5507l5.0625-38.211"/>
   <path d="m1242.7 1760.5 36.777-27.77-8.2305 38.812c-9.5078-4.1407-19.039-7.8125-28.547-11.043"/>
   <path d="m1024.6 1634.3c1.7227-17.082 8.1602-32.59 18.133-43.691 8.6993-9.668 19.141-14.867 29.699-14.867 1.0781 0 2.1484 0.047 3.2187 0.1602 24.672 2.4765 41.902 32.707 38.41 67.387-1.711 17.082-8.1485 32.59-18.117 43.691-9.5821 10.648-21.262 15.879-32.934 14.711-11.648-1.1718-22.066-8.6211-29.34-20.973-7.5586-12.859-10.777-29.34-9.0703-46.418"/>
   <path d="m1163.8 1596.9c7.2696-12.352 17.688-19.801 29.34-20.969 1.0781-0.1133 2.1601-0.1602 3.2382-0.1602 23.391 0 44.48 25.398 47.809 58.559 3.4805 34.68-13.75 64.91-38.41 67.391-11.648 1.168-23.34-4.0625-32.93-14.711-9.9688-11.102-16.398-26.609-18.117-43.691-1.7226-17.078 1.5-33.559 9.0703-46.418"/>
  </g>
  <path d="m1086.5 1914.6c-8.25-0.2773-15.848-1.0977-22.75-2.4375-1.2109-12.652-6.0312-26.16-14.398-39.852-8.9023-14.559-21.371-28.359-36.02-40.16 0.09-0.5391 0.1875-1.0586 0.289-1.5899l0.039-0.1797c0.1289-0.6992 0.2617-1.3984 0.3984-2.0781 0.051-0.2617 0.1016-0.5117 0.1524-0.7617 0.1211-0.5781 0.2382-1.1602 0.3711-1.7305 0.078-0.3476 0.1484-0.6914 0.2265-1.039 0.1133-0.4922 0.2227-0.9688 0.3321-1.4492 0.1015-0.4219 0.2109-0.8399 0.3085-1.2618 0.1016-0.3984 0.1915-0.8086 0.3008-1.1992 0.1211-0.4922 0.2422-0.9609 0.3711-1.4414 0.078-0.3281 0.168-0.6601 0.2578-0.9805 0.1407-0.539 0.293-1.0586 0.4414-1.5898 0.07-0.2578 0.1407-0.5195 0.2188-0.7773 0.1601-0.5821 0.332-1.1524 0.5-1.7227 0.062-0.1875 0.1211-0.3867 0.1719-0.5781 0.2304-0.75 0.4609-1.4922 0.6914-2.211 0.1172-0.3906 0.25-0.7695 0.3672-1.1484 0.2226-0.6719 0.4296-1.3125 0.6523-1.9492 0.098-0.3008 0.207-0.5938 0.3086-0.8906 0.1094-0.3204 0.2187-0.6329 0.3281-0.9297 0.1211-0.3399 0.2305-0.6797 0.3516-1.0118 0.09-0.2304 0.1719-0.4492 0.25-0.6679 0.1992-0.5625 0.4101-1.1133 0.6094-1.6406 0.1093-0.293 0.2226-0.5899 0.332-0.8829 0.078-0.1875 0.1484-0.3671 0.2187-0.5586 0.3985-1.0117 0.7696-1.9492 1.1211-2.8007l0.01-0.01c0-0.012 0-0.012 0.012-0.02 0-0.023 0.01-0.043 0.019-0.062h0.012c0.1289-0.3086 0.25-0.6094 0.3789-0.8984 0.2578-0.6211 0.5078-1.1914 0.7383-1.6992 0.2617-0.031 0.5313-0.051 0.8008-0.082 0.1289-0.01 0.25-0.02 0.3789-0.039h0.012c19.949-1.9297 44.918-3.6407 71.031-3.6407h0.02 0.019c32.098 0 65.938 2.5821 94.328 10.449 0.1093 0.031 0.2226 0.062 0.332 0.09 0.6211 2.3399 1.2578 4.7109 1.918 7.1719 0.3515 1.3008 0.7031 2.5976 1.0507 3.9101-31.809-6.25-66.34-9.8398-97.52-9.8398-18.102 0-35.07 1.207-49.719 3.8086-5.1094 0.9101-9.6602 3.6719-10.871 8.7187l-0.2383 0.9805c-1.2813 5.332 0.1094 10.961 3.7578 15.051 17.992 20.211 39.102 49.359 47.09 81.629" fill="#ae836c"/>
  <path d="m1012.8 1948.4c-0.9805 7.8125-7.2109 13.891-15.023 14.762-1.2891 0.1484-2.5976 0.2695-3.9258 0.3711-25.441 1.9375-54.699-4.4532-80.262-17.543-24.289-12.43-39.809-28.168-46.129-46.789-1.5352-4.5273-2.4961-9.1875-2.8867-13.938-0.91016-11.051 6.8203-20.992 17.688-23.203 15.871-3.2305 34.902-3.7383 55.059 2.9805 53.219 17.742 72.898 54.742 72.898 54.742s4.5508 13.02 2.582 28.617" fill="#815835"/>
  <path d="m1252 1886.6c-17.277 42.781-52.277 58.16-79.359 63.461-11.129-8.8515-19.109-18.551-23.98-25.391 36.832-7.3906 58.32-23.078 65.371-47.73 5.9219 0.012 18.309 1.3594 37.969 9.6602" fill="#815835"/>
  <path d="m1340.8 1783.6c-4.1406 6.2305-9.461 11.551-15.652 15.723 9.9219-58.192-18.32-128.59-29.789-153.97 2.4804 2.832 4.9687 5.5703 7.4804 8.332 11.582 12.738 23.551 25.91 37.281 51.488 19.5 36.293 11.129 62.68 0.6797 78.43" fill="#ab502e"/>
  <g fill="#100e0c">
   <path d="m1190 1799c2.4492 9.6406 5.3906 19.672 7.6797 29.59 2.3086 9.9102 3.9414 19.703 3.9414 28.672 0 3.9492-0.3125 7.7383-1 11.328l7.3672 1.4024v-7.5h-6.2188l-1.1602 6.0976c-0.9609 5.0235-2.6093 9.6524-5.1992 13.961-1.9414 3.2304-4.4023 6.289-7.5898 9.1992-4.7695 4.3633-11.18 8.4023-19.801 11.84-8.6211 3.4414-19.43 6.2735-32.809 8.2032-10.941 1.5781-23.582 2.5703-38.113 2.8476h0.012c-1.3593 0.031-2.6992 0.043-4.0195 0.043-13.73 0-25.219-1.3633-34.73-3.7305l-3.6093 14.559c10.941 2.7188 23.621 4.1719 38.34 4.1719 1.4102 0 2.8399-0.012 4.2891-0.043h0.012c15.051-0.2891 28.289-1.3203 39.969-3.0078 12.699-1.832 23.539-4.4609 32.809-7.8203 6.961-2.5195 13.031-5.4492 18.301-8.7891 7.9024-5 14-10.941 18.402-17.543 4.4101-6.5899 7.0898-13.77 8.4765-21.09l-7.3672-1.3984v7.5h6.2305l1.1484-6.1094c0.8907-4.6602 1.2618-9.3906 1.2618-14.121-0.012-10.762-1.9024-21.578-4.3203-32.059-2.4297-10.473-5.4102-20.621-7.7618-29.891l-14.539 3.6875"/>
   <path d="m1018.7 1781.8c-0.8516 0.082-1.5 0.2695-2.0118 0.4726-1.0078 0.3985-1.5195 0.7891-1.9101 1.0664-0.3672 0.3008-0.5977 0.5235-0.7774 0.711-0.3593 0.3593-0.5312 0.5898-0.6718 0.7695-0.2696 0.3633-0.3985 0.582-0.5274 0.7812-0.2422 0.3907-0.4101 0.7188-0.6211 1.1016-0.3711 0.707-0.789 1.5586-1.2812 2.6172-1.6992 3.6914-4.211 9.8125-6.6875 17.582-2.4805 7.7578-4.9063 17.148-6.336 27.328l14.855 2.082c1.6602-11.879 4.9297-22.922 7.8203-30.902 1.4492-3.9882 2.7969-7.2187 3.7774-9.3789 0.4922-1.0703 0.8906-1.8906 1.1211-2.3203 0.051-0.1094 0.1015-0.1875 0.1211-0.2383l0.019-0.031v-0.01l-4.0196-2.4024 3.7579 2.8008c0.2226-0.3008 0.25-0.3711 0.2617-0.3984l-4.0196-2.4024 3.7579 2.8008-5.5977-4.1719 4.8867 4.9727c0.4414-0.4297 0.5821-0.6406 0.711-0.8008l-5.5977-4.1719 4.8867 4.9727-5.1562-5.25 4.0586 6.1484c0.5781-0.3906 0.8711-0.6797 1.0976-0.8984l-5.1562-5.25 4.0586 6.1484-4.1094-6.2187 2.8984 6.8594c0.5391-0.2188 0.9102-0.4493 1.211-0.6407l-4.1094-6.2187 2.8984 6.8594-2.9101-6.8789 0.6992 7.4375c0.9609-0.09 1.6719-0.3282 2.2109-0.5586l-2.9101-6.8789 0.6992 7.4375-1.3984-14.93"/>
   <path d="m963.44 1769.3 0.0312-0.012c1.5391-0.5312 61.531-20.559 141.6-20.551 52.398 0 113.35 8.5625 172.29 36.562 2.5 1.1875 5.4803 0.1289 6.6601-2.3711 1.1914-2.4883 0.1289-5.4805-2.3711-6.6602-60.648-28.809-123.11-37.52-176.58-37.531-83.031 0.019-144.53 20.992-144.86 21.102-2.6133 0.8906-4.0117 3.7305-3.1172 6.3399 0.89062 2.6211 3.7305 4.0117 6.3438 3.1211"/>
   <path d="m979.21 1761.5 6.0469-45.633 30.168 38.242c1.7109 2.1602 4.8594 2.5273 7.0312 0.8203 2.1602-1.7109 2.5274-4.8516 0.8203-7.0195l-37.496-47.531c-1.2461-1.5703-3.3164-2.25-5.25-1.7187-1.9375 0.5273-3.3711 2.1797-3.6328 4.1679l-7.6016 57.352c-0.36328 2.7383 1.5625 5.25 4.3008 5.6172 2.7383 0.3633 5.25-1.5703 5.6133-4.2969"/>
   <path d="m1235.1 1766.2 44.391-33.52-9.5079 44.852c-0.5703 2.6992 1.1602 5.3516 3.8594 5.918 2.6992 0.582 5.3516-1.1485 5.9297-3.8477l12.281-57.941c0.4296-2.039-0.4532-4.1406-2.211-5.25-1.75-1.1211-4.0312-1.0273-5.6914 0.2227l-55.07 41.59c-2.207 1.6602-2.6367 4.7891-0.9805 7 1.6602 2.1992 4.8008 2.6367 7 0.9766"/>
   <path d="m1119 1643.8-4.9804-0.5c-1.6875 16.953-8.0703 31.812-16.859 42.23-4.3789 5.2109-9.3594 9.3203-14.602 12.09-5.25 2.7813-10.75 4.2422-16.367 4.2422-1.0703 0-2.1406-0.051-3.2226-0.1602-5.4375-0.5507-10.488-2.4296-15.117-5.4921-6.9414-4.5704-12.902-11.848-17.102-21.02-4.1992-9.1601-6.6406-20.168-6.6289-32.02 0-2.9102 0.1407-5.8711 0.4375-8.8594 1.7032-16.949 8.0821-31.809 16.863-42.23 4.3867-5.2109 9.3594-9.3203 14.609-12.09 5.25-2.7812 10.75-4.2383 16.359-4.2383 1.0703 0 2.1484 0.047 3.2187 0.1602 5.4414 0.5469 10.5 2.4297 15.133 5.4883 6.9297 4.5703 12.887 11.852 17.098 21.02 4.1992 9.1601 6.6289 20.172 6.6289 32.02 0 2.9102-0.1485 5.8711-0.4492 8.8594l4.9804 0.5 4.9688 0.5c0.3398-3.3281 0.5-6.6172 0.5-9.8594-0.01-17.609-4.7695-33.789-13.109-46.129-4.168-6.1719-9.25-11.391-15.109-15.262-5.8593-3.8672-12.508-6.3789-19.641-7.0898-1.4101-0.1407-2.8203-0.2071-4.2187-0.2071-7.3711 0-14.52 1.9375-21.039 5.3985-9.8008 5.1914-18.242 13.73-24.621 24.418-6.3711 10.711-10.699 23.621-12.121 37.742-0.3281 3.3203-0.4883 6.6211-0.4883 9.8594 0 17.609 4.7696 33.789 13.109 46.129 4.1719 6.1719 9.25 11.391 15.109 15.262 5.8515 3.8711 12.5 6.3789 19.629 7.0899 1.4101 0.1406 2.8203 0.2109 4.2226 0.2109 7.3789 0 14.52-1.9414 21.051-5.4023 9.7891-5.1875 18.238-13.73 24.617-24.418 6.3711-10.711 10.691-23.621 12.109-37.742l-4.9688-0.5"/>
   <path d="m1110.1 1621.5c-1.543 15.32-11.883 26.82-23.09 25.691-11.223-1.1289-19.062-14.461-17.52-29.77 1.5391-15.309 11.867-26.809 23.09-25.691 11.207 1.1328 19.059 14.461 17.52 29.77"/>
   <path d="m1155.9 1621.5c1.539 15.32 11.879 26.82 23.09 25.691 11.219-1.1289 19.059-14.461 17.52-29.77-1.543-15.309-11.871-26.809-23.09-25.691-11.211 1.1328-19.062 14.461-17.52 29.77"/>
   <path d="m1149.7 1643.8-4.9726 0.5c1.9023 18.832 8.9336 35.512 19.16 47.672 5.1133 6.0781 11.043 11.031 17.57 14.488 6.5312 3.4609 13.672 5.4023 21.051 5.4023 1.4024 0 2.8086-0.07 4.2188-0.2109 7.1328-0.711 13.781-3.2188 19.633-7.0899 8.8008-5.8203 15.828-14.621 20.68-25.199 4.8476-10.582 7.539-22.98 7.5508-36.191 0-3.2383-0.1719-6.5313-0.5-9.8594-1.9024-18.832-8.9297-35.512-19.16-47.672-5.1133-6.0781-11.051-11.027-17.582-14.488-6.5196-3.461-13.668-5.3985-21.039-5.3985-1.3984 0-2.8086 0.066-4.2187 0.2071-7.1328 0.7109-13.781 3.2226-19.641 7.0898-8.789 5.8203-15.82 14.621-20.672 25.203-4.8477 10.578-7.5508 22.977-7.5508 36.188 0 3.2422 0.1719 6.5313 0.5 9.8594l4.9726-0.5 4.9805-0.5c-0.3008-2.9883-0.4531-5.9492-0.4531-8.8594-0.01-15.801 4.3398-30.109 11.402-40.527 3.5196-5.2227 7.711-9.461 12.328-12.512 4.6406-3.0586 9.6914-4.9414 15.133-5.4883 1.0781-0.1133 2.1484-0.1602 3.2187-0.1602 5.6094 0 11.121 1.4571 16.371 4.2383 7.8594 4.1484 15.117 11.328 20.699 20.699 5.5899 9.3711 9.4805 20.91 10.758 33.621 0.3008 2.9883 0.4532 5.9492 0.4532 8.8594 0 15.801-4.3399 30.109-11.402 40.531-3.5195 5.2188-7.7109 9.461-12.34 12.508-4.6289 3.0625-9.6797 4.9414-15.121 5.4921-1.0781 0.1094-2.1485 0.1602-3.2188 0.1602-5.6093 0-11.121-1.4609-16.371-4.2422-7.8593-4.1601-15.117-11.328-20.699-20.699-5.5898-9.3711-9.4883-20.91-10.758-33.621l-4.9805 0.5"/>
   <path d="m1115.5 1562.3s-0.1797 0.4922-0.5196 1.4023c-0.3281 0.8867-0.75 2.2305-1.1914 3.918-0.4062 1.6992-0.7968 3.7812-1.0078 6.1406-0.2305 2.3711-0.2617 5.0313-0.02 7.8789 0.09 0.7109 0.1289 1.4414 0.2383 2.1719l0.082 0.5508 0.019 0.1367v0.043c0 0.027-0.012-0.2032 0-0.082l0.01 0.07 0.062 0.3008c0.07 0.3985 0.1407 0.8008 0.2188 1.211 0.2617 1.7304 0.6484 3.0273 1.0703 4.539 0.8789 3.0703 2.2305 6.1211 3.9688 8.961 0.4296 0.707 0.9531 1.3593 1.4023 2.0585 0.5 0.6485 1.0273 1.2813 1.5508 1.9297 1.1289 1.1797 2.2969 2.3399 3.5898 3.25l0.9688 0.6914 1.0078 0.5508c0.6601 0.4297 1.3906 0.6172 2.0625 0.9492 1.4101 0.461 2.8281 0.8282 4.2695 0.7774l0.5391 0.023 0.2695 0.01c-0.668 0.059-0.1601 0.012-0.3008 0.02h0.051l0.09-0.01 0.1914-0.02 1.5195-0.1719 0.3789-0.051c0.1328-0.01 0.1523-0.039 0.2305-0.059l0.4101-0.1289c0.2891-0.1016 0.5313-0.09 0.8711-0.2422 0.668-0.3008 1.3789-0.4883 2.0313-0.8906 0.3281-0.1797 0.6679-0.3282 0.9882-0.5274l0.9493-0.6601 0.4804-0.3204 0.4414-0.3906 0.8985-0.7695c0.5703-0.5625 1.1289-1.1406 1.6719-1.7305 1.0273-1.25 1.9804-2.5898 2.8085-4.0195 1.6407-2.8516 2.8204-5.9492 3.6094-9.0313 0.8125-3.0781 1.1016-6.1289 1.2813-9 0.1211-2.8476-0.051-5.5195-0.3594-7.8789-0.3008-2.3593-0.793-4.4101-1.2617-6.1015-0.4883-1.6797-0.9375-3.0196-1.3008-3.8985-0.3672-0.9023-0.5586-1.3789-0.5586-1.3789s0.3789 0.3477 1.0508 1.0664c0.6406 0.7305 1.5976 1.8203 2.6289 3.3633 2.0703 3.0391 4.5117 7.9492 5.582 14.438 0.4571 3.2109 0.7696 6.8125 0.3594 10.633-0.3906 3.8086-1.3203 7.8477-3.1211 11.809-0.8711 1.9883-2.0391 3.9102-3.3711 5.7891-0.707 0.9101-1.457 1.8203-2.25 2.6992l-1.3086 1.2422-0.6601 0.6289-0.7305 0.5586-1.4805 1.1211c-0.5078 0.3515-1.0703 0.6523-1.6094 0.9804-1.0585 0.6915-2.289 1.129-3.4804 1.6211-0.5899 0.25-1.3711 0.4102-2.0508 0.5977l-1.0703 0.2617c-0.1602 0.031-0.3789 0.09-0.5 0.1094l-0.3789 0.051-1.5078 0.1914-0.1914 0.019-0.09 0.01-0.051 0.012-0.3906 0.027h-0.5l-0.9805-0.01c-2.6367 0.01-5.2265-0.6407-7.6289-1.5117-1.1601-0.5196-2.3593-0.9805-3.3906-1.6797-0.5273-0.3203-1.0586-0.6407-1.5781-0.9805l-1.4414-1.1094c-3.8086-3.0195-6.5196-6.8203-8.3985-10.688-1.9023-3.8711-3.0312-7.8398-3.539-11.633-0.2305-1.9101-0.461-3.9687-0.3906-5.5195 0-0.4102 0-0.8203 0.01-1.2305v-0.3772c0 0.1016-0.01-0.1719-0.01-0.1484v-0.043l0.01-0.168 0.039-0.6406c0.031-0.8516 0.1211-1.6914 0.2032-2.5 0.4101-3.25 1.1289-6.1484 2.039-8.6094 0.8985-2.4609 1.9414-4.4922 2.9297-6.0625 0.9688-1.5781 1.9102-2.6875 2.5313-3.4375 0.6406-0.7304 1.0078-1.1015 1.0078-1.1015"/>
   <path d="m956.71 1547.5s70.937-48.648 128.18 34.352c24.469 26.141 35.75 36.07 47.93 36.16 0 0-35.969-40.84-45.602-61.27-4.668-9.9101-10.707-19.121-18.328-26.992-23.59-24.41-69.551-54.59-112.18 17.75"/>
   <path d="m1308.9 1547.5s-70.941-48.648-128.18 34.352c-24.469 26.141-35.75 36.07-47.918 36.16 0 0 35.961-40.84 45.59-61.27 4.6679-9.9101 10.711-19.121 18.328-26.992 23.602-24.41 69.551-54.59 112.18 17.75"/>
   <path d="m875.61 1865.3s0.59375-0.4219 1.7852-1.082c1.1953-0.6367 2.9648-1.5977 5.332-2.5586 2.3594-0.9805 5.2812-2.0781 8.75-3 3.4648-0.9297 7.4609-1.7188 11.895-2.1914 4.4297-0.457 9.2969-0.5781 14.43-0.1602 5.1289 0.4219 10.523 1.3516 15.949 2.9024 1.3633 0.3711 2.7227 0.8008 4.0742 1.2695 1.3672 0.4414 2.707 0.9688 4.0625 1.5 2.707 1.0508 5.3945 2.2617 8.0156 3.6289 1.3359 0.6524 2.6172 1.3906 3.918 2.1211l1.9336 1.1016 1.8281 1.1093c2.4453 1.5 4.9024 3 7.3594 4.5 4.8711 3.0899 9.7422 6.211 14.422 9.5079 2.3555 1.6328 4.6562 3.3125 6.8984 5.0312 1.1172 0.8594 2.2266 1.7188 3.3281 2.5781 1.0898 0.8828 2.1602 1.7617 3.2148 2.6602 4.2148 3.5703 8.1094 7.332 11.48 11.242 3.3594 3.9297 6.1485 8.0781 8.129 12.238 1.9804 4.1601 3.0312 8.3515 3.3281 12.062 0.3203 3.7187-0.1367 6.9179-0.6875 9.4492-0.3321 1.25-0.5821 2.3711-0.961 3.3008-0.3398 0.9375-0.6093 1.7382-0.9101 2.3476-0.5703 1.2422-0.8711 1.9024-0.8711 1.9024s0.1133-0.7227 0.3203-2.0508c0.2227-1.3321 0.3906-3.2891 0.4414-5.7422 0-2.4492-0.2695-5.3867-1.1406-8.5586-0.8711-3.168-2.3516-6.5586-4.5781-9.8984-2.2422-3.3321-5.1211-6.6524-8.5352-9.8711-3.418-3.2188-7.3242-6.3711-11.523-9.4688-2.1133-1.5312-4.2774-3.0898-6.5156-4.6133-2.2461-1.5195-4.5273-3.0468-6.8516-4.5664-4.668-3.0234-9.4492-6.0703-14.293-9.0703-2.4141-1.5117-4.832-3.0312-7.2383-4.543-1.1914-0.7265-2.375-1.457-3.5586-2.1875-1.1562-0.6992-2.3008-1.4101-3.4883-2.0312-1.1758-0.6406-2.3398-1.3008-3.5391-1.8711-1.1875-0.5898-2.3594-1.207-3.5664-1.7188-1.1953-0.539-2.3828-1.0898-3.5938-1.539-1.2031-0.4922-2.3906-0.9922-3.5977-1.3906-9.6094-3.4805-19.176-5.1016-27.492-5.3985-8.3242-0.3398-15.379 0.4571-20.277 1.3086-2.4414 0.461-4.3789 0.8594-5.6797 1.1992-1.3047 0.3399-1.9961 0.5508-1.9961 0.5508"/>
  </g>
 </g>
</svg>