<svg width="200" height="200" version="1.1" viewBox="127 181 648 502" xmlns="http://www.w3.org/2000/svg">
<defs>
 </defs>
<g>
  <path d="m739.27 454.63c0 2.4414-0.097656 4.8594-0.28906 7.2617-4.4102 54.711-58.211 100.16-128.6 107.2l-4.2383 0.42188-1.8008 3.8594c-20.648 44.07-79.262 73.68-145.84 73.68-38.539 0-74.719-9.9492-102.38-27.262-13.621-8.5078-25.18-18.801-33.941-30.57l-3.2695-4.3906-5.1797 1.7734c-10.852 3.7266-22.172 5.6172-33.641 5.6172-64.762 0-117.45-60.379-117.45-134.59 0-74.207 52.688-134.59 117.45-134.59 5.8086 0 11.641 0.49219 17.309 1.4492l7.6719 1.3125 1.0195-7.7109c7.7383-58.168 63.641-102.03 130.03-102.03 16.027 0 31.391 2.5625 45.598 7.2422l0.011719 0.007813c49.77 16.383 85.32 58.801 85.32 108.42v8.8984l8.1406-0.70703c5.3086-0.46094 10.777-0.69141 16.258-0.69141 81.512 0 147.82 51.77 147.82 115.4" fill="#fff"/>
  <g fill="#e8e8e7">
   <path d="m604.34 573.37c-20.648 44.07-79.262 73.68-145.84 73.68-38.539 0-74.719-9.9492-102.38-27.262 7.0273 4.1406 166.82 34.723 248.22-46.418"/>
   <path d="m738.98 461.89c-4.4102 54.711-58.211 100.16-128.6 107.2 0 0 102.76-24.578 128.6-107.2"/>
   <path d="m567.05 331.73v8.8984c-6.9922-76.57-84.109-116.7-85.32-117.32 49.77 16.383 85.32 58.801 85.32 108.42"/>
  </g>
  <path d="m391.44 428.36h-6.5977c-6.1484 0-11.129-4.9805-11.129-11.129v-61.719c0-6.1523 4.9805-11.133 11.129-11.133h6.5977c6.1484 0 11.133 4.9805 11.133 11.133v61.719c0 6.1484-4.9844 11.129-11.133 11.129" fill="#0f0e0c"/>
  <path d="m487.77 428.36h-6.5977c-6.1484 0-11.129-4.9805-11.129-11.129v-61.719c0-6.1523 4.9805-11.133 11.129-11.133h6.5977c6.1484 0 11.133 4.9805 11.133 11.133v61.719c0 6.1484-4.9844 11.129-11.133 11.129" fill="#0f0e0c"/>
  <path d="m385.01 373.24c0 11.133-1.8789 20.152-4.1953 20.152-2.3203 0-4.1992-9.0195-4.1992-20.152 0-11.129 1.8789-20.148 4.1992-20.148 2.3164 0 4.1953 9.0195 4.1953 20.148" fill="#fff"/>
  <path d="m481.71 373.24c0 11.133-1.8789 20.152-4.1953 20.152-2.3203 0-4.1992-9.0195-4.1992-20.152 0-11.129 1.8789-20.148 4.1992-20.148 2.3164 0 4.1953 9.0195 4.1953 20.148" fill="#fff"/>
  <path d="m746.77 454.63h-7.5c-0.003906 14.461-3.4023 28.262-9.6719 41.082-9.4023 19.211-25.34 36.18-45.914 49.051-20.562 12.848-45.723 21.566-73.301 24.328l-4.2383 0.42188-1.8086 3.8594c-4.8711 10.398-12.059 20.219-21.23 29.098-13.754 13.312-31.988 24.5-53.258 32.312-21.266 7.8203-45.551 12.27-71.348 12.27-29.883 0-57.734-5.9805-81.219-16.23-23.496-10.25-42.57-24.77-55.098-41.602l-3.2695-4.3906-5.1797 1.7812c-10.66 3.6523-21.934 5.6094-33.645 5.6094-16.094 0-31.395-3.6992-45.383-10.43-20.973-10.078-39-27.039-51.777-48.551-12.781-21.508-20.293-47.527-20.289-75.609-0.007813-37.449 13.359-71.23 34.73-95.52 10.684-12.148 23.352-21.918 37.336-28.648 13.988-6.7227 29.289-10.422 45.383-10.422 5.8906 0 11.668 0.49219 17.312 1.4492l7.6641 1.3125 1.0273-7.7109c1.8945-14.238 6.7148-27.699 13.957-39.918 10.855-18.32 27.191-33.863 47.172-44.812 19.977-10.949 43.57-17.301 68.895-17.301 36.418 0 69.262 13.141 92.898 34.18 11.82 10.512 21.332 22.992 27.879 36.762 6.5508 13.789 10.152 28.859 10.156 44.73v8.8906l8.1445-0.69922c5.3281-0.46094 10.754-0.69141 16.254-0.69141 41.285-0.011719 78.527 13.281 105.17 34.379 13.328 10.539 24.008 23.012 31.328 36.711 7.3203 13.711 11.316 28.621 11.32 44.309h15c0.003907-18.258-4.6953-35.68-13.094-51.379-12.605-23.559-33.434-43.289-59.352-57.148-25.926-13.852-57.004-21.871-90.375-21.871-5.9219 0-11.773 0.25-17.547 0.75l0.64844 7.4688h7.5v-0.71875c0-18.152-4.1445-35.48-11.605-51.172-11.199-23.539-29.801-43.41-53.066-57.398-23.27-13.98-51.234-22.102-81.262-22.102-37.121 0-71.09 12.41-96.934 32.98-12.922 10.281-23.82 22.621-32.039 36.492-8.2148 13.859-13.75 29.258-15.922 45.578l7.4375 0.99219 1.2539-7.3906c-6.4727-1.1094-13.094-1.6719-19.824-1.6719-18.406 0-35.977 4.25-51.887 11.91-23.867 11.48-44.004 30.562-58.172 54.41-14.168 23.852-22.391 52.5-22.391 83.27 0.003906 41.02 14.613 78.293 38.465 105.42 11.93 13.57 26.188 24.609 42.098 32.258 15.91 7.6602 33.48 11.91 51.887 11.91 13.387 0 26.332-2.25 38.516-6.4297l-2.4375-7.0898-6.0156 4.4805c14.426 19.34 35.633 35.25 61.129 46.379 25.5 11.133 55.336 17.492 87.219 17.492 36.695-0.011719 70.684-8.4219 98.469-22.852 13.895-7.2188 26.238-15.961 36.566-25.961 10.328-9.9883 18.645-21.258 24.387-33.508l-6.793-3.1797 0.74609 7.4609c39.715-3.9805 75.074-19.363 100.75-42.223 12.832-11.43 23.234-24.758 30.445-39.48 7.2109-14.719 11.207-30.848 11.203-47.68h-7.5" fill="#0f0e0c"/>
 </g>
</svg>