<svg width="200" height="200" version="1.1" viewBox="1489 860 481 431" xmlns="http://www.w3.org/2000/svg">
<defs>
 </defs>
<g>
  <path d="m1524.4 1075.8c0-99.32 80.812-180.13 180.14-180.13 99.332 0 180.14 80.809 180.14 180.13 0 99.328-80.809 180.14-180.14 180.14-99.328 0-180.14-80.812-180.14-180.14" fill="#f3b72a"/>
  <path d="m1704.5 1219.1c-79.051 0-143.36-64.309-143.36-143.36 0-79.039 64.309-143.35 143.36-143.35 79.051 0 143.36 64.312 143.36 143.35 0 79.051-64.309 143.36-143.36 143.36" fill="#fad13e"/>
  <path d="m1710 1219c-1.8203 0.078125-3.6406 0.10938-5.4805 0.10938-79.043 0-143.35-64.309-143.35-143.36 0-79.039 64.309-143.35 143.35-143.35 1.8398 0 3.6602 0.03125 5.4805 0.11328-76.492 2.9102-137.82 66.047-137.82 143.24 0 77.199 61.328 140.34 137.82 143.25" fill="#f8a31a"/>
  <path d="m1738 1157.7c0 13.617-11.078 24.699-24.699 24.699h-10.988c-13.633 0-24.711-11.082-24.711-24.699v-154.99c0-13.617 11.078-24.699 24.711-24.699h10.988c13.621 0 24.699 11.082 24.699 24.699v154.99" fill="#f8a31a"/>
  <path d="m1712.1 1182.4h-9.7812c-13.621 0-24.699-11.082-24.699-24.699v-154.99c0-13.617 11.078-24.699 24.699-24.699h9.7812c-13.621 0-24.699 11.082-24.699 24.699v154.99c0 13.617 11.078 24.699 24.699 24.699" fill="#da8617"/>
  <path d="m1785.8 1253.1c67.152-30.879 113.89-98.777 113.89-177.4s-46.738-146.52-113.89-177.39c84.422 14.891 148.76 88.77 148.76 177.39 0 88.629-64.34 162.51-148.76 177.4" fill="#ec9112"/>
  <g fill="#0f0e0c">
   <path d="m1713.3 1189.9v-7.5h-10.988c-3.4414 0-6.6719-0.69141-9.6211-1.9414-4.4219-1.8672-8.2109-5.0078-10.871-8.957-2.668-3.9531-4.2109-8.6602-4.2188-13.801v-154.99c0.007813-3.4297 0.69922-6.6602 1.9375-9.6094 1.8711-4.4297 5.0117-8.2109 8.9609-10.879 3.9492-2.6602 8.6602-4.2109 13.812-4.2109h10.988c3.4297 0 6.6602 0.69141 9.6094 1.9414 4.4219 1.8594 8.2109 5.0078 10.871 8.9492 2.668 3.9492 4.2109 8.668 4.2188 13.809v154.99c0 3.4297-0.6875 6.6602-1.9375 9.6094-1.8711 4.418-5.0117 8.2109-8.9609 10.871-3.9492 2.668-8.6602 4.207-13.801 4.2188v15c5.4609 0 10.699-1.1094 15.449-3.1289 7.1406-3.0117 13.18-8.043 17.461-14.371 4.2812-6.332 6.7891-14.012 6.7891-22.199v-154.99c0-5.457-1.1094-10.699-3.1289-15.457-3.0195-7.1328-8.0391-13.184-14.371-17.461-6.3281-4.2812-14.008-6.7891-22.199-6.7812h-10.988c-5.4727 0-10.711 1.1094-15.461 3.1211-7.1289 3.0195-13.18 8.0391-17.461 14.379-4.2812 6.3203-6.7891 14-6.7891 22.199v154.99c0 5.4609 1.1094 10.699 3.1289 15.449 3.0195 7.1406 8.0391 13.18 14.371 17.461 6.3281 4.2773 14.008 6.7891 22.211 6.7891h10.988v-7.5"/>
   <path d="m1516.9 1075.8h7.5c0-24.902 5.043-48.57 14.16-70.121 13.66-32.32 36.512-59.84 65.27-79.262 28.762-19.43 63.383-30.758 100.71-30.758 24.891 0 48.57 5.0391 70.121 14.148 32.309 13.672 59.828 36.52 79.262 65.27 19.418 28.762 30.758 63.383 30.758 100.72 0 24.887-5.0391 48.559-14.148 70.109-13.672 32.32-36.52 59.84-65.281 79.258-28.762 19.43-63.379 30.762-100.71 30.762-24.891 0-48.57-5.0391-70.109-14.152-32.32-13.668-59.84-36.52-79.27-65.27-19.422-28.758-30.75-63.379-30.762-100.71h-15c0 53.859 21.863 102.69 57.16 137.98 35.293 35.301 84.121 57.16 137.98 57.152 53.859 0.007813 102.69-21.852 137.98-57.152 35.309-35.289 57.16-84.117 57.16-137.98 0-53.871-21.852-102.7-57.16-137.99-35.289-35.301-84.121-57.16-137.98-57.148-53.859-0.011719-102.69 21.848-137.98 57.148-35.297 35.289-57.16 84.121-57.16 137.99h7.5"/>
   <path d="m1553.7 1075.8h7.5c0-19.82 4.0117-38.66 11.27-55.801 10.871-25.723 29.062-47.621 51.941-63.082 22.891-15.457 50.43-24.48 80.148-24.48 19.812 0 38.652 4.0117 55.801 11.262 25.719 10.879 47.621 29.059 63.082 51.949 15.457 22.891 24.477 50.43 24.477 80.152 0 19.809-4.0078 38.648-11.258 55.789-10.879 25.719-29.07 47.629-51.949 63.078-22.891 15.461-50.43 24.48-80.152 24.48-19.809 0-38.648-4.0078-55.801-11.258-25.719-10.883-47.617-29.062-63.078-51.953-15.461-22.887-24.469-50.43-24.48-80.137h-15c0 21.84 4.4297 42.688 12.449 61.637 12.031 28.43 32.102 52.59 57.371 69.66 25.262 17.082 55.77 27.062 88.539 27.051 21.84 0 42.691-4.4297 61.641-12.438 28.43-12.031 52.602-32.102 69.672-57.371 17.07-25.27 27.047-55.77 27.047-88.539 0-21.852-4.4297-42.703-12.449-61.652-12.02-28.43-32.09-52.59-57.359-69.66-25.27-17.078-55.781-27.059-88.551-27.051-21.84 0-42.688 4.4297-61.641 12.441-28.43 12.031-52.59 32.102-69.668 57.371-17.07 25.27-27.051 55.77-27.051 88.551h7.5"/>
  </g>
  <path d="m1612 991.25c22.957-25.102 55.91-40.852 92.508-40.852 3.0391 0 5.5-2.4688 5.5-5.5 0-3.0391-2.4609-5.5-5.5-5.5-39.801 0-75.699 17.152-100.63 44.43-2.0508 2.2422-1.8984 5.7227 0.35156 7.7734 2.2383 2.0469 5.7188 1.8984 7.7695-0.35156" fill="#fff"/>
  <path d="m1581.6 1051.1c2.5273-12.629 6.9688-24.59 13-35.547 1.4688-2.6602 0.5-6.0117-2.1719-7.4727-2.6602-1.457-6-0.48828-7.4688 2.1719-6.5586 11.918-11.391 24.941-14.141 38.691-0.60156 2.9766 1.332 5.8789 4.3086 6.4688 2.9805 0.59766 5.8711-1.332 6.4727-4.3125" fill="#fff"/>
  <path d="m1704.5 895.62h49.883c24.887 0 48.559 5.0391 70.109 14.148 32.32 13.672 59.84 36.52 79.258 65.27 19.43 28.762 30.762 63.383 30.762 100.72 0 24.887-5.0391 48.559-14.152 70.109-13.668 32.32-36.52 59.84-65.27 79.258-28.758 19.43-63.379 30.762-100.71 30.762h-49.883v15h49.883c53.859 0.007813 102.69-21.852 137.98-57.152 35.301-35.289 57.16-84.117 57.152-137.98 0.007813-53.871-21.852-102.7-57.152-137.99-35.289-35.301-84.117-57.16-137.98-57.148h-49.883v15" fill="#0f0e0c"/>
 </g>
</svg>