<svg width="200" height="200" version="1.1" viewBox="1515 1497 453 450" xmlns="http://www.w3.org/2000/svg">
<defs>
 </defs>
<g>
  <path d="m1909.8 1738.3c-1.6914 3.8633-3.4805 7.7305-5.3594 11.59-16.352 33.652-39.68 66.98-69.152 96.453-71.309 71.309-149.6 84.75-214.67 38.77-8.3906-5.9297-16.559-12.84-24.469-20.75-54.512-54.512-59.781-120.77-16.891-187.24 10.277-15.93 23.328-31.879 39.129-47.68 11.172-11.168 23.121-21.621 35.609-31.211 37.211-28.578 79.262-49.559 120.04-59.367 17.281-4.1602 33.652-6.2227 48.832-6.2227 33.262 0 60.871 9.8633 80.109 29.102 13.809 13.809 22.5 31.898 26.461 52.738 6.8281 35.832-0.35156 79.75-19.641 123.82" fill="#fff"/>
  <g fill="#4a0">
   <path d="m1750.3 1806.1c0 40.102-32.512 72.613-72.621 72.613-40.102 0-72.609-32.512-72.609-72.613 0-40.109 32.508-72.617 72.609-72.617 40.109 0 72.621 32.508 72.621 72.617"/>
   <path d="m1909.8 1738.3c-8.1797 3.2031-17.078 4.9531-26.391 4.9531-40.109 0-72.621-32.512-72.621-72.621 0-40.102 32.512-72.609 72.621-72.609 17.473 0 33.512 6.1797 46.031 16.457 6.8281 35.832-0.35156 79.75-19.641 123.82"/>
   <path d="m1654.3 1604.6c0 40.102-32.512 72.613-72.609 72.613-0.8125 0-1.6094-0.011719-2.4102-0.042969 10.277-15.93 23.328-31.879 39.129-47.68 11.172-11.168 23.121-21.621 35.609-31.211 0.19141 2.082 0.28125 4.1914 0.28125 6.3203"/>
  </g>
  <path d="m1701.4 1911.9c-28.117 0-55.41-8.8984-80.719-26.777 14.418-1.6602 29.762-3.9922 45.738-7.2305 3.6602 0.57031 7.4219 0.87109 11.242 0.87109 16.988 0 32.609-5.832 44.969-15.602 60.941-19.809 125.88-54.25 181.87-113.26-16.352 33.652-39.68 66.98-69.152 96.453-43.578 43.578-89.77 65.547-133.95 65.547" fill="#cccbc9"/>
  <path d="m1677.6 1878.8c-3.8203 0-7.582-0.30078-11.242-0.87109 18.062-3.6523 36.941-8.4609 56.211-14.73-12.359 9.7695-27.98 15.602-44.969 15.602" fill="#250"/>
  <path d="m1840.6 1851.6-5.3008-5.2969c-23.316 23.32-46.418 39.707-68.77 50.258-22.348 10.551-43.949 15.281-64.5 15.289-19.898-0.007813-38.859-4.4375-56.637-12.59-17.773-8.1602-34.344-20.039-49.23-34.938-14.492-14.492-25.871-30.293-33.621-47.09-7.75-16.82-11.891-34.621-11.898-53.332 0.007813-20.418 4.9375-41.969 15.879-64.508 10.93-22.531 27.891-46.012 51.879-70 30.289-30.301 65.43-54.551 100.98-71.16 35.539-16.621 71.5-25.562 103.23-25.551 16.371 0 31.598 2.3594 45.129 7.1602 13.551 4.8086 25.41 12.02 35.25 21.859 9.8398 9.8516 17.051 21.711 21.859 35.25 4.8008 13.539 7.1719 28.77 7.1719 45.129 0.007813 31.742-8.9297 67.691-25.562 103.24-16.609 35.551-40.859 70.68-71.16 100.98l5.3008 5.2969 5.3125 5.3008c31.559-31.559 56.758-68.059 74.137-105.23 17.371-37.188 26.953-75.059 26.973-109.59-0.011719-17.801-2.5703-34.719-8.0312-50.141-5.4609-15.41-13.859-29.316-25.391-40.84-11.527-11.539-25.43-19.93-40.84-25.387-15.418-5.4727-32.348-8.0312-50.148-8.0312-34.531 0.007812-72.402 9.5977-109.58 26.961-37.18 17.379-73.668 42.578-105.24 74.148-24.941 24.941-42.949 49.719-54.762 74.051-11.809 24.32-17.387 48.199-17.387 71.059 0 20.949 4.6875 40.98 13.277 59.609 8.5898 18.633 21.07 35.863 36.629 51.422 16 16 34 28.969 53.594 37.961 19.566 8.9805 40.738 13.957 62.887 13.957 22.883 0 46.75-5.3086 70.91-16.727 24.172-11.41 48.641-28.891 72.973-53.223l-5.3125-5.3008" fill="#0f0e0c"/>
 </g>
</svg>