<svg width="200" height="200" version="1.1" viewBox="1457 1460 545 492" xmlns="http://www.w3.org/2000/svg">
 <path d="m1848.3 1858.4c-2.1797 1.8203-13.852 11.348-32 22.168-0.21875-0.39062-0.44141-0.77734-0.67969-1.1875-8.4102-14.41-30.102-41.543-77.582-51.332-43.969-9.0781-82.348-3.4414-100.8-0.73047-1.8594 0.28125-3.8203 0.5625-5.5195 0.78906-5.4531-21.77-22.191-43.828-33.223-56.578 22.062-8.1094 41.32-38.25 47.25-77.391l0.011719-0.007813c5.9688-39.5-3.7305-74.281-22.742-88.32 2.6133-2.0117 5.6523-4.3125 9.1211-6.7031l0.050781-0.019531 0.21094-0.14844c29.438-20.07 61.84-25.781 98.84-17.359 2.3594 0.52734 4.7383 1.1289 7.1406 1.7773 3.957 1.082 7.8867 2.3125 11.789 3.6836-6.6914 7.4102-12.32 14.816-17 21.809-22.492 33.57-29.633 66.129-30.312 73.008-0.22656 2.2812-0.39844 4.5625-0.51953 6.8203v0.042968c-0.11719 2.3594-0.17969 4.6992-0.17969 7.0273 0 4.3398 0.21094 8.6328 0.62891 12.84 1.4023 14.113 7.2422 27.121 16.902 37.633 9.5898 10.438 22.031 17.43 35.98 20.207 7.5508 1.5 14.609 2.1602 21.18 2.1602 23.418 0 40.578-8.3594 51.66-16.387 1.2695-0.92188 2.4883-1.8633 3.6484-2.793 8.0312-6.4883 13.422-13.16 16.41-17.398 10.199 0.98828 19.109-0.33203 26.66-3.9102 6.3203 15.84 10.199 27.602 11.152 30.559 0.48828 5.6328 3.2578 53.562-38.082 99.742" fill="#f04830"/>
 <path d="m1865.4 1542.2c4-0.64062 7.9102-0.94922 11.688-0.94922 4.0312 0 7.9219 0.35938 11.641 1.0703 17.941 3.4414 30.859 13.559 34.57 27.07 2.5117 9.1289 0.058594 18.078-6.5508 23.949-1.9297 1.6992-2.8281 4.2812-2.418 6.8203 0.41797 2.5391 2.1172 4.6992 4.4805 5.6992 2.7773 1.1914 13.777 12.02 13.25 24.762-0.71094 17.09-22.301 27.789-40.293 33.758-3.2773 1.0898-5.3867 4.2734-5.1094 7.7227 0.019531 0.25 1.6602 25.91-11.719 38.25-6.6211 6.1094-16.34 8.1875-28.902 6.1602-3.0977-0.5-6.207 1.0195-7.75 3.7695-0.96875 1.7305-24.438 42.398-79.688 31.379-21.902-4.3594-38.711-22.711-40.891-44.609-0.76172-7.6406-0.73047-15.641 0.070312-23.762 0.03125-0.28906 4.7188-31.617 27.852-66.148 6.7266-10.051 14.199-19.141 22.367-27.27 0.40234-0.32031 0.76953-0.69922 1.1094-1.1016 7.6719-7.5 15.973-14.148 24.871-19.949 0.66016-0.30859 1.2695-0.69922 1.8086-1.168 20.203-12.801 43.453-21.32 69.613-25.453" fill="#fff"/>
 <path d="m1783.4 1558.1c-8.0312 5.4375-15.23 11.25-21.672 17.207-6.3516-2.5-12.852-4.6797-19.391-6.4492-20.828-5.668-40.75-7.3008-59.641-4.918-18.488 2.3203-35.988 8.4883-52.391 18.488-4.8789-7.3398-13.547-20.18-22.988-33.289-8.5508-11.871-15.398-20.711-20.918-27.32 7.7695 1.8203 13.848 3.4609 15.758 4.4102 2.7109 1.3594 5.9609 0.94922 8.25-1.0312 2.2891-1.9805 3.1719-5.1406 2.2305-8.0078l-7.1016-21.613h65.582l20.531 34.75c1.5195 2.5625 4.3984 3.9922 7.3594 3.6328 2.957-0.35938 5.418-2.4297 6.2773-5.2812l9-29.918c7.8828 4.0781 20.633 11.066 33.121 19.617 22.141 15.141 34.73 29.082 35.992 39.723" fill="#efef31"/>
 <g fill="#fff">
  <path d="m1572.1 1560.2c1.2305-6.7305 7.4805-12.73 12.562-16.469 10.359 13.559 22.25 30.461 33.219 47.09-2.2188 1.6484-4.1992 3.1914-5.9492 4.5508-1.832 1.418-4.0117 3.1094-5.3008 3.9688-6.9883-0.6875-14.031 0.9609-20.781 4.7305-4.1797-2.1289-6.9102-4.7695-8.0781-7.8789-2.1289-5.6797 1.0898-11.93 1.0898-11.93 1.5195-2.7812 1.1406-6.2109-0.9492-8.582-4.8203-5.4492-6.7227-10.508-5.8125-15.48"/>
  <path d="m1493.6 1673.3c3.0195-20.012 10.031-38.082 19.711-50.871 8.5703-11.32 18.41-17.07 26.961-15.77 9.3594 1.4102 17.441 11.012 22.18 26.328 0.8594 2.793 3.2617 4.8203 6.1484 5.2109 2.8906 0.4023 5.75-0.918 7.3203-3.3711 9.1523-14.207 20.371-21.859 30.07-20.469 0.1914 0.039 0.3398 0.062 0.4492 0.082 17.133 2.9492 31.043 34.578 24.562 77.41-6.5195 43.09-29.41 69.227-46.68 66.629-9.3594-1.4219-17.441-11.012-22.18-26.32-0.8711-2.7812-3.2617-4.8086-6.1523-5.2109-0.3398-0.051-0.6797-0.07-1.0195-0.07-2.5195 0-4.9102 1.2812-6.3008 3.4297-9.1992 14.281-20.5 21.922-30.207 20.453-17.273-2.6211-31.391-34.371-24.863-77.461"/>
  <path d="m1561.4 1837.9c-2.7578-6.043-4.9688-12.32-6.6211-18.762 8.9023 0.9609 16.82 3.0703 20.98 7.5 1.9023 2.0312 2.9922 4.6094 3.2812 7.832-3.4609 1.3086-9.4219 3.0195-17.641 3.4297"/>
  <path d="m1537.7 1857.2c-1.0703-1.6602-0.4531-3.1094 0.019-3.8281 0.3399-0.5117 1.6094-2.1484 4.0078-1.7695 5.3711 0.8711 10.332 1.25 14.871 1.3008h0.2188c21.051 0.168 32.973-6.9297 33.57-7.3008 2.0195-1.2422 3.3398-3.3594 3.5508-5.7188 0.8711-9.6133-1.5703-17.543-7.2617-23.594-13.16-14.02-39.387-13.309-60.469-12.727-3.2383 0.078-6.3008 0.168-9.0312 0.1797h-0.078c-6.5117 0-12.289-3.6016-14.75-9.1914-5.582-12.719 11.02-24.949 16.781-28.711 11.719 0.6719 23.539-5.1484 33.82-16.508 6.4883 12.617 15.727 20.848 26.52 23.418 13.84 14.133 43.797 50.77 38.508 74.359-2.0195 8.9805-9.168 15.512-21.879 19.961-5.3594 1.8711-10.41 3.2695-15.148 4.1914-0.1602 0.02-0.3125 0.051-0.461 0.078-19.902 3.75-34.262-0.9805-42.789-14.141"/>
  <path d="m1763.2 1905.2c-61.281 20.559-116.69 12.781-164.89-23.07 0.8984-0.2891 1.7891-0.582 2.6992-0.8906 17.762-6.2188 28.379-16.598 31.57-30.848 0.5391-2.4414 0.8398-4.9219 0.9219-7.4531 1.7188-0.2188 3.668-0.5078 5.9492-0.8399 18.949-2.7773 54.219-7.9688 95.59 0.5704 43.469 8.9805 61.918 33.82 68.25 45.18-11.723 6.2109-25.25 12.383-40.09 17.352"/>
  <path d="m1931.3 1849.3c-4.0391 0.5117-6.9297 4.1602-6.5273 8.2109 0 0.07 0.6797 7.2578-1.582 14.469-2.6211 8.3789-7.9688 12.973-16.348 14.02-17.633 2.2109-35.461-14.059-43.262-22.309 36.289-43.34 38.551-86.559 38.051-101.8 13.32-5.5078 36.219-12.078 45.52-5.5703 9.8789 6.9102 1.3516 30.102-2.4102 37.66-0.9492 1.8906-1.0508 4.1016-0.2891 6.0703 0.7696 1.9688 2.3281 3.5312 4.3008 4.2891 0.1797 0.07 17.91 7.0898 17.91 24.453 0 13.078-26.191 19.348-35.363 20.508"/>
 </g>
 <path d="m1816.3 1880.5c-0.21875-0.39062-0.44141-0.77734-0.67969-1.1875 19.551-36.133 28.238-73.672 31.09-88.273 0.78125-4.0273 0.30078-8.1992-1.3594-11.949l-13.191-29.75c8.0312-6.4883 13.422-13.16 16.41-17.398 2.1914 0.21094 4.3203 0.30859 6.3906 0.30859 7.5781 0 14.34-1.4102 20.27-4.2188 6.3203 15.84 10.199 27.602 11.152 30.559 0.078125 0.91016 0.21875 2.9609 0.21875 5.9297 0 15.281-3.6992 55.16-38.301 93.812-2.1797 1.8203-13.852 11.348-32 22.168" fill="#c73d25"/>
 <path d="m1702.4 1688.6c-1.3477-49.297 14.902-85.387 28.902-107.1 2.3594 0.52734 4.7383 1.1289 7.1406 1.7773 3.957 1.082 7.8867 2.3125 11.789 3.6836-6.6914 7.4102-12.32 14.816-17 21.809-22.492 33.57-29.633 66.129-30.312 73.008-0.22656 2.2812-0.39844 4.5625-0.51953 6.8203" fill="#c73d25"/>
 <path d="m1630.3 1582.4c-4.8789-7.3398-13.547-20.18-22.988-33.289-8.5508-11.871-15.398-20.711-20.918-27.32 7.7695 1.8203 13.848 3.4609 15.758 4.4102 1.0586 0.53125 2.2109 0.78906 3.3516 0.78906 1.7695 0 3.5078-0.62109 4.8984-1.8203 1.6797-1.4609 2.6016-3.5508 2.6016-5.6875 0-0.78125-0.12109-1.5625-0.37109-2.3203l-7.1016-21.613h43.711c10.359 21.293 23.582 48.242 33.449 68.363-18.488 2.3203-35.988 8.4883-52.391 18.488" fill="#f3f364"/>
 <path d="m1638.4 1693-7.418-1.1289c-1.4922 9.8984-3.9609 19.168-7.1211 27.457-4.7305 12.441-11.07 22.641-17.77 29.422-3.3398 3.3906-6.75 5.918-10.012 7.5508-3.2578 1.6289-6.3398 2.3789-9.2773 2.3906-0.83984 0-1.6719-0.070313-2.5117-0.19141h0.011719c-2.2109-0.33984-4.293-1.0898-6.3516-2.3086-3.0781-1.8203-6.1094-4.75-8.8398-8.8125-2.7305-4.0508-5.1406-9.1992-6.9883-15.199-0.87109-2.7812-3.2617-4.8086-6.1523-5.2109-2.8906-0.39844-5.7383 0.91016-7.3203 3.3594-4.4102 6.8516-9.3086 12.172-14.117 15.613-2.4023 1.7266-4.7617 2.9883-7.0312 3.8086-2.2812 0.82812-4.4492 1.2188-6.5586 1.2188-0.84375 0-1.6719-0.058594-2.5-0.1875-1.7109-0.26172-3.3438-0.77344-4.9414-1.5508-2.8008-1.3711-5.5586-3.582-8.1523-6.7422-3.8789-4.7305-7.2891-11.559-9.6484-19.898-2.3594-8.3398-3.6992-18.16-3.6914-28.781 0-6.5703 0.5-13.449 1.5703-20.488 1.5-9.9023 3.9609-19.18 7.1211-27.473 4.7305-12.438 11.07-22.648 17.77-29.418 3.3398-3.3906 6.7422-5.9219 10-7.5508 3.2695-1.6289 6.3398-2.3906 9.2812-2.3906 0.83984 0 1.668 0.0625 2.5 0.19141 2.2109 0.33984 4.2891 1.0898 6.3477 2.3086 3.082 1.8203 6.1133 4.75 8.8438 8.8203 2.7266 4.0508 5.1367 9.1992 6.9883 15.199 0.87109 2.793 3.2617 4.8203 6.1484 5.2109 2.8906 0.40234 5.75-0.91797 7.3203-3.3711 4.4023-6.8477 9.3008-12.168 14.109-15.609 2.4023-1.7305 4.7734-3 7.043-3.8203 2.2773-0.82031 4.4375-1.207 6.5586-1.207 0.83984 0 1.6719 0.058594 2.5 0.1875 1.7109 0.26172 3.3398 0.76953 4.9492 1.5508 2.8008 1.3594 5.5625 3.582 8.1523 6.75 3.8789 4.7188 7.2891 11.559 9.6484 19.91 2.3594 8.3398 3.6914 18.172 3.6914 28.789 0 6.5703-0.5 13.441-1.5703 20.48v-0.007813l7.418 1.1289 7.4219 1.1211c1.168-7.7734 1.7305-15.383 1.7305-22.723 0-9.0391-0.85156-17.66-2.4922-25.617-1.2305-5.9727-2.8984-11.562-5.0078-16.703-3.1719-7.6875-7.3125-14.367-12.582-19.559-2.6406-2.5898-5.5586-4.8008-8.7695-6.5117-3.1992-1.6992-6.6914-2.8867-10.34-3.4375-1.5898-0.24219-3.168-0.35938-4.75-0.35938-3.9883 0-7.918 0.75-11.668 2.1094-5.6211 2.0391-10.832 5.4102-15.613 9.7188-4.7695 4.332-9.1289 9.6211-13.039 15.691l6.3086 4.0586 7.1602-2.2188c-2.957-9.5391-7.1875-17.852-12.859-24.34-2.8398-3.2305-6.0508-6-9.6406-8.1406-3.5898-2.1289-7.5586-3.6094-11.758-4.2422-1.582-0.23828-3.1719-0.35938-4.75-0.35938-3.6992 0-7.3594 0.65234-10.859 1.832-6.1406 2.0703-11.793 5.7188-16.93 10.469-7.7109 7.1523-14.363 16.809-19.703 28.25-5.3281 11.441-9.3398 24.68-11.508 39.039v-0.007813c-1.1797 7.7773-1.7422 15.398-1.7422 22.738 0 9.0391 0.85156 17.66 2.4922 25.609 1.2305 5.9727 2.8984 11.562 5.0078 16.691 3.1719 7.6914 7.3125 14.359 12.582 19.551 2.6406 2.5898 5.5586 4.8008 8.7695 6.5078 3.1992 1.7031 6.6797 2.8906 10.332 3.4414h0.007813c1.5703 0.23828 3.1602 0.35938 4.7422 0.35938 3.9883 0 7.918-0.75 11.656-2.1094 5.6328-2.0391 10.832-5.4102 15.613-9.7188 4.7695-4.3203 9.1289-9.6094 13.039-15.68l-6.3008-4.0625-7.1602 2.2227c2.9609 9.5391 7.1914 17.848 12.859 24.328 2.8398 3.2422 6.0508 6.0117 9.6406 8.1406s7.5586 3.6094 11.762 4.2383c1.5781 0.24219 3.168 0.36328 4.75 0.36328 3.707 0 7.3594-0.65234 10.867-1.832 6.1328-2.0781 11.793-5.7305 16.93-10.48 7.7109-7.1406 14.352-16.801 19.703-28.238 5.3281-11.441 9.3398-24.672 11.52-39.02l-7.4219-1.1211"/>
 <path d="m1538 1812.2c2.3672 14.27 6.8906 26.52 12.051 36.66 1.8672 3.6914 6.3867 5.1719 10.078 3.2891 3.6914-1.8789 5.1602-6.3984 3.2891-10.09-4.5508-8.9492-8.5273-19.73-10.629-32.32-0.67969-4.0898-4.5391-6.8477-8.6289-6.168-4.0898 0.67969-6.8516 4.5508-6.1602 8.6289"/>
 <path d="m1871.9 1719.8c4.7695 11.441 8.4688 21.359 10.957 28.398 1.25 3.5234 2.1992 6.3203 2.832 8.2305 0.32031 0.95312 0.55859 1.6797 0.71875 2.1719 0.070312 0.25 0.12891 0.42969 0.17187 0.55078l0.039063 0.12891 0.007813 0.039063c0.65234 2.0703 2.1719 3.7695 4.1602 4.6406 1.9922 0.85938 4.2812 0.82812 6.2422-0.10938 0.16797-0.082031 5.7891-2.7422 13.449-5.3125 3.8203-1.2891 8.1602-2.5586 12.531-3.4883 4.3672-0.94141 8.7891-1.5195 12.688-1.5195 2.5195 0 4.8203 0.23828 6.75 0.71875 1.9414 0.47266 3.4805 1.1602 4.6914 2 0.82812 0.58984 1.4805 1.2109 2.0312 1.9297 0.80859 1.0625 1.4297 2.3398 1.8672 3.9609 0.44141 1.6094 0.67188 3.5312 0.66016 5.6289 0.011719 2.8008-0.39844 5.9023-1.0391 8.9414-0.96875 4.5586-2.4805 8.9688-3.7383 12.16-0.63281 1.6016-1.2031 2.8984-1.6016 3.7812-0.19922 0.4375-0.35156 0.76953-0.46094 0.98828-0.050781 0.10937-0.089844 0.17969-0.10938 0.23047l-0.019531 0.050782 3.6914 1.8398-3.6914-1.8516v0.011719l3.6914 1.8398-3.6914-1.8516c-0.94922 1.9023-1.0508 4.1016-0.28906 6.0703 0.76953 1.9688 2.3281 3.5312 4.3008 4.2891l1.7695-4.5977-1.8008 4.5898 0.03125 0.007813 1.7695-4.5977-1.8008 4.5898 0.058593-0.14062-0.058593 0.14062 0.058593-0.14062-0.058593 0.14062c0.070312 0.019531 1.3477 0.53906 3.1602 1.5781 2.7305 1.5508 6.6094 4.293 9.5781 8.0625 1.5 1.8867 2.793 4.0273 3.7109 6.4492 0.92187 2.4297 1.4805 5.1484 1.4922 8.3711-0.011719 1.6797-0.36328 3.0273-1.0312 4.3984-0.58203 1.1914-1.4492 2.3789-2.6289 3.5703-2.0508 2.0898-5.0625 4.0898-8.4805 5.75-5.1094 2.5195-11.051 4.2812-15.621 5.3477-2.2812 0.53125-4.2305 0.90234-5.5898 1.1328-0.67187 0.11719-1.1992 0.19922-1.5508 0.25-0.16797 0.019531-0.30078 0.039062-0.37891 0.050781l-0.082031 0.007812h-0.007813l0.41797 3.3203-0.41016-3.3203h-0.007813l0.41797 3.3203-0.41016-3.3203c-4.0703 0.51172-6.957 4.1602-6.5273 8.2305l4.5469-0.48047-4.5469 0.46094v0.019531l4.5469-0.48047-4.5469 0.46094c0 0.078125 0.097656 1.1211 0.097656 2.7305 0 1.8281-0.12891 4.4102-0.59766 7.1797-0.35156 2.0703-0.89062 4.25-1.6914 6.3008-0.58984 1.5469-1.3203 3.0195-2.1914 4.3477-1.3203 2-2.918 3.6914-5.0273 5.0508-2.1211 1.3516-4.793 2.4102-8.5195 2.8789h0.007813c-1.0781 0.13281-2.1602 0.20312-3.25 0.20312-2.5781 0-5.1992-0.37109-7.8281-1.0508-4.6094-1.1914-9.2617-3.3594-13.602-6.0312-6.5195-3.9883-12.301-9.0781-16.359-13.141-2.0391-2.0195-3.6484-3.7891-4.7305-5.0273-0.55078-0.62109-0.96094-1.1016-1.2188-1.4219-0.14062-0.17188-0.23047-0.28125-0.29297-0.35938l-0.058594-0.070313-0.007812-0.019531-2.5703 2.0391 2.5703-2.0312v-0.007813l-2.5703 2.0391 2.5703-2.0312c-1.2734-1.6172-3.1211-2.6172-5.1836-2.8203-2.0469-0.1875-4.0586 0.45312-5.6094 1.8008l0.28125 0.33203-0.28125-0.33203 0.28125 0.33203-0.28125-0.33203c-0.25 0.21094-17.379 14.922-44.641 29.449-13.617 7.2734-29.77 14.5-47.566 19.883-17.812 5.3906-37.242 8.9375-57.5 8.9375-17.84 0-36.301-2.7383-54.992-9.4102-18.68-6.668-37.598-17.277-56.34-33.188l-0.25-0.19922-3.1211 4.0078 3.1523-3.9883-0.03125-0.019531-3.1211 4.0078 3.1523-3.9883-0.38281 0.48047 0.38281-0.48047-0.38281 0.48047 0.38281-0.48047c-0.011719-0.011719-0.19922-0.16016-0.51953-0.45312-3.1211-2.7266-7.8633-2.4297-10.59 0.69141-2.7305 3.1094-2.4297 7.8516 0.67969 10.582 0.66016 0.57813 1.0703 0.91016 1.1875 0.98828l4.6016-5.918-4.8516 5.7188c20.031 17.02 40.59 28.598 61.012 35.891 20.41 7.2891 40.66 10.277 60.031 10.277 22.18 0 43.227-3.9102 62.289-9.7188 28.598-8.7188 52.77-21.711 69.879-32.531s27.141-19.5 27.359-19.68l-4.9102-5.668-5.8906 4.6484c0.22266 0.26172 6.4023 8.1016 16.273 16.152 4.9375 4.0078 10.816 8.0977 17.469 11.25 3.3203 1.5781 6.8398 2.918 10.539 3.8789s7.5898 1.5312 11.59 1.5312c1.6797 0 3.3906-0.10156 5.1016-0.32031h0.007812c3.3828-0.42187 6.4922-1.2227 9.3203-2.3516 4.9609-1.9805 8.9922-5 12.012-8.4414 2.2773-2.5781 4.0195-5.3789 5.3477-8.1797 1.9922-4.1992 3.082-8.4102 3.7031-12.16 0.62891-3.7578 0.77734-7.0703 0.77734-9.5078 0-2.4922-0.16016-4.0703-0.17969-4.2812l-7.4609 0.78125 0.93359 7.4492c0.15625-0.019531 2.9766-0.37891 7.1992-1.2891 3.1602-0.67969 7.0977-1.6602 11.309-3.082 3.1602-1.0586 6.4688-2.3594 9.7305-3.9688 2.4414-1.2188 4.8594-2.6094 7.1602-4.2422 3.4414-2.4492 6.6602-5.4492 9.1016-9.2695 1.2188-1.8984 2.2266-4.0078 2.9297-6.2969 0.6875-2.2812 1.0703-4.7305 1.0703-7.25 0.007813-6.9414-1.7812-13.043-4.4336-18.012-1.9766-3.7383-4.4297-6.8711-6.9297-9.4492-3.7695-3.8711-7.6875-6.5312-10.707-8.2891-3.0234-1.75-5.1602-2.5898-5.4531-2.7031l-2.6875 7 6.7109 3.3516c0.097656-0.19922 2.1562-4.3398 4.2578-10.422 1.0508-3.0391 2.1094-6.5664 2.9219-10.367 0.79688-3.8008 1.3672-7.8828 1.3672-12.062 0-4.1797-0.55859-8.5195-2.2305-12.707-0.83984-2.0898-1.957-4.1406-3.418-6.0312-1.4492-1.8906-3.2422-3.6211-5.3086-5.0703-3.0117-2.1094-6.3516-3.4609-9.7305-4.2812-3.3906-0.82812-6.8516-1.1484-10.312-1.1484-5.4297 0.007813-10.867 0.78125-16.047 1.8984-7.7617 1.6719-14.941 4.1211-20.242 6.1602-5.3008 2.0312-8.7188 3.6602-8.8516 3.7305l3.2305 6.7617 7.1602-2.2305c-0.046875-0.16016-5.4102-17.34-15.207-40.832-1.6016-3.8203-5.9922-5.6172-9.8125-4.0273-3.8203 1.5977-5.6289 5.9883-4.0273 9.8086"/>
 <path d="m1766.3 1577.1c-7.7188-3.2695-15.711-6.0508-23.91-8.2773-15.609-4.2422-29.891-6.0234-42.84-6.0234-17.398 0-32.391 3.2109-44.961 7.8008-12.578 4.5898-22.75 10.543-30.648 15.93v0.011718c-5.832 3.9883-10.461 7.6992-13.77 10.238-1.6289 1.2695-2.9609 2.2422-3.7305 2.7227-0.17969 0.10938-0.33203 0.19922-0.42969 0.25l-0.082031 0.039062v0.007813l1.2227 2.8906-0.76172-3.0391c-0.26953 0.070312-0.39844 0.12109-0.46094 0.14844l1.2227 2.8906-0.76172-3.0391 1.2812 5.1016v-5.25c-0.60156 0-1.0117 0.078125-1.2812 0.14844l1.2812 5.1016v-5.25 5.7188l0.30859-5.7109c-0.070313-0.007812-0.17969-0.007812-0.30859-0.007812v5.7188l0.30859-5.7109-0.41016 7.4922 1.0625-7.4297h-0.023437l-0.41797 2.8594 0.46094-2.8516-0.042969-0.007813-0.41797 2.8594 0.46094-2.8516-0.98047 6.082 1.9492-5.8398c-0.57031-0.19141-0.85938-0.22266-0.96875-0.24219l-0.98047 6.082 1.9492-5.8398c-3.9297-1.3203-8.1797 0.80859-9.4883 4.7383-1.3125 3.9297 0.80859 8.1719 4.7383 9.4805 0.51953 0.17969 0.89844 0.25 1.1719 0.30078 0.25781 0.050781 0.41016 0.070312 0.46875 0.078125l0.64844 0.070312c0.14062 0 0.3125 0.011719 0.51172 0.011719 0.9375 0 1.7188-0.14062 2.3906-0.3125 1.25-0.32031 2.1484-0.75 2.9805-1.1797 1.418-0.76953 2.6367-1.6172 3.9688-2.5898 1.9805-1.4609 4.1602-3.1992 6.6992-5.1484 2.5391-1.9492 5.4297-4.1211 8.6992-6.3516h-0.007812c7.1875-4.9102 16.23-10.168 27.328-14.219 11.102-4.0508 24.262-6.9023 39.82-6.9023 11.582 0 24.5 1.582 38.902 5.5 7.5391 2.043 14.887 4.6016 22 7.6133 3.8164 1.6172 8.2188-0.16016 9.8281-3.9805 1.6211-3.8125-0.16016-8.2109-3.9805-9.832"/>
 <path d="m1886.4 1758.1 2.7773-0.35938-2.7773 0.33984v0.019532l2.7773-0.35938-2.7773 0.33984c0 0.058594 0.30078 2.5391 0.30078 6.8789 0 7.8125-0.97266 21.621-6.2734 38.25-5.3086 16.652-14.918 36.109-32.348 55.492-2.7695 3.0781-2.5195 7.8203 0.55859 10.59 3.0703 2.7695 7.8203 2.5195 10.59-0.5625 18.961-21.059 29.621-42.539 35.492-60.957 5.8672-18.422 6.9805-33.773 6.9805-42.812 0-5.3594-0.39062-8.5-0.43359-8.7773-0.52734-4.1133-4.2891-7.0117-8.3867-6.4805-4.1133 0.52734-7.0117 4.2891-6.4805 8.3984"/>
 <path d="m1710.4 1682.6 7.4609 0.73828c0.007813-0.058594 0.039063-0.33984 0.10156-0.71875 0.23828-1.5312 0.86719-4.7383 2.0195-9.0391 2-7.5625 5.5781-18.602 11.449-31.09 8.8086-18.762 22.75-40.762 44.199-59.539 10.719-9.3906 23.32-18 38.172-25.051 14.84-7.043 31.93-12.543 51.68-15.652 3.9102-0.61719 7.8203-0.94922 11.699-0.94922 3.9375 0 7.8281 0.33984 11.629 1.0703 12.52 2.4102 21.379 7.7109 27.129 13.949 5.75 6.2617 8.4102 13.5 8.4102 20.121 0 3.2695-0.63672 6.3906-1.8867 9.2383-1.25 2.8633-3.1016 5.4531-5.6406 7.7109-1.9297 1.7109-2.8398 4.2812-2.4219 6.832 0.42188 2.5469 2.1094 4.6875 4.4922 5.6875l0.070313 0.042969c0.17969 0.089844 0.65625 0.36719 1.2383 0.80859 1.0312 0.76953 2.3984 2.0195 3.7812 3.5898 2.0781 2.3594 4.1875 5.4414 5.7188 8.8086 1.5312 3.3828 2.4688 7.0117 2.4609 10.633 0 2.5977-0.46094 5.2188-1.5898 7.9492-0.83984 2.0508-2.082 4.1797-3.8711 6.3906-2.6719 3.3086-6.6211 6.8086-12.301 10.277-5.6797 3.4727-13.09 6.8906-22.551 10.02-3.2695 1.0898-5.3867 4.2812-5.1094 7.7227 0.011719 0.14844 0.089843 1.3281 0.089843 3.207 0 2.7422-0.17969 6.9805-0.9375 11.66-0.57031 3.5234-1.4727 7.2812-2.832 10.863-1.0195 2.6797-2.2891 5.2383-3.8281 7.5469-2.3203 3.4727-5.2109 6.332-9.0117 8.4219-1.8984 1.0391-4.0586 1.8984-6.5586 2.5078-2.5117 0.60156-5.3711 0.96094-8.6719 0.96094-2.668 0-5.6211-0.23828-8.8711-0.75781-3.1289-0.5-6.2383 1.0078-7.7578 3.7891l3.0898 1.6992-3.082-1.7188-0.007813 0.019531 3.0898 1.6992-3.082-1.7188c-0.007813 0.027344-4.8477 8.5781-14.887 16.859-5.0195 4.1484-11.32 8.2383-18.992 11.301-7.6797 3.0586-16.73 5.1094-27.438 5.1094-5.6523 0-11.762-0.57031-18.371-1.8906-10.98-2.1914-20.652-7.8008-27.859-15.641-7.2109-7.8477-11.922-17.879-13.031-28.969-0.35156-3.5312-0.55078-7.3086-0.55078-11.34 0-3.9102 0.19141-8.0508 0.62109-12.422l-7.4609-0.73828-7.4609-0.74219c-0.48828 4.8633-0.69922 9.5-0.69922 13.902 0 4.5312 0.23047 8.8086 0.62891 12.82 1.4336 14.418 7.5938 27.5 16.902 37.629 9.3203 10.141 21.82 17.391 35.98 20.211 7.5273 1.5 14.641 2.1797 21.301 2.1797 12.84 0.007813 24.02-2.5312 33.438-6.3516 7.0703-2.8672 13.16-6.4492 18.289-10.188 7.7109-5.6328 13.301-11.621 17.012-16.25 3.7109-4.6406 5.5391-7.9297 5.7109-8.2305l-6.5703-3.6211-1.1992 7.4102c3.9688 0.64062 7.7188 0.94922 11.258 0.94922 5.1914 0 9.9414-0.66797 14.242-1.9297 3.7578-1.0977 7.168-2.6602 10.199-4.5586 5.3086-3.332 9.3984-7.6914 12.461-12.352 2.2969-3.5 4.0469-7.168 5.3867-10.801 2.0117-5.457 3.1211-10.848 3.7617-15.59 0.64062-4.7383 0.78125-8.8477 0.78125-11.73 0-2.6172-0.12109-4.2383-0.13281-4.3984l-7.4766 0.58984 2.3594 7.1211c9.1797-3.0391 16.859-6.4102 23.289-10.07 4.8203-2.7422 8.9297-5.6484 12.398-8.7109 5.2109-4.5898 8.9922-9.5586 11.422-14.699s3.4883-10.422 3.4805-15.398c0-4.8633-0.97266-9.4414-2.4727-13.562-2.2578-6.1797-5.6602-11.391-9.1484-15.449-1.7617-2.0195-3.5391-3.7617-5.3086-5.2109-0.88281-0.71875-1.7617-1.3672-2.6602-1.9492-0.91016-0.57812-1.8203-1.0898-2.8594-1.5312l-2.9102 6.9102 4.9766 5.6094c4.1523-3.6797 7.332-8.1094 9.4336-12.918 2.0977-4.8203 3.1367-10.012 3.1367-15.25 0-10.641-4.2578-21.461-12.367-30.27-8.1133-8.832-20.07-15.621-35.352-18.531-4.8086-0.91797-9.6484-1.3398-14.449-1.3398-4.7305 0-9.4219 0.40234-14.039 1.1289-33.211 5.2305-59.98 16.91-81.262 31.652-15.961 11.039-28.828 23.789-39.141 36.758-15.48 19.473-25.23 39.43-31.219 55.223-3 7.8984-5.0508 14.758-6.3906 20.02-0.67969 2.6289-1.168 4.8594-1.5312 6.6484-0.16797 0.89062-0.30859 1.6719-0.41797 2.3398-0.10938 0.67969-0.19141 1.2422-0.24219 1.7891l7.4609 0.74219"/>
 <path d="m1634.4 1588.7c-0.03125-0.058594-12.52-19.309-27.102-39.539-7.3008-10.129-15.109-20.492-22.262-28.922-3.5781-4.2188-6.9883-7.957-10.18-11.008-1.6094-1.5195-3.1602-2.8828-4.7188-4.0625-1.5703-1.1797-3.1094-2.1875-4.9414-2.9883l-2.9766 6.8789-1.4219 7.3594s0.12891 0.03125 0.39844 0.082031c1.9609 0.37891 11 2.1602 20.281 4.2188 4.6289 1.0391 9.332 2.1523 13.191 3.1719 1.918 0.50781 3.6289 1 4.9688 1.4375 0.66016 0.21094 1.2422 0.41016 1.6719 0.58203 0.4375 0.16016 0.75 0.30078 0.82813 0.33984 2.7109 1.3594 5.9609 0.94922 8.25-1.0312 2.3008-1.9805 3.1719-5.1406 2.2305-8.0195l-7.1016-21.609h65.582l20.531 34.758c1.5195 2.5703 4.3984 3.9805 7.3594 3.6328 2.9688-0.35938 5.418-2.4297 6.2773-5.2891l11.57-38.441-7.1797-2.1602-3.1797 6.8008 0.5-1.0703-0.5 1.0703 0.5-1.0703-0.5 1.0703c0.058594 0.027344 5.1094 2.3906 12.602 6.418 5.6172 3.0195 12.617 6.9805 19.918 11.582 5.4727 3.4492 11.109 7.2578 16.461 11.277 8.0117 6.0312 15.352 12.59 20.41 18.93 2.5391 3.1602 4.5 6.2617 5.7617 9.1016 1.2773 2.8516 1.8594 5.3984 1.8594 7.6719 0 0.46875-0.03125 0.92969-0.082031 1.3789-0.42969 4.1211 2.5625 7.8203 6.6719 8.25 4.1172 0.44141 7.8203-2.5508 8.25-6.6719 0.097656-0.98828 0.16016-1.9688 0.16016-2.957 0-2.8633-0.44141-5.6719-1.1914-8.3906-1.4297-5.082-3.9609-9.8203-7.1211-14.312-5.5586-7.8398-13.129-15.02-21.367-21.617-12.352-9.8711-26.262-18.352-37.141-24.441-10.883-6.0898-18.723-9.7617-18.84-9.8086-1.9609-0.92188-4.25-0.94141-6.2422-0.050781-1.9805 0.87891-3.4883 2.5977-4.1094 4.6797l-6.6406 22.051-14.008-23.699c-1.3516-2.293-3.8008-3.6914-6.4492-3.6914h-80.211c-2.4102 0-4.6719 1.1484-6.082 3.1016-1.4102 1.9492-1.8008 4.457-1.0508 6.7383l10.332 31.449 7.1211-2.3398 3.3594-6.7109c-0.78906-0.38672-1.5508-0.69922-2.3711-1.0078-1.5078-0.5625-3.2188-1.1016-5.1484-1.6523-3.3516-0.95703-7.332-1.9492-11.473-2.918-12.398-2.9023-26.168-5.5508-26.219-5.5586-3.7578-0.72266-7.4609 1.5-8.5898 5.1562-1.1289 3.6523 0.67969 7.5703 4.1914 9.0938 0.1875 0.066406 0.91797 0.47656 1.8477 1.1875 1.7812 1.3398 4.3125 3.7109 7.1211 6.7188 4.9414 5.293 10.859 12.582 16.852 20.453 8.9883 11.82 18.207 25 25.16 35.188 3.4688 5.0898 6.3672 9.4531 8.4102 12.52 1.0195 1.543 1.8164 2.7617 2.3594 3.5898 0.26953 0.41016 0.48047 0.73047 0.61719 0.95312 0.070312 0.097656 0.12109 0.17969 0.16016 0.23828l0.050781 0.082031c2.25 3.4688 6.9023 4.457 10.371 2.207 3.4805-2.2578 4.4688-6.8984 2.2188-10.379"/>
 <path d="m1583 1527.1c-0.17188 0.089844-1.75 0.91797-4.0703 2.4297-3.4805 2.2773-8.6484 6.0586-13.238 11.449-2.293 2.7109-4.4414 5.8281-6.0625 9.4492-1.6094 3.6016-2.6875 7.7305-2.6797 12.191-0.007813 3.7383 0.76172 7.6602 2.3789 11.531 1.6328 3.8789 4.0898 7.707 7.4102 11.469l5.6211-4.9688-6.5781-3.6133c-0.16016 0.30078-1.0312 1.9219-1.9023 4.5117-0.87109 2.5898-1.7578 6.168-1.7578 10.41-0.011718 2.3086 0.26953 4.8203 1 7.4102 1.0703 3.8789 3.2383 7.9102 6.6797 11.41 3.4375 3.5078 8.0703 6.4688 13.969 8.7383 3.8594 1.4922 8.1992-0.42969 9.6914-4.3008 1.4883-3.8594-0.42969-8.1992-4.3008-9.6875-2.8594-1.1094-5.0117-2.3125-6.6094-3.5-1.2031-0.89062-2.1094-1.7617-2.8125-2.6094-1.0391-1.2695-1.6602-2.4727-2.0586-3.7031-0.39844-1.2188-0.55859-2.4766-0.55859-3.7578-0.011718-2.0703 0.46875-4.1523 0.96875-5.6289 0.25-0.74219 0.5-1.3398 0.66797-1.7031 0.082031-0.1875 0.15234-0.32031 0.18359-0.37891l0.019531-0.050781-3.2695-1.7188 3.2383 1.7812 0.03125-0.0625-3.2695-1.7188 3.2383 1.7812c1.5312-2.7812 1.1484-6.2031-0.94922-8.582-2.4102-2.7305-3.9102-5.168-4.8125-7.3203-0.88672-2.1484-1.2188-4-1.2188-5.7383 0-1.3789 0.21094-2.7188 0.62109-4.0625 0.69922-2.3281 2.0508-4.707 3.7891-6.9297 2.6094-3.3477 6.1016-6.2773 8.8984-8.2695 1.4023-1 2.6328-1.7695 3.4727-2.2695 0.41797-0.25781 0.75-0.4375 0.96094-0.55859 0.097656-0.0625 0.17969-0.10156 0.21875-0.12109l0.03125-0.019532-1.2734-2.4102 1.2617 2.4219 0.011719-0.011719-1.2734-2.4102 1.2617 2.4219c3.668-1.9102 5.1016-6.4414 3.1914-10.113-1.9219-3.6797-6.4414-5.1094-10.121-3.1875"/>
 <path d="m1513.6 1751.6c-0.16016 0.082031-1.8203 1.0312-4.2695 2.7227-3.668 2.5391-9.1211 6.707-13.949 12.43-2.4102 2.8711-4.6602 6.1484-6.3789 9.8906-1.7109 3.7305-2.8633 7.9805-2.8633 12.559 0 3.7109 0.78125 7.6016 2.4414 11.371 2.5 5.6875 6.6484 10.25 11.629 13.359 4.9922 3.0977 10.82 4.8008 16.852 4.8008h0.16016c6.5703-0.03125 14.301-0.42188 22.129-0.42188 5.4805 0 10.98 0.19141 16.039 0.78125 3.793 0.42969 7.332 1.0977 10.391 2.0078 2.2891 0.69141 4.3125 1.5234 5.9805 2.4531 1.2617 0.69922 2.3203 1.457 3.2109 2.2695 1.3281 1.207 2.2695 2.5 2.9609 4.1094 0.6875 1.6094 1.1367 3.5977 1.1367 6.2695 0 0.73047-0.027344 1.5-0.10938 2.3203l7.4727 0.66797-3.9102-6.3867 2.5195 4.1094-2.4727-4.1523-0.046875 0.042968 2.5195 4.1094-2.4727-4.1523 0.5 0.85156-0.48828-0.85156h-0.011719l0.5 0.85156-0.48828-0.85156c-0.011719 0.011718-2.2188 1.3008-6.4297 2.582-4.2188 1.2812-10.43 2.5703-18.539 2.5703-4.043 0-8.5625-0.32031-13.531-1.1328-1.0391-0.15625-2.0781-0.25-3.1094-0.25-2.6602 0-5.2188 0.5625-7.5 1.5625-3.4297 1.5-6.25 3.9297-8.2422 6.8984-1.9766 2.9727-3.1602 6.5391-3.168 10.34-0.011718 3.3828 0.98828 6.9219 3.0078 10.012 1.8203 2.8008 4 5.5977 6.6406 8.2305 3.9414 3.9492 8.9219 7.5 15 10 6.082 2.5195 13.223 3.9805 21.391 3.9688 9.4805 0 20.352-1.9297 32.91-6.3203 5.5703-1.9609 10.41-4.3008 14.551-7.0586 6.1992-4.1094 10.852-9.2109 13.801-14.922 1.4688-2.8398 2.5273-5.8203 3.207-8.8398 0.68359-3.0078 0.98047-6.0703 0.98047-9.1211 0-4.9688-0.78906-9.9062-2.0977-14.75-2.3008-8.4766-6.1797-16.707-10.641-24.398-6.6914-11.52-14.73-21.828-21.129-29.328-6.4023-7.5117-11.16-12.191-11.281-12.301-2.9492-2.9102-7.6992-2.8711-10.602 0.089844-2.9102 2.9492-2.8672 7.6992 0.089844 10.598l0.23047-0.23828-0.23047 0.23828 0.23047-0.23828-0.23047 0.23828c0.15234 0.14062 10.641 10.543 20.891 24.652 5.1211 7.0508 10.18 15.031 13.859 22.98 1.8398 3.9688 3.332 7.918 4.3516 11.719 1.0195 3.7891 1.5586 7.4102 1.5586 10.738 0 2.7422-0.35938 5.2812-1.0977 7.6328-0.55078 1.7695-1.3203 3.4375-2.3516 5.0586-1.5508 2.4219-3.7109 4.75-6.7891 6.9688-3.082 2.2227-7.1016 4.3125-12.25 6.1211-11.309 3.9609-20.531 5.4922-27.961 5.4805-4.2812 0-7.9609-0.5-11.168-1.3281-4.8203-1.2617-8.5898-3.2617-11.723-5.6914-3.1172-2.4297-5.5898-5.3086-7.5469-8.3398-0.47266-0.73047-0.59375-1.2695-0.60156-1.8516 0-0.42969 0.089844-0.89062 0.28906-1.3398 0.28125-0.67969 0.8125-1.3398 1.4414-1.7773 0.64844-0.43359 1.3281-0.67188 2.1797-0.68359 0.21875 0 0.46094 0.023437 0.71875 0.0625 5.7695 0.92969 11.09 1.3203 15.922 1.3203 10.168 0 18.16-1.6992 23.688-3.4609 5.543-1.7695 8.6133-3.5898 9.0508-3.8594 2.0312-1.2422 3.3398-3.3516 3.5508-5.7188 0.12109-1.25 0.16797-2.4727 0.16797-3.6719 0-3.4805-0.47656-6.7695-1.457-9.8086-0.85938-2.6602-2.1016-5.1133-3.6406-7.2812-1.3516-1.8906-2.9219-3.5703-4.6289-5.0312-3-2.5508-6.4102-4.4297-10-5.8672-5.3906-2.1406-11.203-3.3203-17.141-4.0117-5.9414-0.69141-12.012-0.89062-17.852-0.89062-8.2891 0-16.16 0.39062-22.211 0.42188h0.042968-0.12109c-3.1992 0-6.3203-0.91016-8.8984-2.5312-2.5938-1.6211-4.6328-3.8906-5.8516-6.6602-0.85156-1.9609-1.1602-3.6602-1.1719-5.3398 0-1.3789 0.23047-2.75 0.67187-4.1797 0.78125-2.4805 2.2695-5.0898 4.1992-7.5586 2.8906-3.7227 6.7305-7.043 9.8008-9.332 1.5391-1.1484 2.8789-2.0508 3.8086-2.6406 0.47266-0.30078 0.83203-0.51953 1.0703-0.66016 0.10938-0.070312 0.19922-0.11719 0.25-0.14844l0.039062-0.03125h0.011719l-1.5898-2.8008 1.5781 2.8008h0.011719l-1.5898-2.8008 1.5781 2.8008-2.9688-5.2383 2.9609 5.25 0.007812-0.011719-2.9688-5.2383 2.9609 5.25c3.6094-2.0391 4.8789-6.6211 2.8477-10.223-2.0391-3.6094-6.6172-4.8789-10.219-2.8398"/>
 <path d="m1618.1 1836.1c0.089843 0.94141 0.37109 1.9609 0.83203 2.8516 0.39844 0.78906 0.91797 1.4688 1.4492 2.0117 0.94141 0.9375 1.8711 1.4375 2.6094 1.7578 1.1328 0.48047 1.9414 0.60937 2.6406 0.71094 0.69922 0.078125 1.2891 0.097656 1.8594 0.097656 1.332 0 2.6016-0.10938 4.0625-0.27734 2.5391-0.28906 5.5898-0.75 9.2578-1.2891 5.4805-0.80078 12.312-1.7734 20.25-2.543 7.9414-0.76953 16.992-1.3398 26.871-1.3398 14.25 0 30.219 1.1797 47.07 4.6602 14.52 3 26.16 7.7695 35.52 13.18 14.02 8.1328 22.941 17.75 28.359 25.293 2.7109 3.7695 4.5391 7 5.6719 9.2383 0.55859 1.1211 0.94922 1.9805 1.1797 2.5391 0.11719 0.28125 0.19922 0.48047 0.25 0.58984l0.039062 0.10938 3.2109-1.1797-3.2227 1.1523 0.011718 0.027344 3.2109-1.1797-3.2227 1.1523c1.3906 3.8984 5.6797 5.9297 9.582 4.5391 3.8984-1.3906 5.9375-5.6914 4.5391-9.5898-0.23828-0.67187-4.5078-12.371-16.91-25.719-6.2109-6.6719-14.449-13.73-25.191-19.953-10.727-6.2188-23.938-11.578-40-14.887-18.02-3.7227-35.02-4.9727-50.098-4.9727-15.93 0-29.742 1.4023-40.352 2.7891-5.3008 0.69141-9.8008 1.3906-13.301 1.8906-1.7383 0.25-3.2383 0.45312-4.418 0.58984-1.1719 0.13281-2.0508 0.19141-2.3711 0.17969h-0.089843l-0.050781 1.0234 0.10156-1.0117-0.050781-0.011719-0.050781 1.0234 0.10156-1.0117-0.37891 3.8711 0.89844-3.7812c-0.28906-0.070313-0.44922-0.078125-0.51953-0.089844l-0.37891 3.8711 0.89844-3.7812-1.3203 5.5898 2.2305-5.2891c-0.39844-0.17188-0.69141-0.25-0.91016-0.30078l-1.3203 5.5898 2.2305-5.2891-2.5312 6 3.5898-5.4297c-0.41016-0.26953-0.75781-0.44922-1.0586-0.57031l-2.5312 6 3.5898-5.4297-3.8281 5.7773 5.8008-3.7969c-0.62109-0.94141-1.3594-1.582-1.9727-1.9805l-3.8281 5.7773 5.8008-3.7969-5.9102 3.8789 7.0391-0.67187c-0.089844-1.0586-0.51172-2.2773-1.1289-3.207l-5.9102 3.8789 7.0391-0.67187c-0.39062-4.1172-4.0508-7.1484-8.168-6.7578-4.1328 0.39062-7.1602 4.0508-6.7734 8.168"/>
 <path d="m1545.2 1683.9c-1.0781 11.039-7.8008 19.418-15 18.707-7.1992-0.69922-12.16-10.23-11.078-21.27 1.0898-11.051 7.8086-19.43 15.008-18.719 7.1992 0.71094 12.16 10.238 11.07 21.281"/>
 <path d="m1599.5 1690c-1.0898 11.043-7.8086 19.422-15.008 18.711-7.1992-0.69922-12.16-10.23-11.082-21.27 1.0898-11.051 7.8125-19.43 15.012-18.719 7.1992 0.70703 12.16 10.238 11.078 21.277"/>
 <path d="m1620.7 1506.9s0.67969 0.75 1.7617 2.1406c0.53906 0.69141 1.1992 1.5391 1.8984 2.5391s1.5117 2.1211 2.3203 3.3906c3.3008 5.0195 7.1484 12.062 10.242 19.441 0.76953 1.8516 1.5273 3.6914 2.1875 5.5508 0.71094 1.8398 1.3203 3.6797 1.8711 5.4805 0.28125 0.89844 0.57031 1.7773 0.82031 2.6367 0.23047 0.88281 0.46094 1.7422 0.67969 2.5703 0.42969 1.6719 0.82812 3.25 1.0977 4.7305 0.30078 1.4805 0.54297 2.8398 0.74219 4.043 0.19141 1.2188 0.28906 2.2773 0.39063 3.1562 0.1875 1.75 0.23828 2.7617 0.23828 2.7617s-0.46875-0.89844-1.1992-2.5c-0.71094-1.5898-1.7188-3.8594-2.9297-6.5898-1.1719-2.7109-2.5312-5.8789-4-9.2695-1.4297-3.3906-2.9688-7.0117-4.5-10.629-0.76172-1.8125-1.5195-3.6211-2.2617-5.4102-0.75-1.793-1.4883-3.543-2.1797-5.2617-0.71875-1.6992-1.3594-3.3711-2.0078-4.9414-0.62109-1.5781-1.2109-3.0664-1.7617-4.457-1.0586-2.7812-1.9297-5.1094-2.5078-6.7617-0.3125-0.82031-0.51172-1.4883-0.67187-1.9297-0.14844-0.44922-0.23047-0.69141-0.23047-0.69141"/>
 <path d="m1741.2 1699.3s0.058594-0.14062 0.17969-0.40234c0.11719-0.27734 0.29688-0.6875 0.53906-1.2305 0.46875-1.0078 1.1406-2.4492 2.0391-4.2383 1.7812-3.5898 4.4102-8.582 7.8594-14.359 1.7227-2.9023 3.6523-5.9922 5.7617-9.1992 2.1211-3.2109 4.3984-6.5508 6.8789-9.9219 1.2109-1.6992 2.5312-3.3711 3.8203-5.0898 1.3398-1.6914 2.6719-3.4102 4.0586-5.0898 1.4102-1.6797 2.8008-3.3984 4.2695-5.0508l2.2031-2.5 2.25-2.4492c3.0078-3.2617 6.1602-6.3906 9.3086-9.3984 1.5703-1.5 3.2109-2.9219 4.7812-4.3633 1.6172-1.3789 3.2188-2.75 4.8008-4.0898 1.6172-1.2773 3.2188-2.5391 4.7773-3.7695 1.6016-1.168 3.1719-2.3203 4.6914-3.4375 3.1094-2.1523 6.0703-4.1406 8.8906-5.8203 0.69922-0.42969 1.3789-0.85156 2.0469-1.2617 0.69141-0.37891 1.3633-0.75781 2.0117-1.1211 1.3008-0.72656 2.5391-1.4102 3.6992-2.0586 2.3906-1.1797 4.4414-2.2383 6.1602-3.0508 3.4727-1.5273 5.4609-2.4102 5.4609-2.4102s-1.832 1.1523-5.0391 3.1602c-1.582 1.043-3.4492 2.3828-5.6016 3.8711-1.0391 0.78906-2.1484 1.6406-3.3203 2.5312-0.57812 0.44922-1.1797 0.91016-1.7891 1.3672-0.58984 0.5-1.1992 1-1.8203 1.5234-2.5 2.0195-5.0703 4.3594-7.7617 6.8594-1.3086 1.2773-2.6484 2.5977-4.0195 3.9492-1.3203 1.3984-2.668 2.8203-4.0391 4.2695-1.3203 1.5-2.6602 3.0195-4.0078 4.5586-1.3008 1.5898-2.6523 3.1602-3.9414 4.8008-2.5703 3.2891-5.1094 6.6719-7.4922 10.16l-1.7969 2.6211-1.7227 2.6484c-1.1602 1.75-2.2305 3.5508-3.3203 5.3203-1.0781 1.7695-2.0898 3.5625-3.1094 5.3203-0.96875 1.7891-1.9688 3.5195-2.8672 5.2812-1.8633 3.4805-3.5312 6.8984-5.0703 10.16-1.5195 3.2695-2.8906 6.3789-4.082 9.2773-2.3984 5.793-4.1406 10.68-5.25 14.082-0.55859 1.7109-0.96875 3.0391-1.2188 3.918-0.0625 0.21094-0.12109 0.41016-0.17188 0.58203-0.027344 0.14062-0.070312 0.25781-0.089844 0.35938-0.058594 0.23047-0.097656 0.33984-0.097656 0.33984-1.4414 5.3516-6.9531 8.5117-12.301 7.0586-5.3398-1.4492-8.5-6.957-7.0508-12.297 0.12109-0.46094 0.26953-0.90234 0.46094-1.332l0.03125-0.078125"/>
</svg>
