<svg width="200" height="200" version="1.1" viewBox="807 80 602 579" xmlns="http://www.w3.org/2000/svg">
<defs>
 </defs>
<g>
  <path d="m1245.7 447.47 23.789 172.17-155.17-71.301c-1.9688-0.89844-4.2422-0.91016-6.2188-0.019532l-158.34 71.469 22.387-169.35c0.30078-2.2422-0.42969-4.4922-1.9766-6.1328l-120.36-127.36 0.17969-0.027344 168.92-30.711c2.2812-0.42188 4.2305-1.8594 5.3086-3.9102l82.492-158 83.918 158.05c1.1016 2.0703 3.1016 3.5 5.4102 3.8789l170.38 27.93-118.78 127.16c-1.5391 1.6484-2.25 3.9102-1.9414 6.1484" fill="#f3ef14"/>
  <path d="m1245.7 447.47 23.789 172.17-155.17-71.301c-1.9688-0.89844-4.2422-0.91016-6.2188-0.019532l-158.34 71.469 157.49-110.41 121.57 58.52-9.582-114.02 147.18-139.72-118.78 127.16c-1.5391 1.6484-2.25 3.9102-1.9414 6.1484" fill="#e2db0a"/>
  <path d="m1106.7 124.3-68.352 186.8s-179.47 4.6484-188.37 5.8203l168.92-30.711c2.2812-0.42188 4.2305-1.8594 5.3086-3.9102l82.492-158" fill="#f8f451"/>
  <path d="m1063.3 386.37h-6.6016c-6.1484 0-11.129-4.9922-11.129-11.133v-61.719c0-6.1484 4.9805-11.129 11.129-11.129h6.6016c6.1484 0 11.129 4.9805 11.129 11.129v61.719c0 6.1406-4.9805 11.133-11.129 11.133" fill="#0f0e0c"/>
  <path d="m1159.6 386.37h-6.5977c-6.1406 0-11.133-4.9922-11.133-11.133v-61.719c0-6.1484 4.9922-11.129 11.133-11.129h6.5977c6.1523 0 11.133 4.9805 11.133 11.129v61.719c0 6.1406-4.9805 11.133-11.133 11.133" fill="#0f0e0c"/>
  <path d="m1056.9 331.25c0 11.129-1.8828 20.148-4.1992 20.148-2.3203 0-4.1914-9.0195-4.1914-20.148s1.8711-20.141 4.1914-20.141c2.3164 0 4.1992 9.0117 4.1992 20.141" fill="#fff"/>
  <path d="m1153.6 331.25c0 11.129-1.8789 20.148-4.1914 20.148-2.3203 0-4.1992-9.0195-4.1992-20.148s1.8789-20.141 4.1992-20.141c2.3125 0 4.1914 9.0117 4.1914 20.141" fill="#fff"/>
  <path d="m1017.6 278.83 6.6484 3.4727 82.492-158 83.918 158.05c1.0898 2.0586 3.1094 3.5078 5.4102 3.8789l170.38 27.93-118.78 127.16c-1.5312 1.6406-2.25 3.918-1.9414 6.1484l23.789 172.17-155.17-71.301c-1.9805-0.89844-4.2422-0.91016-6.2188-0.019532l-158.34 71.461 22.391-169.34c0.29688-2.2305-0.4375-4.5-1.9844-6.1328l-120.36-127.36 169.1-30.738c2.2617-0.41016 4.2383-1.8711 5.3086-3.9102l-6.6484-3.4727-1.3398-7.3789-182.71 33.223c-2.707 0.48828-4.9258 2.4297-5.7852 5.0391-0.85547 2.6172-0.21094 5.4883 1.6758 7.4883l127.41 134.81-23.691 179.17c-0.35547 2.7109 0.77344 5.3789 2.9609 7.0117 2.1914 1.6172 5.0742 1.9297 7.5625 0.80859l167.52-75.602 164.5 75.582c2.4805 1.1406 5.418 0.82812 7.6094-0.78906 2.1914-1.6328 3.332-4.3516 2.9492-7.0508l-25.18-182.19 125.91-134.8c1.9023-2.0273 2.5195-4.9102 1.6211-7.5391-0.89062-2.6289-3.1406-4.5312-5.8789-4.9805l-180.55-29.598-88.859-167.35c-1.3008-2.4492-3.8711-3.9883-6.6523-3.9805-2.7773 0.011719-5.3398 1.5703-6.6172 4.0312l-89.09 170.63 6.6484 3.4688-1.3398-7.3789 1.3398 7.3789" fill="#0f0e0c"/>
 </g>
</svg>