<svg width="200" height="200" version="1.1" viewBox="823 765 571 574" xmlns="http://www.w3.org/2000/svg">
<defs>
 </defs>
<g>
  <path d="m1365.6 1062.9c0 80.258-42.031 120.81-107.07 140.21v-5.9727c0-11.34-4.0508-22.52-12-32.117-7.1016-8.5625-16.32-15.742-26.961-22.113-28.328-16.938-63.629-25.738-99.68-25.738h-19.711c-28.098 0-55.75 5.4805-80.23 15.969-11.75 5.043-22.641 9.9922-32.012 16.48-18.504 12.82-30.172 27.812-30.172 44.879v7.6602c-64.664-19.777-107.07-60.277-107.07-139.26 0-131.55 115.27-269.48 257.46-269.48 142.18 0 257.45 137.93 257.45 269.48" fill="#ec1b29"/>
  <path d="m1258.6 1197.1v18c0 16.352-10.699 49.473-27.512 61.422-9.3008 6.5977-20.18 11.609-32.367 17.02-25.613 11.371-54.73 17.359-84.383 17.359h-15.641c-38.977 0-76.988-10.121-106.75-29.258-7.793-5.0117-14.797-10.5-20.547-16.844-8.4453-9.2969-13.57-38.379-13.57-49.699v-20.641c0-17.066 11.668-32.059 30.172-44.879 9.3711-6.4883 20.262-11.438 32.012-16.48 24.48-10.488 52.133-15.969 80.23-15.969h19.711c36.051 0 71.352 8.8008 99.68 25.738 10.641 6.3711 19.859 13.551 26.961 22.113 7.9492 9.5977 12 20.777 12 32.117" fill="#fac284"/>
  <g fill="#fff">
   <path d="m1232.3 938.15c0 68.582-55.602 124.17-124.17 124.17-68.582 0-124.18-55.59-124.18-124.17 0-68.578 55.598-124.17 124.18-124.17 68.566 0 124.17 55.59 124.17 124.17"/>
   <path d="m919.24 1029c0 39.379-18.324 74.469-46.906 97.219-8.4727-17.879-12.598-38.91-12.598-63.348 0-38.539 10.43-78.492 29.148-115.21 18.914 21.789 30.355 50.23 30.355 81.34"/>
   <path d="m1356.6 1062.9c0 25.148-4.2188 46.688-12.871 64.891-29.707-22.691-48.891-58.48-48.891-98.762 0-31.891 12.023-60.969 31.781-82.961 19.242 37.16 29.98 77.73 29.98 116.83"/>
  </g>
  <path d="m1266.2 1192.8c-0.039062-0.25-0.070312-0.5-0.10938-0.76953-0.03125-0.28125-0.070313-0.57031-0.10938-0.85938-0.070312-0.53125-0.14844-1.0586-0.25-1.582-0.039062-0.25781-0.078125-0.50781-0.12109-0.76953-0.12891-0.69922-0.27734-1.4102-0.42969-2.0977l-0.050781-0.19922c-0.16797-0.77344-0.35938-1.543-0.57813-2.3125-0.050781-0.19922-0.12109-0.39844-0.17187-0.62109-0.16797-0.54688-0.32031-1.1094-0.48828-1.6484-0.082031-0.25781-0.17969-0.51953-0.26953-0.78125-0.16016-0.50781-0.33203-1-0.51172-1.4883-0.097656-0.26953-0.1875-0.53125-0.28906-0.80859-0.19141-0.49219-0.39844-1-0.60156-1.4922-0.097656-0.23828-0.1875-0.48828-0.29688-0.73047-0.24219-0.57031-0.51172-1.1484-0.76172-1.707-0.089844-0.16016-0.14844-0.32031-0.23047-0.48047-0.33984-0.73047-0.71094-1.4531-1.0781-2.1719-0.0625-0.12891-0.13281-0.25-0.21094-0.37109-0.30859-0.58984-0.62891-1.168-0.96094-1.75-0.12891-0.22656-0.27734-0.44922-0.41016-0.6875-0.28906-0.47266-0.55859-0.94141-0.85937-1.4102-0.14063-0.21094-0.28125-0.42188-0.41016-0.62891-0.32812-0.49219-0.87891-1.3125-1.2109-1.8125-0.089844-0.12891-0.17969-0.25-0.26953-0.37891-0.32812-0.46875-0.66797-0.92188-1.0078-1.3789-0.16016-0.22266-0.32031-0.42187-0.47266-0.63281-0.50781-0.66016-1.0273-1.3203-1.5703-1.9688-7.2578-8.7812-16.84-16.66-29.27-24.102-29.148-17.418-66.188-27.02-104.31-27.02h-19.711c-29.301 0-58.27 5.7812-83.789 16.711-11.34 4.8594-23.305 10.219-33.59 17.352-1.3594 0.9375-2.668 1.8867-3.9453 2.8398-0.42188 0.30859-0.80469 0.64062-1.2148 0.94922-0.84375 0.64062-1.6836 1.2891-2.4883 1.9414-0.47266 0.36719-0.90234 0.75781-1.3633 1.1367-0.70703 0.58984-1.418 1.1797-2.1055 1.7812-0.45703 0.41016-0.89844 0.82031-1.3555 1.2305-0.62891 0.57813-1.2656 1.1484-1.8672 1.7383-0.44531 0.42188-0.86719 0.86328-1.2969 1.2812-0.57812 0.58203-1.1445 1.1484-1.6875 1.7305-0.42188 0.42969-0.81641 0.87891-1.2148 1.3086-0.52734 0.58203-1.0352 1.1719-1.5391 1.75-0.375 0.44141-0.74609 0.87109-1.1055 1.3203-0.48438 0.58984-0.95312 1.1914-1.4102 1.7891-0.32422 0.44141-0.66016 0.87109-0.98437 1.3125-0.44531 0.62109-0.86719 1.2305-1.2891 1.8398-0.28906 0.4375-0.58984 0.87109-0.86328 1.3008-0.41016 0.64844-0.79688 1.2969-1.1797 1.9492-0.24219 0.41016-0.49609 0.80859-0.72266 1.2188-0.41016 0.73047-0.78125 1.4609-1.1406 2.1992-0.17188 0.33984-0.36328 0.67188-0.51953 1.0117-0.50391 1.0703-0.98828 2.1484-1.4062 3.2383l-0.097656 0.25c-0.38672 1.0117-0.74609 2.0117-1.0586 3.0195-0.12109 0.38281-0.21875 0.76172-0.32422 1.1328-0.20312 0.73047-0.42188 1.4492-0.58984 2.1797-0.10938 0.4375-0.19141 0.89844-0.28906 1.3398-0.13281 0.66797-0.26562 1.3398-0.38281 2-0.074218 0.48047-0.13672 0.96094-0.19531 1.4297-0.058594 0.44141-0.13281 0.87109-0.17969 1.3086-37.668-13.641-62.918-34.398-76.668-63.48-8.4727-17.879-12.598-38.91-12.598-63.348 0-38.199 10.25-77.789 28.66-114.25-17.781 35.898-27.66 74.75-27.66 112.25 0 24.438 4.125 45.469 12.598 63.348 7.5742-6.0273 14.43-12.93 20.414-20.539 8.7031 11.902 22.656 18.93 37.25 18.93 6.3945 0 12.91-1.3477 19.16-4.2305 32.727-15.09 89.211-35.109 158.53-35.109 55.637 0 119.55 12.891 186.14 51.57 11.262 6.5508 21.434 13.211 30.57 19.961-14.277 15.371-33.59 27.238-58.18 35.969m-372.24-238.84c-1.625-2.1406-3.3125-4.2188-5.0703-6.2383 4.4727-8.6211 9.3906-17.031 14.754-25.199-0.16406 0.44922-4.6602 12.758-9.6836 31.438" fill="#be1d24"/>
  <path d="m872.34 1126.2c-8.4727-17.879-12.598-38.91-12.598-63.348 0-37.5 9.8789-76.352 27.66-112.25 0.16406-0.32031 0.32422-0.62891 0.48828-0.96094 0.33984-0.66016 0.67578-1.3203 1.0195-1.9688 1.7578 2.0195 3.4453 4.0977 5.0703 6.2383-9.5195 35.402-20.938 93.652-8.3398 137.23 1.5625 5.3984 4.0039 10.27 7.1133 14.52-5.9844 7.6094-12.84 14.512-20.414 20.539" fill="#cccbc9"/>
  <path d="m1112.6 1306.8h-16.223c-39.207 0-76.727-10.43-105.65-29.379-8.1367-5.332-14.5-10.613-19.453-16.16-6.0039-6.7422-11.645-33.652-11.645-46.07v-21.793c0-13.488 9.1719-26.789 27.266-39.547 9.2461-6.5117 20.664-11.711 31.551-16.473 24.152-10.527 51.652-16.09 79.543-16.09h20.438c36.211 0 71.223 9.1719 98.59 25.832 11.031 6.7188 19.391 13.66 25.551 21.23 3.8789 4.7773 6.7188 10 8.4023 15.457-1.0938-0.59766-71.441-39.348-147.73-39.348-31.75 0-64.512 6.6992-93.762 25.648-23.66 15.332-30.031 47.652-13.82 70.949 17.199 24.703 50.141 50.812 112.52 50.82 33.242 0 74.82-7.4102 126.86-26.398l-0.027343 0.058593c-2.1211 2.7305-4.3711 5.0312-6.7305 6.7305-8.832 6.3711-19.25 11.27-31.949 17.02-5.293 2.3828-10.75 4.5391-16.32 6.4492-21.141 7.2617-44.121 11.062-67.41 11.062" fill="#c69a67"/>
  <g fill="#0f0e0c">
   <path d="m1258.6 1197.1h-7.5v18c0 1.6406-0.14062 3.6406-0.42969 5.8711-0.51172 3.9102-1.4922 8.5195-2.8828 13.301-2.0898 7.1797-5.1289 14.777-8.8164 21.301-1.8438 3.25-3.8438 6.2383-5.9102 8.7578-2.082 2.5312-4.2305 4.6016-6.3125 6.0703-4.25 3.0195-8.9688 5.75-14.16 8.3906-5.1875 2.6406-10.848 5.1992-16.91 7.8984-24.578 10.91-52.699 16.711-81.34 16.711h-15.641c-18.84 0-37.438-2.4492-54.859-7.1914-17.43-4.7383-33.668-11.77-47.828-20.879-7.4258-4.7695-13.895-9.8789-19.051-15.57h-0.003906c-0.53125-0.57812-1.2578-1.5977-2-2.9375-1.3164-2.3633-2.6758-5.6797-3.8711-9.4023-1.8047-5.5898-3.2734-12.09-4.2617-18-0.49219-2.9609-0.87109-5.7695-1.1211-8.2305-0.25-2.457-0.36719-4.5977-0.36719-6.0898v-20.641c0.003906-3.4102 0.57422-6.6992 1.7031-9.9688 1.6875-4.8906 4.6641-9.7891 8.9219-14.621 4.25-4.8398 9.7656-9.5898 16.316-14.117h0.003907c8.5898-5.9727 19.031-10.762 30.699-15.75 23.469-10.07 50.141-15.383 77.27-15.371h19.711c17.41 0 34.641 2.1289 50.879 6.2812 16.23 4.1602 31.473 10.34 44.949 18.398 10.152 6.0703 18.672 12.77 25.043 20.461 3.457 4.1797 6.0195 8.6289 7.7188 13.219 1.6992 4.6016 2.5391 9.332 2.5508 14.109h15c0-6.5586-1.1797-13.078-3.4922-19.32-2.2969-6.2305-5.7383-12.16-10.23-17.578-7.8281-9.4414-17.77-17.109-28.887-23.762v-0.007812c-14.852-8.8711-31.43-15.57-48.93-20.051-17.512-4.4805-35.961-6.75-54.602-6.75h-19.711c-29.078 0-57.688 5.6602-83.18 16.578h-0.007812c-11.832 5.0898-23.172 10.184-33.328 17.211h0.003906c-9.7617 6.7695-17.969 14.242-23.902 22.711-2.957 4.2305-5.3398 8.7188-6.9766 13.469-1.6367 4.7422-2.5234 9.7305-2.5234 14.859v20.641c0 1.6992 0.09375 3.5703 0.26172 5.6211 0.59766 7.1719 2.1328 16.59 4.5391 25.602 1.2031 4.5 2.625 8.8867 4.3281 12.879 0.85156 1.9883 1.7773 3.8906 2.8164 5.668 1.043 1.7812 2.1914 3.4531 3.5742 4.9727h-0.003907c6.3438 6.9883 13.879 12.848 22.043 18.109 15.598 10.031 33.234 17.629 52.008 22.738 18.77 5.1016 38.66 7.7109 58.797 7.7109h15.641c30.66 0 60.781-6.1797 87.422-18.008 6.1172-2.7109 12.008-5.3711 17.629-8.2305 5.6289-2.8711 11-5.9414 16.051-9.5312 5.2188-3.7305 9.5508-8.7109 13.281-14.281 5.5664-8.3672 9.8086-18.129 12.758-27.539 1.4688-4.7109 2.6094-9.3281 3.3984-13.66 0.78125-4.3398 1.2109-8.3789 1.2227-12.051v-18h-7.5"/>
   <path d="m1065.7 1231.1h-4.5195c-6.1523 0-11.133-4.9805-11.133-11.129v-55.672c0-6.1484 4.9805-11.129 11.133-11.129h4.5195c6.1484 0 11.129 4.9805 11.129 11.129v55.672c0 6.1484-4.9805 11.129-11.129 11.129"/>
   <path d="m1155.1 1231.1h-4.5195c-6.1523 0-11.133-4.9805-11.133-11.129v-55.672c0-6.1484 4.9805-11.129 11.133-11.129h4.5195c6.1484 0 11.129 4.9805 11.129 11.129v55.672c0 6.1484-4.9805 11.129-11.129 11.129"/>
  </g>
  <path d="m1060.6 1180c0 10.328-1.75 18.699-3.8984 18.699-2.1523 0-3.8906-8.3711-3.8906-18.699 0-10.32 1.7383-18.691 3.8906-18.691 2.1484 0 3.8984 8.3711 3.8984 18.691" fill="#fff"/>
  <path d="m1150.3 1180c0 10.328-1.7422 18.699-3.8906 18.699-2.1602 0-3.8984-8.3711-3.8984-18.699 0-10.32 1.7383-18.691 3.8984-18.691 2.1484 0 3.8906 8.3711 3.8906 18.691" fill="#fff"/>
  <path d="m1365.6 1062.9h-7.5c0 19.41-2.543 36.199-7.2305 50.738-3.5117 10.91-8.2188 20.551-14.031 29.16-8.7109 12.891-19.898 23.473-33.391 32.211-13.488 8.7383-29.297 15.621-47.07 20.91l2.1523 7.1914h7.5v-5.9727c0-6.5586-1.1797-13.078-3.4922-19.32-2.2969-6.2305-5.7383-12.16-10.23-17.578-7.8281-9.4414-17.77-17.109-28.887-23.762v-0.007812c-14.852-8.8711-31.43-15.57-48.93-20.051-17.512-4.4805-35.961-6.75-54.602-6.75h-19.711c-29.078 0-57.688 5.6602-83.18 16.578h-0.007812c-11.832 5.0898-23.172 10.184-33.328 17.211h0.003906c-9.7617 6.7695-17.969 14.242-23.902 22.711-2.957 4.2305-5.3398 8.7188-6.9766 13.469-1.6367 4.7422-2.5234 9.7305-2.5234 14.859v7.6602h7.5l2.1953-7.168c-15.703-4.8008-29.914-10.832-42.355-18.262-9.332-5.5781-17.668-11.949-24.941-19.219-10.902-10.91-19.441-23.82-25.34-39.371-5.8906-15.539-9.125-33.777-9.1289-55.238 0-31.789 6.9727-64.129 19.66-94.742 19.02-45.91 50.906-87.867 90.883-118.19 19.984-15.172 41.98-27.441 65.402-35.902 23.418-8.4688 48.262-13.148 74.012-13.148 34.316 0 67.047 8.3086 96.93 22.852 44.809 21.789 83.16 57.648 110.22 100.08 27.078 42.43 42.809 91.371 42.801 139.05h15c-0.011719-33.992-7.4414-68.219-20.812-100.48-20.059-48.379-53.457-92.359-95.668-124.4-21.102-16.012-44.41-29.043-69.371-38.062-24.941-9.0195-51.531-14.039-79.098-14.039-36.773 0-71.773 8.918-103.5 24.359-47.594 23.172-87.855 60.91-116.31 105.51-28.441 44.598-45.129 96.117-45.145 147.11 0 20.41 2.7422 38.559 8.0117 54.629 3.9453 12.051 9.3203 22.93 15.957 32.652 9.957 14.59 22.75 26.566 37.688 36.27 14.938 9.6992 32.016 17.16 50.723 22.879l9.6914 2.9688v-17.801c0.003906-3.4102 0.57422-6.6992 1.7031-9.9688 1.6875-4.8906 4.6641-9.7891 8.9219-14.621 4.25-4.8398 9.7656-9.5898 16.316-14.117h0.003907c8.5898-5.9727 19.031-10.762 30.699-15.75 23.469-10.07 50.141-15.383 77.27-15.371h19.711c17.41 0 34.641 2.1289 50.879 6.2812 16.23 4.1602 31.473 10.34 44.949 18.398 10.152 6.0703 18.672 12.77 25.043 20.461 3.457 4.1797 6.0195 8.6289 7.7188 13.219 1.6992 4.6016 2.5391 9.332 2.5508 14.109v16.043l9.6406-2.8828c16.73-4.9883 32.129-11.379 45.859-19.551 10.301-6.1172 19.648-13.25 27.871-21.508 12.34-12.391 22.098-27.34 28.668-45.012 6.5898-17.68 10.031-38.027 10.031-61.328h-7.5" fill="#0f0e0c"/>
 </g>
</svg>