<svg width="200" height="200" version="1.1" viewBox="194 873 485 473" xmlns="http://www.w3.org/2000/svg">
<defs>
 </defs>
<g>
  <path d="m614.41 1064.4-0.011718 217.6c0 8.6211-6.1289 15.992-14.578 17.512-13.789 2.4805-29.832 4.6094-47.492 6.3203-24.777 2.4102-52.77 4.0273-82.277 4.7305-11.062 0.26953-22.34 0.39844-33.742 0.39844-21.508 0-42.57-0.48047-62.598-1.3984-4.7617-0.21094-9.4727-0.46094-14.109-0.73047-21.301-1.2227-41.203-2.9609-58.902-5.1523-10.059-1.25-19.41-2.6367-27.91-4.168-8.4492-1.5195-14.578-8.8906-14.578-17.52v-217.59c12.008 2.5977 26.367 4.8906 42.488 6.8398 17.762 2.1406 37.652 3.8477 58.902 5.0703 4.6367 0.26953 9.3477 0.50781 14.109 0.73047 20.07 0.91797 41.141 1.3984 62.598 1.3984 11.391 0 22.672-0.14062 33.742-0.39844 29.418-0.70312 57.418-2.3203 82.277-4.7031 24.184-2.3086 45.391-5.3281 62.082-8.9375" fill="#87d385"/>
  <path d="m643.07 949.86v88.312c-0.91016 1-5.4102 4.8984-23.039 9.457-10.051 2.6016-22.453 4.9414-36.66 6.9609-23.031 3.2891-50.832 5.7695-81.16 7.25-21 1.0312-43.211 1.5703-65.902 1.5703-35.66 0-70.137-1.3398-100.57-3.7812-4.8086-0.39062-9.5195-0.80078-14.117-1.2383-21.801-2.082-41.07-4.75-56.609-7.9219-4.4609-0.89844-8.6133-1.8477-12.422-2.8398h-0.011719c-8.8164-2.2773-14.348-4.3906-17.789-6.0703-3.4375-1.6602-4.7891-2.8867-5.25-3.3867v-88.312c7.5703 3.4805 18.832 6.9297 35.473 10.16 5.5977 1.082 11.797 2.1406 18.68 3.1719 11.629 1.7383 24.348 3.2578 37.93 4.5391 4.6094 0.42969 9.3203 0.83984 14.117 1.2188 30.652 2.4219 64.961 3.7109 100.57 3.7109 22.703 0 44.871-0.51953 65.902-1.5391 29.949-1.4297 57.59-3.8398 81.16-7.1328 1.8789-0.25781 3.7305-0.52734 5.5586-0.79688 27.32-4.082 44.02-8.6797 54.141-13.332" fill="#87d385"/>
  <path d="m470.05 1075.5v234.66h95.406v-234.66z" fill="url(#radial-pattern-2)"/>
  <path d="m292.33 916.96c39.301-5.4023 90.434-8.3828 143.98-8.3828s104.68 2.9805 143.98 8.3828c46.102 6.3398 58.816 13.59 62.008 16.16-3.1914 2.5586-15.906 9.8203-62.008 16.16-39.301 5.3984-90.434 8.3789-143.98 8.3789s-104.68-2.9805-143.98-8.3789c-46.102-6.3398-58.816-13.602-62.008-16.16 3.1914-2.5703 15.906-9.8203 62.008-16.16" fill="#87d385"/>
  <path d="m580.73 1066.9v235.6h20.789v-235.6z" fill="url(#radial-pattern-2)"/>
  <path d="m470.05 1310.5v-232.52c19.012-0.45312 37.438-1.293 54.801-2.4727 9.5-0.64062 18.684-1.3906 27.477-2.2305v232.49c-21.391 2.0781-45.176 3.5703-70.262 4.3906h-0.035156c-0.082031 0.007813-0.16406 0.007813-0.24609 0.007813-3.8828 0.12891-7.793 0.24219-11.734 0.33203" fill="#5fc572"/>
  <path d="m601.6 1064.4v2.5h12.812v-2.5z" fill="url(#radial-pattern-2)"/>
  <g fill="#5fc572">
   <path d="m565.46 1304.4c5.2695-0.61328 10.367-1.25 15.27-1.9336-4.9023 0.68359-9.9961 1.332-15.27 1.9336"/>
   <path d="m580.77 1302.5c0.039063-0.007812 0.082031-0.007812 0.125-0.019531-0.042969 0.011719-0.082031 0.011719-0.125 0.019531"/>
   <path d="m552.33 1073.3c18.32-1.75 34.93-3.9102 49.164-6.418-14.234 2.5078-30.852 4.6797-49.164 6.418m49.188-6.418c0.027344-0.011719 0.054687-0.011719 0.082031-0.019531-0.027344 0.007812-0.050781 0.007812-0.082031 0.019531"/>
  </g>
  <path d="m552.33 1305.8v-232.49c18.312-1.7383 34.93-3.9102 49.164-6.418h0.023437c0.03125-0.011719 0.054687-0.011719 0.082031-0.019531 4.5195-0.80078 8.7969-1.6328 12.812-2.5l-0.011718 217.6c0 8.6211-6.1289 15.992-14.578 17.512-5.9141 1.0586-12.238 2.0586-18.926 2.9883-0.042969 0.011719-0.085937 0.011719-0.125 0.019531h-0.042969c-4.9023 0.68359-10 1.3203-15.27 1.9336-4.2656 0.47656-8.6445 0.94922-13.129 1.3789" fill="#48a05f"/>
  <path d="m502.21 1053.3v8.5117h89.547v-8.5117z" fill="url(#radial-pattern-2)"/>
  <g>
   <path d="m502.21 1061.8v-90.719c29.949-1.4297 57.586-3.8398 81.16-7.1328v90.602c-23.031 3.2891-50.832 5.7695-81.16 7.25" fill="#5fc572"/>
   <path d="m591.76 1053.3c10.734-1.7188 20.25-3.6289 28.273-5.6992-8.0195 2.0703-17.539 3.9805-28.273 5.6992m-8.3867-89.34c1.8789-0.25781 3.7305-0.52734 5.5586-0.79688-1.8281 0.26953-3.6797 0.53906-5.5586 0.79688" fill="#5fc572"/>
   <path d="m583.37 1054.6v-90.602c1.8789-0.25781 3.7305-0.52734 5.5586-0.79688 27.32-4.082 44.02-8.6797 54.141-13.332v88.312c-0.91016 1-5.4102 4.8984-23.039 9.457-8.0234 2.0703-17.539 3.9805-28.273 5.6992-2.7188 0.43359-5.5156 0.85156-8.3867 1.2617" fill="#48a05f"/>
   <path d="m605.36 931.67c0 7.4492-74.695 13.5-166.84 13.5-92.145 0-166.84-6.0508-166.84-13.5 0-7.4609 74.695-13.5 166.84-13.5 92.141 0 166.84 6.0391 166.84 13.5" fill="#50bf5c"/>
  </g>
  <g fill="#b2e2b1">
   <path d="m300.7 1303.6c-10.059-1.25-19.41-2.6367-27.91-4.168-8.4492-1.5195-14.578-8.8906-14.578-17.52v-217.59c12.008 2.5977 26.367 4.8906 42.488 6.8398v232.44"/>
   <path d="m265.01 1050.5c-4.4609-0.89844-8.6133-1.8477-12.422-2.8398h-0.011719c-8.8164-2.2773-14.348-4.3906-17.789-6.0703-3.4375-1.6602-4.7891-2.8867-5.25-3.3867v-88.312c7.5703 3.4805 18.832 6.9297 35.473 10.16v90.449"/>
   <path d="m373.71 1309.5c-4.7617-0.21094-9.4727-0.46094-14.109-0.73047v-232.52c4.6367 0.26953 9.3477 0.50781 14.109 0.73047v232.52"/>
   <path d="m335.74 1059.6c-4.8086-0.39062-9.5195-0.80078-14.117-1.2383v-90.66c4.6094 0.42969 9.3203 0.83984 14.117 1.2188v90.68"/>
  </g>
  <g fill="#0f0e0c">
   <path d="m650.57 933.12h-7.5 2.3594l-2.2422-0.76172c-0.058594 0.17188-0.11719 0.46094-0.11719 0.76172h2.3594l-2.2422-0.76172 1.2773 0.42969-1.2031-0.59766-0.074219 0.16797 1.2773 0.42969-1.2031-0.59766 0.40234 0.19922-0.39062-0.23047-0.011719 0.03125 0.40234 0.19922-0.39062-0.23047-0.046875 0.070313c-0.12891 0.17969-0.61719 0.71094-1.5156 1.3477-1.6836 1.2305-4.7344 2.8125-8.8438 4.3438-3.5938 1.3594-8.0039 2.7188-13.105 4.0273-8.9375 2.2891-19.992 4.4414-32.738 6.3594-19.125 2.8711-42.059 5.2109-67.578 6.832s-53.625 2.5195-83.141 2.5195c-29.43 0-57.465-0.89844-82.926-2.5117-19.098-1.1992-36.75-2.8086-52.449-4.75-11.773-1.457-22.445-3.0898-31.789-4.8672-7.0039-1.332-13.262-2.75-18.656-4.2109-4.0391-1.0898-7.5938-2.2188-10.594-3.3398-2.2461-0.83984-4.1797-1.6797-5.7539-2.4805-1.1797-0.60156-2.1602-1.1797-2.9141-1.6914-1.1367-0.76953-1.7305-1.418-1.8516-1.5977l-0.03125-0.050782-0.003906 0.011719 0.003906-0.011719-0.003906 0.011719 0.003906-0.011719-1.1953 0.66797 1.3086-0.35938c-0.046875-0.17969-0.10156-0.27734-0.11328-0.30859l-1.1953 0.66797 1.3086-0.35938-2.3555 0.65234h2.4414c0-0.24219-0.035157-0.48047-0.085938-0.65234l-2.3555 0.65234h2.4414-2.3555l2.2383 0.75781c0.058594-0.16797 0.12109-0.46875 0.11719-0.75781h-2.3555l2.2383 0.75781-1.2773-0.42969 1.207 0.60156 0.070312-0.17188-1.2773-0.42969 1.207 0.60156-0.40625-0.19922 0.39062 0.22656 0.015625-0.027344-0.40625-0.19922 0.39062 0.22656 0.046875-0.066406c0.12891-0.18359 0.61719-0.71094 1.5195-1.3516 1.6836-1.2305 4.7344-2.8086 8.8398-4.3398 3.5938-1.3594 8.0039-2.7188 13.109-4.0312 8.9336-2.2891 19.988-4.4492 32.734-6.3594 19.125-2.8711 42.062-5.2109 67.578-6.8281 25.52-1.6211 53.629-2.5234 83.141-2.5234 29.434 0 57.465 0.89062 82.93 2.5 19.098 1.2109 36.746 2.8203 52.445 4.7617 11.773 1.4492 22.445 3.0898 31.789 4.8711 7.0078 1.3281 13.266 2.7383 18.656 4.2109 4.043 1.0898 7.5977 2.2188 10.594 3.3398 2.2461 0.83984 4.1797 1.6797 5.7539 2.4766 1.1836 0.60156 2.1602 1.1836 2.9141 1.6914 1.1367 0.76953 1.7305 1.4102 1.8516 1.6016l0.03125 0.039062h0.003906-0.003906 0.003906-0.003906l1.1992-0.66016-1.3125 0.35938c0.046875 0.17969 0.10156 0.28125 0.11328 0.30078l1.1992-0.66016-1.3125 0.35938 2.3594-0.64844h-2.4453c0 0.23828 0.039062 0.48047 0.085937 0.64844l2.3594-0.64844h-2.4453 15c0.003906-1.4023-0.24609-2.793-0.67578-4.0625-0.41797-1.2305-0.99609-2.3398-1.6602-3.3281-1.3008-1.9297-2.8906-3.4492-4.6523-4.8008-3.3125-2.5-7.3203-4.4688-12.156-6.3594-4.2266-1.6289-9.0781-3.1406-14.559-4.582-9.582-2.5078-21.074-4.7578-34.219-6.7578-19.715-2.9922-43.137-5.4023-69.164-7.0586-26.02-1.6719-54.633-2.5938-84.68-2.5938-29.734 0-58.07 0.90234-83.875 2.5312-19.355 1.2305-37.285 2.8594-53.336 4.8398-12.039 1.4922-23.016 3.1719-32.758 5.0195-7.3047 1.3906-13.914 2.8828-19.777 4.4727-4.3984 1.1875-8.3711 2.4375-11.922 3.7695-2.6641 1-5.0898 2.0391-7.2891 3.1484-1.6523 0.83984-3.1758 1.7188-4.5859 2.6914-2.1094 1.4492-3.9883 3.0586-5.5312 5.168-0.76562 1.0625-1.4414 2.25-1.9258 3.5898-0.48438 1.332-0.76953 2.8125-0.76562 4.3125 0 1.3984 0.24609 2.7891 0.67578 4.0586 0.41797 1.2305 0.99609 2.3398 1.6641 3.332 1.2969 1.9297 2.8867 3.4492 4.6484 4.7891 3.3125 2.5078 7.3203 4.4805 12.156 6.3594 4.2266 1.6406 9.082 3.1484 14.559 4.5898 9.582 2.5 21.074 4.7617 34.223 6.7617 19.711 2.9883 43.137 5.3984 69.16 7.0586 26.02 1.668 54.637 2.5898 84.68 2.5898 29.738 0 58.07-0.89844 83.875-2.5391 19.355-1.2227 37.289-2.8594 53.336-4.8398 12.039-1.4805 23.016-3.1602 32.758-5.0117 7.3086-1.3906 13.918-2.8789 19.777-4.4688 4.3984-1.1914 8.375-2.4414 11.926-3.7695 2.6641-1 5.0859-2.043 7.2891-3.1602 1.6484-0.83984 3.1758-1.7227 4.582-2.6797 2.1094-1.4531 3.9883-3.0625 5.5352-5.1719 0.76562-1.0586 1.4375-2.25 1.9219-3.5898 0.48828-1.3281 0.76953-2.8086 0.76562-4.3086h-7.5"/>
   <path d="m330.68 921.13s1.7422-0.17969 5.0039-0.52734c3.2617-0.32031 8.0508-0.83203 14.156-1.3203 6.1055-0.51172 13.523-1.1094 22.039-1.6211 8.5156-0.53125 18.129-1.082 28.625-1.4688 10.496-0.42969 21.867-0.8125 33.902-0.99219 12.031-0.21094 24.73-0.37109 37.863-0.23828 6.5664 0.050781 13.242 0.12891 20.004 0.25 6.7578 0.10937 13.602 0.27734 20.496 0.55859 13.793 0.51953 27.801 1.2109 41.82 2.25 7.0039 0.55859 14.008 1.2305 20.992 2.0508 6.9883 0.85156 13.93 1.7695 20.93 3.3398 1.7539 0.39844 3.5156 0.85156 5.332 1.4492 0.91406 0.30078 1.8359 0.65234 2.8398 1.1289 0.49609 0.23047 1.0195 0.52344 1.5938 0.90234 0.29688 0.21094 0.56641 0.37891 0.91797 0.71094 0.16797 0.16016 0.31641 0.27734 0.49219 0.46875 0.1875 0.21875 0.37109 0.44141 0.53906 0.67969 0.15625 0.19141 0.36328 0.58984 0.51172 0.92188 0.078125 0.17969 0.14844 0.34766 0.21094 0.52734 0.058593 0.22266 0.10938 0.44922 0.14453 0.67969 0.039062 0.23047 0.0625 0.46094 0.074219 0.67969-0.074219 1.4219-0.035157 0.49219-0.058594 0.85156l-0.027344 0.14844c0.011719-0.027344-0.046875 0.25-0.12891 0.53125-0.078125 0.25-0.17578 0.51172-0.28906 0.76172-0.10156 0.21875-0.27734 0.53906-0.35547 0.64844-0.16406 0.23047-0.33984 0.46094-0.52734 0.67969-0.19922 0.24219-0.33203 0.33984-0.50391 0.5-0.16016 0.14062-0.33594 0.30078-0.49219 0.42187-1.2109 0.89844-2.1836 1.2969-3.1328 1.6875-1.8945 0.76172-3.625 1.1992-5.3711 1.6328-6.9102 1.6094-13.57 2.418-20.16 3.1875-13.152 1.4805-25.852 2.1797-37.895 2.75-12.039 0.57031-23.422 0.82031-33.926 0.94922-10.508 0.16016-20.137 0.12109-28.668 0.042968-8.5312-0.070312-15.969-0.26172-22.09-0.42187-6.1211-0.14844-10.93-0.35938-14.207-0.48047-3.2773-0.14844-5.0273-0.23047-5.0273-0.23047s6.9883-0.32031 19.223-0.87891c6.1094-0.28906 13.531-0.64844 22.039-1.0586 8.5039-0.46094 18.098-0.99219 28.562-1.5625 5.2266-0.30859 10.672-0.66016 16.301-1.0586 5.6289-0.39844 11.449-0.78906 17.422-1.2617 11.945-0.95703 24.531-2.1367 37.414-3.7891 6.4102-0.85938 12.992-1.8281 19.199-3.4102 1.5195-0.41016 3.0625-0.85938 4.3086-1.3906 0.61719-0.25 1.1992-0.57812 1.3438-0.70703h-0.011719l-0.050781 0.046876-0.13281 0.17969c-0.007812 0.023437-0.15625 0.24219-0.20312 0.37109-0.070312 0.15234-0.12109 0.3125-0.15625 0.47266-0.035156 0.1875-0.039062 0.35938-0.027344 0.22656l0.023438-0.16016c-0.015625 0.25 0.070312-0.78906-0.027344 0.53125-0.007812 0.12109 0 0.24219 0.023438 0.37109 0.019531 0.12109 0.050781 0.23828 0.097656 0.34766l0.074219 0.25c0.046875 0.14062 0.19922 0.33203 0.20312 0.37109l0.14062 0.17188 0.023437 0.039062-0.097656-0.070312c-0.13672-0.089844-0.36328-0.21875-0.64062-0.33984-0.54297-0.26172-1.2227-0.51953-1.9375-0.75-1.4375-0.46875-3.0117-0.87109-4.6133-1.2188-6.4453-1.4023-13.289-2.2812-20.125-3.0625-6.8555-0.75781-13.781-1.3594-20.719-1.8906-13.867-1.1172-27.793-1.8984-41.508-2.5078-13.719-0.57031-27.227-1.1602-40.309-1.4922-13.086-0.32812-25.734-0.66016-37.738-0.83984-12-0.16016-23.348-0.32031-33.828-0.38672-10.48-0.023438-20.086-0.042969-28.602-0.050781-8.5195 0.058593-15.949 0.10937-22.062 0.14844-12.242 0.17188-19.238 0.26953-19.238 0.26953"/>
   <path d="m214.54 933.12v105.75c-0.003906 1.8477 0.43359 3.668 1.1367 5.2305 0.61719 1.3789 1.418 2.5781 2.3086 3.6367 1.5664 1.8516 3.3984 3.3203 5.4453 4.6523 3.0742 1.9883 6.6875 3.6797 10.914 5.2812 4.2227 1.5977 9.0547 3.0781 14.492 4.4766l3.75-14.52c-4.3867-1.1289-8.2539-2.3008-11.527-3.4688-2.4531-0.87891-4.5703-1.7617-6.3047-2.6016-1.3047-0.62891-2.3906-1.25-3.2344-1.7969-1.2695-0.82031-1.9648-1.543-2.1289-1.7734l-0.042969-0.058593-0.007812-0.007813-1.0859 0.61719 1.1953-0.33984c-0.050781-0.17969-0.10547-0.27734-0.10938-0.27734l-1.0859 0.61719 1.1953-0.33984-2.332 0.67188h2.4219c0-0.25-0.039062-0.5-0.089843-0.67188l-2.332 0.67188h2.4219v-105.75h-15"/>
   <path d="m643.07 933.12v105.75h2.1562l-1.9883-0.89062c-0.0625 0.12891-0.17188 0.5-0.16797 0.89062h2.1562l-1.9883-0.89062 0.75781 0.33984-0.72656-0.39844-0.03125 0.058594 0.75781 0.33984-0.72656-0.39844 0.011719 0.007813-0.011719-0.007813 0.011719 0.007813-0.011719-0.007813c-0.03125 0.066406-0.50391 0.65625-1.5547 1.4062-1.5586 1.1406-4.3086 2.5938-7.9844 4.0234-3.6836 1.4297-8.2969 2.8789-13.695 4.2773l3.75 14.52c4.7305-1.2188 9.0078-2.5 12.82-3.8672 2.8594-1.0195 5.457-2.0898 7.8125-3.2305 1.7656-0.85938 3.3906-1.7617 4.8906-2.7422 2.2422-1.4805 4.2344-3.1172 5.8789-5.2773 0.8125-1.0703 1.5352-2.3008 2.0547-3.6797 0.52344-1.3828 0.83203-2.9219 0.82812-4.4805v-105.75h-15"/>
   <path d="m621.91 1054.9h-7.5l-0.007812 227.08c-0.003906 4.3125-1.5352 8.293-4.1289 11.422-2.6055 3.1211-6.2188 5.3203-10.449 6.0898-19.281 3.4688-43.703 6.3398-71.512 8.3398-27.812 1.9883-59.031 3.1094-92.004 3.1094s-64.195-1.1211-92.008-3.1094c-27.812-2-52.23-4.8711-71.516-8.3398-4.2266-0.76172-7.8438-2.9688-10.445-6.0898-2.5977-3.1289-4.1289-7.1094-4.1289-11.422v-227.08h-7.5l-1.8789 7.2578c9.6094 2.4922 21.105 4.7227 34.234 6.7031 19.688 2.9688 43.039 5.3477 68.957 7 25.914 1.6484 54.391 2.5586 84.285 2.5586 39.859 0 77.199-1.6211 109.31-4.4492 16.055-1.4102 30.809-3.1328 43.934-5.1094 13.129-1.9805 24.625-4.2109 34.234-6.7031l-1.8789-7.2578h-7.5 7.5l-1.8789-7.2617c-8.9102 2.3008-19.961 4.4727-32.711 6.3906-19.133 2.8789-42.105 5.2422-67.676 6.8594-25.57 1.6328-53.746 2.5312-83.336 2.5312-39.449 0-76.391-1.6016-107.99-4.3906-15.797-1.3906-30.262-3.0781-43.016-5-12.75-1.918-23.801-4.0898-32.711-6.3906l-9.3789-2.4297v236.77c0 7.9023 2.8281 15.293 7.5977 21.012 4.7656 5.7305 11.523 9.8594 19.324 11.258 20.016 3.6016 44.879 6.5117 73.094 8.543 28.215 2.0195 59.77 3.1484 93.082 3.1484s64.867-1.1289 93.078-3.1484c28.215-2.0312 53.074-4.9414 73.094-8.543 7.7969-1.3984 14.555-5.5273 19.32-11.258 4.7695-5.7188 7.6016-13.109 7.6016-21.012l0.007812-236.77-9.3789 2.4297 1.8789 7.2617"/>
  </g>
 </g>
</svg>