<svg width="200" height="200" version="1.1" viewBox="110 1509 518 448" xmlns="http://www.w3.org/2000/svg">
 <g fill="#7bcb34">
  <path d="m548.34 1683.2c-15.75-1.3594-35.629 1.0312-61.98 7.0703-7.7188 1.7695-16 3.8594-24.891 6.25l-25.109-13.559c-14.418-7.7812-25.121-21.32-29.348-37.16l-12.551-46.941c0.33984-0.1406 0.67969-0.2773 1.0195-0.4297 2.7305-1.1211 5.418-2.3477 8.0391-3.7305l48.801-25.391c17.289 11.094 33.969 25.91 49.969 44.48 22.621 26.25 38.133 53.762 46.051 69.41"/>
  <path d="m347.2 1731.6c-21.289 6.9297-39.695 11.43-55.621 14.078-16.254-3.668-33.426-22.84-41.383-33.488 2.3633-4.5117 4.4531-9.1602 6.2422-13.961l32.137-86.078c4.8633 1.1875 9.8789 1.8164 14.973 1.8164 2.9258 0 5.875-0.1992 8.832-0.6094l57.773-8.0078c3.3789-0.4726 6.7148-1.1211 10.008-1.9219l12.359 46.242c2 7.5 5.168 14.578 9.2969 21.008-9.5352 34.43-26.305 49.852-30.078 52.973-7.8867 2.5391-16.051 5.1797-24.539 7.9492"/>
  <path d="m237.52 1731.7c1.5078-1.8906 2.9375-3.832 4.3242-5.8125 5.3008 6.5508 13.371 15.492 23.004 22.762-15.746 0.6875-28.191-0.8203-38.008-3.543l10.68-13.406"/>
  <path d="m413.23 1684.5c4.7656 4.5508 10.129 8.4922 16 11.66l11.453 6.1797c-12.879 3.7305-26.879 8-42.145 12.789 5.043-7.75 10.297-17.828 14.691-30.629"/>
  <path d="m436.84 1560.5-40.238 20.941c-4.4297 2.2969-9.0117 4.207-13.723 5.7188l-0.11719 0.051c-0.33203 0.1094-0.67188 0.207-1 0.3086-4.4531 1.3594-9.0234 2.3711-13.672 3.0117l-57.77 8.0078c-8.0117 1.1211-15.969 0.1992-23.301-2.4805-0.12109-0.051-0.23828-0.1094-0.37109-0.1602-0.21875-0.078-0.4375-0.1484-0.66797-0.207-7.5-2.9414-14.301-7.7617-19.73-14.223 18.602-14.238 39.281-24.418 61.941-30.488 8.0391-2.1719 16.328-3.8008 24.867-4.9219 29.141-3.8203 57.141 1.0391 83.781 14.441"/>
  <path d="m220.21 1631c10.418-15.34 21.934-28.68 34.504-39.988 5.6172 6.6992 12.367 12.039 19.812 15.891l-32.137 86.09c-3.957 10.598-9.543 20.457-16.594 29.316l-13.551 17c-2.1016-1.1289-4-2.3086-5.7188-3.5273-17.289-12.199-19.746-29.332-20.09-33.492 1.6641-6.0586 11.082-37.879 33.773-71.289"/>
 </g>
 <g fill="#c3c2c3">
  <path d="m345.18 1921.1c-0.25781 0-0.51953 0.012-0.78906 0.012-5.0898 0-10.082-0.1601-14.949-0.4922-45.562-3.0195-81.52-20.137-107.03-51-11.711-14.168-18.711-28.477-22.641-38.508 0.87109 0.2578 1.7422 0.5196 2.6211 0.7578l8e-3 0.012c16.812 4.7695 35.203 7.1914 54.93 7.1914 5.3516 0 10.801-0.1797 16.344-0.543 3.6484 9.8633 11.879 27.781 25.727 45.281 13.25 16.73 28.672 29.238 45.781 37.289"/>
  <path d="m446.9 1900.9c-12.32 6.2695-28.5 12.098-49.52 15.867-33.551 1.0195-62.129-12.66-84.98-40.719-12.027-14.75-19.379-29.93-23.117-38.941l-0.0117-0.01c15.5-1.8711 29.57-4.793 41.219-7.75 4.543 9.2305 16.672 23.82 47.543 20.738 8e-3 0.1289 0.0273 0.2695 0.0469 0.4023 0.11328 0.5781 2.8828 14.277 16.211 27.379 9.3203 9.1484 25.539 19.551 52.609 23.031"/>
  <path d="m485.68 1867.1c-3.2383 5.3477-8.7109 12.59-17.559 19.98-65.992 0.6602-74.949-37.73-75.32-39.5l-0.0508-0.1992c31.559-9.0703 31.219-35.871 29-48.941 4.0781-1.4102 8.2383-2.8516 12.441-4.3008 1.4102 14.531 6.3086 41.02 23.258 58.082 7.8516 7.8984 17.312 12.879 28.23 14.879"/>
  <path d="m542.18 1798.7-0.5 9.5195 0.24219-0.039c-0.8125 8.9375-3.6211 22.988-13 32.969-4.3633 4.6406-9.8125 7.9492-16.293 9.9102-4.5078 1.3594-9.5273 2.0586-15.008 2.1094-0.33984-0.027-0.67969-0.02-1.0117 0-11.609-0.098-20.938-3.8281-28.48-11.398-15.109-15.18-18.508-41.43-19.277-52.57 1.6602-0.5703 3.3203-1.1289 4.9688-1.6914 8.2109-2.7891 16.309-5.5078 23.98-8.0469-0.33203 12.469 0.59766 45.059 19.27 46.02 22.07 1.1289 32.758-28.883 27.898-59.73 3.4219-0.1093 6.2305 0.7188 8.4805 2.5391 8.0703 6.5781 9.0391 24.191 8.7305 30.41"/>
 </g>
 <path d="m172.68 1710.8v21.309h9.3594v-21.309z" fill="url(#radial-pattern-12)"/>
 <path d="m589.93 1759.3c-5.2383 13.84-17.508 24.871-33 30.133-0.83984-9.8906-3.8711-24.523-13.98-32.773-4.9492-4.0469-13.699-8.1367-27.238-4.6367-34.57 8.9688-152.18 51.027-157.17 52.809l-0.30859 0.12109c-0.55078 0.23047-26.301 10.52-61.289 15.898h-0.011718c-12.418 1.9102-26 3.1992-40.031 3.1992-32.727 0-67.918-7.0195-96.449-29.578-20.898-16.57-13.91-44.34-11.27-52.449 4.8203-14.82 14.18-26.934 23.48-31.262l0.019532 0.070312c1.3086 5.7305 3.9805 13.48 9.3594 21.309l0.03125 0.050782c3.7188 5.3984 8.7188 10.82 15.461 15.641 30.797 22.039 82.719 21.391 154.31-1.9414 8.8789-2.8906 17.422-5.6484 25.66-8.3008l0.03125-0.007813c67.578-21.691 114-34.992 145.12-38.68 34.5-4.082 48.383 4.0312 59.59 18.449 10.23 13.141 12.961 28.039 7.6914 41.949" fill="#fff"/>
 <path d="m256.9 1824c-32.727 0-67.918-7.0195-96.449-29.578-11.469-9.1016-14.539-21.57-14.539-32.312 0-8.8203 2.0781-16.488 3.2695-20.137 4.8203-14.82 14.18-26.934 23.48-31.262l0.019532 0.070312c1.3086 5.7305 3.9805 13.48 9.3594 21.309l0.03125 0.050782c14.738 28 48.711 75.07 114.86 88.66-12.418 1.9102-26 3.1992-40.031 3.1992" fill="#cccbc9"/>
 <path d="m329.44 1920.6c-45.562-3.0195-81.52-20.137-107.03-51-11.711-14.168-18.711-28.477-22.641-38.508 0.87109 0.25781 1.7422 0.51953 2.6211 0.75781l0.007813 0.011718c18.82 21.359 63.051 67.918 127.04 88.738"/>
 <path d="m393.91 1916.8c-32.055 0-59.449-13.691-81.508-40.77-12.027-14.75-19.379-29.93-23.117-38.941 0.71875 1.082 47.367 70.09 119.66 70.09 11.984 0.011719 24.66-1.8906 37.961-6.2969-12.32 6.2695-28.5 12.098-49.52 15.867-1.1602 0.03125-2.3242 0.050782-3.4727 0.050782"/>
 <path d="m466.45 1887.1c-64.473 0-73.277-37.75-73.645-39.5 0 0 30.031 27.551 63.719 27.551 9.6289 0 19.547-2.25 29.16-8.0312-3.2383 5.3477-8.7109 12.59-17.559 19.98h-1.6758"/>
 <path d="m497.62 1853.1c-0.15625-0.019531-0.30859-0.019531-0.46094-0.019531-0.18359 0-0.37109 0-0.55078 0.019531-11.609-0.097656-20.938-3.8281-28.48-11.398-15.109-15.18-18.508-41.43-19.277-52.57 1.6602-0.57031 3.3203-1.1289 4.9688-1.6914 3.6797 16.461 16.93 56.902 58.809 63.551-4.5078 1.3594-9.5273 2.0586-15.008 2.1094"/>
 <path d="m381.76 1587.5c-18.961-14.66-37-26.699-53.57-36.539 8.0391-2.1719 16.328-3.8008 24.867-4.9219 6.4219-0.84766 12.793-1.2695 19.102-1.2695 22.32 0 43.91 5.2617 64.68 15.711l-40.238 20.941c-4.4297 2.2969-9.0117 4.207-13.723 5.7188l-0.11719 0.050781c-0.33203 0.10938-0.67188 0.20703-1 0.30859" fill="#a3da66"/>
 <path d="m486.36 1690.3c-30.91-37.789-61.801-67.891-90.879-91.84 2.7305-1.1211 5.418-2.3477 8.0391-3.7305l48.801-25.391c17.289 11.094 33.969 25.91 49.969 44.48 22.621 26.25 38.133 53.762 46.051 69.41-2.8633-0.25-5.8633-0.37891-9.0117-0.37891-14.18 0-31.406 2.5-52.969 7.4492" fill="#a3da66"/>
 <path d="m186.16 1703.3c0.074219-0.28906 2.3633-9.3281 7.8281-22.918 8.1914-20.402 23.551-51.012 49.031-77.871 12.738-13.441 27.984-25.961 46.156-35.922 18.176-9.9492 39.273-17.367 63.883-20.598 6.4688-0.83984 12.773-1.25 18.914-1.25 14.758 0.007812 28.602 2.3086 41.605 6.3672 22.754 7.0898 42.973 19.582 60.527 34.48 26.332 22.34 46.555 50.082 60.082 72.199 6.7656 11.062 11.867 20.711 15.262 27.562 1.6953 3.4297 2.9648 6.1484 3.8086 8.0078 0.41797 0.92969 0.73047 1.6328 0.93359 2.1016 0.10156 0.23828 0.17578 0.41016 0.22266 0.51953l0.050782 0.12891 0.011718 0.023437c1.5938 3.8164 5.9883 5.6289 9.8086 4.0273 3.8242-1.5898 5.6289-5.9805 4.0352-9.8086-0.082031-0.19141-4.2539-10.172-12.461-25.102-12.324-22.379-33.676-55.891-64.215-84.148-15.277-14.129-32.875-26.941-52.848-36.262-19.961-9.3086-42.324-15.098-66.824-15.098-6.793 0-13.75 0.44922-20.859 1.3789-35.574 4.6406-64.797 17.602-88.352 34.359-17.676 12.57-32.188 27.242-44.012 42.152-17.738 22.359-29.461 45.25-36.797 62.598-7.3359 17.34-10.281 29.172-10.355 29.469-0.99609 4.0234 1.457 8.082 5.4766 9.082 4.0234 1 8.0898-1.4609 9.0859-5.4805"/>
 <path d="m433.62 1783.8v0.12891c0 0.89062 0.039062 6.3008 1 14.02 0.72656 5.7891 1.9648 12.879 4.1445 20.371 1.6328 5.6094 3.793 11.441 6.6992 17.109 2.1797 4.25 4.7852 8.4102 7.9141 12.281 4.6875 5.8086 10.602 10.969 17.914 14.641 7.3008 3.6797 15.945 5.7891 25.773 5.7773 6.8086 0 12.969-0.80859 18.508-2.3281 4.8477-1.332 9.2109-3.1992 13.09-5.4805 6.7891-3.9922 12.035-9.2188 15.973-14.832 5.9102-8.4375 8.9805-17.66 10.656-25.617 1.668-7.9609 1.9297-14.711 1.9297-18.371 0-1.7383-0.058593-2.7812-0.070312-2.9219-0.25781-4.1289-3.8164-7.2695-7.9531-7.0195-4.1328 0.26172-7.2734 3.8203-7.0156 7.9609l4.5-0.28125-4.5 0.26172v0.019531l4.5-0.28125-4.5 0.26172v0.03125c0.007812 0.12891 0.039062 0.82812 0.039062 1.9688 0.003907 2.5312-0.16797 7.2617-1.1289 12.781-0.71875 4.1484-1.8828 8.7383-3.6953 13.207-1.3555 3.3516-3.0703 6.6211-5.2148 9.6328-3.2266 4.5-7.3516 8.3906-12.93 11.258-5.582 2.8594-12.715 4.75-22.188 4.75-6.1016 0-11.223-1-15.652-2.6875-3.875-1.4805-7.2344-3.5-10.234-5.9531-5.2383-4.2695-9.3711-9.957-12.562-16.289-4.8008-9.4805-7.3867-20.32-8.668-28.898-1.2969-8.582-1.3281-14.879-1.3281-15.371v-0.019532l-2.7539-0.011718 2.7539 0.023437v-0.011719l-2.7539-0.011718 2.7539 0.023437c0.03125-4.1406-3.3008-7.5312-7.4414-7.5625-4.1445-0.03125-7.5273 3.3008-7.5586 7.4414"/>
 <path d="m180.7 1820.6c0.074219 0.36328 1.6211 7.6406 6.0703 18.441 3.3398 8.1016 8.3203 18.191 15.57 28.801 10.867 15.918 26.895 33.051 50.043 46.148 23.137 13.121 53.324 22.109 92.004 22.09 33.992 0 60.977-4.3281 82.367-10.957 16.043-4.9727 28.934-11.242 39.223-17.902 15.438-9.9883 24.984-20.859 30.648-29.359 5.6719-8.5117 7.4844-14.621 7.6562-15.23 1.1289-3.9883-1.1875-8.1289-5.1758-9.2578-3.9844-1.1328-8.1289 1.1875-9.2578 5.168l3.7812 1.0703-3.7656-1.1211-0.015626 0.050782 3.7812 1.0703-3.7656-1.1211s-0.015626 0.050782-0.054688 0.16016c-0.28906 0.89062-1.832 5.1992-5.8398 11.152-3.0078 4.457-7.4023 9.8477-13.738 15.457-9.5117 8.4023-23.391 17.301-43.695 24.172-20.297 6.8594-47.043 11.648-82.148 11.648-32.34 0-57.57-6.5977-77.418-16.34-14.883-7.3086-26.762-16.41-36.266-25.98-14.25-14.359-23.141-29.809-28.434-41.637-2.6445-5.9102-4.3906-10.91-5.4609-14.383-0.53516-1.7305-0.90234-3.0898-1.1328-3.9805-0.11328-0.44922-0.19141-0.77734-0.24219-0.98828-0.023438-0.10156-0.039062-0.17187-0.046875-0.21094l-0.007813-0.039063-0.050781 0.007813 0.050781-0.007813-0.050781 0.007813 0.050781-0.007813-3.0586 0.64844 3.0586-0.64844-3.0586 0.64844 3.0586-0.64844-6.875 1.4492 6.8789-1.4414-0.003907-0.007813-6.875 1.4492 6.8789-1.4414c-0.85156-4.0469-4.8242-6.6484-8.8789-5.7969-4.0547 0.83984-6.6523 4.8203-5.8047 8.8672"/>
 <path d="m524.2 1761.4c6.6055 32.301-4.0391 65.211-27.133 64.031-23.098-1.1797-19.043-50.801-19.043-50.801l46.176-13.23"/>
 <path d="m420.01 1791.1s16.754 48.969-34.566 57.949c-51.32 8.9805-57.484-26.84-57.484-26.84l92.051-31.109"/>
 <path d="m278.38 1823.2c-0.99609 0.070313-2.0703 0.37109-2.9688 0.85156-0.78906 0.41016-1.4336 0.9375-1.918 1.4492-0.85156 0.89844-1.25 1.6992-1.5078 2.3086-0.37109 0.92188-0.44922 1.4922-0.51172 1.9219-0.054687 0.42969-0.0625 0.71875-0.0625 0.95703 0.003906 0.55078 0.042969 0.79297 0.066406 1 0.050782 0.38281 0.089844 0.53125 0.12109 0.67969 0.058594 0.27344 0.10156 0.42188 0.14453 0.59375 0.089843 0.30859 0.1875 0.63672 0.3125 1.0391 0.48047 1.5195 1.3711 4.0781 2.75 7.4883 2.4102 5.9727 6.2969 14.492 11.953 23.992 8.4883 14.238 20.953 30.707 38.539 43.789 8.793 6.5312 18.871 12.199 30.309 16.219 11.434 4.0312 24.219 6.4023 38.309 6.4023 1.5742 0 3.1602-0.03125 4.7656-0.089843 4.1406-0.16016 7.3711-3.6328 7.2188-7.7734-0.15234-4.1367-3.6328-7.3789-7.7695-7.2188-1.4219 0.050781-2.8242 0.082031-4.2148 0.082031-10.039-0.011718-19.172-1.3633-27.523-3.7109-14.605-4.1094-26.871-11.301-37.168-19.91-15.434-12.902-26.34-29.039-33.285-42.02-3.4766-6.4922-5.9688-12.18-7.5703-16.23-0.79688-2.0195-1.3789-3.6406-1.7422-4.7188-0.17969-0.54297-0.30859-0.95312-0.375-1.1719l-0.035156-0.12109-0.003906-0.019531-0.003907-0.007813-3.8789 1.0391 3.9219-0.87109c-0.03125-0.12891-0.039062-0.16016-0.042969-0.16797l-3.8789 1.0391 3.9219-0.87109-6.4492 1.4219 6.5117-1.0703c-0.027344-0.17969-0.046875-0.28125-0.0625-0.35156l-6.4492 1.4219 6.5117-1.0703-7.0977 1.168 7.1523-0.78906c-0.019532-0.17969-0.039063-0.28906-0.054688-0.37891l-7.0977 1.168 7.1523-0.78906-7.3516 0.80859h7.3945c0-0.41016-0.023437-0.63672-0.042968-0.80859l-7.3516 0.80859h7.3945-7.4648l7.4258 0.79297c0.035156-0.33984 0.039062-0.58984 0.039062-0.79297h-7.4648l7.4258 0.79297-7.4453-0.79297 7.2734 1.7734c0.10156-0.42188 0.14453-0.73047 0.17188-0.98047l-7.4453-0.79297 7.2734 1.7734-7.2773-1.7734 6.9023 2.9023c0.19141-0.46094 0.29688-0.82031 0.375-1.1289l-7.2773-1.7734 6.9023 2.9023-6.9102-2.9102 5.0859 5.5078c1.0664-1 1.5352-1.9297 1.8242-2.5977l-6.9102-2.9102 5.0859 5.5078-5.0859-5.5078 3.0703 6.8398c0.80078-0.35156 1.4883-0.83984 2.0156-1.332l-5.0859-5.5078 3.0703 6.8398-3.0703-6.8398 0.53516 7.4805c0.83984-0.0625 1.7383-0.28125 2.5352-0.64062l-3.0703-6.8398 0.53516 7.4805c4.1289-0.29297 7.2422-3.8828 6.9453-8.0117-0.29297-4.1406-3.8828-7.25-8.0156-6.9492"/>
 <path d="m378.08 1850.5c0.089844 0.45703 0.78906 3.8789 3.043 8.8086 1.6914 3.6992 4.2656 8.25 8.1133 13.008 5.7695 7.1328 14.457 14.703 27.047 20.363 12.594 5.668 29.004 9.4375 50.211 9.4375 1.4844 0 2.9961-0.019531 4.5273-0.058594 4.1406-0.10156 7.4141-3.5391 7.3164-7.6797-0.10156-4.1406-3.5391-7.4102-7.6836-7.3125-1.4141 0.03125-2.8008 0.050781-4.1602 0.050781-17.285 0-30.426-2.7188-40.438-6.6094-7.5117-2.918-13.277-6.5-17.77-10.199-6.7305-5.5508-10.617-11.41-12.844-15.82-1.1094-2.2109-1.793-4.0391-2.1875-5.2695-0.19922-0.60938-0.32422-1.0703-0.39062-1.3398-0.035157-0.12891-0.054688-0.21875-0.0625-0.26172l-0.003907-0.019531h-0.003906l-2.2656 0.46875 2.2695-0.45703-0.003906-0.011719-2.2656 0.46875 2.2695-0.45703-4.7773 0.95703 4.7812-0.9375-0.003907-0.019531-4.7773 0.95703 4.7812-0.9375-7.1562 1.4102 7.1602-1.3789-0.003906-0.03125-7.1562 1.4102 7.1602-1.3789c-0.78125-4.0703-4.7148-6.7305-8.7812-5.9531-4.0664 0.79297-6.7305 4.7227-5.9453 8.793"/>
 <path d="m259.84 1586.7-4.6836-5.6484 2.2695 6.9805c0.82812-0.26953 1.6953-0.73047 2.4141-1.332l-4.6836-5.6484 2.2695 6.9805-2.25-6.9297v7.2773c0.64062 0.011718 1.418-0.078126 2.25-0.34766l-2.25-6.9297v7.2773-7.0586l-2.1914 6.7188c0.49609 0.16016 1.1797 0.33984 2.1914 0.33984v-7.0586l-2.1914 6.7188 2.0117-6.1797-3.0078 5.7617c0.23047 0.12109 0.53516 0.26953 0.99609 0.41797l2.0117-6.1797-3.0078 5.7617 2.2734-4.3516-2.9531 3.9297c0.09375 0.070312 0.25781 0.20312 0.67969 0.42188l2.2734-4.3516-2.9531 3.9297 1.2188-1.6172-1.2891 1.5703 0.070313 0.046875 1.2188-1.6172-1.2891 1.5703 0.17578-0.22266-0.17969 0.22266h0.003906l0.17578-0.22266-0.17969 0.22266c0.015625 0.007813 0.16016 0.12891 0.35938 0.33984 0.30469 0.29688 0.74219 0.76953 1.2539 1.3398 0.50781 0.57813 1.0938 1.2578 1.7266 2.0195 12.238 14.68 30.242 23.109 49.102 23.109 2.8906 0 5.7969-0.19922 8.707-0.60156l57.773-8.0078c11.652-1.6211 22.941-5.2227 33.371-10.652l52.484-27.32c3.6719-1.9102 5.1016-6.4375 3.1875-10.109-1.9102-3.6797-6.4414-5.0977-10.113-3.1875l-52.48 27.309c-8.9141 4.6406-18.555 7.7188-28.508 9.1016l-57.773 8.0078c-2.2227 0.30859-4.4414 0.46094-6.6484 0.46094-14.379 0-28.176-6.4297-37.578-17.711-1.3594-1.6289-2.5742-3.0195-3.7188-4.1914-0.58984-0.58984-1.1367-1.1289-1.8789-1.707-0.38672-0.30078-0.8125-0.62109-1.5039-0.99219-0.35156-0.17969-0.77344-0.39062-1.3672-0.57812-0.59375-0.19141-1.3633-0.39062-2.4531-0.40234-0.69141 0-1.5156 0.10156-2.3867 0.38281-0.87109 0.27734-1.7734 0.75781-2.5234 1.3906-3.1914 2.6484-3.6289 7.3672-0.98828 10.559 2.6445 3.1914 7.375 3.6289 10.562 0.98828"/>
 <path d="m277 1600.3-34.617 92.719c-3.9531 10.59-9.5508 20.488-16.594 29.328l-17.273 21.684c-2.582 3.2383-2.0469 7.957 1.1914 10.539 3.2383 2.5781 7.957 2.0391 10.539-1.1992l17.273-21.68c8.0273-10.07 14.41-21.352 18.914-33.422l34.617-92.719c1.4492-3.8828-0.52344-8.2031-4.4023-9.6523-3.8828-1.4492-8.2031 0.51953-9.6484 4.4023"/>
 <path d="m378.2 1596.1 14.32 53.57c5.3164 19.887 18.598 36.707 36.715 46.488l27.777 14.992c3.6445 1.9688 8.1953 0.60938 10.164-3.043 1.9648-3.6406 0.60547-8.1875-3.0391-10.16l-27.777-14.988c-14.484-7.8203-25.102-21.262-29.348-37.16l-14.32-53.582c-1.0703-4-5.1797-6.3672-9.1836-5.2969-4 1.0703-6.375 5.1797-5.3086 9.1797"/>
 <path d="m235.12 1716.9c0.16406 0.23047 6.375 9.5234 16.141 19.602 4.8906 5.0508 10.668 10.301 17.164 14.73 3.25 2.2109 6.6836 4.2109 10.297 5.8477 3.6172 1.6406 7.4219 2.9336 11.398 3.6406 4.0781 0.73047 7.9727-1.9805 8.7031-6.0586 0.73047-4.082-1.9805-7.9805-6.0586-8.7109-2.5234-0.44922-5.1602-1.3086-7.8398-2.5273-4.6914-2.1211-9.4844-5.3438-13.941-9.0312-6.6992-5.5312-12.645-12.07-16.836-17.18-2.0977-2.5625-3.7656-4.7617-4.8945-6.3125-0.5625-0.76953-0.99219-1.3672-1.2773-1.7773-0.14062-0.19922-0.24609-0.35156-0.3125-0.44922l-0.066406-0.10156-0.011718-0.019531-1.2969 0.87109 1.2969-0.87109-1.2969 0.87109 1.2969-0.87109c-2.3047-3.4414-6.9648-4.3594-10.406-2.0625-3.4414 2.3125-4.3633 6.9727-2.0586 10.41"/>
 <path d="m379.59 1736.6c0.54297-0.37891 6.957-4.9688 14.742-15.359 7.7852-10.391 16.914-26.59 22.871-49.969 1.0234-4.0117-1.3984-8.1016-5.4141-9.1211-4.0117-1.0195-8.0938 1.4023-9.1172 5.4102-5.4766 21.441-13.668 35.762-20.348 44.68-3.3398 4.4609-6.3047 7.5703-8.3711 9.5195-1.0312 0.97266-1.8398 1.6523-2.3516 2.0703-0.25781 0.21094-0.44531 0.35156-0.54687 0.42969l-0.089844 0.070312 0.14062 0.19141-0.14062-0.19922v0.007812l0.14062 0.19141-0.14062-0.19922 2.9141 4.0977-2.8789-4.1172-0.035156 0.019531 2.9141 4.0977-2.8789-4.1172c-3.3984 2.3672-4.2266 7.0469-1.8555 10.438 2.3711 3.4023 7.0469 4.2305 10.445 1.8594"/>
 <path d="m178.88 1701.5-7.5 0.10156c0.007813 0.44922 0.09375 4.418 1.5586 10.281 1.0977 4.3867 2.9766 9.8398 6.2266 15.59 2.4375 4.3086 5.6484 8.7891 9.8516 13.047 6.3008 6.4023 14.84 12.293 26.07 16.5 11.23 4.2109 25.113 6.7617 42.238 6.7617 24.254-0.011718 55.035-5.0898 94.52-17.941 50-16.289 88.754-28.367 119.1-36.328 15.168-3.9805 28.227-6.9219 39.504-8.8711 11.273-1.9414 20.758-2.8711 28.754-2.8711 5.5352 0 10.355 0.44141 14.598 1.2695 6.3633 1.2617 11.426 3.3516 15.949 6.3008 4.5117 2.9727 8.5391 6.8594 12.496 11.949 3.6758 4.7305 6.2461 9.4531 7.9062 14.102 1.6562 4.6406 2.4141 9.2109 2.4141 13.672 0 5.3867-1.1133 10.629-3.1992 15.598-3.1328 7.4609-8.4961 14.289-15.555 19.723-7.0547 5.4297-15.777 9.4297-25.52 11.258l1.3828 7.3711 7.4883 0.39062c0.007813-0.11328 0.054688-1.0508 0.054688-2.6016 0-2.3594-0.10547-6.1289-0.65625-10.551-0.41406-3.3281-1.0781-7.0195-2.1719-10.801-0.82812-2.8281-1.8945-5.7188-3.3281-8.5195-1.0742-2.0977-2.3594-4.1602-3.918-6.0898-2.3281-2.8906-5.3125-5.5078-8.9805-7.3477-3.6562-1.8516-7.9492-2.8711-12.566-2.8594-3.1367 0-6.4297 0.44922-9.8789 1.3477-4.5195 1.1719-10.289 2.8594-17 4.9297-11.742 3.6211-26.34 8.4219-41.668 13.582-45.977 15.488-98.484 34.277-98.508 34.289l-0.15625 0.050782-0.14844 0.070312 0.5625 1.3672-0.5625-1.3789v0.011718l0.5625 1.3672-0.5625-1.3789c-0.13672 0.058593-12.043 4.8906-30.625 9.6719-18.582 4.7891-43.848 9.5195-70.605 9.5195-16.523 0-33.602-1.8008-50.051-6.4102-16.461-4.6211-32.281-12.012-46.52-23.262l0.011718 0.011719c-5.207-4.1523-8.7539-9.0391-11.105-14.539-2.3438-5.5-3.4492-11.641-3.4492-18.031s1.1094-13 3.0938-19.281c1.4844-4.7188 3.457-9.2383 5.7773-13.34 3.4648-6.1602 7.7266-11.328 12.074-14.828 2.168-1.75 4.3477-3.082 6.4297-3.9805 2.0859-0.89063 4.0547-1.3516 5.9258-1.4297l-0.3125-7.4922-7.5 0.10156 7.5-0.10156-0.3125-7.4883c-3.4688 0.14062-6.8438 0.91016-10.031 2.1484-5.582 2.1719-10.613 5.7227-15.098 10.121-6.7109 6.6211-12.246 15.211-16.215 24.781-3.9531 9.5703-6.3242 20.148-6.3281 30.789 0 8.0977 1.3906 16.258 4.6406 23.91 3.2422 7.6289 8.3945 14.711 15.59 20.41l0.007812 0.007812c15.98 12.633 33.707 20.871 51.773 25.93 18.07 5.0625 36.492 6.9727 54.098 6.9727 28.738-0.011719 55.316-5.0703 74.801-10.109 19.48-5.0508 31.863-10.09 32.098-10.191l-2.8359-6.9414 2.5312 7.0625s0.46875-0.17188 1.3711-0.49219c6.7422-2.4102 37.391-13.32 70.383-24.68 16.496-5.6797 33.578-11.469 48.531-16.348 7.4766-2.4414 14.418-4.6602 20.477-6.5234 6.0547-1.8477 11.238-3.3594 15.121-4.3594 2.3906-0.62891 4.4141-0.86719 6.1133-0.86719 1.9805 0 3.5156 0.31641 4.8242 0.81641 1.1445 0.44141 2.1289 1.0234 3.0625 1.793 1.6211 1.3203 3.082 3.25 4.3008 5.668 1.8359 3.6211 3.0352 8.2812 3.668 12.551 0.64453 4.2812 0.76953 8.1719 0.76562 10.34 0 0.62109-0.007813 1.1016-0.019532 1.4219-0.003906 0.14844-0.007812 0.26953-0.007812 0.32812l-0.003906 0.070312v0.011719l4.1328 0.19922-4.1328-0.21094v0.011719l4.1328 0.19922-4.1328-0.21094-0.5 9.5195 9.3711-1.7578c16.062-3.0234 30.078-10.82 40.188-21.621 5.0508-5.4102 9.125-11.582 11.945-18.281 2.8203-6.7109 4.3789-13.961 4.375-21.418 0.003906-6.1797-1.0625-12.492-3.2891-18.723-2.2266-6.2305-5.6133-12.367-10.191-18.258-3.1367-4.0312-6.5-7.6797-10.234-10.859-5.5898-4.793-12.043-8.5-19.445-10.902-7.4102-2.4102-15.711-3.5508-25.203-3.5508-9.1484 0-19.438 1.0508-31.301 3.0898-17.797 3.0703-39.16 8.3906-65.496 15.992-26.332 7.5977-57.629 17.488-95.203 29.73-38.402 12.508-67.734 17.199-89.875 17.199-18.551-0.011718-32.02-3.2617-41.855-7.8594-7.3828-3.4492-12.762-7.6523-16.809-12.02-3.0312-3.2695-5.3086-6.6523-7.0312-9.9023-2.5898-4.8594-3.918-9.4297-4.582-12.711-0.33594-1.6367-0.50391-2.957-0.58984-3.8164-0.042969-0.43359-0.0625-0.74219-0.070312-0.93359-0.003907-0.089844-0.007813-0.14844-0.007813-0.17969v-0.007813l-3.0508 0.070313 3.0508-0.050782v-0.019531l-3.0508 0.070313 3.0508-0.050782-4.8516 0.089844 4.8516-0.089844-4.8516 0.089844 4.8516-0.089844-7.2422 0.12891 7.2422-0.097656v-0.03125l-7.2422 0.12891 7.2422-0.097656-0.10938-7.7227-7.7031 0.33203 0.3125 7.4883"/>
</svg>
