<svg height="200px" width="200px" version="1.1" id="Layer_1" xmlns="http://www.w3.org/2000/svg" xmlns:xlink="http://www.w3.org/1999/xlink" viewBox="0 0 512 512" xml:space="preserve" fill="#000000"><g id="SVGRepo_bgCarrier" stroke-width="0"></g><g id="SVGRepo_tracerCarrier" stroke-linecap="round" stroke-linejoin="round"></g><g id="SVGRepo_iconCarrier"> <g> <path style="fill:#0767b0;" d="M475.429,512H36.571C16.375,512,0,495.625,0,475.429V36.571C0,16.375,16.375,0,36.571,0h438.857 C495.625,0,512,16.375,512,36.571v438.857C512,495.625,495.625,512,475.429,512"></path> <g> <path style="fill:#3e8ff9;" d="M59.426,457.143c-2.521,0-4.571-2.051-4.571-4.571V173.714c0-5.049-4.093-9.143-9.143-9.143 s-9.143,4.093-9.143,9.143v278.857c0,12.62,10.237,22.857,22.857,22.857h324.571c5.049,0,9.143-4.093,9.143-9.143 s-4.093-9.143-9.143-9.143H59.426z"></path> <path style="fill:#3e8ff9;" d="M54.857,59.43c0-2.526,2.047-4.571,4.571-4.571h393.143c2.525,0,4.571,2.046,4.571,4.571v393.143 c0,2.521-2.051,4.571-4.571,4.571h-32c-5.049,0-9.143,4.093-9.143,9.143c0,5.049,4.093,9.143,9.143,9.143h32 c12.62,0,22.857-10.237,22.857-22.857V59.43c0-12.627-10.235-22.857-22.857-22.857H59.429c-12.622,0-22.857,10.23-22.857,22.857 v41.143c0,5.049,4.093,9.143,9.143,9.143s9.143-4.093,9.143-9.143V59.43z"></path> <path style="fill:#3e8ff9;" d="M54.857,137.143c0-5.047-4.096-9.143-9.143-9.143s-9.143,4.096-9.143,9.143 s4.096,9.143,9.143,9.143S54.857,142.19,54.857,137.143"></path> </g> <g> <path style="fill:#FFFFFF;" d="M182.857,146.286c0-20.197-16.375-36.571-36.571-36.571s-36.571,16.375-36.571,36.571 s16.375,36.571,36.571,36.571S182.857,166.482,182.857,146.286"></path> <path style="fill:#FFFFFF;" d="M402.286,365.714c0-20.197-16.375-36.571-36.571-36.571s-36.571,16.375-36.571,36.571 s16.375,36.571,36.571,36.571S402.286,385.911,402.286,365.714"></path> <path style="fill:#FFFFFF;" d="M292.571,256c0-20.197-16.375-36.571-36.571-36.571c-20.197,0-36.571,16.375-36.571,36.571 c0,20.197,16.375,36.571,36.571,36.571C276.197,292.571,292.571,276.197,292.571,256"></path> </g> </g> </g></svg>